<?xml version="1.0" encoding="UTF-8" standalone="no"?>
<!DOCTYPE svg PUBLIC "-//W3C//DTD SVG 1.1//EN"
 "http://www.w3.org/Graphics/SVG/1.1/DTD/svg11.dtd">
<!-- Generated by graphviz version 2.30.1 (20130214.1330)
 -->
<!-- Title: calc Pages: 1 -->
<svg width="815pt" height="410pt"
 viewBox="0.00 0.00 815.00 410.00" xmlns="http://www.w3.org/2000/svg" xmlns:xlink="http://www.w3.org/1999/xlink">
<g id="graph0" class="graph" transform="scale(1 1) rotate(0) translate(4 406)">
<title>calc</title>
<polygon fill="white" stroke="white" points="-4,5 -4,-406 812,-406 812,5 -4,5"/>
<g id="clust4" class="cluster"><title>cluster_cs</title>
<polygon fill="none" stroke="black" points="142,-8 142,-100 264,-100 264,-8 142,-8"/>
<text text-anchor="middle" x="203" y="-88" font-family="Helvetica,sans-Serif" font-size="10.00">crosssec.c</text>
</g>
<g id="clust5" class="cluster"><title>cluster_ocl</title>
<polygon fill="none" stroke="black" points="424,-263 424,-355 498,-355 498,-263 424,-263"/>
<text text-anchor="middle" x="461" y="-343" font-family="Helvetica,sans-Serif" font-size="10.00">oclcore.c</text>
</g>
<g id="clust3" class="cluster"><title>cluster_inter</title>
<polygon fill="none" stroke="black" points="535,-263 535,-392 769,-392 769,-263 535,-263"/>
<text text-anchor="middle" x="652" y="-380" font-family="Helvetica,sans-Serif" font-size="10.00">interaction.c</text>
</g>
<g id="clust6" class="cluster"><title>cluster_romberg</title>
<polygon fill="none" stroke="black" points="161,-108 161,-163 245,-163 245,-108 161,-108"/>
<text text-anchor="middle" x="203" y="-151" font-family="Helvetica,sans-Serif" font-size="10.00">Romberg.c</text>
</g>
<g id="clust7" class="cluster"><title>cluster_cisi</title>
<polygon fill="none" stroke="black" points="703,-200 703,-255 751,-255 751,-200 703,-200"/>
<text text-anchor="middle" x="727" y="-243" font-family="Helvetica,sans-Serif" font-size="10.00">sinint.c</text>
</g>
<g id="clust8" class="cluster"><title>cluster_igt</title>
<polygon fill="none" stroke="black" points="655,-137 655,-192 799,-192 799,-137 655,-137"/>
<text text-anchor="middle" x="727" y="-180" font-family="Helvetica,sans-Serif" font-size="10.00">propaesplibreintadda.f</text>
</g>
<g id="clust10" class="cluster"><title>cluster_comm</title>
<polygon fill="none" stroke="black" points="522,-26 522,-81 646,-81 646,-26 522,-26"/>
<text text-anchor="middle" x="584" y="-69" font-family="Helvetica,sans-Serif" font-size="10.00">comm.c</text>
</g>
<g id="clust1" class="cluster"><title>cluster_calc</title>
<polygon fill="none" stroke="black" points="8,-302 8,-394 391,-394 391,-302 8,-302"/>
<text text-anchor="middle" x="199.5" y="-382" font-family="Helvetica,sans-Serif" font-size="10.00">calculator.c</text>
</g>
<g id="clust2" class="cluster"><title>cluster_fft</title>
<polygon fill="none" stroke="black" points="409,-89 409,-255 637,-255 637,-89 409,-89"/>
<text text-anchor="middle" x="523" y="-243" font-family="Helvetica,sans-Serif" font-size="10.00">fft.c</text>
</g>
<g id="clust9" class="cluster"><title>cluster_calcE</title>
<polygon fill="none" stroke="black" points="284,-239 284,-294 400,-294 400,-239 284,-239"/>
<text text-anchor="middle" x="342" y="-282" font-family="Helvetica,sans-Serif" font-size="10.00">CalculateE.c</text>
</g>
<!-- Calculator -->
<g id="node1" class="node"><title>Calculator</title>
<polygon fill="gold" stroke="gold" points="95,-366.5 35,-366.5 35,-347.5 95,-347.5 95,-366.5"/>
<text text-anchor="middle" x="65" y="-354.5" font-family="Helvetica,sans-Serif" font-size="10.00">Calculator</text>
</g>
<!-- oclinit -->
<g id="node18" class="node"><title>oclinit</title>
<polygon fill="none" stroke="black" points="482,-290.5 440,-290.5 440,-271.5 482,-271.5 482,-290.5"/>
<text text-anchor="middle" x="461" y="-278.5" font-family="Helvetica,sans-Serif" font-size="10.00">oclinit</text>
</g>
<!-- Calculator&#45;&gt;oclinit -->
<g id="edge7" class="edge"><title>Calculator&#45;&gt;oclinit</title>
<path fill="none" stroke="red" stroke-width="2" d="M95.1918,-348.67C101.796,-345.941 108.48,-342.434 114,-338 129.472,-325.571 123.845,-313.814 139,-301 193.07,-255.284 214.802,-250.008 284,-235 334.384,-224.073 357.625,-205.634 400,-235 409.363,-241.489 401.142,-250.752 409,-259 414.799,-265.087 422.564,-269.58 430.282,-272.858"/>
<polygon fill="red" stroke="red" points="429.29,-276.222 439.883,-276.39 431.706,-269.653 429.29,-276.222"/>
</g>
<!-- AllocateEverything -->
<g id="node2" class="node"><title>AllocateEverything</title>
<polygon fill="none" stroke="black" points="113.5,-329.5 16.5,-329.5 16.5,-310.5 113.5,-310.5 113.5,-329.5"/>
<text text-anchor="middle" x="65" y="-317.5" font-family="Helvetica,sans-Serif" font-size="10.00">AllocateEverything</text>
</g>
<!-- calculate_one_orientation -->
<g id="node4" class="node"><title>calculate_one_orientation</title>
<polygon fill="cyan" stroke="cyan" points="266.5,-329.5 139.5,-329.5 139.5,-310.5 266.5,-310.5 266.5,-329.5"/>
<text text-anchor="middle" x="203" y="-317.5" font-family="Helvetica,sans-Serif" font-size="10.00">calculate_one_orientation</text>
</g>
<!-- AllocateEverything&#45;&gt;calculate_one_orientation -->
<g id="edge11" class="edge"><title>AllocateEverything&#45;&gt;calculate_one_orientation</title>
<path fill="none" stroke="red" stroke-width="2" d="M113.566,-320C118.607,-320 123.814,-320 129.059,-320"/>
<polygon fill="red" stroke="red" points="129.163,-323.5 139.163,-320 129.163,-316.5 129.163,-323.5"/>
</g>
<!-- Romberg2D -->
<g id="node20" class="node"><title>Romberg2D</title>
<polygon fill="none" stroke="black" points="237,-135.5 169,-135.5 169,-116.5 237,-116.5 237,-135.5"/>
<text text-anchor="middle" x="203" y="-123.5" font-family="Helvetica,sans-Serif" font-size="10.00">Romberg2D</text>
</g>
<!-- AllocateEverything&#45;&gt;Romberg2D -->
<g id="edge13" class="edge"><title>AllocateEverything&#45;&gt;Romberg2D</title>
<path fill="none" stroke="red" stroke-dasharray="5,2" d="M68.4819,-310.736C75.6799,-285.27 98.6567,-213.042 139,-167 148.433,-156.235 161.347,-147.168 173.028,-140.321"/>
<polygon fill="red" stroke="red" points="174.998,-143.23 182.041,-135.315 171.6,-137.11 174.998,-143.23"/>
</g>
<!-- ReadScatGridParms -->
<g id="node16" class="node"><title>ReadScatGridParms</title>
<polygon fill="none" stroke="black" points="256,-72.5 150,-72.5 150,-53.5 256,-53.5 256,-72.5"/>
<text text-anchor="middle" x="203" y="-60.5" font-family="Helvetica,sans-Serif" font-size="10.00">ReadScatGridParms</text>
</g>
<!-- AllocateEverything&#45;&gt;ReadScatGridParms -->
<g id="edge17" class="edge"><title>AllocateEverything&#45;&gt;ReadScatGridParms</title>
<path fill="none" stroke="midnightblue" d="M67.003,-310.327C70.7991,-277.89 86.8283,-171.238 139,-104 147.585,-92.936 160.043,-83.9433 171.618,-77.2295"/>
<polygon fill="midnightblue" stroke="midnightblue" points="173.505,-80.1874 180.621,-72.3378 170.163,-74.0367 173.505,-80.1874"/>
</g>
<!-- ReadAlldirParms -->
<g id="node17" class="node"><title>ReadAlldirParms</title>
<polygon fill="none" stroke="black" points="247.5,-35.5 158.5,-35.5 158.5,-16.5 247.5,-16.5 247.5,-35.5"/>
<text text-anchor="middle" x="203" y="-23.5" font-family="Helvetica,sans-Serif" font-size="10.00">ReadAlldirParms</text>
</g>
<!-- AllocateEverything&#45;&gt;ReadAlldirParms -->
<g id="edge18" class="edge"><title>AllocateEverything&#45;&gt;ReadAlldirParms</title>
<path fill="none" stroke="midnightblue" d="M67.2348,-310.59C73.1549,-266.846 99.9626,-83.8152 139,-44 142.001,-40.9389 145.484,-38.3889 149.242,-36.266"/>
<polygon fill="midnightblue" stroke="midnightblue" points="150.79,-39.4068 158.412,-32.0479 147.864,-33.0473 150.79,-39.4068"/>
</g>
<!-- FreeEverything -->
<g id="node3" class="node"><title>FreeEverything</title>
<polygon fill="none" stroke="black" points="382.5,-329.5 301.5,-329.5 301.5,-310.5 382.5,-310.5 382.5,-329.5"/>
<text text-anchor="middle" x="342" y="-317.5" font-family="Helvetica,sans-Serif" font-size="10.00">FreeEverything</text>
</g>
<!-- oclunload -->
<g id="node19" class="node"><title>oclunload</title>
<polygon fill="none" stroke="black" points="490,-327.5 432,-327.5 432,-308.5 490,-308.5 490,-327.5"/>
<text text-anchor="middle" x="461" y="-315.5" font-family="Helvetica,sans-Serif" font-size="10.00">oclunload</text>
</g>
<!-- FreeEverything&#45;&gt;oclunload -->
<g id="edge19" class="edge"><title>FreeEverything&#45;&gt;oclunload</title>
<path fill="none" stroke="midnightblue" d="M382.611,-319.323C395.248,-319.107 409.203,-318.868 421.742,-318.654"/>
<polygon fill="midnightblue" stroke="midnightblue" points="421.944,-322.151 431.883,-318.481 421.824,-315.152 421.944,-322.151"/>
</g>
<!-- Free_FFT_Dmat -->
<g id="node10" class="node"><title>Free_FFT_Dmat</title>
<polygon fill="none" stroke="black" points="504.5,-227.5 417.5,-227.5 417.5,-208.5 504.5,-208.5 504.5,-227.5"/>
<text text-anchor="middle" x="461" y="-215.5" font-family="Helvetica,sans-Serif" font-size="10.00">Free_FFT_Dmat</text>
</g>
<!-- FreeEverything&#45;&gt;Free_FFT_Dmat -->
<g id="edge20" class="edge"><title>FreeEverything&#45;&gt;Free_FFT_Dmat</title>
<path fill="none" stroke="midnightblue" d="M382.424,-310.647C389.036,-307.554 395.273,-303.448 400,-298 411.658,-284.563 399.547,-274.07 409,-259 415.471,-248.684 425.464,-239.819 434.895,-232.999"/>
<polygon fill="midnightblue" stroke="midnightblue" points="436.959,-235.828 443.281,-227.326 433.037,-230.03 436.959,-235.828"/>
</g>
<!-- FreeInteraction -->
<g id="node13" class="node"><title>FreeInteraction</title>
<polygon fill="none" stroke="black" points="624.5,-364.5 543.5,-364.5 543.5,-345.5 624.5,-345.5 624.5,-364.5"/>
<text text-anchor="middle" x="584" y="-352.5" font-family="Helvetica,sans-Serif" font-size="10.00">FreeInteraction</text>
</g>
<!-- FreeEverything&#45;&gt;FreeInteraction -->
<g id="edge21" class="edge"><title>FreeEverything&#45;&gt;FreeInteraction</title>
<path fill="none" stroke="midnightblue" d="M354.288,-329.26C366.781,-338.857 387.945,-353.244 409,-359 449.721,-370.132 497.818,-367.922 533.113,-363.618"/>
<polygon fill="midnightblue" stroke="midnightblue" points="533.714,-367.069 543.171,-362.293 532.8,-360.129 533.714,-367.069"/>
</g>
<!-- calculate_one_orientation&#45;&gt;FreeEverything -->
<g id="edge12" class="edge"><title>calculate_one_orientation&#45;&gt;FreeEverything</title>
<path fill="none" stroke="red" stroke-width="2" d="M266.886,-320C275.005,-320 283.23,-320 291.101,-320"/>
<polygon fill="red" stroke="red" points="291.204,-323.5 301.204,-320 291.204,-316.5 291.204,-323.5"/>
</g>
<!-- SaveMuellerAndCS -->
<g id="node23" class="node"><title>SaveMuellerAndCS</title>
<polygon fill="none" stroke="black" points="392,-266.5 292,-266.5 292,-247.5 392,-247.5 392,-266.5"/>
<text text-anchor="middle" x="342" y="-254.5" font-family="Helvetica,sans-Serif" font-size="10.00">SaveMuellerAndCS</text>
</g>
<!-- calculate_one_orientation&#45;&gt;SaveMuellerAndCS -->
<g id="edge15" class="edge"><title>calculate_one_orientation&#45;&gt;SaveMuellerAndCS</title>
<path fill="none" stroke="red" stroke-dasharray="5,2" d="M224.215,-310.704C247.284,-300.096 285.219,-282.651 311.568,-270.534"/>
<polygon fill="red" stroke="red" points="313.079,-273.692 320.702,-266.334 310.155,-267.332 313.079,-273.692"/>
</g>
<!-- InitDmatrix -->
<g id="node5" class="node"><title>InitDmatrix</title>
<polygon fill="none" stroke="black" points="492.5,-190.5 429.5,-190.5 429.5,-171.5 492.5,-171.5 492.5,-190.5"/>
<text text-anchor="middle" x="461" y="-178.5" font-family="Helvetica,sans-Serif" font-size="10.00">InitDmatrix</text>
</g>
<!-- fftInitBeforeD -->
<g id="node6" class="node"><title>fftInitBeforeD</title>
<polygon fill="none" stroke="black" points="619.5,-116.5 548.5,-116.5 548.5,-97.5 619.5,-97.5 619.5,-116.5"/>
<text text-anchor="middle" x="584" y="-104.5" font-family="Helvetica,sans-Serif" font-size="10.00">fftInitBeforeD</text>
</g>
<!-- InitDmatrix&#45;&gt;fftInitBeforeD -->
<g id="edge1" class="edge"><title>InitDmatrix&#45;&gt;fftInitBeforeD</title>
<path fill="none" stroke="midnightblue" d="M469.536,-171.656C480.03,-159.242 500.224,-137.438 522,-125 527.16,-122.053 532.845,-119.55 538.608,-117.434"/>
<polygon fill="midnightblue" stroke="midnightblue" points="539.905,-120.691 548.3,-114.228 537.707,-114.045 539.905,-120.691"/>
</g>
<!-- fft[X,Y,Z]_Dm -->
<g id="node7" class="node"><title>fft[X,Y,Z]_Dm</title>
<polygon fill="none" stroke="black" points="621,-153.5 547,-153.5 547,-134.5 621,-134.5 621,-153.5"/>
<text text-anchor="middle" x="584" y="-141.5" font-family="Helvetica,sans-Serif" font-size="10.00">fft[X,Y,Z]_Dm</text>
</g>
<!-- InitDmatrix&#45;&gt;fft[X,Y,Z]_Dm -->
<g id="edge2" class="edge"><title>InitDmatrix&#45;&gt;fft[X,Y,Z]_Dm</title>
<path fill="none" stroke="midnightblue" d="M490.956,-171.704C500.796,-168.578 511.865,-165.1 522,-162 528.167,-160.114 534.695,-158.151 541.099,-156.246"/>
<polygon fill="midnightblue" stroke="midnightblue" points="542.395,-159.512 550.989,-153.317 540.407,-152.8 542.395,-159.512"/>
</g>
<!-- TranposeYZ_Dm -->
<g id="node8" class="node"><title>TranposeYZ_Dm</title>
<polygon fill="none" stroke="black" points="628.5,-190.5 539.5,-190.5 539.5,-171.5 628.5,-171.5 628.5,-190.5"/>
<text text-anchor="middle" x="584" y="-178.5" font-family="Helvetica,sans-Serif" font-size="10.00">TranposeYZ_Dm</text>
</g>
<!-- InitDmatrix&#45;&gt;TranposeYZ_Dm -->
<g id="edge3" class="edge"><title>InitDmatrix&#45;&gt;TranposeYZ_Dm</title>
<path fill="none" stroke="midnightblue" d="M492.533,-181C503.582,-181 516.414,-181 528.881,-181"/>
<polygon fill="midnightblue" stroke="midnightblue" points="529.22,-184.5 539.22,-181 529.22,-177.5 529.22,-184.5"/>
</g>
<!-- fftInitAfterD -->
<g id="node9" class="node"><title>fftInitAfterD</title>
<polygon fill="none" stroke="black" points="616,-227.5 552,-227.5 552,-208.5 616,-208.5 616,-227.5"/>
<text text-anchor="middle" x="584" y="-215.5" font-family="Helvetica,sans-Serif" font-size="10.00">fftInitAfterD</text>
</g>
<!-- InitDmatrix&#45;&gt;fftInitAfterD -->
<g id="edge4" class="edge"><title>InitDmatrix&#45;&gt;fftInitAfterD</title>
<path fill="none" stroke="midnightblue" d="M492.533,-190.337C507.723,-194.982 526.285,-200.657 542.633,-205.656"/>
<polygon fill="midnightblue" stroke="midnightblue" points="541.89,-209.089 552.476,-208.666 543.937,-202.395 541.89,-209.089"/>
</g>
<!-- InitDmatrix&#45;&gt;AllocateEverything -->
<g id="edge10" class="edge"><title>InitDmatrix&#45;&gt;AllocateEverything</title>
<path fill="none" stroke="red" stroke-width="2" d="M429.457,-179.65C369.648,-178.36 234.596,-182.211 139,-236 111.072,-251.714 88.6901,-282.326 76.3907,-301.935"/>
<polygon fill="red" stroke="red" points="73.3535,-300.194 71.1827,-310.564 79.3465,-303.812 73.3535,-300.194"/>
</g>
<!-- CalcInterTerm -->
<g id="node15" class="node"><title>CalcInterTerm</title>
<polygon fill="none" stroke="black" points="622.5,-290.5 545.5,-290.5 545.5,-271.5 622.5,-271.5 622.5,-290.5"/>
<text text-anchor="middle" x="584" y="-278.5" font-family="Helvetica,sans-Serif" font-size="10.00">CalcInterTerm</text>
</g>
<!-- InitDmatrix&#45;&gt;CalcInterTerm -->
<g id="edge23" class="edge"><title>InitDmatrix&#45;&gt;CalcInterTerm</title>
<path fill="none" stroke="midnightblue" d="M492.921,-189.875C497.434,-192.253 501.672,-195.245 505,-199 523.384,-219.742 503.1,-238.727 522,-259 526.033,-263.326 530.979,-266.802 536.294,-269.597"/>
<polygon fill="midnightblue" stroke="midnightblue" points="534.931,-272.821 545.491,-273.684 537.774,-266.424 534.931,-272.821"/>
</g>
<!-- BlockTranspose_Dm -->
<g id="node24" class="node"><title>BlockTranspose_Dm</title>
<polygon fill="none" stroke="black" points="637.5,-53.5 530.5,-53.5 530.5,-34.5 637.5,-34.5 637.5,-53.5"/>
<text text-anchor="middle" x="584" y="-41.5" font-family="Helvetica,sans-Serif" font-size="10.00">BlockTranspose_Dm</text>
</g>
<!-- InitDmatrix&#45;&gt;BlockTranspose_Dm -->
<g id="edge25" class="edge"><title>InitDmatrix&#45;&gt;BlockTranspose_Dm</title>
<path fill="none" stroke="midnightblue" d="M466.188,-171.657C474.702,-153.405 495.49,-112.405 522,-85 531.941,-74.724 544.865,-65.589 556.257,-58.5648"/>
<polygon fill="midnightblue" stroke="midnightblue" points="558.156,-61.5082 564.979,-53.4026 554.59,-55.4843 558.156,-61.5082"/>
</g>
<!-- InitInteraction -->
<g id="node11" class="node"><title>InitInteraction</title>
<polygon fill="none" stroke="black" points="621,-327.5 547,-327.5 547,-308.5 621,-308.5 621,-327.5"/>
<text text-anchor="middle" x="584" y="-315.5" font-family="Helvetica,sans-Serif" font-size="10.00">InitInteraction</text>
</g>
<!-- ReadTables -->
<g id="node12" class="node"><title>ReadTables</title>
<polygon fill="none" stroke="black" points="761,-327.5 693,-327.5 693,-308.5 761,-308.5 761,-327.5"/>
<text text-anchor="middle" x="727" y="-315.5" font-family="Helvetica,sans-Serif" font-size="10.00">ReadTables</text>
</g>
<!-- InitInteraction&#45;&gt;ReadTables -->
<g id="edge5" class="edge"><title>InitInteraction&#45;&gt;ReadTables</title>
<path fill="none" stroke="midnightblue" d="M621.311,-318C639.986,-318 662.883,-318 682.497,-318"/>
<polygon fill="midnightblue" stroke="midnightblue" points="682.711,-321.5 692.711,-318 682.711,-314.5 682.711,-321.5"/>
</g>
<!-- InitInteraction&#45;&gt;InitDmatrix -->
<g id="edge9" class="edge"><title>InitInteraction&#45;&gt;InitDmatrix</title>
<path fill="none" stroke="red" stroke-width="2" d="M546.971,-313.684C537.642,-310.888 528.426,-306.347 522,-299 492.32,-265.066 533.044,-234.298 505,-199 503.892,-197.606 502.658,-196.319 501.326,-195.13"/>
<polygon fill="red" stroke="red" points="503.078,-192.088 492.844,-189.344 499.133,-197.871 503.078,-192.088"/>
</g>
<!-- FreeTables -->
<g id="node14" class="node"><title>FreeTables</title>
<polygon fill="none" stroke="black" points="759.5,-364.5 694.5,-364.5 694.5,-345.5 759.5,-345.5 759.5,-364.5"/>
<text text-anchor="middle" x="727" y="-352.5" font-family="Helvetica,sans-Serif" font-size="10.00">FreeTables</text>
</g>
<!-- FreeInteraction&#45;&gt;FreeTables -->
<g id="edge6" class="edge"><title>FreeInteraction&#45;&gt;FreeTables</title>
<path fill="none" stroke="midnightblue" d="M624.652,-355C643.208,-355 665.316,-355 684.141,-355"/>
<polygon fill="midnightblue" stroke="midnightblue" points="684.218,-358.5 694.218,-355 684.218,-351.5 684.218,-358.5"/>
</g>
<!-- cisi -->
<g id="node21" class="node"><title>cisi</title>
<polygon fill="none" stroke="black" points="743,-227.5 711,-227.5 711,-208.5 743,-208.5 743,-227.5"/>
<text text-anchor="middle" x="727" y="-215.5" font-family="Helvetica,sans-Serif" font-size="10.00">cisi</text>
</g>
<!-- CalcInterTerm&#45;&gt;cisi -->
<g id="edge22" class="edge"><title>CalcInterTerm&#45;&gt;cisi</title>
<path fill="none" stroke="midnightblue" d="M613.231,-271.662C623.645,-267.998 635.468,-263.576 646,-259 665.203,-250.657 686.25,-239.798 701.934,-231.352"/>
<polygon fill="midnightblue" stroke="midnightblue" points="703.832,-234.304 710.942,-226.449 700.486,-228.156 703.832,-234.304"/>
</g>
<!-- propaespacelibreintadda_ -->
<g id="node22" class="node"><title>propaespacelibreintadda_</title>
<polygon fill="none" stroke="black" points="790.5,-164.5 663.5,-164.5 663.5,-145.5 790.5,-145.5 790.5,-164.5"/>
<text text-anchor="middle" x="727" y="-152.5" font-family="Helvetica,sans-Serif" font-size="10.00">propaespacelibreintadda_</text>
</g>
<!-- CalcInterTerm&#45;&gt;propaespacelibreintadda_ -->
<g id="edge24" class="edge"><title>CalcInterTerm&#45;&gt;propaespacelibreintadda_</title>
<path fill="none" stroke="midnightblue" d="M622.522,-274.483C631.41,-271.223 640.03,-266.334 646,-259 663.857,-237.065 639.158,-219.431 655,-196 663.147,-183.949 676.105,-174.986 688.733,-168.566"/>
<polygon fill="midnightblue" stroke="midnightblue" points="690.218,-171.735 697.797,-164.332 687.255,-165.393 690.218,-171.735"/>
</g>
<!-- oclinit&#45;&gt;InitInteraction -->
<g id="edge8" class="edge"><title>oclinit&#45;&gt;InitInteraction</title>
<path fill="none" stroke="red" stroke-width="2" d="M482.253,-287.193C498.788,-292.249 522.664,-299.55 543.023,-305.776"/>
<polygon fill="red" stroke="red" points="542.101,-309.154 552.687,-308.731 544.148,-302.46 542.101,-309.154"/>
</g>
<!-- Romberg2D&#45;&gt;calculate_one_orientation -->
<g id="edge14" class="edge"><title>Romberg2D&#45;&gt;calculate_one_orientation</title>
<path fill="none" stroke="red" stroke-dasharray="5,2" d="M203,-135.473C203,-190.437 203,-245.402 203,-300.366"/>
<polygon fill="red" stroke="red" points="199.5,-300.629 203,-310.629 206.5,-300.63 199.5,-300.629"/>
</g>
<!-- SaveMuellerAndCS&#45;&gt;FreeEverything -->
<g id="edge16" class="edge"><title>SaveMuellerAndCS&#45;&gt;FreeEverything</title>
<path fill="none" stroke="red" stroke-dasharray="5,2" d="M342,-266.352C342,-277.583 342,-288.814 342,-300.046"/>
<polygon fill="red" stroke="red" points="338.5,-300.36 342,-310.36 345.5,-300.36 338.5,-300.36"/>
</g>
</g>
</svg>
