<?xml version="1.0" encoding="UTF-8" standalone="no"?>
<!DOCTYPE svg PUBLIC "-//W3C//DTD SVG 1.1//EN"
 "http://www.w3.org/Graphics/SVG/1.1/DTD/svg11.dtd">
<!-- Generated by graphviz version 2.30.1 (20130214.1330)
 -->
<!-- Title: calcE Pages: 1 -->
<svg width="574pt" height="543pt"
 viewBox="0.00 0.00 574.00 543.00" xmlns="http://www.w3.org/2000/svg" xmlns:xlink="http://www.w3.org/1999/xlink">
<g id="graph0" class="graph" transform="scale(1 1) rotate(0) translate(4 539)">
<title>calcE</title>
<polygon fill="white" stroke="white" points="-4,5 -4,-539 571,-539 571,5 -4,5"/>
<g id="clust1" class="cluster"><title>cluster_calcE</title>
<polygon fill="none" stroke="black" points="8,-432 8,-527 554,-527 554,-432 8,-432"/>
<text text-anchor="middle" x="281" y="-515" font-family="Helvetica,sans-Serif" font-size="10.00">CalculateE.c</text>
</g>
<g id="clust3" class="cluster"><title>cluster_beam</title>
<polygon fill="none" stroke="black" points="98,-78 98,-133 178,-133 178,-78 98,-78"/>
<text text-anchor="middle" x="138" y="-121" font-family="Helvetica,sans-Serif" font-size="10.00">GenerateB.c</text>
</g>
<g id="clust4" class="cluster"><title>cluster_comm</title>
<polygon fill="none" stroke="black" points="475,-8 475,-100 551,-100 551,-8 475,-8"/>
<text text-anchor="middle" x="513" y="-88" font-family="Helvetica,sans-Serif" font-size="10.00">comm.c</text>
</g>
<g id="clust5" class="cluster"><title>cluster_cs</title>
<polygon fill="none" stroke="black" points="345,-171 345,-411 558,-411 558,-171 345,-171"/>
<text text-anchor="middle" x="451.5" y="-399" font-family="Helvetica,sans-Serif" font-size="10.00">crosssec.c</text>
</g>
<g id="clust6" class="cluster"><title>cluster_romberg</title>
<polygon fill="none" stroke="black" points="471,-108 471,-163 555,-163 555,-108 471,-108"/>
<text text-anchor="middle" x="513" y="-151" font-family="Helvetica,sans-Serif" font-size="10.00">Romberg.c</text>
</g>
<g id="clust2" class="cluster"><title>cluster_iter</title>
<polygon fill="none" stroke="black" points="216,-78 216,-133 308,-133 308,-78 216,-78"/>
<text text-anchor="middle" x="262" y="-121" font-family="Helvetica,sans-Serif" font-size="10.00">iterative.c</text>
</g>
<!-- CalculateE -->
<g id="node1" class="node"><title>CalculateE</title>
<polygon fill="gold" stroke="gold" points="80,-459.5 16,-459.5 16,-440.5 80,-440.5 80,-459.5"/>
<text text-anchor="middle" x="48" y="-447.5" font-family="Helvetica,sans-Serif" font-size="10.00">CalculateE</text>
</g>
<!-- StoreFields -->
<g id="node2" class="node"><title>StoreFields</title>
<polygon fill="none" stroke="black" points="546,-479.5 480,-479.5 480,-460.5 546,-460.5 546,-479.5"/>
<text text-anchor="middle" x="513" y="-467.5" font-family="Helvetica,sans-Serif" font-size="10.00">StoreFields</text>
</g>
<!-- CalculateE&#45;&gt;StoreFields -->
<g id="edge1" class="edge"><title>CalculateE&#45;&gt;StoreFields</title>
<path fill="none" stroke="midnightblue" d="M70.5741,-459.361C78.9817,-462.626 88.7946,-465.976 98,-468 251.475,-501.743 295.474,-510.468 451,-488 459.469,-486.777 468.4,-484.645 476.737,-482.266"/>
<polygon fill="midnightblue" stroke="midnightblue" points="477.991,-485.543 486.542,-479.287 475.956,-478.845 477.991,-485.543"/>
</g>
<!-- CalcEplane -->
<g id="node4" class="node"><title>CalcEplane</title>
<polygon fill="none" stroke="black" points="171,-459.5 105,-459.5 105,-440.5 171,-440.5 171,-459.5"/>
<text text-anchor="middle" x="138" y="-447.5" font-family="Helvetica,sans-Serif" font-size="10.00">CalcEplane</text>
</g>
<!-- CalculateE&#45;&gt;CalcEplane -->
<!-- GenerateB -->
<g id="node7" class="node"><title>GenerateB</title>
<polygon fill="none" stroke="black" points="169.5,-105.5 106.5,-105.5 106.5,-86.5 169.5,-86.5 169.5,-105.5"/>
<text text-anchor="middle" x="138" y="-93.5" font-family="Helvetica,sans-Serif" font-size="10.00">GenerateB</text>
</g>
<!-- CalculateE&#45;&gt;GenerateB -->
<g id="edge7" class="edge"><title>CalculateE&#45;&gt;GenerateB</title>
<path fill="none" stroke="red" stroke-width="2" d="M51.3538,-440.531C63.1618,-393.031 116.018,-180.403 132.246,-115.123"/>
<polygon fill="red" stroke="red" points="135.664,-115.882 134.68,-105.333 128.871,-114.194 135.664,-115.882"/>
</g>
<!-- StoreIntFields -->
<g id="node3" class="node"><title>StoreIntFields</title>
<polygon fill="none" stroke="black" points="440.5,-479.5 363.5,-479.5 363.5,-460.5 440.5,-460.5 440.5,-479.5"/>
<text text-anchor="middle" x="402" y="-467.5" font-family="Helvetica,sans-Serif" font-size="10.00">StoreIntFields</text>
</g>
<!-- StoreIntFields&#45;&gt;StoreFields -->
<g id="edge2" class="edge"><title>StoreIntFields&#45;&gt;StoreFields</title>
<path fill="none" stroke="midnightblue" d="M440.512,-470C449.918,-470 460.075,-470 469.697,-470"/>
<polygon fill="midnightblue" stroke="midnightblue" points="469.868,-473.5 479.868,-470 469.868,-466.5 469.868,-473.5"/>
</g>
<!-- CalcIntegralScatQuantities -->
<g id="node5" class="node"><title>CalcIntegralScatQuantities</title>
<polygon fill="none" stroke="black" points="328,-459.5 196,-459.5 196,-440.5 328,-440.5 328,-459.5"/>
<text text-anchor="middle" x="262" y="-447.5" font-family="Helvetica,sans-Serif" font-size="10.00">CalcIntegralScatQuantities</text>
</g>
<!-- CalcEplane&#45;&gt;CalcIntegralScatQuantities -->
<!-- CalcAlldir -->
<g id="node10" class="node"><title>CalcAlldir</title>
<polygon fill="none" stroke="black" points="431,-309.5 373,-309.5 373,-290.5 431,-290.5 431,-309.5"/>
<text text-anchor="middle" x="402" y="-297.5" font-family="Helvetica,sans-Serif" font-size="10.00">CalcAlldir</text>
</g>
<!-- CalcEplane&#45;&gt;CalcAlldir -->
<g id="edge10" class="edge"><title>CalcEplane&#45;&gt;CalcAlldir</title>
<path fill="none" stroke="red" stroke-width="2" d="M151.344,-440.446C182.345,-416.829 266.618,-354.942 345,-318 350.759,-315.286 357.034,-312.826 363.233,-310.658"/>
<polygon fill="red" stroke="red" points="364.423,-313.951 372.825,-307.496 362.232,-307.302 364.423,-313.951"/>
</g>
<!-- CalcField -->
<g id="node11" class="node"><title>CalcField</title>
<polygon fill="none" stroke="black" points="541.5,-272.5 484.5,-272.5 484.5,-253.5 541.5,-253.5 541.5,-272.5"/>
<text text-anchor="middle" x="513" y="-260.5" font-family="Helvetica,sans-Serif" font-size="10.00">CalcField</text>
</g>
<!-- CalcEplane&#45;&gt;CalcField -->
<g id="edge15" class="edge"><title>CalcEplane&#45;&gt;CalcField</title>
<path fill="none" stroke="midnightblue" d="M141.92,-440.718C155.857,-398.296 220.174,-222.676 345,-170 388.405,-151.684 409.547,-147.615 451,-170 479.91,-185.611 497.338,-221.556 505.775,-243.908"/>
<polygon fill="midnightblue" stroke="midnightblue" points="502.58,-245.372 509.206,-253.639 509.182,-243.044 502.58,-245.372"/>
</g>
<!-- CalcIntegralScatQuantities&#45;&gt;StoreIntFields -->
<g id="edge13" class="edge"><title>CalcIntegralScatQuantities&#45;&gt;StoreIntFields</title>
<path fill="none" stroke="red" stroke-width="2" d="M327.152,-459.297C335.959,-460.574 344.872,-461.866 353.313,-463.089"/>
<polygon fill="red" stroke="red" points="352.938,-466.571 363.336,-464.542 353.942,-459.643 352.938,-466.571"/>
</g>
<!-- ExtCross -->
<g id="node13" class="node"><title>ExtCross</title>
<polygon fill="none" stroke="black" points="430.5,-383.5 373.5,-383.5 373.5,-364.5 430.5,-364.5 430.5,-383.5"/>
<text text-anchor="middle" x="402" y="-371.5" font-family="Helvetica,sans-Serif" font-size="10.00">ExtCross</text>
</g>
<!-- CalcIntegralScatQuantities&#45;&gt;ExtCross -->
<g id="edge16" class="edge"><title>CalcIntegralScatQuantities&#45;&gt;ExtCross</title>
<path fill="none" stroke="midnightblue" d="M276.242,-440.667C292.134,-429.69 319.797,-411.282 345,-398 352.172,-394.22 360.068,-390.553 367.613,-387.269"/>
<polygon fill="midnightblue" stroke="midnightblue" points="369.058,-390.458 376.901,-383.335 366.328,-384.013 369.058,-390.458"/>
</g>
<!-- AbsCross -->
<g id="node14" class="node"><title>AbsCross</title>
<polygon fill="none" stroke="black" points="431.5,-346.5 372.5,-346.5 372.5,-327.5 431.5,-327.5 431.5,-346.5"/>
<text text-anchor="middle" x="402" y="-334.5" font-family="Helvetica,sans-Serif" font-size="10.00">AbsCross</text>
</g>
<!-- CalcIntegralScatQuantities&#45;&gt;AbsCross -->
<g id="edge17" class="edge"><title>CalcIntegralScatQuantities&#45;&gt;AbsCross</title>
<path fill="none" stroke="midnightblue" d="M269.957,-440.724C286.205,-419.274 326.652,-367.149 345,-355 350.364,-351.448 356.48,-348.554 362.652,-346.21"/>
<polygon fill="midnightblue" stroke="midnightblue" points="363.938,-349.47 372.298,-342.962 361.704,-342.836 363.938,-349.47"/>
</g>
<!-- ScaCross -->
<g id="node15" class="node"><title>ScaCross</title>
<polygon fill="none" stroke="black" points="431.5,-272.5 372.5,-272.5 372.5,-253.5 431.5,-253.5 431.5,-272.5"/>
<text text-anchor="middle" x="402" y="-260.5" font-family="Helvetica,sans-Serif" font-size="10.00">ScaCross</text>
</g>
<!-- CalcIntegralScatQuantities&#45;&gt;ScaCross -->
<g id="edge18" class="edge"><title>CalcIntegralScatQuantities&#45;&gt;ScaCross</title>
<path fill="none" stroke="midnightblue" d="M264.894,-440.352C271.028,-411.669 293.043,-326.115 345,-281 350.01,-276.65 356.083,-273.349 362.358,-270.844"/>
<polygon fill="midnightblue" stroke="midnightblue" points="363.89,-274.022 372.261,-267.527 361.667,-267.384 363.89,-274.022"/>
</g>
<!-- AsymParm_[x,y,z] -->
<g id="node16" class="node"><title>AsymParm_[x,y,z]</title>
<polygon fill="none" stroke="black" points="451,-235.5 353,-235.5 353,-216.5 451,-216.5 451,-235.5"/>
<text text-anchor="middle" x="402" y="-223.5" font-family="Helvetica,sans-Serif" font-size="10.00">AsymParm_[x,y,z]</text>
</g>
<!-- CalcIntegralScatQuantities&#45;&gt;AsymParm_[x,y,z] -->
<g id="edge20" class="edge"><title>CalcIntegralScatQuantities&#45;&gt;AsymParm_[x,y,z]</title>
<path fill="none" stroke="midnightblue" d="M263.931,-440.641C267.638,-408.393 284.248,-300.765 345,-244 346.308,-242.778 347.7,-241.638 349.157,-240.576"/>
<polygon fill="midnightblue" stroke="midnightblue" points="351.267,-243.396 358.103,-235.301 347.711,-237.366 351.267,-243.396"/>
</g>
<!-- Frp_mat -->
<g id="node17" class="node"><title>Frp_mat</title>
<polygon fill="none" stroke="black" points="428.5,-198.5 375.5,-198.5 375.5,-179.5 428.5,-179.5 428.5,-198.5"/>
<text text-anchor="middle" x="402" y="-186.5" font-family="Helvetica,sans-Serif" font-size="10.00">Frp_mat</text>
</g>
<!-- CalcIntegralScatQuantities&#45;&gt;Frp_mat -->
<g id="edge22" class="edge"><title>CalcIntegralScatQuantities&#45;&gt;Frp_mat</title>
<path fill="none" stroke="midnightblue" d="M263.292,-440.529C264.916,-404.62 275.554,-275.449 345,-207 350.613,-201.467 357.932,-197.634 365.417,-194.98"/>
<polygon fill="midnightblue" stroke="midnightblue" points="366.602,-198.28 375.225,-192.124 364.645,-191.559 366.602,-198.28"/>
</g>
<!-- CalcIntegralScatQuantities&#45;&gt;StoreFields -->
<g id="edge24" class="edge"><title>CalcIntegralScatQuantities&#45;&gt;StoreFields</title>
<path fill="none" stroke="midnightblue" d="M328.196,-445.628C364.547,-444.369 410.52,-444.731 451,-451 460.079,-452.406 469.669,-454.891 478.488,-457.61"/>
<polygon fill="midnightblue" stroke="midnightblue" points="477.458,-460.955 488.05,-460.734 479.632,-454.301 477.458,-460.955"/>
</g>
<!-- IterativeSolver -->
<g id="node6" class="node"><title>IterativeSolver</title>
<polygon fill="cyan" stroke="cyan" points="300,-105.5 224,-105.5 224,-86.5 300,-86.5 300,-105.5"/>
<text text-anchor="middle" x="262" y="-93.5" font-family="Helvetica,sans-Serif" font-size="10.00">IterativeSolver</text>
</g>
<!-- IterativeSolver&#45;&gt;CalcEplane -->
<g id="edge9" class="edge"><title>IterativeSolver&#45;&gt;CalcEplane</title>
<path fill="none" stroke="red" stroke-width="2" d="M236.962,-105.267C222.832,-111.962 205.858,-122.406 196,-137 163.106,-185.696 145.514,-369.688 140.512,-430.417"/>
<polygon fill="red" stroke="red" points="137.01,-430.307 139.701,-440.554 143.988,-430.865 137.01,-430.307"/>
</g>
<!-- GenerateB&#45;&gt;IterativeSolver -->
<g id="edge8" class="edge"><title>GenerateB&#45;&gt;IterativeSolver</title>
<path fill="none" stroke="red" stroke-width="2" d="M169.786,-96C182.964,-96 198.659,-96 213.283,-96"/>
<polygon fill="red" stroke="red" points="213.692,-99.5001 223.692,-96 213.692,-92.5001 213.692,-99.5001"/>
</g>
<!-- ReadField -->
<g id="node8" class="node"><title>ReadField</title>
<polygon fill="none" stroke="black" points="543,-35.5 483,-35.5 483,-16.5 543,-16.5 543,-35.5"/>
<text text-anchor="middle" x="513" y="-23.5" font-family="Helvetica,sans-Serif" font-size="10.00">ReadField</text>
</g>
<!-- GenerateB&#45;&gt;ReadField -->
<g id="edge14" class="edge"><title>GenerateB&#45;&gt;ReadField</title>
<path fill="none" stroke="midnightblue" d="M159.752,-86.736C170.404,-82.3049 183.698,-77.2668 196,-74 293.647,-48.0712 412.236,-34.7448 472.589,-29.2101"/>
<polygon fill="midnightblue" stroke="midnightblue" points="473.164,-32.6727 482.813,-28.2964 472.541,-25.7005 473.164,-32.6727"/>
</g>
<!-- AllGather -->
<g id="node9" class="node"><title>AllGather</title>
<polygon fill="none" stroke="black" points="541.5,-72.5 484.5,-72.5 484.5,-53.5 541.5,-53.5 541.5,-72.5"/>
<text text-anchor="middle" x="513" y="-60.5" font-family="Helvetica,sans-Serif" font-size="10.00">AllGather</text>
</g>
<!-- CalcAlldir&#45;&gt;CalcField -->
<g id="edge5" class="edge"><title>CalcAlldir&#45;&gt;CalcField</title>
<path fill="none" stroke="midnightblue" d="M430.505,-290.663C443.931,-286.106 460.28,-280.556 474.801,-275.627"/>
<polygon fill="midnightblue" stroke="midnightblue" points="476.159,-278.862 484.503,-272.334 473.909,-272.234 476.159,-278.862"/>
</g>
<!-- CalcScatGrid -->
<g id="node12" class="node"><title>CalcScatGrid</title>
<polygon fill="none" stroke="black" points="550,-346.5 476,-346.5 476,-327.5 550,-327.5 550,-346.5"/>
<text text-anchor="middle" x="513" y="-334.5" font-family="Helvetica,sans-Serif" font-size="10.00">CalcScatGrid</text>
</g>
<!-- CalcAlldir&#45;&gt;CalcScatGrid -->
<g id="edge11" class="edge"><title>CalcAlldir&#45;&gt;CalcScatGrid</title>
<path fill="none" stroke="red" stroke-width="2" d="M430.505,-309.337C443.931,-313.894 460.28,-319.444 474.801,-324.373"/>
<polygon fill="red" stroke="red" points="473.909,-327.766 484.503,-327.666 476.159,-321.138 473.909,-327.766"/>
</g>
<!-- CalcScatGrid&#45;&gt;CalcField -->
<g id="edge6" class="edge"><title>CalcScatGrid&#45;&gt;CalcField</title>
<path fill="none" stroke="midnightblue" d="M513,-327.683C513,-312.748 513,-297.814 513,-282.879"/>
<polygon fill="midnightblue" stroke="midnightblue" points="516.5,-282.539 513,-272.539 509.5,-282.539 516.5,-282.539"/>
</g>
<!-- CalcScatGrid&#45;&gt;CalcIntegralScatQuantities -->
<g id="edge12" class="edge"><title>CalcScatGrid&#45;&gt;CalcIntegralScatQuantities</title>
<path fill="none" stroke="red" stroke-width="2" d="M503.874,-346.543C493.002,-358.742 472.575,-379.748 451,-392 411.193,-414.606 361.539,-429.439 323.258,-438.442"/>
<polygon fill="red" stroke="red" points="322.255,-435.081 313.283,-440.717 323.811,-441.906 322.255,-435.081"/>
</g>
<!-- Romberg2D -->
<g id="node18" class="node"><title>Romberg2D</title>
<polygon fill="none" stroke="black" points="547,-135.5 479,-135.5 479,-116.5 547,-116.5 547,-135.5"/>
<text text-anchor="middle" x="513" y="-123.5" font-family="Helvetica,sans-Serif" font-size="10.00">Romberg2D</text>
</g>
<!-- ScaCross&#45;&gt;Romberg2D -->
<g id="edge19" class="edge"><title>ScaCross&#45;&gt;Romberg2D</title>
<path fill="none" stroke="midnightblue" d="M431.634,-256.631C438.802,-253.813 445.894,-249.774 451,-244 474.421,-217.511 453.439,-197.688 471,-167 476.287,-157.761 484.203,-149.158 491.672,-142.243"/>
<polygon fill="midnightblue" stroke="midnightblue" points="494.223,-144.663 499.458,-135.452 489.621,-139.388 494.223,-144.663"/>
</g>
<!-- AsymParm_[x,y,z]&#45;&gt;Romberg2D -->
<g id="edge21" class="edge"><title>AsymParm_[x,y,z]&#45;&gt;Romberg2D</title>
<path fill="none" stroke="midnightblue" d="M435.869,-216.743C441.338,-214.197 446.64,-210.997 451,-207 465.651,-193.568 459.378,-183.124 471,-167 477.397,-158.124 485.753,-149.395 493.251,-142.287"/>
<polygon fill="midnightblue" stroke="midnightblue" points="495.896,-144.611 500.917,-135.281 491.174,-139.444 495.896,-144.611"/>
</g>
<!-- Frp_mat&#45;&gt;AllGather -->
<g id="edge23" class="edge"><title>Frp_mat&#45;&gt;AllGather</title>
<path fill="none" stroke="midnightblue" d="M410.02,-179.543C422.011,-163.55 447.431,-130.332 471,-104 478.395,-95.7374 487.018,-86.9942 494.442,-79.7138"/>
<polygon fill="midnightblue" stroke="midnightblue" points="497.163,-81.9506 501.913,-72.4799 492.294,-76.9217 497.163,-81.9506"/>
</g>
</g>
</svg>
