<?xml version="1.0" encoding="UTF-8" standalone="no"?>
<!DOCTYPE svg PUBLIC "-//W3C//DTD SVG 1.1//EN"
 "http://www.w3.org/Graphics/SVG/1.1/DTD/svg11.dtd">
<!-- Generated by graphviz version 2.30.1 (20130214.1330)
 -->
<!-- Title: calcE Pages: 1 -->
<svg width="574pt" height="709pt"
 viewBox="0.00 0.00 574.00 709.00" xmlns="http://www.w3.org/2000/svg" xmlns:xlink="http://www.w3.org/1999/xlink">
<g id="graph0" class="graph" transform="scale(1 1) rotate(0) translate(4 705)">
<title>calcE</title>
<polygon fill="white" stroke="white" points="-4,5 -4,-705 571,-705 571,5 -4,5"/>
<g id="clust1" class="cluster"><title>cluster_calcE</title>
<polygon fill="none" stroke="black" points="8,-582 8,-693 554,-693 554,-582 8,-582"/>
<text text-anchor="middle" x="281" y="-681" font-family="Helvetica,sans-Serif" font-size="10.00">CalculateE.c</text>
</g>
<g id="clust6" class="cluster"><title>cluster_romberg</title>
<polygon fill="none" stroke="black" points="471,-141 471,-212 555,-212 555,-141 471,-141"/>
<text text-anchor="middle" x="513" y="-200" font-family="Helvetica,sans-Serif" font-size="10.00">Romberg.c</text>
</g>
<g id="clust2" class="cluster"><title>cluster_iter</title>
<polygon fill="none" stroke="black" points="216,-111 216,-182 308,-182 308,-111 216,-111"/>
<text text-anchor="middle" x="262" y="-170" font-family="Helvetica,sans-Serif" font-size="10.00">iterative.c</text>
</g>
<g id="clust3" class="cluster"><title>cluster_beam</title>
<polygon fill="none" stroke="black" points="98,-111 98,-182 178,-182 178,-111 98,-111"/>
<text text-anchor="middle" x="138" y="-170" font-family="Helvetica,sans-Serif" font-size="10.00">GenerateB.c</text>
</g>
<g id="clust4" class="cluster"><title>cluster_comm</title>
<polygon fill="none" stroke="black" points="475,-8 475,-133 551,-133 551,-8 475,-8"/>
<text text-anchor="middle" x="513" y="-121" font-family="Helvetica,sans-Serif" font-size="10.00">comm.c</text>
</g>
<g id="clust5" class="cluster"><title>cluster_cs</title>
<polygon fill="none" stroke="black" points="345,-220 345,-561 558,-561 558,-220 345,-220"/>
<text text-anchor="middle" x="451.5" y="-549" font-family="Helvetica,sans-Serif" font-size="10.00">crosssec.c</text>
</g>
<!-- CalculateE -->
<g id="node1" class="node"><title>CalculateE</title>
<polygon fill="gold" stroke="gold" points="80,-626 16,-626 16,-590 80,-590 80,-626"/>
<text text-anchor="middle" x="48" y="-605.5" font-family="Helvetica,sans-Serif" font-size="10.00">CalculateE</text>
</g>
<!-- StoreFields -->
<g id="node2" class="node"><title>StoreFields</title>
<polygon fill="none" stroke="black" points="546,-646 480,-646 480,-610 546,-610 546,-646"/>
<text text-anchor="middle" x="513" y="-625.5" font-family="Helvetica,sans-Serif" font-size="10.00">StoreFields</text>
</g>
<!-- CalculateE&#45;&gt;StoreFields -->
<g id="edge1" class="edge"><title>CalculateE&#45;&gt;StoreFields</title>
<path fill="none" stroke="midnightblue" d="M77.1241,-626.12C83.7408,-629.63 90.9311,-632.874 98,-635 248.479,-680.267 297.258,-687.504 451,-655 457.395,-653.648 463.935,-651.58 470.245,-649.177"/>
<polygon fill="midnightblue" stroke="midnightblue" points="472.013,-652.234 479.918,-645.181 469.34,-645.764 472.013,-652.234"/>
</g>
<!-- CalcEplane -->
<g id="node4" class="node"><title>CalcEplane</title>
<polygon fill="none" stroke="black" points="171,-626 105,-626 105,-590 171,-590 171,-626"/>
<text text-anchor="middle" x="138" y="-605.5" font-family="Helvetica,sans-Serif" font-size="10.00">CalcEplane</text>
</g>
<!-- CalculateE&#45;&gt;CalcEplane -->
<!-- GenerateB -->
<g id="node7" class="node"><title>GenerateB</title>
<polygon fill="none" stroke="black" points="169.5,-155 106.5,-155 106.5,-119 169.5,-119 169.5,-155"/>
<text text-anchor="middle" x="138" y="-134.5" font-family="Helvetica,sans-Serif" font-size="10.00">GenerateB</text>
</g>
<!-- CalculateE&#45;&gt;GenerateB -->
<g id="edge7" class="edge"><title>CalculateE&#45;&gt;GenerateB</title>
<path fill="none" stroke="red" stroke-width="2" d="M52.3958,-589.825C65.8436,-517.849 115.426,-252.472 131.75,-165.098"/>
<polygon fill="red" stroke="red" points="135.218,-165.594 133.614,-155.121 128.337,-164.308 135.218,-165.594"/>
</g>
<!-- StoreIntFields -->
<g id="node3" class="node"><title>StoreIntFields</title>
<polygon fill="none" stroke="black" points="440.5,-646 363.5,-646 363.5,-610 440.5,-610 440.5,-646"/>
<text text-anchor="middle" x="402" y="-625.5" font-family="Helvetica,sans-Serif" font-size="10.00">StoreIntFields</text>
</g>
<!-- StoreIntFields&#45;&gt;StoreFields -->
<g id="edge2" class="edge"><title>StoreIntFields&#45;&gt;StoreFields</title>
<path fill="none" stroke="midnightblue" d="M440.512,-628C449.918,-628 460.075,-628 469.697,-628"/>
<polygon fill="midnightblue" stroke="midnightblue" points="469.868,-631.5 479.868,-628 469.868,-624.5 469.868,-631.5"/>
</g>
<!-- CalcIntegralScatQuantities -->
<g id="node5" class="node"><title>CalcIntegralScatQuantities</title>
<polygon fill="none" stroke="black" points="328,-626 196,-626 196,-590 328,-590 328,-626"/>
<text text-anchor="middle" x="262" y="-605.5" font-family="Helvetica,sans-Serif" font-size="10.00">CalcIntegralScatQuantities</text>
</g>
<!-- CalcEplane&#45;&gt;CalcIntegralScatQuantities -->
<!-- CalcAlldir -->
<g id="node10" class="node"><title>CalcAlldir</title>
<polygon fill="none" stroke="black" points="431,-534 373,-534 373,-498 431,-498 431,-534"/>
<text text-anchor="middle" x="402" y="-513.5" font-family="Helvetica,sans-Serif" font-size="10.00">CalcAlldir</text>
</g>
<!-- CalcEplane&#45;&gt;CalcAlldir -->
<g id="edge10" class="edge"><title>CalcEplane&#45;&gt;CalcAlldir</title>
<path fill="none" stroke="red" stroke-width="2" d="M171.22,-591.808C179.224,-588.045 187.848,-584.206 196,-581 253.137,-558.529 321.455,-538.106 363.015,-526.373"/>
<polygon fill="red" stroke="red" points="364.044,-529.719 372.729,-523.651 362.155,-522.979 364.044,-529.719"/>
</g>
<!-- CalcField -->
<g id="node11" class="node"><title>CalcField</title>
<polygon fill="none" stroke="black" points="541.5,-372 484.5,-372 484.5,-336 541.5,-336 541.5,-372"/>
<text text-anchor="middle" x="513" y="-351.5" font-family="Helvetica,sans-Serif" font-size="10.00">CalcField</text>
</g>
<!-- CalcEplane&#45;&gt;CalcField -->
<g id="edge15" class="edge"><title>CalcEplane&#45;&gt;CalcField</title>
<path fill="none" stroke="midnightblue" d="M141.994,-589.621C153.697,-524.564 202.927,-304.528 345,-219 385.362,-194.702 411.419,-193.45 451,-219 487.304,-242.434 502.23,-293.254 508.201,-325.422"/>
<polygon fill="midnightblue" stroke="midnightblue" points="504.794,-326.267 509.901,-335.549 511.697,-325.108 504.794,-326.267"/>
</g>
<!-- CalcIntegralScatQuantities&#45;&gt;StoreIntFields -->
<g id="edge13" class="edge"><title>CalcIntegralScatQuantities&#45;&gt;StoreIntFields</title>
<path fill="none" stroke="red" stroke-width="2" d="M328.363,-617.473C336.788,-618.694 345.286,-619.925 353.352,-621.094"/>
<polygon fill="red" stroke="red" points="352.901,-624.566 363.299,-622.536 353.905,-617.638 352.901,-624.566"/>
</g>
<!-- ExtCross -->
<g id="node13" class="node"><title>ExtCross</title>
<polygon fill="none" stroke="black" points="430.5,-372 373.5,-372 373.5,-336 430.5,-336 430.5,-372"/>
<text text-anchor="middle" x="402" y="-351.5" font-family="Helvetica,sans-Serif" font-size="10.00">ExtCross</text>
</g>
<!-- CalcIntegralScatQuantities&#45;&gt;ExtCross -->
<g id="edge16" class="edge"><title>CalcIntegralScatQuantities&#45;&gt;ExtCross</title>
<path fill="none" stroke="midnightblue" d="M264.915,-589.728C270.205,-547.807 288.578,-443.531 345,-381 350.338,-375.084 357.255,-370.335 364.396,-366.571"/>
<polygon fill="midnightblue" stroke="midnightblue" points="365.893,-369.735 373.459,-362.317 362.919,-363.398 365.893,-369.735"/>
</g>
<!-- AbsCross -->
<g id="node14" class="node"><title>AbsCross</title>
<polygon fill="none" stroke="black" points="431.5,-318 372.5,-318 372.5,-282 431.5,-282 431.5,-318"/>
<text text-anchor="middle" x="402" y="-297.5" font-family="Helvetica,sans-Serif" font-size="10.00">AbsCross</text>
</g>
<!-- CalcIntegralScatQuantities&#45;&gt;AbsCross -->
<g id="edge18" class="edge"><title>CalcIntegralScatQuantities&#45;&gt;AbsCross</title>
<path fill="none" stroke="midnightblue" d="M263.39,-589.879C265.359,-541.454 277.011,-407.273 345,-327 349.892,-321.224 356.306,-316.587 363.04,-312.898"/>
<polygon fill="midnightblue" stroke="midnightblue" points="364.818,-315.927 372.311,-308.437 361.782,-309.619 364.818,-315.927"/>
</g>
<!-- ScaCross -->
<g id="node15" class="node"><title>ScaCross</title>
<polygon fill="none" stroke="black" points="431.5,-480 372.5,-480 372.5,-444 431.5,-444 431.5,-480"/>
<text text-anchor="middle" x="402" y="-459.5" font-family="Helvetica,sans-Serif" font-size="10.00">ScaCross</text>
</g>
<!-- CalcIntegralScatQuantities&#45;&gt;ScaCross -->
<g id="edge20" class="edge"><title>CalcIntegralScatQuantities&#45;&gt;ScaCross</title>
<path fill="none" stroke="midnightblue" d="M271.753,-589.682C284.689,-564.237 311.084,-518.055 345,-489 350.342,-484.424 356.593,-480.428 362.945,-477.013"/>
<polygon fill="midnightblue" stroke="midnightblue" points="364.813,-479.994 372.228,-472.426 361.713,-473.718 364.813,-479.994"/>
</g>
<!-- AsymParm_[x,y,z] -->
<g id="node16" class="node"><title>AsymParm_[x,y,z]</title>
<polygon fill="none" stroke="black" points="451,-426 353,-426 353,-390 451,-390 451,-426"/>
<text text-anchor="middle" x="402" y="-405.5" font-family="Helvetica,sans-Serif" font-size="10.00">AsymParm_[x,y,z]</text>
</g>
<!-- CalcIntegralScatQuantities&#45;&gt;AsymParm_[x,y,z] -->
<g id="edge22" class="edge"><title>CalcIntegralScatQuantities&#45;&gt;AsymParm_[x,y,z]</title>
<path fill="none" stroke="midnightblue" d="M267.24,-589.994C276.142,-555.728 299.791,-480.51 345,-435 345.92,-434.074 346.878,-433.175 347.868,-432.303"/>
<polygon fill="midnightblue" stroke="midnightblue" points="350.151,-434.965 356.002,-426.132 345.92,-429.388 350.151,-434.965"/>
</g>
<!-- Frp_mat -->
<g id="node17" class="node"><title>Frp_mat</title>
<polygon fill="none" stroke="black" points="429,-264 375,-264 375,-228 429,-228 429,-264"/>
<text text-anchor="middle" x="402" y="-243.5" font-family="Helvetica,sans-Serif" font-size="10.00">Frp_mat</text>
</g>
<!-- CalcIntegralScatQuantities&#45;&gt;Frp_mat -->
<g id="edge24" class="edge"><title>CalcIntegralScatQuantities&#45;&gt;Frp_mat</title>
<path fill="none" stroke="midnightblue" d="M262.339,-589.686C261.338,-535.092 265.48,-371.175 345,-273 350.469,-266.248 358.035,-261.073 365.84,-257.15"/>
<polygon fill="midnightblue" stroke="midnightblue" points="367.268,-260.346 375,-253.101 364.438,-253.943 367.268,-260.346"/>
</g>
<!-- CalcIntegralScatQuantities&#45;&gt;StoreFields -->
<g id="edge26" class="edge"><title>CalcIntegralScatQuantities&#45;&gt;StoreFields</title>
<path fill="none" stroke="midnightblue" d="M328.054,-597.833C364.565,-594.05 410.737,-592.488 451,-601 457.395,-602.352 463.935,-604.42 470.245,-606.823"/>
<polygon fill="midnightblue" stroke="midnightblue" points="469.34,-610.236 479.918,-610.819 472.013,-603.766 469.34,-610.236"/>
</g>
<!-- IterativeSolver -->
<g id="node6" class="node"><title>IterativeSolver</title>
<polygon fill="cyan" stroke="cyan" points="300,-155 224,-155 224,-119 300,-119 300,-155"/>
<text text-anchor="middle" x="262" y="-134.5" font-family="Helvetica,sans-Serif" font-size="10.00">IterativeSolver</text>
</g>
<!-- IterativeSolver&#45;&gt;CalcEplane -->
<g id="edge9" class="edge"><title>IterativeSolver&#45;&gt;CalcEplane</title>
<path fill="none" stroke="red" stroke-width="2" d="M226.979,-155.125C215.311,-163.052 203.353,-173.438 196,-186 156.596,-253.321 143.423,-496.403 140.011,-579.736"/>
<polygon fill="red" stroke="red" points="136.505,-579.834 139.609,-589.964 143.499,-580.109 136.505,-579.834"/>
</g>
<!-- GenerateB&#45;&gt;IterativeSolver -->
<g id="edge8" class="edge"><title>GenerateB&#45;&gt;IterativeSolver</title>
<path fill="none" stroke="red" stroke-width="2" d="M169.786,-137C182.964,-137 198.659,-137 213.283,-137"/>
<polygon fill="red" stroke="red" points="213.692,-140.5 223.692,-137 213.692,-133.5 213.692,-140.5"/>
</g>
<!-- ReadField -->
<g id="node8" class="node"><title>ReadField</title>
<polygon fill="none" stroke="black" points="543,-52 483,-52 483,-16 543,-16 543,-52"/>
<text text-anchor="middle" x="513" y="-31.5" font-family="Helvetica,sans-Serif" font-size="10.00">ReadField</text>
</g>
<!-- GenerateB&#45;&gt;ReadField -->
<g id="edge14" class="edge"><title>GenerateB&#45;&gt;ReadField</title>
<path fill="none" stroke="midnightblue" d="M169.692,-119.001C178.031,-114.626 187.195,-110.272 196,-107 292.545,-71.1276 412.454,-49.2488 473.049,-39.6806"/>
<polygon fill="midnightblue" stroke="midnightblue" points="473.609,-43.1357 482.954,-38.1433 472.535,-36.2185 473.609,-43.1357"/>
</g>
<!-- AllGather -->
<g id="node9" class="node"><title>AllGather</title>
<polygon fill="none" stroke="black" points="541.5,-106 484.5,-106 484.5,-70 541.5,-70 541.5,-106"/>
<text text-anchor="middle" x="513" y="-85.5" font-family="Helvetica,sans-Serif" font-size="10.00">AllGather</text>
</g>
<!-- CalcAlldir&#45;&gt;CalcField -->
<g id="edge5" class="edge"><title>CalcAlldir&#45;&gt;CalcField</title>
<path fill="none" stroke="midnightblue" d="M431.042,-504.117C438.208,-500.101 445.447,-495.064 451,-489 479.432,-457.949 496.445,-411.408 505.017,-381.884"/>
<polygon fill="midnightblue" stroke="midnightblue" points="508.402,-382.776 507.702,-372.204 501.657,-380.905 508.402,-382.776"/>
</g>
<!-- CalcScatGrid -->
<g id="node12" class="node"><title>CalcScatGrid</title>
<polygon fill="none" stroke="black" points="550,-534 476,-534 476,-498 550,-498 550,-534"/>
<text text-anchor="middle" x="513" y="-513.5" font-family="Helvetica,sans-Serif" font-size="10.00">CalcScatGrid</text>
</g>
<!-- CalcAlldir&#45;&gt;CalcScatGrid -->
<g id="edge11" class="edge"><title>CalcAlldir&#45;&gt;CalcScatGrid</title>
<path fill="none" stroke="red" stroke-width="2" d="M431.07,-516C441.608,-516 453.886,-516 465.645,-516"/>
<polygon fill="red" stroke="red" points="465.79,-519.5 475.79,-516 465.79,-512.5 465.79,-519.5"/>
</g>
<!-- CalcScatGrid&#45;&gt;CalcField -->
<g id="edge6" class="edge"><title>CalcScatGrid&#45;&gt;CalcField</title>
<path fill="none" stroke="midnightblue" d="M513,-497.723C513,-459.264 513,-420.805 513,-382.346"/>
<polygon fill="midnightblue" stroke="midnightblue" points="516.5,-382.035 513,-372.035 509.5,-382.035 516.5,-382.035"/>
</g>
<!-- CalcScatGrid&#45;&gt;CalcIntegralScatQuantities -->
<g id="edge12" class="edge"><title>CalcScatGrid&#45;&gt;CalcIntegralScatQuantities</title>
<path fill="none" stroke="red" stroke-width="2" d="M475.761,-532.637C467.666,-536.186 459.083,-539.82 451,-543 410.878,-558.783 365.178,-574.631 328.883,-586.727"/>
<polygon fill="red" stroke="red" points="327.777,-583.406 319.388,-589.877 329.982,-590.049 327.777,-583.406"/>
</g>
<!-- Romberg2D -->
<g id="node18" class="node"><title>Romberg2D</title>
<polygon fill="none" stroke="black" points="547,-185 479,-185 479,-149 547,-149 547,-185"/>
<text text-anchor="middle" x="513" y="-164.5" font-family="Helvetica,sans-Serif" font-size="10.00">Romberg2D</text>
</g>
<!-- ExtCross&#45;&gt;Romberg2D -->
<g id="edge17" class="edge"><title>ExtCross&#45;&gt;Romberg2D</title>
<path fill="none" stroke="midnightblue" d="M430.58,-343.78C438.268,-339.671 445.901,-334.168 451,-327 480.058,-286.154 449.762,-261.406 471,-216 474.783,-207.912 480.241,-200.065 485.947,-193.108"/>
<polygon fill="midnightblue" stroke="midnightblue" points="488.742,-195.227 492.672,-185.388 483.464,-190.629 488.742,-195.227"/>
</g>
<!-- AbsCross&#45;&gt;Romberg2D -->
<g id="edge19" class="edge"><title>AbsCross&#45;&gt;Romberg2D</title>
<path fill="none" stroke="midnightblue" d="M431.898,-288.147C438.897,-284.176 445.839,-279.153 451,-273 468.253,-252.43 457.728,-239.337 471,-216 475.493,-208.1 481.31,-200.237 487.143,-193.197"/>
<polygon fill="midnightblue" stroke="midnightblue" points="490.028,-195.212 493.92,-185.358 484.733,-190.634 490.028,-195.212"/>
</g>
<!-- ScaCross&#45;&gt;Romberg2D -->
<g id="edge21" class="edge"><title>ScaCross&#45;&gt;Romberg2D</title>
<path fill="none" stroke="midnightblue" d="M431.724,-451.639C439.163,-447.582 446.374,-442.142 451,-435 477.566,-393.982 452.244,-261.127 471,-216 474.427,-207.755 479.753,-199.85 485.444,-192.886"/>
<polygon fill="midnightblue" stroke="midnightblue" points="488.24,-195.007 492.202,-185.181 482.977,-190.391 488.24,-195.007"/>
</g>
<!-- AsymParm_[x,y,z]&#45;&gt;Romberg2D -->
<g id="edge23" class="edge"><title>AsymParm_[x,y,z]&#45;&gt;Romberg2D</title>
<path fill="none" stroke="midnightblue" d="M442.868,-389.939C445.975,-387.307 448.767,-384.338 451,-381 492.069,-319.598 441.644,-283.787 471,-216 474.548,-207.806 479.919,-199.92 485.616,-192.959"/>
<polygon fill="midnightblue" stroke="midnightblue" points="488.411,-195.079 492.363,-185.249 483.143,-190.47 488.411,-195.079"/>
</g>
<!-- Frp_mat&#45;&gt;AllGather -->
<g id="edge25" class="edge"><title>Frp_mat&#45;&gt;AllGather</title>
<path fill="none" stroke="midnightblue" d="M413.332,-227.755C426.061,-205.693 448.745,-167.699 471,-137 476.522,-129.383 482.885,-121.435 488.926,-114.211"/>
<polygon fill="midnightblue" stroke="midnightblue" points="491.988,-116.013 495.8,-106.127 486.655,-111.478 491.988,-116.013"/>
</g>
</g>
</svg>
