<?xml version="1.0" encoding="UTF-8" standalone="no"?>
<!DOCTYPE svg PUBLIC "-//W3C//DTD SVG 1.1//EN"
 "http://www.w3.org/Graphics/SVG/1.1/DTD/svg11.dtd">
<!-- Generated by graphviz version 2.30.1 (20130214.1330)
 -->
<!-- Title: calcE Pages: 1 -->
<svg width="776pt" height="721pt"
 viewBox="0.00 0.00 776.00 721.00" xmlns="http://www.w3.org/2000/svg" xmlns:xlink="http://www.w3.org/1999/xlink">
<g id="graph0" class="graph" transform="scale(1 1) rotate(0) translate(4 717)">
<title>calcE</title>
<polygon fill="white" stroke="white" points="-4,5 -4,-717 773,-717 773,5 -4,5"/>
<g id="clust1" class="cluster"><title>cluster_calcE</title>
<polygon fill="none" stroke="black" points="8,-590 8,-705 754,-705 754,-590 8,-590"/>
<text text-anchor="middle" x="381" y="-689.8" font-family="Helvetica,sans-Serif" font-size="14.00">CalculateE.c</text>
</g>
<g id="clust4" class="cluster"><title>cluster_comm</title>
<polygon fill="none" stroke="black" points="651,-8 651,-137 751,-137 751,-8 651,-8"/>
<text text-anchor="middle" x="701" y="-121.8" font-family="Helvetica,sans-Serif" font-size="14.00">comm.c</text>
</g>
<g id="clust5" class="cluster"><title>cluster_cs</title>
<polygon fill="none" stroke="black" points="476,-228 476,-573 760,-573 760,-228 476,-228"/>
<text text-anchor="middle" x="618" y="-557.8" font-family="Helvetica,sans-Serif" font-size="14.00">crosssec.c</text>
</g>
<g id="clust6" class="cluster"><title>cluster_romberg</title>
<polygon fill="none" stroke="black" points="645,-145 645,-220 757,-220 757,-145 645,-145"/>
<text text-anchor="middle" x="701" y="-204.8" font-family="Helvetica,sans-Serif" font-size="14.00">Romberg.c</text>
</g>
<g id="clust2" class="cluster"><title>cluster_iter</title>
<polygon fill="none" stroke="black" points="294,-115 294,-190 418,-190 418,-115 294,-115"/>
<text text-anchor="middle" x="356" y="-174.8" font-family="Helvetica,sans-Serif" font-size="14.00">iterative.c</text>
</g>
<g id="clust3" class="cluster"><title>cluster_beam</title>
<polygon fill="none" stroke="black" points="132,-115 132,-190 234,-190 234,-115 132,-115"/>
<text text-anchor="middle" x="183" y="-174.8" font-family="Helvetica,sans-Serif" font-size="14.00">GenerateB.c</text>
</g>
<!-- CalculateE -->
<g id="node1" class="node"><title>CalculateE</title>
<polygon fill="gold" stroke="gold" points="101.5,-634 16.5,-634 16.5,-598 101.5,-598 101.5,-634"/>
<text text-anchor="middle" x="59" y="-612.3" font-family="Helvetica,sans-Serif" font-size="14.00">CalculateE</text>
</g>
<!-- StoreFields -->
<g id="node2" class="node"><title>StoreFields</title>
<polygon fill="none" stroke="black" points="746,-654 656,-654 656,-618 746,-618 746,-654"/>
<text text-anchor="middle" x="701" y="-632.3" font-family="Helvetica,sans-Serif" font-size="14.00">StoreFields</text>
</g>
<!-- CalculateE&#45;&gt;StoreFields -->
<g id="edge1" class="edge"><title>CalculateE&#45;&gt;StoreFields</title>
<path fill="none" stroke="midnightblue" d="M101.626,-634.022C111.422,-637.583 121.943,-640.873 132,-643 341.766,-687.364 402.069,-695.487 614,-663 624.55,-661.383 635.583,-658.711 646.092,-655.661"/>
<polygon fill="midnightblue" stroke="midnightblue" points="647.433,-658.911 655.975,-652.643 645.389,-652.216 647.433,-658.911"/>
</g>
<!-- CalcEplane -->
<g id="node4" class="node"><title>CalcEplane</title>
<polygon fill="none" stroke="black" points="227.5,-634 138.5,-634 138.5,-598 227.5,-598 227.5,-634"/>
<text text-anchor="middle" x="183" y="-612.3" font-family="Helvetica,sans-Serif" font-size="14.00">CalcEplane</text>
</g>
<!-- CalculateE&#45;&gt;CalcEplane -->
<!-- GenerateB -->
<g id="node7" class="node"><title>GenerateB</title>
<polygon fill="none" stroke="black" points="226,-159 140,-159 140,-123 226,-123 226,-159"/>
<text text-anchor="middle" x="183" y="-137.3" font-family="Helvetica,sans-Serif" font-size="14.00">GenerateB</text>
</g>
<!-- CalculateE&#45;&gt;GenerateB -->
<g id="edge7" class="edge"><title>CalculateE&#45;&gt;GenerateB</title>
<path fill="none" stroke="red" stroke-width="2" d="M64.6336,-597.959C83.2038,-525.658 152.325,-256.538 174.852,-168.83"/>
<polygon fill="red" stroke="red" points="178.264,-169.615 177.362,-159.059 171.484,-167.873 178.264,-169.615"/>
</g>
<!-- StoreIntFields -->
<g id="node3" class="node"><title>StoreIntFields</title>
<polygon fill="none" stroke="black" points="602,-654 496,-654 496,-618 602,-618 602,-654"/>
<text text-anchor="middle" x="549" y="-632.3" font-family="Helvetica,sans-Serif" font-size="14.00">StoreIntFields</text>
</g>
<!-- StoreIntFields&#45;&gt;StoreFields -->
<g id="edge2" class="edge"><title>StoreIntFields&#45;&gt;StoreFields</title>
<path fill="none" stroke="midnightblue" d="M602.042,-636C616.068,-636 631.28,-636 645.44,-636"/>
<polygon fill="midnightblue" stroke="midnightblue" points="645.533,-639.5 655.533,-636 645.533,-632.5 645.533,-639.5"/>
</g>
<!-- CalcIntegralScatQuantities -->
<g id="node5" class="node"><title>CalcIntegralScatQuantities</title>
<polygon fill="none" stroke="black" points="448,-634 264,-634 264,-598 448,-598 448,-634"/>
<text text-anchor="middle" x="356" y="-612.3" font-family="Helvetica,sans-Serif" font-size="14.00">CalcIntegralScatQuantities</text>
</g>
<!-- CalcEplane&#45;&gt;CalcIntegralScatQuantities -->
<!-- CalcAlldir -->
<g id="node10" class="node"><title>CalcAlldir</title>
<polygon fill="none" stroke="black" points="587.5,-542 510.5,-542 510.5,-506 587.5,-506 587.5,-542"/>
<text text-anchor="middle" x="549" y="-520.3" font-family="Helvetica,sans-Serif" font-size="14.00">CalcAlldir</text>
</g>
<!-- CalcEplane&#45;&gt;CalcAlldir -->
<g id="edge10" class="edge"><title>CalcEplane&#45;&gt;CalcAlldir</title>
<path fill="none" stroke="red" stroke-width="2" d="M227.765,-600.345C239.464,-596.404 252.15,-592.347 264,-589 346.255,-565.77 443.662,-544.886 500.378,-533.373"/>
<polygon fill="red" stroke="red" points="501.372,-536.743 510.482,-531.334 499.987,-529.881 501.372,-536.743"/>
</g>
<!-- CalcField -->
<g id="node11" class="node"><title>CalcField</title>
<polygon fill="none" stroke="black" points="739.5,-380 662.5,-380 662.5,-344 739.5,-344 739.5,-380"/>
<text text-anchor="middle" x="701" y="-358.3" font-family="Helvetica,sans-Serif" font-size="14.00">CalcField</text>
</g>
<!-- CalcEplane&#45;&gt;CalcField -->
<g id="edge15" class="edge"><title>CalcEplane&#45;&gt;CalcField</title>
<path fill="none" stroke="midnightblue" d="M190.679,-597.823C215.808,-532.49 311.707,-309.104 476,-227 530.864,-199.582 560.228,-197.499 614,-227 655.33,-249.675 679.649,-301.579 691.353,-334.018"/>
<polygon fill="midnightblue" stroke="midnightblue" points="688.156,-335.484 694.715,-343.804 694.776,-333.209 688.156,-335.484"/>
</g>
<!-- CalcIntegralScatQuantities&#45;&gt;StoreIntFields -->
<g id="edge13" class="edge"><title>CalcIntegralScatQuantities&#45;&gt;StoreIntFields</title>
<path fill="none" stroke="red" stroke-width="2" d="M448.025,-625.531C460.861,-626.875 473.805,-628.231 485.927,-629.5"/>
<polygon fill="red" stroke="red" points="485.585,-632.983 495.895,-630.544 486.314,-626.022 485.585,-632.983"/>
</g>
<!-- ExtCross -->
<g id="node13" class="node"><title>ExtCross</title>
<polygon fill="none" stroke="black" points="586.5,-380 511.5,-380 511.5,-344 586.5,-344 586.5,-380"/>
<text text-anchor="middle" x="549" y="-358.3" font-family="Helvetica,sans-Serif" font-size="14.00">ExtCross</text>
</g>
<!-- CalcIntegralScatQuantities&#45;&gt;ExtCross -->
<g id="edge16" class="edge"><title>CalcIntegralScatQuantities&#45;&gt;ExtCross</title>
<path fill="none" stroke="midnightblue" d="M361.657,-597.902C373.484,-555.434 408.625,-448.494 476,-389 483.353,-382.507 492.416,-377.517 501.602,-373.702"/>
<polygon fill="midnightblue" stroke="midnightblue" points="503.008,-376.914 511.153,-370.139 500.561,-370.355 503.008,-376.914"/>
</g>
<!-- AbsCross -->
<g id="node14" class="node"><title>AbsCross</title>
<polygon fill="none" stroke="black" points="589,-326 509,-326 509,-290 589,-290 589,-326"/>
<text text-anchor="middle" x="549" y="-304.3" font-family="Helvetica,sans-Serif" font-size="14.00">AbsCross</text>
</g>
<!-- CalcIntegralScatQuantities&#45;&gt;AbsCross -->
<g id="edge18" class="edge"><title>CalcIntegralScatQuantities&#45;&gt;AbsCross</title>
<path fill="none" stroke="midnightblue" d="M359.652,-597.757C367.756,-548.445 396.659,-411.091 476,-335 482.651,-328.621 490.951,-323.719 499.526,-319.962"/>
<polygon fill="midnightblue" stroke="midnightblue" points="500.828,-323.21 508.874,-316.317 498.286,-316.688 500.828,-323.21"/>
</g>
<!-- ScaCross -->
<g id="node15" class="node"><title>ScaCross</title>
<polygon fill="none" stroke="black" points="589,-488 509,-488 509,-452 589,-452 589,-488"/>
<text text-anchor="middle" x="549" y="-466.3" font-family="Helvetica,sans-Serif" font-size="14.00">ScaCross</text>
</g>
<!-- CalcIntegralScatQuantities&#45;&gt;ScaCross -->
<g id="edge20" class="edge"><title>CalcIntegralScatQuantities&#45;&gt;ScaCross</title>
<path fill="none" stroke="midnightblue" d="M370.887,-597.863C391.368,-572.212 432.028,-525.314 476,-497 483.18,-492.377 491.267,-488.378 499.36,-484.981"/>
<polygon fill="midnightblue" stroke="midnightblue" points="500.783,-488.182 508.809,-481.267 498.222,-481.667 500.783,-488.182"/>
</g>
<!-- AsymParm_[x,y,z] -->
<g id="node16" class="node"><title>AsymParm_[x,y,z]</title>
<polygon fill="none" stroke="black" points="614,-434 484,-434 484,-398 614,-398 614,-434"/>
<text text-anchor="middle" x="549" y="-412.3" font-family="Helvetica,sans-Serif" font-size="14.00">AsymParm_[x,y,z]</text>
</g>
<!-- CalcIntegralScatQuantities&#45;&gt;AsymParm_[x,y,z] -->
<g id="edge22" class="edge"><title>CalcIntegralScatQuantities&#45;&gt;AsymParm_[x,y,z]</title>
<path fill="none" stroke="midnightblue" d="M364.878,-597.869C380.877,-563.052 420.427,-486.444 476,-443 477.617,-441.736 479.3,-440.526 481.034,-439.369"/>
<polygon fill="midnightblue" stroke="midnightblue" points="483.256,-442.121 490.074,-434.011 479.686,-436.099 483.256,-442.121"/>
</g>
<!-- Frp_mat -->
<g id="node17" class="node"><title>Frp_mat</title>
<polygon fill="none" stroke="black" points="584,-272 514,-272 514,-236 584,-236 584,-272"/>
<text text-anchor="middle" x="549" y="-250.3" font-family="Helvetica,sans-Serif" font-size="14.00">Frp_mat</text>
</g>
<!-- CalcIntegralScatQuantities&#45;&gt;Frp_mat -->
<g id="edge24" class="edge"><title>CalcIntegralScatQuantities&#45;&gt;Frp_mat</title>
<path fill="none" stroke="midnightblue" d="M358.21,-597.984C362.865,-542.821 384.288,-374.326 476,-281 483.658,-273.207 493.779,-267.637 504.005,-263.666"/>
<polygon fill="midnightblue" stroke="midnightblue" points="505.435,-266.875 513.764,-260.327 503.169,-260.252 505.435,-266.875"/>
</g>
<!-- CalcIntegralScatQuantities&#45;&gt;StoreFields -->
<g id="edge26" class="edge"><title>CalcIntegralScatQuantities&#45;&gt;StoreFields</title>
<path fill="none" stroke="midnightblue" d="M448.185,-605.625C497.535,-601.989 559.402,-600.631 614,-609 624.55,-610.617 635.583,-613.289 646.092,-616.339"/>
<polygon fill="midnightblue" stroke="midnightblue" points="645.389,-619.784 655.975,-619.357 647.433,-613.089 645.389,-619.784"/>
</g>
<!-- IterativeSolver -->
<g id="node6" class="node"><title>IterativeSolver</title>
<polygon fill="cyan" stroke="cyan" points="409.5,-159 302.5,-159 302.5,-123 409.5,-123 409.5,-159"/>
<text text-anchor="middle" x="356" y="-137.3" font-family="Helvetica,sans-Serif" font-size="14.00">IterativeSolver</text>
</g>
<!-- IterativeSolver&#45;&gt;CalcEplane -->
<g id="edge9" class="edge"><title>IterativeSolver&#45;&gt;CalcEplane</title>
<path fill="none" stroke="red" stroke-width="2" d="M307.04,-159.178C291.073,-167.491 274.66,-178.922 264,-194 218.535,-258.312 193.631,-503.823 186.312,-587.708"/>
<polygon fill="red" stroke="red" points="182.816,-587.516 185.451,-597.778 189.79,-588.113 182.816,-587.516"/>
</g>
<!-- GenerateB&#45;&gt;IterativeSolver -->
<g id="edge8" class="edge"><title>GenerateB&#45;&gt;IterativeSolver</title>
<path fill="none" stroke="red" stroke-width="2" d="M226.27,-141C246.078,-141 270.087,-141 291.98,-141"/>
<polygon fill="red" stroke="red" points="292.197,-144.5 302.197,-141 292.197,-137.5 292.197,-144.5"/>
</g>
<!-- ReadField -->
<g id="node8" class="node"><title>ReadField</title>
<polygon fill="none" stroke="black" points="742.5,-52 659.5,-52 659.5,-16 742.5,-16 742.5,-52"/>
<text text-anchor="middle" x="701" y="-30.3" font-family="Helvetica,sans-Serif" font-size="14.00">ReadField</text>
</g>
<!-- GenerateB&#45;&gt;ReadField -->
<g id="edge14" class="edge"><title>GenerateB&#45;&gt;ReadField</title>
<path fill="none" stroke="midnightblue" d="M226.286,-123.488C238.325,-118.957 251.552,-114.402 264,-111 401.056,-73.5424 567.5,-50.033 649.438,-39.8579"/>
<polygon fill="midnightblue" stroke="midnightblue" points="649.98,-43.3177 659.479,-38.6254 649.127,-36.3699 649.98,-43.3177"/>
</g>
<!-- AllGather -->
<g id="node9" class="node"><title>AllGather</title>
<polygon fill="none" stroke="black" points="738.5,-106 663.5,-106 663.5,-70 738.5,-70 738.5,-106"/>
<text text-anchor="middle" x="701" y="-84.3" font-family="Helvetica,sans-Serif" font-size="14.00">AllGather</text>
</g>
<!-- CalcAlldir&#45;&gt;CalcField -->
<g id="edge5" class="edge"><title>CalcAlldir&#45;&gt;CalcField</title>
<path fill="none" stroke="midnightblue" d="M587.704,-512.523C596.938,-508.568 606.354,-503.459 614,-497 649.094,-467.356 674.726,-419.703 688.482,-389.661"/>
<polygon fill="midnightblue" stroke="midnightblue" points="691.824,-390.759 692.688,-380.199 685.427,-387.915 691.824,-390.759"/>
</g>
<!-- CalcScatGrid -->
<g id="node12" class="node"><title>CalcScatGrid</title>
<polygon fill="none" stroke="black" points="751.5,-542 650.5,-542 650.5,-506 751.5,-506 751.5,-542"/>
<text text-anchor="middle" x="701" y="-520.3" font-family="Helvetica,sans-Serif" font-size="14.00">CalcScatGrid</text>
</g>
<!-- CalcAlldir&#45;&gt;CalcScatGrid -->
<g id="edge11" class="edge"><title>CalcAlldir&#45;&gt;CalcScatGrid</title>
<path fill="none" stroke="red" stroke-width="2" d="M587.851,-524C603.667,-524 622.432,-524 640.043,-524"/>
<polygon fill="red" stroke="red" points="640.248,-527.5 650.248,-524 640.247,-520.5 640.248,-527.5"/>
</g>
<!-- CalcScatGrid&#45;&gt;CalcField -->
<g id="edge6" class="edge"><title>CalcScatGrid&#45;&gt;CalcField</title>
<path fill="none" stroke="midnightblue" d="M701,-505.723C701,-467.264 701,-428.805 701,-390.346"/>
<polygon fill="midnightblue" stroke="midnightblue" points="704.5,-390.035 701,-380.035 697.5,-390.035 704.5,-390.035"/>
</g>
<!-- CalcScatGrid&#45;&gt;CalcIntegralScatQuantities -->
<g id="edge12" class="edge"><title>CalcScatGrid&#45;&gt;CalcIntegralScatQuantities</title>
<path fill="none" stroke="red" stroke-width="2" d="M650.12,-540.184C638.316,-543.868 625.744,-547.674 614,-551 557.23,-567.077 492.866,-583.353 442.751,-595.597"/>
<polygon fill="red" stroke="red" points="441.812,-592.223 432.925,-597.991 443.469,-599.024 441.812,-592.223"/>
</g>
<!-- Romberg2D -->
<g id="node18" class="node"><title>Romberg2D</title>
<polygon fill="none" stroke="black" points="748.5,-189 653.5,-189 653.5,-153 748.5,-153 748.5,-189"/>
<text text-anchor="middle" x="701" y="-167.3" font-family="Helvetica,sans-Serif" font-size="14.00">Romberg2D</text>
</g>
<!-- ExtCross&#45;&gt;Romberg2D -->
<g id="edge17" class="edge"><title>ExtCross&#45;&gt;Romberg2D</title>
<path fill="none" stroke="midnightblue" d="M586.784,-352.94C596.788,-348.901 606.827,-343.146 614,-335 647.85,-296.558 618.748,-267.982 645,-224 651.15,-213.696 659.825,-204.054 668.471,-195.894"/>
<polygon fill="midnightblue" stroke="midnightblue" points="670.902,-198.415 675.997,-189.125 666.221,-193.21 670.902,-198.415"/>
</g>
<!-- AbsCross&#45;&gt;Romberg2D -->
<g id="edge19" class="edge"><title>AbsCross&#45;&gt;Romberg2D</title>
<path fill="none" stroke="midnightblue" d="M589.017,-296.445C597.918,-292.542 606.849,-287.476 614,-281 635.374,-261.642 627.525,-246.939 645,-224 652.52,-214.128 661.893,-204.391 670.758,-196.009"/>
<polygon fill="midnightblue" stroke="midnightblue" points="673.364,-198.367 678.358,-189.023 668.627,-193.214 673.364,-198.367"/>
</g>
<!-- ScaCross&#45;&gt;Romberg2D -->
<g id="edge21" class="edge"><title>ScaCross&#45;&gt;Romberg2D</title>
<path fill="none" stroke="midnightblue" d="M589.148,-460.825C598.591,-456.827 607.747,-451.122 614,-443 673.968,-365.106 600.281,-311.543 645,-224 650.365,-213.496 658.642,-203.894 667.159,-195.834"/>
<polygon fill="midnightblue" stroke="midnightblue" points="669.504,-198.432 674.638,-189.164 664.845,-193.207 669.504,-198.432"/>
</g>
<!-- AsymParm_[x,y,z]&#45;&gt;Romberg2D -->
<g id="edge23" class="edge"><title>AsymParm_[x,y,z]&#45;&gt;Romberg2D</title>
<path fill="none" stroke="midnightblue" d="M604.521,-397.939C608.05,-395.342 611.275,-392.379 614,-389 660.84,-330.917 609.567,-289.667 645,-224 650.65,-213.53 659.095,-203.889 667.682,-195.782"/>
<polygon fill="midnightblue" stroke="midnightblue" points="670.07,-198.341 675.198,-189.07 665.408,-193.12 670.07,-198.341"/>
</g>
<!-- Frp_mat&#45;&gt;AllGather -->
<g id="edge25" class="edge"><title>Frp_mat&#45;&gt;AllGather</title>
<path fill="none" stroke="midnightblue" d="M564.251,-235.889C582.364,-213.148 614.903,-173.21 645,-141 653.77,-131.614 663.779,-121.742 672.833,-113.096"/>
<polygon fill="midnightblue" stroke="midnightblue" points="675.306,-115.574 680.165,-106.159 670.496,-110.489 675.306,-115.574"/>
</g>
</g>
</svg>
