<?xml version="1.0" encoding="UTF-8" standalone="no"?>
<!DOCTYPE svg PUBLIC "-//W3C//DTD SVG 1.1//EN"
 "http://www.w3.org/Graphics/SVG/1.1/DTD/svg11.dtd">
<!-- Generated by graphviz version 2.30.1 (20130214.1330)
 -->
<!-- Title: calc Pages: 1 -->
<svg width="815pt" height="523pt"
 viewBox="0.00 0.00 815.00 523.00" xmlns="http://www.w3.org/2000/svg" xmlns:xlink="http://www.w3.org/1999/xlink">
<g id="graph0" class="graph" transform="scale(1 1) rotate(0) translate(4 519)">
<title>calc</title>
<polygon fill="white" stroke="white" points="-4,5 -4,-519 812,-519 812,5 -4,5"/>
<g id="clust3" class="cluster"><title>cluster_inter</title>
<polygon fill="none" stroke="black" points="535,-328 535,-507 769,-507 769,-328 535,-328"/>
<text text-anchor="middle" x="652" y="-495" font-family="Helvetica,sans-Serif" font-size="10.00">interaction.c</text>
</g>
<g id="clust6" class="cluster"><title>cluster_romberg</title>
<polygon fill="none" stroke="black" points="161,-156 161,-227 245,-227 245,-156 161,-156"/>
<text text-anchor="middle" x="203" y="-215" font-family="Helvetica,sans-Serif" font-size="10.00">Romberg.c</text>
</g>
<g id="clust4" class="cluster"><title>cluster_cs</title>
<polygon fill="none" stroke="black" points="142,-23 142,-148 264,-148 264,-23 142,-23"/>
<text text-anchor="middle" x="203" y="-136" font-family="Helvetica,sans-Serif" font-size="10.00">crosssec.c</text>
</g>
<g id="clust5" class="cluster"><title>cluster_ocl</title>
<polygon fill="none" stroke="black" points="424,-328 424,-453 498,-453 498,-328 424,-328"/>
<text text-anchor="middle" x="461" y="-441" font-family="Helvetica,sans-Serif" font-size="10.00">oclcore.c</text>
</g>
<g id="clust7" class="cluster"><title>cluster_cisi</title>
<polygon fill="none" stroke="black" points="692,-249 692,-320 762,-320 762,-249 692,-249"/>
<text text-anchor="middle" x="727" y="-308" font-family="Helvetica,sans-Serif" font-size="10.00">sinint.c</text>
</g>
<g id="clust9" class="cluster"><title>cluster_calcE</title>
<polygon fill="none" stroke="black" points="284,-303 284,-374 400,-374 400,-303 284,-303"/>
<text text-anchor="middle" x="342" y="-362" font-family="Helvetica,sans-Serif" font-size="10.00">CalculateE.c</text>
</g>
<g id="clust1" class="cluster"><title>cluster_calc</title>
<polygon fill="none" stroke="black" points="8,-382 8,-507 391,-507 391,-382 8,-382"/>
<text text-anchor="middle" x="199.5" y="-495" font-family="Helvetica,sans-Serif" font-size="10.00">calculator.c</text>
</g>
<g id="clust2" class="cluster"><title>cluster_fft</title>
<polygon fill="none" stroke="black" points="409,-87 409,-320 637,-320 637,-87 409,-87"/>
<text text-anchor="middle" x="523" y="-308" font-family="Helvetica,sans-Serif" font-size="10.00">fft.c</text>
</g>
<g id="clust8" class="cluster"><title>cluster_igt</title>
<polygon fill="none" stroke="black" points="655,-170 655,-241 799,-241 799,-170 655,-170"/>
<text text-anchor="middle" x="727" y="-229" font-family="Helvetica,sans-Serif" font-size="10.00">propaesplibreintadda.f</text>
</g>
<g id="clust10" class="cluster"><title>cluster_comm</title>
<polygon fill="none" stroke="black" points="522,-8 522,-79 646,-79 646,-8 522,-8"/>
<text text-anchor="middle" x="584" y="-67" font-family="Helvetica,sans-Serif" font-size="10.00">comm.c</text>
</g>
<!-- Calculator -->
<g id="node1" class="node"><title>Calculator</title>
<polygon fill="gold" stroke="gold" points="95,-480 35,-480 35,-444 95,-444 95,-480"/>
<text text-anchor="middle" x="65" y="-459.5" font-family="Helvetica,sans-Serif" font-size="10.00">Calculator</text>
</g>
<!-- oclinit -->
<g id="node18" class="node"><title>oclinit</title>
<polygon fill="none" stroke="black" points="488,-372 434,-372 434,-336 488,-336 488,-372"/>
<text text-anchor="middle" x="461" y="-351.5" font-family="Helvetica,sans-Serif" font-size="10.00">oclinit</text>
</g>
<!-- Calculator&#45;&gt;oclinit -->
<g id="edge7" class="edge"><title>Calculator&#45;&gt;oclinit</title>
<path fill="none" stroke="red" stroke-width="2" d="M95.0058,-449.516C101.842,-445.597 108.679,-440.758 114,-435 131.95,-415.577 121.072,-400.444 139,-381 189.186,-326.57 212.402,-317.843 284,-299 333.858,-285.879 357.82,-269.355 400,-299 409.662,-305.79 401.462,-314.91 409,-324 413.45,-329.366 419.124,-333.995 425.061,-337.901"/>
<polygon fill="red" stroke="red" points="423.449,-341.014 433.835,-343.108 427.021,-334.994 423.449,-341.014"/>
</g>
<!-- AllocateEverything -->
<g id="node2" class="node"><title>AllocateEverything</title>
<polygon fill="none" stroke="black" points="113.5,-426 16.5,-426 16.5,-390 113.5,-390 113.5,-426"/>
<text text-anchor="middle" x="65" y="-405.5" font-family="Helvetica,sans-Serif" font-size="10.00">AllocateEverything</text>
</g>
<!-- calculate_one_orientation -->
<g id="node4" class="node"><title>calculate_one_orientation</title>
<polygon fill="cyan" stroke="cyan" points="266.5,-426 139.5,-426 139.5,-390 266.5,-390 266.5,-426"/>
<text text-anchor="middle" x="203" y="-405.5" font-family="Helvetica,sans-Serif" font-size="10.00">calculate_one_orientation</text>
</g>
<!-- AllocateEverything&#45;&gt;calculate_one_orientation -->
<g id="edge11" class="edge"><title>AllocateEverything&#45;&gt;calculate_one_orientation</title>
<path fill="none" stroke="red" stroke-width="2" d="M113.566,-408C118.607,-408 123.814,-408 129.059,-408"/>
<polygon fill="red" stroke="red" points="129.163,-411.5 139.163,-408 129.163,-404.5 129.163,-411.5"/>
</g>
<!-- Romberg2D -->
<g id="node20" class="node"><title>Romberg2D</title>
<polygon fill="none" stroke="black" points="237,-200 169,-200 169,-164 237,-164 237,-200"/>
<text text-anchor="middle" x="203" y="-179.5" font-family="Helvetica,sans-Serif" font-size="10.00">Romberg2D</text>
</g>
<!-- AllocateEverything&#45;&gt;Romberg2D -->
<g id="edge13" class="edge"><title>AllocateEverything&#45;&gt;Romberg2D</title>
<path fill="none" stroke="red" stroke-dasharray="5,2" d="M70.1599,-389.867C78.6139,-355.957 100.353,-281.789 139,-231 146.074,-221.704 155.321,-213.216 164.543,-206.013"/>
<polygon fill="red" stroke="red" points="166.654,-208.805 172.585,-200.026 162.474,-203.19 166.654,-208.805"/>
</g>
<!-- ReadScatGridParms -->
<g id="node16" class="node"><title>ReadScatGridParms</title>
<polygon fill="none" stroke="black" points="256,-121 150,-121 150,-85 256,-85 256,-121"/>
<text text-anchor="middle" x="203" y="-100.5" font-family="Helvetica,sans-Serif" font-size="10.00">ReadScatGridParms</text>
</g>
<!-- AllocateEverything&#45;&gt;ReadScatGridParms -->
<g id="edge17" class="edge"><title>AllocateEverything&#45;&gt;ReadScatGridParms</title>
<path fill="none" stroke="midnightblue" d="M67.3122,-389.951C71.2889,-345.739 86.3802,-229.952 139,-152 145.292,-142.68 153.926,-134.344 162.784,-127.306"/>
<polygon fill="midnightblue" stroke="midnightblue" points="165.013,-130.009 170.923,-121.216 160.819,-124.405 165.013,-130.009"/>
</g>
<!-- ReadAlldirParms -->
<g id="node17" class="node"><title>ReadAlldirParms</title>
<polygon fill="none" stroke="black" points="247.5,-67 158.5,-67 158.5,-31 247.5,-31 247.5,-67"/>
<text text-anchor="middle" x="203" y="-46.5" font-family="Helvetica,sans-Serif" font-size="10.00">ReadAlldirParms</text>
</g>
<!-- AllocateEverything&#45;&gt;ReadAlldirParms -->
<g id="edge18" class="edge"><title>AllocateEverything&#45;&gt;ReadAlldirParms</title>
<path fill="none" stroke="midnightblue" d="M67.814,-389.813C74.3339,-327.702 98.3715,-125.109 139,-76 141.982,-72.3956 145.534,-69.2614 149.41,-66.5382"/>
<polygon fill="midnightblue" stroke="midnightblue" points="151.533,-69.3465 158.319,-61.2097 147.94,-63.339 151.533,-69.3465"/>
</g>
<!-- FreeEverything -->
<g id="node3" class="node"><title>FreeEverything</title>
<polygon fill="none" stroke="black" points="382.5,-426 301.5,-426 301.5,-390 382.5,-390 382.5,-426"/>
<text text-anchor="middle" x="342" y="-405.5" font-family="Helvetica,sans-Serif" font-size="10.00">FreeEverything</text>
</g>
<!-- oclunload -->
<g id="node19" class="node"><title>oclunload</title>
<polygon fill="none" stroke="black" points="490,-426 432,-426 432,-390 490,-390 490,-426"/>
<text text-anchor="middle" x="461" y="-405.5" font-family="Helvetica,sans-Serif" font-size="10.00">oclunload</text>
</g>
<!-- FreeEverything&#45;&gt;oclunload -->
<g id="edge19" class="edge"><title>FreeEverything&#45;&gt;oclunload</title>
<path fill="none" stroke="midnightblue" d="M382.611,-408C395.248,-408 409.203,-408 421.742,-408"/>
<polygon fill="midnightblue" stroke="midnightblue" points="421.883,-411.5 431.883,-408 421.883,-404.5 421.883,-411.5"/>
</g>
<!-- Free_FFT_Dmat -->
<g id="node10" class="node"><title>Free_FFT_Dmat</title>
<polygon fill="none" stroke="black" points="504.5,-293 417.5,-293 417.5,-257 504.5,-257 504.5,-293"/>
<text text-anchor="middle" x="461" y="-272.5" font-family="Helvetica,sans-Serif" font-size="10.00">Free_FFT_Dmat</text>
</g>
<!-- FreeEverything&#45;&gt;Free_FFT_Dmat -->
<g id="edge20" class="edge"><title>FreeEverything&#45;&gt;Free_FFT_Dmat</title>
<path fill="none" stroke="midnightblue" d="M382.575,-393.375C389.257,-389.316 395.481,-384.254 400,-378 414.251,-358.279 397.651,-345.522 409,-324 413.585,-315.306 420.288,-307.258 427.338,-300.303"/>
<polygon fill="midnightblue" stroke="midnightblue" points="430.058,-302.555 435.039,-293.205 425.314,-297.408 430.058,-302.555"/>
</g>
<!-- FreeInteraction -->
<g id="node13" class="node"><title>FreeInteraction</title>
<polygon fill="none" stroke="black" points="624.5,-480 543.5,-480 543.5,-444 624.5,-444 624.5,-480"/>
<text text-anchor="middle" x="584" y="-459.5" font-family="Helvetica,sans-Serif" font-size="10.00">FreeInteraction</text>
</g>
<!-- FreeEverything&#45;&gt;FreeInteraction -->
<g id="edge21" class="edge"><title>FreeEverything&#45;&gt;FreeInteraction</title>
<path fill="none" stroke="midnightblue" d="M360.822,-426.016C373.181,-437.211 390.662,-450.643 409,-457 449.152,-470.919 497.694,-471.055 533.293,-468.351"/>
<polygon fill="midnightblue" stroke="midnightblue" points="533.774,-471.822 543.437,-467.477 533.173,-464.848 533.774,-471.822"/>
</g>
<!-- calculate_one_orientation&#45;&gt;FreeEverything -->
<g id="edge12" class="edge"><title>calculate_one_orientation&#45;&gt;FreeEverything</title>
<path fill="none" stroke="red" stroke-width="2" d="M266.886,-408C275.005,-408 283.23,-408 291.101,-408"/>
<polygon fill="red" stroke="red" points="291.204,-411.5 301.204,-408 291.204,-404.5 291.204,-411.5"/>
</g>
<!-- SaveMuellerAndCS -->
<g id="node23" class="node"><title>SaveMuellerAndCS</title>
<polygon fill="none" stroke="black" points="392,-347 292,-347 292,-311 392,-311 392,-347"/>
<text text-anchor="middle" x="342" y="-326.5" font-family="Helvetica,sans-Serif" font-size="10.00">SaveMuellerAndCS</text>
</g>
<!-- calculate_one_orientation&#45;&gt;SaveMuellerAndCS -->
<g id="edge15" class="edge"><title>calculate_one_orientation&#45;&gt;SaveMuellerAndCS</title>
<path fill="none" stroke="red" stroke-dasharray="5,2" d="M235.431,-389.876C254.923,-378.635 280.147,-364.09 301.051,-352.036"/>
<polygon fill="red" stroke="red" points="302.801,-355.067 309.716,-347.04 299.304,-349.003 302.801,-355.067"/>
</g>
<!-- InitDmatrix -->
<g id="node5" class="node"><title>InitDmatrix</title>
<polygon fill="none" stroke="black" points="492.5,-239 429.5,-239 429.5,-203 492.5,-203 492.5,-239"/>
<text text-anchor="middle" x="461" y="-218.5" font-family="Helvetica,sans-Serif" font-size="10.00">InitDmatrix</text>
</g>
<!-- fftInitBeforeD -->
<g id="node6" class="node"><title>fftInitBeforeD</title>
<polygon fill="none" stroke="black" points="619.5,-131 548.5,-131 548.5,-95 619.5,-95 619.5,-131"/>
<text text-anchor="middle" x="584" y="-110.5" font-family="Helvetica,sans-Serif" font-size="10.00">fftInitBeforeD</text>
</g>
<!-- InitDmatrix&#45;&gt;fftInitBeforeD -->
<g id="edge1" class="edge"><title>InitDmatrix&#45;&gt;fftInitBeforeD</title>
<path fill="none" stroke="midnightblue" d="M471.762,-202.753C482.167,-184.763 500.139,-157.497 522,-140 527.103,-135.916 532.921,-132.32 538.89,-129.196"/>
<polygon fill="midnightblue" stroke="midnightblue" points="540.813,-132.155 548.314,-124.672 537.784,-125.844 540.813,-132.155"/>
</g>
<!-- fft[X,Y,Z]_Dm -->
<g id="node7" class="node"><title>fft[X,Y,Z]_Dm</title>
<polygon fill="none" stroke="black" points="621,-185 547,-185 547,-149 621,-149 621,-185"/>
<text text-anchor="middle" x="584" y="-164.5" font-family="Helvetica,sans-Serif" font-size="10.00">fft[X,Y,Z]_Dm</text>
</g>
<!-- InitDmatrix&#45;&gt;fft[X,Y,Z]_Dm -->
<g id="edge2" class="edge"><title>InitDmatrix&#45;&gt;fft[X,Y,Z]_Dm</title>
<path fill="none" stroke="midnightblue" d="M492.507,-207.228C501.955,-202.975 512.403,-198.283 522,-194 527.024,-191.758 532.283,-189.418 537.518,-187.095"/>
<polygon fill="midnightblue" stroke="midnightblue" points="539.134,-190.206 546.858,-182.954 536.297,-183.807 539.134,-190.206"/>
</g>
<!-- TranposeYZ_Dm -->
<g id="node8" class="node"><title>TranposeYZ_Dm</title>
<polygon fill="none" stroke="black" points="628.5,-239 539.5,-239 539.5,-203 628.5,-203 628.5,-239"/>
<text text-anchor="middle" x="584" y="-218.5" font-family="Helvetica,sans-Serif" font-size="10.00">TranposeYZ_Dm</text>
</g>
<!-- InitDmatrix&#45;&gt;TranposeYZ_Dm -->
<g id="edge3" class="edge"><title>InitDmatrix&#45;&gt;TranposeYZ_Dm</title>
<path fill="none" stroke="midnightblue" d="M492.533,-221C503.582,-221 516.414,-221 528.881,-221"/>
<polygon fill="midnightblue" stroke="midnightblue" points="529.22,-224.5 539.22,-221 529.22,-217.5 529.22,-224.5"/>
</g>
<!-- fftInitAfterD -->
<g id="node9" class="node"><title>fftInitAfterD</title>
<polygon fill="none" stroke="black" points="616,-293 552,-293 552,-257 616,-257 616,-293"/>
<text text-anchor="middle" x="584" y="-272.5" font-family="Helvetica,sans-Serif" font-size="10.00">fftInitAfterD</text>
</g>
<!-- InitDmatrix&#45;&gt;fftInitAfterD -->
<g id="edge4" class="edge"><title>InitDmatrix&#45;&gt;fftInitAfterD</title>
<path fill="none" stroke="midnightblue" d="M492.507,-234.772C501.955,-239.025 512.403,-243.717 522,-248 528.689,-250.985 535.797,-254.144 542.707,-257.207"/>
<polygon fill="midnightblue" stroke="midnightblue" points="541.391,-260.452 551.951,-261.301 544.225,-254.052 541.391,-260.452"/>
</g>
<!-- InitDmatrix&#45;&gt;AllocateEverything -->
<g id="edge10" class="edge"><title>InitDmatrix&#45;&gt;AllocateEverything</title>
<path fill="none" stroke="red" stroke-width="2" d="M429.178,-221.434C368.291,-223.723 230.568,-236.156 139,-300 110.155,-320.111 89.4333,-355.594 77.5997,-380.381"/>
<polygon fill="red" stroke="red" points="74.3473,-379.077 73.3588,-389.625 80.7097,-381.995 74.3473,-379.077"/>
</g>
<!-- CalcInterTerm -->
<g id="node15" class="node"><title>CalcInterTerm</title>
<polygon fill="none" stroke="black" points="622.5,-372 545.5,-372 545.5,-336 622.5,-336 622.5,-372"/>
<text text-anchor="middle" x="584" y="-351.5" font-family="Helvetica,sans-Serif" font-size="10.00">CalcInterTerm</text>
</g>
<!-- InitDmatrix&#45;&gt;CalcInterTerm -->
<g id="edge23" class="edge"><title>InitDmatrix&#45;&gt;CalcInterTerm</title>
<path fill="none" stroke="midnightblue" d="M492.788,-236.006C497.429,-239.401 501.745,-243.392 505,-248 524.972,-276.269 500.59,-296.803 522,-324 525.976,-329.051 531.022,-333.311 536.502,-336.887"/>
<polygon fill="midnightblue" stroke="midnightblue" points="534.961,-340.038 545.38,-341.961 538.434,-333.96 534.961,-340.038"/>
</g>
<!-- BlockTranspose_Dm -->
<g id="node24" class="node"><title>BlockTranspose_Dm</title>
<polygon fill="none" stroke="black" points="637.5,-52 530.5,-52 530.5,-16 637.5,-16 637.5,-52"/>
<text text-anchor="middle" x="584" y="-31.5" font-family="Helvetica,sans-Serif" font-size="10.00">BlockTranspose_Dm</text>
</g>
<!-- InitDmatrix&#45;&gt;BlockTranspose_Dm -->
<g id="edge25" class="edge"><title>InitDmatrix&#45;&gt;BlockTranspose_Dm</title>
<path fill="none" stroke="midnightblue" d="M466.909,-202.547C474.993,-174.598 493.146,-120.791 522,-83 528.942,-73.9072 537.919,-65.4939 546.84,-58.2972"/>
<polygon fill="midnightblue" stroke="midnightblue" points="549.17,-60.9202 554.957,-52.0453 544.899,-55.3745 549.17,-60.9202"/>
</g>
<!-- InitInteraction -->
<g id="node11" class="node"><title>InitInteraction</title>
<polygon fill="none" stroke="black" points="621,-426 547,-426 547,-390 621,-390 621,-426"/>
<text text-anchor="middle" x="584" y="-405.5" font-family="Helvetica,sans-Serif" font-size="10.00">InitInteraction</text>
</g>
<!-- ReadTables -->
<g id="node12" class="node"><title>ReadTables</title>
<polygon fill="none" stroke="black" points="761,-426 693,-426 693,-390 761,-390 761,-426"/>
<text text-anchor="middle" x="727" y="-405.5" font-family="Helvetica,sans-Serif" font-size="10.00">ReadTables</text>
</g>
<!-- InitInteraction&#45;&gt;ReadTables -->
<g id="edge5" class="edge"><title>InitInteraction&#45;&gt;ReadTables</title>
<path fill="none" stroke="midnightblue" d="M621.311,-408C639.986,-408 662.883,-408 682.497,-408"/>
<polygon fill="midnightblue" stroke="midnightblue" points="682.711,-411.5 692.711,-408 682.711,-404.5 682.711,-411.5"/>
</g>
<!-- InitInteraction&#45;&gt;InitDmatrix -->
<g id="edge9" class="edge"><title>InitInteraction&#45;&gt;InitDmatrix</title>
<path fill="none" stroke="red" stroke-width="2" d="M546.857,-399.071C537.41,-395.045 528.161,-389.264 522,-381 486.383,-333.223 537.088,-298.215 505,-248 503.727,-246.008 502.25,-244.138 500.624,-242.385"/>
<polygon fill="red" stroke="red" points="502.544,-239.413 492.722,-235.44 497.923,-244.671 502.544,-239.413"/>
</g>
<!-- FreeTables -->
<g id="node14" class="node"><title>FreeTables</title>
<polygon fill="none" stroke="black" points="759.5,-480 694.5,-480 694.5,-444 759.5,-444 759.5,-480"/>
<text text-anchor="middle" x="727" y="-459.5" font-family="Helvetica,sans-Serif" font-size="10.00">FreeTables</text>
</g>
<!-- FreeInteraction&#45;&gt;FreeTables -->
<g id="edge6" class="edge"><title>FreeInteraction&#45;&gt;FreeTables</title>
<path fill="none" stroke="midnightblue" d="M624.652,-462C643.208,-462 665.316,-462 684.141,-462"/>
<polygon fill="midnightblue" stroke="midnightblue" points="684.218,-465.5 694.218,-462 684.218,-458.5 684.218,-465.5"/>
</g>
<!-- cisi -->
<g id="node21" class="node"><title>cisi</title>
<polygon fill="none" stroke="black" points="754,-293 700,-293 700,-257 754,-257 754,-293"/>
<text text-anchor="middle" x="727" y="-272.5" font-family="Helvetica,sans-Serif" font-size="10.00">cisi</text>
</g>
<!-- CalcInterTerm&#45;&gt;cisi -->
<g id="edge22" class="edge"><title>CalcInterTerm&#45;&gt;cisi</title>
<path fill="none" stroke="midnightblue" d="M622.703,-336.136C630.475,-332.265 638.557,-328.098 646,-324 660.981,-315.751 677.131,-306.026 690.971,-297.423"/>
<polygon fill="midnightblue" stroke="midnightblue" points="693.079,-300.232 699.697,-291.958 689.364,-294.3 693.079,-300.232"/>
</g>
<!-- propaespacelibreintadda_ -->
<g id="node22" class="node"><title>propaespacelibreintadda_</title>
<polygon fill="none" stroke="black" points="790.5,-214 663.5,-214 663.5,-178 790.5,-178 790.5,-214"/>
<text text-anchor="middle" x="727" y="-193.5" font-family="Helvetica,sans-Serif" font-size="10.00">propaespacelibreintadda_</text>
</g>
<!-- CalcInterTerm&#45;&gt;propaespacelibreintadda_ -->
<g id="edge24" class="edge"><title>CalcInterTerm&#45;&gt;propaespacelibreintadda_</title>
<path fill="none" stroke="midnightblue" d="M622.559,-342.704C631.559,-338.264 640.224,-332.202 646,-324 666.348,-295.108 636.829,-275.309 655,-245 660.956,-235.065 669.794,-226.661 679.229,-219.769"/>
<polygon fill="midnightblue" stroke="midnightblue" points="681.29,-222.6 687.617,-214.101 677.371,-216.8 681.29,-222.6"/>
</g>
<!-- oclinit&#45;&gt;InitInteraction -->
<g id="edge8" class="edge"><title>oclinit&#45;&gt;InitInteraction</title>
<path fill="none" stroke="red" stroke-width="2" d="M488.27,-365.864C498.756,-370.588 510.943,-376.065 522,-381 527.024,-383.242 532.283,-385.582 537.518,-387.905"/>
<polygon fill="red" stroke="red" points="536.297,-391.193 546.858,-392.046 539.134,-384.794 536.297,-391.193"/>
</g>
<!-- Romberg2D&#45;&gt;calculate_one_orientation -->
<g id="edge14" class="edge"><title>Romberg2D&#45;&gt;calculate_one_orientation</title>
<path fill="none" stroke="red" stroke-dasharray="5,2" d="M203,-200.098C203,-259.974 203,-319.851 203,-379.727"/>
<polygon fill="red" stroke="red" points="199.5,-379.727 203,-389.727 206.5,-379.727 199.5,-379.727"/>
</g>
<!-- SaveMuellerAndCS&#45;&gt;FreeEverything -->
<g id="edge16" class="edge"><title>SaveMuellerAndCS&#45;&gt;FreeEverything</title>
<path fill="none" stroke="red" stroke-dasharray="5,2" d="M342,-347.207C342,-358.116 342,-369.025 342,-379.934"/>
<polygon fill="red" stroke="red" points="338.5,-379.952 342,-389.952 345.5,-379.952 338.5,-379.952"/>
</g>
</g>
</svg>
