<?xml version="1.0" encoding="UTF-8" standalone="no"?>
<!DOCTYPE svg PUBLIC "-//W3C//DTD SVG 1.1//EN"
 "http://www.w3.org/Graphics/SVG/1.1/DTD/svg11.dtd">
<!-- Generated by graphviz version 2.30.1 (20130214.1330)
 -->
<!-- Title: calc Pages: 1 -->
<svg width="1130pt" height="535pt"
 viewBox="0.00 0.00 1130.00 535.00" xmlns="http://www.w3.org/2000/svg" xmlns:xlink="http://www.w3.org/1999/xlink">
<g id="graph0" class="graph" transform="scale(1 1) rotate(0) translate(4 531)">
<title>calc</title>
<polygon fill="white" stroke="white" points="-4,5 -4,-531 1127,-531 1127,5 -4,5"/>
<g id="clust3" class="cluster"><title>cluster_inter</title>
<polygon fill="none" stroke="black" points="747,-336 747,-519 1071,-519 1071,-336 747,-336"/>
<text text-anchor="middle" x="909" y="-503.8" font-family="Helvetica,sans-Serif" font-size="14.00">interaction.c</text>
</g>
<g id="clust6" class="cluster"><title>cluster_romberg</title>
<polygon fill="none" stroke="black" points="219,-156 219,-231 331,-231 331,-156 219,-156"/>
<text text-anchor="middle" x="275" y="-215.8" font-family="Helvetica,sans-Serif" font-size="14.00">Romberg.c</text>
</g>
<g id="clust4" class="cluster"><title>cluster_cs</title>
<polygon fill="none" stroke="black" points="193,-19 193,-148 357,-148 357,-19 193,-19"/>
<text text-anchor="middle" x="275" y="-132.8" font-family="Helvetica,sans-Serif" font-size="14.00">crosssec.c</text>
</g>
<g id="clust5" class="cluster"><title>cluster_ocl</title>
<polygon fill="none" stroke="black" points="591,-336 591,-465 685,-465 685,-336 591,-336"/>
<text text-anchor="middle" x="638" y="-449.8" font-family="Helvetica,sans-Serif" font-size="14.00">oclcore.c</text>
</g>
<g id="clust7" class="cluster"><title>cluster_cisi</title>
<polygon fill="none" stroke="black" points="980,-253 980,-328 1050,-328 1050,-253 980,-253"/>
<text text-anchor="middle" x="1015" y="-312.8" font-family="Helvetica,sans-Serif" font-size="14.00">sinint.c</text>
</g>
<g id="clust8" class="cluster"><title>cluster_igt</title>
<polygon fill="none" stroke="black" points="916,-170 916,-245 1114,-245 1114,-170 916,-170"/>
<text text-anchor="middle" x="1015" y="-229.8" font-family="Helvetica,sans-Serif" font-size="14.00">propaesplibreintadda.f</text>
</g>
<g id="clust9" class="cluster"><title>cluster_calcE</title>
<polygon fill="none" stroke="black" points="392,-307 392,-382 548,-382 548,-307 392,-307"/>
<text text-anchor="middle" x="470" y="-366.8" font-family="Helvetica,sans-Serif" font-size="14.00">CalculateE.c</text>
</g>
<g id="clust1" class="cluster"><title>cluster_calc</title>
<polygon fill="none" stroke="black" points="8,-390 8,-519 535,-519 535,-390 8,-390"/>
<text text-anchor="middle" x="271.5" y="-503.8" font-family="Helvetica,sans-Serif" font-size="14.00">calculator.c</text>
</g>
<g id="clust2" class="cluster"><title>cluster_fft</title>
<polygon fill="none" stroke="black" points="568,-91 568,-328 883,-328 883,-91 568,-91"/>
<text text-anchor="middle" x="725.5" y="-312.8" font-family="Helvetica,sans-Serif" font-size="14.00">fft.c</text>
</g>
<g id="clust10" class="cluster"><title>cluster_comm</title>
<polygon fill="none" stroke="black" points="728,-8 728,-83 896,-83 896,-8 728,-8"/>
<text text-anchor="middle" x="812" y="-67.8" font-family="Helvetica,sans-Serif" font-size="14.00">comm.c</text>
</g>
<!-- Calculator -->
<g id="node1" class="node"><title>Calculator</title>
<polygon fill="gold" stroke="gold" points="123,-488 43,-488 43,-452 123,-452 123,-488"/>
<text text-anchor="middle" x="83" y="-466.3" font-family="Helvetica,sans-Serif" font-size="14.00">Calculator</text>
</g>
<!-- oclinit -->
<g id="node18" class="node"><title>oclinit</title>
<polygon fill="none" stroke="black" points="665,-380 611,-380 611,-344 665,-344 665,-380"/>
<text text-anchor="middle" x="638" y="-358.3" font-family="Helvetica,sans-Serif" font-size="14.00">oclinit</text>
</g>
<!-- Calculator&#45;&gt;oclinit -->
<g id="edge7" class="edge"><title>Calculator&#45;&gt;oclinit</title>
<path fill="none" stroke="red" stroke-width="2" d="M123.133,-458.443C132.546,-454.507 142.142,-449.427 150,-443 172.328,-424.738 163.738,-407.341 186,-389 262.573,-325.913 294.72,-322.491 392,-303 459.982,-289.379 486.615,-270.767 548,-303 561.862,-310.279 555.911,-322.051 568,-332 577.771,-340.041 590.028,-346.292 601.49,-350.957"/>
<polygon fill="red" stroke="red" points="600.267,-354.237 610.859,-354.507 602.747,-347.691 600.267,-354.237"/>
</g>
<!-- AllocateEverything -->
<g id="node2" class="node"><title>AllocateEverything</title>
<polygon fill="none" stroke="black" points="150,-434 16,-434 16,-398 150,-398 150,-434"/>
<text text-anchor="middle" x="83" y="-412.3" font-family="Helvetica,sans-Serif" font-size="14.00">AllocateEverything</text>
</g>
<!-- calculate_one_orientation -->
<g id="node4" class="node"><title>calculate_one_orientation</title>
<polygon fill="cyan" stroke="cyan" points="364,-434 186,-434 186,-398 364,-398 364,-434"/>
<text text-anchor="middle" x="275" y="-412.3" font-family="Helvetica,sans-Serif" font-size="14.00">calculate_one_orientation</text>
</g>
<!-- AllocateEverything&#45;&gt;calculate_one_orientation -->
<g id="edge11" class="edge"><title>AllocateEverything&#45;&gt;calculate_one_orientation</title>
<path fill="none" stroke="red" stroke-width="2" d="M150.186,-416C158.499,-416 167.138,-416 175.812,-416"/>
<polygon fill="red" stroke="red" points="175.994,-419.5 185.994,-416 175.994,-412.5 175.994,-419.5"/>
</g>
<!-- Romberg2D -->
<g id="node20" class="node"><title>Romberg2D</title>
<polygon fill="none" stroke="black" points="322.5,-200 227.5,-200 227.5,-164 322.5,-164 322.5,-200"/>
<text text-anchor="middle" x="275" y="-178.3" font-family="Helvetica,sans-Serif" font-size="14.00">Romberg2D</text>
</g>
<!-- AllocateEverything&#45;&gt;Romberg2D -->
<g id="edge13" class="edge"><title>AllocateEverything&#45;&gt;Romberg2D</title>
<path fill="none" stroke="red" stroke-dasharray="5,2" d="M90.574,-397.854C103.978,-362.853 137.366,-285.061 186,-235 197.316,-223.352 211.715,-213.285 225.572,-205.148"/>
<polygon fill="red" stroke="red" points="227.568,-208.041 234.562,-200.082 224.132,-201.942 227.568,-208.041"/>
</g>
<!-- ReadScatGridParms -->
<g id="node16" class="node"><title>ReadScatGridParms</title>
<polygon fill="none" stroke="black" points="349,-117 201,-117 201,-81 349,-81 349,-117"/>
<text text-anchor="middle" x="275" y="-95.3" font-family="Helvetica,sans-Serif" font-size="14.00">ReadScatGridParms</text>
</g>
<!-- AllocateEverything&#45;&gt;ReadScatGridParms -->
<g id="edge17" class="edge"><title>AllocateEverything&#45;&gt;ReadScatGridParms</title>
<path fill="none" stroke="midnightblue" d="M86.8174,-397.925C94.7776,-352.02 121.21,-229.125 186,-152 196.069,-140.014 209.578,-130.017 222.985,-122.053"/>
<polygon fill="midnightblue" stroke="midnightblue" points="224.753,-125.075 231.744,-117.114 221.314,-118.978 224.753,-125.075"/>
</g>
<!-- ReadAlldirParms -->
<g id="node17" class="node"><title>ReadAlldirParms</title>
<polygon fill="none" stroke="black" points="337,-63 213,-63 213,-27 337,-27 337,-63"/>
<text text-anchor="middle" x="275" y="-41.3" font-family="Helvetica,sans-Serif" font-size="14.00">ReadAlldirParms</text>
</g>
<!-- AllocateEverything&#45;&gt;ReadAlldirParms -->
<g id="edge18" class="edge"><title>AllocateEverything&#45;&gt;ReadAlldirParms</title>
<path fill="none" stroke="midnightblue" d="M83.7651,-397.724C84.06,-340.986 92.8426,-166.042 186,-72 191.103,-66.8484 197.162,-62.6748 203.677,-59.2943"/>
<polygon fill="midnightblue" stroke="midnightblue" points="205.136,-62.4761 212.798,-55.1588 202.245,-56.1008 205.136,-62.4761"/>
</g>
<!-- FreeEverything -->
<g id="node3" class="node"><title>FreeEverything</title>
<polygon fill="none" stroke="black" points="526.5,-434 413.5,-434 413.5,-398 526.5,-398 526.5,-434"/>
<text text-anchor="middle" x="470" y="-412.3" font-family="Helvetica,sans-Serif" font-size="14.00">FreeEverything</text>
</g>
<!-- oclunload -->
<g id="node19" class="node"><title>oclunload</title>
<polygon fill="none" stroke="black" points="676.5,-434 599.5,-434 599.5,-398 676.5,-398 676.5,-434"/>
<text text-anchor="middle" x="638" y="-412.3" font-family="Helvetica,sans-Serif" font-size="14.00">oclunload</text>
</g>
<!-- FreeEverything&#45;&gt;oclunload -->
<g id="edge19" class="edge"><title>FreeEverything&#45;&gt;oclunload</title>
<path fill="none" stroke="midnightblue" d="M526.737,-416C547.017,-416 569.739,-416 589.263,-416"/>
<polygon fill="midnightblue" stroke="midnightblue" points="589.447,-419.5 599.447,-416 589.447,-412.5 589.447,-419.5"/>
</g>
<!-- Free_FFT_Dmat -->
<g id="node10" class="node"><title>Free_FFT_Dmat</title>
<polygon fill="none" stroke="black" points="700,-297 576,-297 576,-261 700,-261 700,-297"/>
<text text-anchor="middle" x="638" y="-275.3" font-family="Helvetica,sans-Serif" font-size="14.00">Free_FFT_Dmat</text>
</g>
<!-- FreeEverything&#45;&gt;Free_FFT_Dmat -->
<g id="edge20" class="edge"><title>FreeEverything&#45;&gt;Free_FFT_Dmat</title>
<path fill="none" stroke="midnightblue" d="M526.68,-400.965C534.528,-397.046 541.965,-392.138 548,-386 565.944,-367.751 552.813,-352.601 568,-332 576.142,-320.955 587.195,-311.075 598.067,-302.923"/>
<polygon fill="midnightblue" stroke="midnightblue" points="600.198,-305.702 606.294,-297.036 596.125,-300.009 600.198,-305.702"/>
</g>
<!-- FreeInteraction -->
<g id="node13" class="node"><title>FreeInteraction</title>
<polygon fill="none" stroke="black" points="868.5,-488 755.5,-488 755.5,-452 868.5,-452 868.5,-488"/>
<text text-anchor="middle" x="812" y="-466.3" font-family="Helvetica,sans-Serif" font-size="14.00">FreeInteraction</text>
</g>
<!-- FreeEverything&#45;&gt;FreeInteraction -->
<g id="edge21" class="edge"><title>FreeEverything&#45;&gt;FreeInteraction</title>
<path fill="none" stroke="midnightblue" d="M495.876,-434.126C514.653,-446.64 541.611,-462.203 568,-469 626.547,-484.08 695.694,-482.59 745.227,-478.356"/>
<polygon fill="midnightblue" stroke="midnightblue" points="745.849,-481.814 755.488,-477.416 745.21,-474.843 745.849,-481.814"/>
</g>
<!-- calculate_one_orientation&#45;&gt;FreeEverything -->
<g id="edge12" class="edge"><title>calculate_one_orientation&#45;&gt;FreeEverything</title>
<path fill="none" stroke="red" stroke-width="2" d="M364.028,-416C377.154,-416 390.491,-416 403.057,-416"/>
<polygon fill="red" stroke="red" points="403.41,-419.5 413.41,-416 403.41,-412.5 403.41,-419.5"/>
</g>
<!-- SaveMuellerAndCS -->
<g id="node23" class="node"><title>SaveMuellerAndCS</title>
<polygon fill="none" stroke="black" points="540,-351 400,-351 400,-315 540,-315 540,-351"/>
<text text-anchor="middle" x="470" y="-329.3" font-family="Helvetica,sans-Serif" font-size="14.00">SaveMuellerAndCS</text>
</g>
<!-- calculate_one_orientation&#45;&gt;SaveMuellerAndCS -->
<g id="edge15" class="edge"><title>calculate_one_orientation&#45;&gt;SaveMuellerAndCS</title>
<path fill="none" stroke="red" stroke-dasharray="5,2" d="M317.878,-397.99C347.115,-385.417 386.327,-368.554 417.481,-355.156"/>
<polygon fill="red" stroke="red" points="419.067,-358.284 426.871,-351.118 416.302,-351.853 419.067,-358.284"/>
</g>
<!-- InitDmatrix -->
<g id="node5" class="node"><title>InitDmatrix</title>
<polygon fill="none" stroke="black" points="679.5,-243 596.5,-243 596.5,-207 679.5,-207 679.5,-243"/>
<text text-anchor="middle" x="638" y="-221.3" font-family="Helvetica,sans-Serif" font-size="14.00">InitDmatrix</text>
</g>
<!-- fftInitBeforeD -->
<g id="node6" class="node"><title>fftInitBeforeD</title>
<polygon fill="none" stroke="black" points="863,-135 761,-135 761,-99 863,-99 863,-135"/>
<text text-anchor="middle" x="812" y="-113.3" font-family="Helvetica,sans-Serif" font-size="14.00">fftInitBeforeD</text>
</g>
<!-- InitDmatrix&#45;&gt;fftInitBeforeD -->
<g id="edge1" class="edge"><title>InitDmatrix&#45;&gt;fftInitBeforeD</title>
<path fill="none" stroke="midnightblue" d="M654.657,-206.798C671.214,-188.581 698.917,-160.901 728,-144 735.251,-139.786 743.246,-136.133 751.324,-132.994"/>
<polygon fill="midnightblue" stroke="midnightblue" points="752.606,-136.252 760.806,-129.543 750.212,-129.674 752.606,-136.252"/>
</g>
<!-- fft[X,Y,Z]_Dm -->
<g id="node7" class="node"><title>fft[X,Y,Z]_Dm</title>
<polygon fill="none" stroke="black" points="863.5,-189 760.5,-189 760.5,-153 863.5,-153 863.5,-189"/>
<text text-anchor="middle" x="812" y="-167.3" font-family="Helvetica,sans-Serif" font-size="14.00">fft[X,Y,Z]_Dm</text>
</g>
<!-- InitDmatrix&#45;&gt;fft[X,Y,Z]_Dm -->
<g id="edge2" class="edge"><title>InitDmatrix&#45;&gt;fft[X,Y,Z]_Dm</title>
<path fill="none" stroke="midnightblue" d="M679.762,-212.203C700.884,-205.571 727.096,-197.342 750.528,-189.985"/>
<polygon fill="midnightblue" stroke="midnightblue" points="751.885,-193.228 760.377,-186.893 749.788,-186.549 751.885,-193.228"/>
</g>
<!-- TranposeYZ_Dm -->
<g id="node8" class="node"><title>TranposeYZ_Dm</title>
<polygon fill="none" stroke="black" points="875,-243 749,-243 749,-207 875,-207 875,-243"/>
<text text-anchor="middle" x="812" y="-221.3" font-family="Helvetica,sans-Serif" font-size="14.00">TranposeYZ_Dm</text>
</g>
<!-- InitDmatrix&#45;&gt;TranposeYZ_Dm -->
<g id="edge3" class="edge"><title>InitDmatrix&#45;&gt;TranposeYZ_Dm</title>
<path fill="none" stroke="midnightblue" d="M679.762,-225C697.438,-225 718.679,-225 738.872,-225"/>
<polygon fill="midnightblue" stroke="midnightblue" points="738.995,-228.5 748.995,-225 738.995,-221.5 738.995,-228.5"/>
</g>
<!-- fftInitAfterD -->
<g id="node9" class="node"><title>fftInitAfterD</title>
<polygon fill="none" stroke="black" points="856.5,-297 767.5,-297 767.5,-261 856.5,-261 856.5,-297"/>
<text text-anchor="middle" x="812" y="-275.3" font-family="Helvetica,sans-Serif" font-size="14.00">fftInitAfterD</text>
</g>
<!-- InitDmatrix&#45;&gt;fftInitAfterD -->
<g id="edge4" class="edge"><title>InitDmatrix&#45;&gt;fftInitAfterD</title>
<path fill="none" stroke="midnightblue" d="M679.762,-237.797C703.002,-245.094 732.404,-254.325 757.485,-262.199"/>
<polygon fill="midnightblue" stroke="midnightblue" points="756.631,-265.599 767.22,-265.255 758.728,-258.92 756.631,-265.599"/>
</g>
<!-- InitDmatrix&#45;&gt;AllocateEverything -->
<g id="edge10" class="edge"><title>InitDmatrix&#45;&gt;AllocateEverything</title>
<path fill="none" stroke="red" stroke-width="2" d="M596.202,-223.931C513.516,-223.493 322.454,-231.382 186,-306 149.616,-325.896 119.032,-363.597 101.11,-389.257"/>
<polygon fill="red" stroke="red" points="98.0408,-387.545 95.3092,-397.782 103.828,-391.483 98.0408,-387.545"/>
</g>
<!-- CalcInterTerm -->
<g id="node15" class="node"><title>CalcInterTerm</title>
<polygon fill="none" stroke="black" points="865.5,-380 758.5,-380 758.5,-344 865.5,-344 865.5,-380"/>
<text text-anchor="middle" x="812" y="-358.3" font-family="Helvetica,sans-Serif" font-size="14.00">CalcInterTerm</text>
</g>
<!-- InitDmatrix&#45;&gt;CalcInterTerm -->
<g id="edge23" class="edge"><title>InitDmatrix&#45;&gt;CalcInterTerm</title>
<path fill="none" stroke="midnightblue" d="M679.789,-237.455C687.247,-241.19 694.423,-245.958 700,-252 725.55,-279.681 701.499,-305.228 728,-332 733.966,-338.027 741.231,-342.849 748.955,-346.707"/>
<polygon fill="midnightblue" stroke="midnightblue" points="747.624,-349.946 758.184,-350.808 750.466,-343.549 747.624,-349.946"/>
</g>
<!-- BlockTranspose_Dm -->
<g id="node24" class="node"><title>BlockTranspose_Dm</title>
<polygon fill="none" stroke="black" points="887.5,-52 736.5,-52 736.5,-16 887.5,-16 887.5,-52"/>
<text text-anchor="middle" x="812" y="-30.3" font-family="Helvetica,sans-Serif" font-size="14.00">BlockTranspose_Dm</text>
</g>
<!-- InitDmatrix&#45;&gt;BlockTranspose_Dm -->
<g id="edge25" class="edge"><title>InitDmatrix&#45;&gt;BlockTranspose_Dm</title>
<path fill="none" stroke="midnightblue" d="M647.564,-206.714C661.434,-178.51 691.026,-123.807 728,-87 739.331,-75.7201 753.459,-65.6088 766.829,-57.3176"/>
<polygon fill="midnightblue" stroke="midnightblue" points="768.691,-60.2819 775.468,-52.1379 765.092,-54.2782 768.691,-60.2819"/>
</g>
<!-- InitInteraction -->
<g id="node11" class="node"><title>InitInteraction</title>
<polygon fill="none" stroke="black" points="862.5,-434 761.5,-434 761.5,-398 862.5,-398 862.5,-434"/>
<text text-anchor="middle" x="812" y="-412.3" font-family="Helvetica,sans-Serif" font-size="14.00">InitInteraction</text>
</g>
<!-- ReadTables -->
<g id="node12" class="node"><title>ReadTables</title>
<polygon fill="none" stroke="black" points="1062.5,-434 967.5,-434 967.5,-398 1062.5,-398 1062.5,-434"/>
<text text-anchor="middle" x="1015" y="-412.3" font-family="Helvetica,sans-Serif" font-size="14.00">ReadTables</text>
</g>
<!-- InitInteraction&#45;&gt;ReadTables -->
<g id="edge5" class="edge"><title>InitInteraction&#45;&gt;ReadTables</title>
<path fill="none" stroke="midnightblue" d="M862.685,-416C891.283,-416 927.331,-416 957.068,-416"/>
<polygon fill="midnightblue" stroke="midnightblue" points="957.3,-419.5 967.3,-416 957.3,-412.5 957.3,-419.5"/>
</g>
<!-- InitInteraction&#45;&gt;InitDmatrix -->
<g id="edge9" class="edge"><title>InitInteraction&#45;&gt;InitDmatrix</title>
<path fill="none" stroke="red" stroke-width="2" d="M761.291,-408.953C748.895,-404.956 736.68,-398.72 728,-389 686.604,-342.646 738.974,-300.408 700,-252 696.725,-247.932 692.711,-244.46 688.32,-241.499"/>
<polygon fill="red" stroke="red" points="689.917,-238.38 679.506,-236.414 686.419,-244.443 689.917,-238.38"/>
</g>
<!-- FreeTables -->
<g id="node14" class="node"><title>FreeTables</title>
<polygon fill="none" stroke="black" points="1060,-488 970,-488 970,-452 1060,-452 1060,-488"/>
<text text-anchor="middle" x="1015" y="-466.3" font-family="Helvetica,sans-Serif" font-size="14.00">FreeTables</text>
</g>
<!-- FreeInteraction&#45;&gt;FreeTables -->
<g id="edge6" class="edge"><title>FreeInteraction&#45;&gt;FreeTables</title>
<path fill="none" stroke="midnightblue" d="M868.723,-470C897.178,-470 931.653,-470 959.878,-470"/>
<polygon fill="midnightblue" stroke="midnightblue" points="959.971,-473.5 969.971,-470 959.971,-466.5 959.971,-473.5"/>
</g>
<!-- cisi -->
<g id="node21" class="node"><title>cisi</title>
<polygon fill="none" stroke="black" points="1042,-297 988,-297 988,-261 1042,-261 1042,-297"/>
<text text-anchor="middle" x="1015" y="-275.3" font-family="Helvetica,sans-Serif" font-size="14.00">cisi</text>
</g>
<!-- CalcInterTerm&#45;&gt;cisi -->
<g id="edge22" class="edge"><title>CalcInterTerm&#45;&gt;cisi</title>
<path fill="none" stroke="midnightblue" d="M865.031,-343.874C875.347,-340.089 886.058,-336.023 896,-332 924.177,-320.599 955.545,-306.438 978.853,-295.622"/>
<polygon fill="midnightblue" stroke="midnightblue" points="980.414,-298.756 987.998,-291.359 977.456,-292.412 980.414,-298.756"/>
</g>
<!-- propaespacelibreintadda_ -->
<g id="node22" class="node"><title>propaespacelibreintadda_</title>
<polygon fill="none" stroke="black" points="1106,-214 924,-214 924,-178 1106,-178 1106,-214"/>
<text text-anchor="middle" x="1015" y="-192.3" font-family="Helvetica,sans-Serif" font-size="14.00">propaespacelibreintadda_</text>
</g>
<!-- CalcInterTerm&#45;&gt;propaespacelibreintadda_ -->
<g id="edge24" class="edge"><title>CalcInterTerm&#45;&gt;propaespacelibreintadda_</title>
<path fill="none" stroke="midnightblue" d="M865.587,-351.741C876.931,-347.327 887.926,-341.018 896,-332 921.31,-303.73 892.863,-279.075 916,-249 925.627,-236.487 939.077,-226.565 952.934,-218.855"/>
<polygon fill="midnightblue" stroke="midnightblue" points="954.809,-221.824 962.062,-214.102 951.576,-215.615 954.809,-221.824"/>
</g>
<!-- oclinit&#45;&gt;InitInteraction -->
<g id="edge8" class="edge"><title>oclinit&#45;&gt;InitInteraction</title>
<path fill="none" stroke="red" stroke-width="2" d="M665.123,-370.201C688.004,-377.385 722.112,-388.093 751.595,-397.349"/>
<polygon fill="red" stroke="red" points="750.804,-400.77 761.393,-400.426 752.9,-394.091 750.804,-400.77"/>
</g>
<!-- Romberg2D&#45;&gt;calculate_one_orientation -->
<g id="edge14" class="edge"><title>Romberg2D&#45;&gt;calculate_one_orientation</title>
<path fill="none" stroke="red" stroke-dasharray="5,2" d="M275,-200.281C275,-262.804 275,-325.326 275,-387.849"/>
<polygon fill="red" stroke="red" points="271.5,-387.883 275,-397.883 278.5,-387.883 271.5,-387.883"/>
</g>
<!-- SaveMuellerAndCS&#45;&gt;FreeEverything -->
<g id="edge16" class="edge"><title>SaveMuellerAndCS&#45;&gt;FreeEverything</title>
<path fill="none" stroke="red" stroke-dasharray="5,2" d="M470,-351.156C470,-363.293 470,-375.43 470,-387.568"/>
<polygon fill="red" stroke="red" points="466.5,-387.763 470,-397.763 473.5,-387.763 466.5,-387.763"/>
</g>
</g>
</svg>
