<?xml version="1.0" encoding="UTF-8" standalone="no"?>
<!DOCTYPE svg PUBLIC "-//W3C//DTD SVG 1.1//EN"
 "http://www.w3.org/Graphics/SVG/1.1/DTD/svg11.dtd">
<!-- Generated by graphviz version 2.30.1 (20130214.1330)
 -->
<!-- Title: fft Pages: 1 -->
<svg width="277pt" height="656pt"
 viewBox="0.00 0.00 277.00 656.00" xmlns="http://www.w3.org/2000/svg" xmlns:xlink="http://www.w3.org/1999/xlink">
<g id="graph0" class="graph" transform="scale(1 1) rotate(0) translate(4 652)">
<title>fft</title>
<polygon fill="white" stroke="white" points="-4,5 -4,-652 274,-652 274,5 -4,5"/>
<g id="clust3" class="cluster"><title>cluster_cfft99</title>
<polygon fill="none" stroke="black" points="149,-328 149,-453 219,-453 219,-328 149,-328"/>
<text text-anchor="middle" x="184" y="-441" font-family="Helvetica,sans-Serif" font-size="10.00">cfft99D.f</text>
</g>
<g id="clust1" class="cluster"><title>cluster_fft</title>
<polygon fill="none" stroke="black" points="8,-220 8,-453 98,-453 98,-220 8,-220"/>
<text text-anchor="middle" x="53" y="-441" font-family="Helvetica,sans-Serif" font-size="10.00">fft.c</text>
</g>
<g id="clust2" class="cluster"><title>cluster_fftw</title>
<polygon fill="none" stroke="black" points="126,-461 126,-640 242,-640 242,-461 126,-461"/>
<text text-anchor="middle" x="184" y="-628" font-family="Helvetica,sans-Serif" font-size="10.00">fftw3.h</text>
</g>
<g id="clust4" class="cluster"><title>cluster_apple</title>
<polygon fill="none" stroke="black" points="112,-195 112,-320 256,-320 256,-195 112,-195"/>
<text text-anchor="middle" x="184" y="-308" font-family="Helvetica,sans-Serif" font-size="10.00">Apple clFFT</text>
</g>
<g id="clust5" class="cluster"><title>cluster_clamd</title>
<polygon fill="none" stroke="black" points="107,-8 107,-187 261,-187 261,-8 107,-8"/>
<text text-anchor="middle" x="184" y="-175" font-family="Helvetica,sans-Serif" font-size="10.00">clAmdFft.h</text>
</g>
<!-- fftInitBeforeD -->
<g id="node1" class="node"><title>fftInitBeforeD</title>
<polygon fill="none" stroke="black" points="88.5,-426 17.5,-426 17.5,-390 88.5,-390 88.5,-426"/>
<text text-anchor="middle" x="53" y="-405.5" font-family="Helvetica,sans-Serif" font-size="10.00">fftInitBeforeD</text>
</g>
<!-- fftw_plan_many_dft -->
<g id="node5" class="node"><title>fftw_plan_many_dft</title>
<polygon fill="none" stroke="black" points="233.5,-559 134.5,-559 134.5,-523 233.5,-523 233.5,-559"/>
<text text-anchor="middle" x="184" y="-538.5" font-family="Helvetica,sans-Serif" font-size="10.00">fftw_plan_many_dft</text>
</g>
<!-- fftInitBeforeD&#45;&gt;fftw_plan_many_dft -->
<g id="edge7" class="edge"><title>fftInitBeforeD&#45;&gt;fftw_plan_many_dft</title>
<path fill="none" stroke="midnightblue" d="M58.5764,-426.358C65.3374,-449.835 80.1857,-490.28 107,-514 112.214,-518.613 118.27,-522.452 124.643,-525.645"/>
<polygon fill="midnightblue" stroke="midnightblue" points="123.588,-529.006 134.148,-529.874 126.434,-522.611 123.588,-529.006"/>
</g>
<!-- cftfax_ -->
<g id="node8" class="node"><title>cftfax_</title>
<polygon fill="none" stroke="black" points="211,-426 157,-426 157,-390 211,-390 211,-426"/>
<text text-anchor="middle" x="184" y="-405.5" font-family="Helvetica,sans-Serif" font-size="10.00">cftfax_</text>
</g>
<!-- fftInitBeforeD&#45;&gt;cftfax_ -->
<g id="edge8" class="edge"><title>fftInitBeforeD&#45;&gt;cftfax_</title>
<path fill="none" stroke="midnightblue" d="M88.5696,-408C106.537,-408 128.486,-408 146.7,-408"/>
<polygon fill="midnightblue" stroke="midnightblue" points="146.934,-411.5 156.934,-408 146.934,-404.5 146.934,-411.5"/>
</g>
<!-- fft[X,Y,Z]_Dm -->
<g id="node2" class="node"><title>fft[X,Y,Z]_Dm</title>
<polygon fill="none" stroke="black" points="90,-372 16,-372 16,-336 90,-336 90,-372"/>
<text text-anchor="middle" x="53" y="-351.5" font-family="Helvetica,sans-Serif" font-size="10.00">fft[X,Y,Z]_Dm</text>
</g>
<!-- cfft99_ -->
<g id="node9" class="node"><title>cfft99_</title>
<polygon fill="none" stroke="black" points="211,-372 157,-372 157,-336 211,-336 211,-372"/>
<text text-anchor="middle" x="184" y="-351.5" font-family="Helvetica,sans-Serif" font-size="10.00">cfft99_</text>
</g>
<!-- fft[X,Y,Z]_Dm&#45;&gt;cfft99_ -->
<g id="edge1" class="edge"><title>fft[X,Y,Z]_Dm&#45;&gt;cfft99_</title>
<path fill="none" stroke="midnightblue" d="M90.277,-354C107.804,-354 128.793,-354 146.366,-354"/>
<polygon fill="midnightblue" stroke="midnightblue" points="146.805,-357.5 156.805,-354 146.805,-350.5 146.805,-357.5"/>
</g>
<!-- fftw_execute -->
<g id="node7" class="node"><title>fftw_execute</title>
<polygon fill="none" stroke="black" points="219.5,-613 148.5,-613 148.5,-577 219.5,-577 219.5,-613"/>
<text text-anchor="middle" x="184" y="-592.5" font-family="Helvetica,sans-Serif" font-size="10.00">fftw_execute</text>
</g>
<!-- fft[X,Y,Z]_Dm&#45;&gt;fftw_execute -->
<g id="edge2" class="edge"><title>fft[X,Y,Z]_Dm&#45;&gt;fftw_execute</title>
<path fill="none" stroke="midnightblue" d="M90.0107,-371.535C93.1352,-374.307 95.9007,-377.452 98,-381 119.184,-416.806 82.1957,-534.599 107,-568 114.641,-578.29 126.534,-584.673 138.661,-588.628"/>
<polygon fill="midnightblue" stroke="midnightblue" points="137.79,-592.018 148.361,-591.307 139.654,-585.271 137.79,-592.018"/>
</g>
<!-- fftInitAfterD -->
<g id="node3" class="node"><title>fftInitAfterD</title>
<polygon fill="none" stroke="black" points="85,-264 21,-264 21,-228 85,-228 85,-264"/>
<text text-anchor="middle" x="53" y="-243.5" font-family="Helvetica,sans-Serif" font-size="10.00">fftInitAfterD</text>
</g>
<!-- fftInitAfterD&#45;&gt;fftw_plan_many_dft -->
<g id="edge9" class="edge"><title>fftInitAfterD&#45;&gt;fftw_plan_many_dft</title>
<path fill="none" stroke="midnightblue" d="M85.3607,-259.784C90.3791,-263.367 94.925,-267.738 98,-273 111.52,-296.135 91.1398,-492.401 107,-514 111.72,-520.428 118.102,-525.332 125.172,-529.072"/>
<polygon fill="midnightblue" stroke="midnightblue" points="123.865,-532.322 134.422,-533.215 126.726,-525.933 123.865,-532.322"/>
</g>
<!-- fftw_plan_guru_dft -->
<g id="node6" class="node"><title>fftw_plan_guru_dft</title>
<polygon fill="none" stroke="black" points="231,-505 137,-505 137,-469 231,-469 231,-505"/>
<text text-anchor="middle" x="184" y="-484.5" font-family="Helvetica,sans-Serif" font-size="10.00">fftw_plan_guru_dft</text>
</g>
<!-- fftInitAfterD&#45;&gt;fftw_plan_guru_dft -->
<g id="edge10" class="edge"><title>fftInitAfterD&#45;&gt;fftw_plan_guru_dft</title>
<path fill="none" stroke="midnightblue" d="M85.3116,-259.813C90.3346,-263.393 94.8947,-267.756 98,-273 118.859,-308.225 83.152,-423.726 107,-457 112.223,-464.288 119.501,-469.806 127.5,-473.984"/>
<polygon fill="midnightblue" stroke="midnightblue" points="126.21,-477.242 136.766,-478.154 129.083,-470.858 126.21,-477.242"/>
</g>
<!-- ApplePlan -->
<g id="node10" class="node"><title>ApplePlan</title>
<polygon fill="none" stroke="black" points="231.5,-239 136.5,-239 136.5,-203 231.5,-203 231.5,-239"/>
<text text-anchor="middle" x="184" y="-224" font-family="Helvetica,sans-Serif" font-size="10.00">clFFT_CreatePlan</text>
<text text-anchor="middle" x="184" y="-213" font-family="Helvetica,sans-Serif" font-size="10.00">(fft_setup.cpp)</text>
</g>
<!-- fftInitAfterD&#45;&gt;ApplePlan -->
<g id="edge11" class="edge"><title>fftInitAfterD&#45;&gt;ApplePlan</title>
<path fill="none" stroke="midnightblue" d="M85.2273,-239.948C97.5878,-237.553 112.193,-234.722 126.294,-231.989"/>
<polygon fill="midnightblue" stroke="midnightblue" points="127.282,-235.363 136.434,-230.024 125.95,-228.491 127.282,-235.363"/>
</g>
<!-- clAmdFftSetup -->
<g id="node12" class="node"><title>clAmdFftSetup</title>
<polygon fill="none" stroke="black" points="224.5,-106 143.5,-106 143.5,-70 224.5,-70 224.5,-106"/>
<text text-anchor="middle" x="184" y="-85.5" font-family="Helvetica,sans-Serif" font-size="10.00">clAmdFftSetup</text>
</g>
<!-- fftInitAfterD&#45;&gt;clAmdFftSetup -->
<g id="edge12" class="edge"><title>fftInitAfterD&#45;&gt;clAmdFftSetup</title>
<path fill="none" stroke="midnightblue" d="M56.5616,-227.694C61.4253,-199.653 74.5764,-146.056 107,-115 114.432,-107.881 123.862,-102.624 133.529,-98.7473"/>
<polygon fill="midnightblue" stroke="midnightblue" points="134.956,-101.955 143.21,-95.3123 132.615,-95.3578 134.956,-101.955"/>
</g>
<!-- clAmdFftBakePlan -->
<g id="node13" class="node"><title>clAmdFftBakePlan</title>
<polygon fill="none" stroke="black" points="233,-52 135,-52 135,-16 233,-16 233,-52"/>
<text text-anchor="middle" x="184" y="-31.5" font-family="Helvetica,sans-Serif" font-size="10.00">clAmdFftBakePlan</text>
</g>
<!-- fftInitAfterD&#45;&gt;clAmdFftBakePlan -->
<g id="edge13" class="edge"><title>fftInitAfterD&#45;&gt;clAmdFftBakePlan</title>
<path fill="none" stroke="midnightblue" d="M53.9876,-227.862C54.9516,-191.391 62.276,-108.603 107,-61 112.141,-55.5276 118.464,-51.1631 125.246,-47.6825"/>
<polygon fill="midnightblue" stroke="midnightblue" points="127.004,-50.7309 134.713,-43.463 124.155,-44.3372 127.004,-50.7309"/>
</g>
<!-- fft[X,Y,Z] -->
<g id="node4" class="node"><title>fft[X,Y,Z]</title>
<polygon fill="none" stroke="black" points="80,-318 26,-318 26,-282 80,-282 80,-318"/>
<text text-anchor="middle" x="53" y="-297.5" font-family="Helvetica,sans-Serif" font-size="10.00">fft[X,Y,Z]</text>
</g>
<!-- fft[X,Y,Z]&#45;&gt;cfft99_ -->
<g id="edge3" class="edge"><title>fft[X,Y,Z]&#45;&gt;cfft99_</title>
<path fill="none" stroke="midnightblue" d="M80.0363,-312.098C88.5872,-315.988 98.1639,-320.258 107,-324 120.115,-329.554 134.634,-335.366 147.437,-340.38"/>
<polygon fill="midnightblue" stroke="midnightblue" points="146.253,-343.675 156.842,-344.04 148.793,-337.152 146.253,-343.675"/>
</g>
<!-- fft[X,Y,Z]&#45;&gt;fftw_execute -->
<g id="edge4" class="edge"><title>fft[X,Y,Z]&#45;&gt;fftw_execute</title>
<path fill="none" stroke="midnightblue" d="M80.3753,-310.55C87.2837,-314.631 93.9301,-320.036 98,-327 111.52,-350.135 91.1398,-546.401 107,-568 114.586,-578.331 126.463,-584.725 138.593,-588.678"/>
<polygon fill="midnightblue" stroke="midnightblue" points="137.727,-592.07 148.297,-591.354 139.587,-585.322 137.727,-592.07"/>
</g>
<!-- clAmdFftEnqueueTransform -->
<g id="node14" class="node"><title>clAmdFftEnqueueTransform</title>
<polygon fill="none" stroke="black" points="252.5,-160 115.5,-160 115.5,-124 252.5,-124 252.5,-160"/>
<text text-anchor="middle" x="184" y="-139.5" font-family="Helvetica,sans-Serif" font-size="10.00">clAmdFftEnqueueTransform</text>
</g>
<!-- fft[X,Y,Z]&#45;&gt;clAmdFftEnqueueTransform -->
<g id="edge5" class="edge"><title>fft[X,Y,Z]&#45;&gt;clAmdFftEnqueueTransform</title>
<path fill="none" stroke="midnightblue" d="M80.0625,-289.259C86.9621,-285.173 93.6822,-279.813 98,-273 117.626,-242.032 87.7203,-222.185 107,-191 113.321,-180.776 122.658,-172.285 132.643,-165.405"/>
<polygon fill="midnightblue" stroke="midnightblue" points="134.575,-168.324 141.131,-160.001 130.815,-162.419 134.575,-168.324"/>
</g>
<!-- AppleExec -->
<g id="node11" class="node"><title>AppleExec</title>
<polygon fill="none" stroke="black" points="248,-293 120,-293 120,-257 248,-257 248,-293"/>
<text text-anchor="middle" x="184" y="-278" font-family="Helvetica,sans-Serif" font-size="10.00">clFFT_ExecuteInterleaved</text>
<text text-anchor="middle" x="184" y="-267" font-family="Helvetica,sans-Serif" font-size="10.00">(fft_execute.cpp)</text>
</g>
<!-- fft[X,Y,Z]&#45;&gt;AppleExec -->
<g id="edge6" class="edge"><title>fft[X,Y,Z]&#45;&gt;AppleExec</title>
<path fill="none" stroke="midnightblue" d="M80.1051,-294.941C88.9546,-293.226 99.3202,-291.217 110.002,-289.147"/>
<polygon fill="midnightblue" stroke="midnightblue" points="110.716,-292.574 119.867,-287.235 109.384,-285.702 110.716,-292.574"/>
</g>
</g>
</svg>
