<?xml version="1.0" encoding="UTF-8" standalone="no"?>
<!DOCTYPE svg PUBLIC "-//W3C//DTD SVG 1.1//EN"
 "http://www.w3.org/Graphics/SVG/1.1/DTD/svg11.dtd">
<!-- Generated by graphviz version 2.30.1 (20130214.1330)
 -->
<!-- Title: fft Pages: 1 -->
<svg width="378pt" height="676pt"
 viewBox="0.00 0.00 378.00 676.00" xmlns="http://www.w3.org/2000/svg" xmlns:xlink="http://www.w3.org/1999/xlink">
<g id="graph0" class="graph" transform="scale(1 1) rotate(0) translate(4 672)">
<title>fft</title>
<polygon fill="white" stroke="white" points="-4,5 -4,-672 375,-672 375,5 -4,5"/>
<g id="clust3" class="cluster"><title>cluster_cfft99</title>
<polygon fill="none" stroke="black" points="216,-340 216,-469 294,-469 294,-340 216,-340"/>
<text text-anchor="middle" x="255" y="-453.8" font-family="Helvetica,sans-Serif" font-size="14.00">cfft99D.f</text>
</g>
<g id="clust4" class="cluster"><title>cluster_apple</title>
<polygon fill="none" stroke="black" points="154,-199 154,-332 356,-332 356,-199 154,-199"/>
<text text-anchor="middle" x="255" y="-316.8" font-family="Helvetica,sans-Serif" font-size="14.00">Apple clFFT</text>
</g>
<g id="clust5" class="cluster"><title>cluster_clamd</title>
<polygon fill="none" stroke="black" points="148,-8 148,-191 362,-191 362,-8 148,-8"/>
<text text-anchor="middle" x="255" y="-175.8" font-family="Helvetica,sans-Serif" font-size="14.00">clAmdFft.h</text>
</g>
<g id="clust1" class="cluster"><title>cluster_fft</title>
<polygon fill="none" stroke="black" points="8,-232 8,-469 128,-469 128,-232 8,-232"/>
<text text-anchor="middle" x="68" y="-453.8" font-family="Helvetica,sans-Serif" font-size="14.00">fft.c</text>
</g>
<g id="clust2" class="cluster"><title>cluster_fftw</title>
<polygon fill="none" stroke="black" points="177,-477 177,-660 333,-660 333,-477 177,-477"/>
<text text-anchor="middle" x="255" y="-644.8" font-family="Helvetica,sans-Serif" font-size="14.00">fftw3.h</text>
</g>
<!-- fftInitBeforeD -->
<g id="node1" class="node"><title>fftInitBeforeD</title>
<polygon fill="none" stroke="black" points="119,-438 17,-438 17,-402 119,-402 119,-438"/>
<text text-anchor="middle" x="68" y="-416.3" font-family="Helvetica,sans-Serif" font-size="14.00">fftInitBeforeD</text>
</g>
<!-- fftw_plan_many_dft -->
<g id="node5" class="node"><title>fftw_plan_many_dft</title>
<polygon fill="none" stroke="black" points="325,-575 185,-575 185,-539 325,-539 325,-575"/>
<text text-anchor="middle" x="255" y="-553.3" font-family="Helvetica,sans-Serif" font-size="14.00">fftw_plan_many_dft</text>
</g>
<!-- fftInitBeforeD&#45;&gt;fftw_plan_many_dft -->
<g id="edge7" class="edge"><title>fftInitBeforeD&#45;&gt;fftw_plan_many_dft</title>
<path fill="none" stroke="midnightblue" d="M77.1049,-438.26C89.017,-462.94 113.622,-506.547 148,-530 156.236,-535.619 165.552,-540.068 175.158,-543.592"/>
<polygon fill="midnightblue" stroke="midnightblue" points="174.239,-546.975 184.833,-546.816 176.452,-540.334 174.239,-546.975"/>
</g>
<!-- cftfax_ -->
<g id="node8" class="node"><title>cftfax_</title>
<polygon fill="none" stroke="black" points="284.5,-438 225.5,-438 225.5,-402 284.5,-402 284.5,-438"/>
<text text-anchor="middle" x="255" y="-416.3" font-family="Helvetica,sans-Serif" font-size="14.00">cftfax_</text>
</g>
<!-- fftInitBeforeD&#45;&gt;cftfax_ -->
<g id="edge8" class="edge"><title>fftInitBeforeD&#45;&gt;cftfax_</title>
<path fill="none" stroke="midnightblue" d="M119.064,-420C149.333,-420 187.342,-420 215.3,-420"/>
<polygon fill="midnightblue" stroke="midnightblue" points="215.486,-423.5 225.486,-420 215.486,-416.5 215.486,-423.5"/>
</g>
<!-- fft[X,Y,Z]_Dm -->
<g id="node2" class="node"><title>fft[X,Y,Z]_Dm</title>
<polygon fill="none" stroke="black" points="119.5,-384 16.5,-384 16.5,-348 119.5,-348 119.5,-384"/>
<text text-anchor="middle" x="68" y="-362.3" font-family="Helvetica,sans-Serif" font-size="14.00">fft[X,Y,Z]_Dm</text>
</g>
<!-- cfft99_ -->
<g id="node9" class="node"><title>cfft99_</title>
<polygon fill="none" stroke="black" points="286,-384 224,-384 224,-348 286,-348 286,-384"/>
<text text-anchor="middle" x="255" y="-362.3" font-family="Helvetica,sans-Serif" font-size="14.00">cfft99_</text>
</g>
<!-- fft[X,Y,Z]_Dm&#45;&gt;cfft99_ -->
<g id="edge1" class="edge"><title>fft[X,Y,Z]_Dm&#45;&gt;cfft99_</title>
<path fill="none" stroke="midnightblue" d="M119.552,-366C149.149,-366 186.016,-366 213.655,-366"/>
<polygon fill="midnightblue" stroke="midnightblue" points="213.762,-369.5 223.762,-366 213.762,-362.5 213.762,-369.5"/>
</g>
<!-- fftw_execute -->
<g id="node7" class="node"><title>fftw_execute</title>
<polygon fill="none" stroke="black" points="304,-629 206,-629 206,-593 304,-593 304,-629"/>
<text text-anchor="middle" x="255" y="-607.3" font-family="Helvetica,sans-Serif" font-size="14.00">fftw_execute</text>
</g>
<!-- fft[X,Y,Z]_Dm&#45;&gt;fftw_execute -->
<g id="edge2" class="edge"><title>fft[X,Y,Z]_Dm&#45;&gt;fftw_execute</title>
<path fill="none" stroke="midnightblue" d="M119.32,-384.039C122.607,-386.645 125.568,-389.615 128,-393 177.8,-462.319 92.1793,-519.431 148,-584 160.051,-597.94 178.195,-605.191 196.082,-608.822"/>
<polygon fill="midnightblue" stroke="midnightblue" points="195.509,-612.275 205.952,-610.486 196.673,-605.372 195.509,-612.275"/>
</g>
<!-- fftInitAfterD -->
<g id="node3" class="node"><title>fftInitAfterD</title>
<polygon fill="none" stroke="black" points="112.5,-276 23.5,-276 23.5,-240 112.5,-240 112.5,-276"/>
<text text-anchor="middle" x="68" y="-254.3" font-family="Helvetica,sans-Serif" font-size="14.00">fftInitAfterD</text>
</g>
<!-- fftInitAfterD&#45;&gt;fftw_plan_many_dft -->
<g id="edge9" class="edge"><title>fftInitAfterD&#45;&gt;fftw_plan_many_dft</title>
<path fill="none" stroke="midnightblue" d="M112.68,-271.338C118.64,-274.896 124.055,-279.374 128,-285 159.362,-329.726 112.75,-488.27 148,-530 155.224,-538.553 164.743,-544.598 175.116,-548.837"/>
<polygon fill="midnightblue" stroke="midnightblue" points="174.246,-552.241 184.84,-552.243 176.559,-545.634 174.246,-552.241"/>
</g>
<!-- fftw_plan_guru_dft -->
<g id="node6" class="node"><title>fftw_plan_guru_dft</title>
<polygon fill="none" stroke="black" points="322,-521 188,-521 188,-485 322,-485 322,-521"/>
<text text-anchor="middle" x="255" y="-499.3" font-family="Helvetica,sans-Serif" font-size="14.00">fftw_plan_guru_dft</text>
</g>
<!-- fftInitAfterD&#45;&gt;fftw_plan_guru_dft -->
<g id="edge10" class="edge"><title>fftInitAfterD&#45;&gt;fftw_plan_guru_dft</title>
<path fill="none" stroke="midnightblue" d="M112.56,-271.423C118.535,-274.97 123.986,-279.423 128,-285 177.082,-353.202 93.837,-408.759 148,-473 156.025,-482.519 166.823,-489.136 178.465,-493.713"/>
<polygon fill="midnightblue" stroke="midnightblue" points="177.351,-497.031 187.946,-496.962 179.62,-490.409 177.351,-497.031"/>
</g>
<!-- ApplePlan -->
<g id="node10" class="node"><title>ApplePlan</title>
<polygon fill="none" stroke="black" points="321.5,-245 188.5,-245 188.5,-207 321.5,-207 321.5,-245"/>
<text text-anchor="middle" x="255" y="-229.8" font-family="Helvetica,sans-Serif" font-size="14.00">clFFT_CreatePlan</text>
<text text-anchor="middle" x="255" y="-214.8" font-family="Helvetica,sans-Serif" font-size="14.00">(fft_setup.cpp)</text>
</g>
<!-- fftInitAfterD&#45;&gt;ApplePlan -->
<g id="edge11" class="edge"><title>fftInitAfterD&#45;&gt;ApplePlan</title>
<path fill="none" stroke="midnightblue" d="M112.842,-250.416C132.393,-247.035 155.999,-242.952 178.263,-239.1"/>
<polygon fill="midnightblue" stroke="midnightblue" points="179.122,-242.504 188.379,-237.351 177.929,-235.606 179.122,-242.504"/>
</g>
<!-- clAmdFftSetup -->
<g id="node12" class="node"><title>clAmdFftSetup</title>
<polygon fill="none" stroke="black" points="311,-52 199,-52 199,-16 311,-16 311,-52"/>
<text text-anchor="middle" x="255" y="-30.3" font-family="Helvetica,sans-Serif" font-size="14.00">clAmdFftSetup</text>
</g>
<!-- fftInitAfterD&#45;&gt;clAmdFftSetup -->
<g id="edge12" class="edge"><title>fftInitAfterD&#45;&gt;clAmdFftSetup</title>
<path fill="none" stroke="midnightblue" d="M70.8391,-239.944C75.7871,-201.094 92.9808,-109.199 148,-61 159.542,-50.8889 174.358,-44.4707 189.231,-40.4216"/>
<polygon fill="midnightblue" stroke="midnightblue" points="190.069,-43.8199 198.979,-38.0878 188.439,-37.0123 190.069,-43.8199"/>
</g>
<!-- clAmdFftBakePlan -->
<g id="node13" class="node"><title>clAmdFftBakePlan</title>
<polygon fill="none" stroke="black" points="322,-106 188,-106 188,-70 322,-70 322,-106"/>
<text text-anchor="middle" x="255" y="-84.3" font-family="Helvetica,sans-Serif" font-size="14.00">clAmdFftBakePlan</text>
</g>
<!-- fftInitAfterD&#45;&gt;clAmdFftBakePlan -->
<g id="edge13" class="edge"><title>fftInitAfterD&#45;&gt;clAmdFftBakePlan</title>
<path fill="none" stroke="midnightblue" d="M73.8287,-239.991C82.9771,-209.438 105.802,-147.598 148,-115 156.95,-108.086 167.473,-102.928 178.352,-99.0823"/>
<polygon fill="midnightblue" stroke="midnightblue" points="179.5,-102.39 187.973,-96.03 177.383,-95.7178 179.5,-102.39"/>
</g>
<!-- fft[X,Y,Z] -->
<g id="node4" class="node"><title>fft[X,Y,Z]</title>
<polygon fill="none" stroke="black" points="104,-330 32,-330 32,-294 104,-294 104,-330"/>
<text text-anchor="middle" x="68" y="-308.3" font-family="Helvetica,sans-Serif" font-size="14.00">fft[X,Y,Z]</text>
</g>
<!-- fft[X,Y,Z]&#45;&gt;cfft99_ -->
<g id="edge3" class="edge"><title>fft[X,Y,Z]&#45;&gt;cfft99_</title>
<path fill="none" stroke="midnightblue" d="M104.35,-322.897C117.975,-327.055 133.695,-331.803 148,-336 169.823,-342.402 194.242,-349.33 214.138,-354.913"/>
<polygon fill="midnightblue" stroke="midnightblue" points="213.227,-358.292 223.8,-357.619 215.115,-351.552 213.227,-358.292"/>
</g>
<!-- fft[X,Y,Z]&#45;&gt;fftw_execute -->
<g id="edge4" class="edge"><title>fft[X,Y,Z]&#45;&gt;fftw_execute</title>
<path fill="none" stroke="midnightblue" d="M104.217,-320.999C113.359,-325.027 122.244,-330.791 128,-339 159.362,-383.726 112.75,-542.27 148,-584 159.891,-598.077 177.996,-605.361 195.896,-608.98"/>
<polygon fill="midnightblue" stroke="midnightblue" points="195.339,-612.436 205.779,-610.634 196.494,-605.532 195.339,-612.436"/>
</g>
<!-- clAmdFftEnqueueTransform -->
<g id="node14" class="node"><title>clAmdFftEnqueueTransform</title>
<polygon fill="none" stroke="black" points="353.5,-160 156.5,-160 156.5,-124 353.5,-124 353.5,-160"/>
<text text-anchor="middle" x="255" y="-138.3" font-family="Helvetica,sans-Serif" font-size="14.00">clAmdFftEnqueueTransform</text>
</g>
<!-- fft[X,Y,Z]&#45;&gt;clAmdFftEnqueueTransform -->
<g id="edge5" class="edge"><title>fft[X,Y,Z]&#45;&gt;clAmdFftEnqueueTransform</title>
<path fill="none" stroke="midnightblue" d="M104.131,-302.197C113.048,-298.178 121.837,-292.62 128,-285 153.77,-253.142 122.783,-227.297 148,-195 158.014,-182.174 171.957,-172.215 186.446,-164.575"/>
<polygon fill="midnightblue" stroke="midnightblue" points="188.082,-167.671 195.508,-160.113 184.99,-161.391 188.082,-167.671"/>
</g>
<!-- AppleExec -->
<g id="node11" class="node"><title>AppleExec</title>
<polygon fill="none" stroke="black" points="347.5,-301 162.5,-301 162.5,-263 347.5,-263 347.5,-301"/>
<text text-anchor="middle" x="255" y="-285.8" font-family="Helvetica,sans-Serif" font-size="14.00">clFFT_ExecuteInterleaved</text>
<text text-anchor="middle" x="255" y="-270.8" font-family="Helvetica,sans-Serif" font-size="14.00">(fft_execute.cpp)</text>
</g>
<!-- fft[X,Y,Z]&#45;&gt;AppleExec -->
<g id="edge6" class="edge"><title>fft[X,Y,Z]&#45;&gt;AppleExec</title>
<path fill="none" stroke="midnightblue" d="M104.233,-306.287C118.167,-304.027 134.959,-301.304 152.187,-298.51"/>
<polygon fill="midnightblue" stroke="midnightblue" points="153.052,-301.916 162.363,-296.86 151.931,-295.006 153.052,-301.916"/>
</g>
</g>
</svg>
