<?xml version="1.0" encoding="UTF-8" standalone="no"?>
<!DOCTYPE svg PUBLIC "-//W3C//DTD SVG 1.1//EN"
 "http://www.w3.org/Graphics/SVG/1.1/DTD/svg11.dtd">
<!-- Generated by graphviz version 2.30.1 (20130214.1330)
 -->
<!-- Title: fft Pages: 1 -->
<svg width="277pt" height="511pt"
 viewBox="0.00 0.00 277.00 511.00" xmlns="http://www.w3.org/2000/svg" xmlns:xlink="http://www.w3.org/1999/xlink">
<g id="graph0" class="graph" transform="scale(1 1) rotate(0) translate(4 507)">
<title>fft</title>
<polygon fill="white" stroke="white" points="-4,5 -4,-507 274,-507 274,5 -4,5"/>
<g id="clust3" class="cluster"><title>cluster_cfft99</title>
<polygon fill="none" stroke="black" points="153,-266 153,-358 215,-358 215,-266 153,-266"/>
<text text-anchor="middle" x="184" y="-346" font-family="Helvetica,sans-Serif" font-size="10.00">cfft99D.f</text>
</g>
<g id="clust4" class="cluster"><title>cluster_apple</title>
<polygon fill="none" stroke="black" points="112,-145 112,-258 256,-258 256,-145 112,-145"/>
<text text-anchor="middle" x="184" y="-246" font-family="Helvetica,sans-Serif" font-size="10.00">Apple clFFT</text>
</g>
<g id="clust5" class="cluster"><title>cluster_clamd</title>
<polygon fill="none" stroke="black" points="107,-8 107,-137 261,-137 261,-8 107,-8"/>
<text text-anchor="middle" x="184" y="-125" font-family="Helvetica,sans-Serif" font-size="10.00">clAmdFft.h</text>
</g>
<g id="clust1" class="cluster"><title>cluster_fft</title>
<polygon fill="none" stroke="black" points="8,-192 8,-358 98,-358 98,-192 8,-192"/>
<text text-anchor="middle" x="53" y="-346" font-family="Helvetica,sans-Serif" font-size="10.00">fft.c</text>
</g>
<g id="clust2" class="cluster"><title>cluster_fftw</title>
<polygon fill="none" stroke="black" points="126,-366 126,-495 242,-495 242,-366 126,-366"/>
<text text-anchor="middle" x="184" y="-483" font-family="Helvetica,sans-Serif" font-size="10.00">fftw3.h</text>
</g>
<!-- fftInitBeforeD -->
<g id="node1" class="node"><title>fftInitBeforeD</title>
<polygon fill="none" stroke="black" points="88.5,-330.5 17.5,-330.5 17.5,-311.5 88.5,-311.5 88.5,-330.5"/>
<text text-anchor="middle" x="53" y="-318.5" font-family="Helvetica,sans-Serif" font-size="10.00">fftInitBeforeD</text>
</g>
<!-- fftw_plan_many_dft -->
<g id="node5" class="node"><title>fftw_plan_many_dft</title>
<polygon fill="none" stroke="black" points="233.5,-430.5 134.5,-430.5 134.5,-411.5 233.5,-411.5 233.5,-430.5"/>
<text text-anchor="middle" x="184" y="-418.5" font-family="Helvetica,sans-Serif" font-size="10.00">fftw_plan_many_dft</text>
</g>
<!-- fftInitBeforeD&#45;&gt;fftw_plan_many_dft -->
<g id="edge7" class="edge"><title>fftInitBeforeD&#45;&gt;fftw_plan_many_dft</title>
<path fill="none" stroke="midnightblue" d="M57.4563,-330.416C64.214,-347.464 80.8421,-383.397 107,-402 112.31,-405.776 118.294,-408.804 124.513,-411.232"/>
<polygon fill="midnightblue" stroke="midnightblue" points="123.824,-414.694 134.419,-414.575 126.063,-408.061 123.824,-414.694"/>
</g>
<!-- cftfax_ -->
<g id="node8" class="node"><title>cftfax_</title>
<polygon fill="none" stroke="black" points="206.5,-330.5 161.5,-330.5 161.5,-311.5 206.5,-311.5 206.5,-330.5"/>
<text text-anchor="middle" x="184" y="-318.5" font-family="Helvetica,sans-Serif" font-size="10.00">cftfax_</text>
</g>
<!-- fftInitBeforeD&#45;&gt;cftfax_ -->
<g id="edge8" class="edge"><title>fftInitBeforeD&#45;&gt;cftfax_</title>
<path fill="none" stroke="midnightblue" d="M88.5696,-321C108,-321 132.087,-321 151.07,-321"/>
<polygon fill="midnightblue" stroke="midnightblue" points="151.306,-324.5 161.306,-321 151.306,-317.5 151.306,-324.5"/>
</g>
<!-- fft[X,Y,Z]_Dm -->
<g id="node2" class="node"><title>fft[X,Y,Z]_Dm</title>
<polygon fill="none" stroke="black" points="90,-293.5 16,-293.5 16,-274.5 90,-274.5 90,-293.5"/>
<text text-anchor="middle" x="53" y="-281.5" font-family="Helvetica,sans-Serif" font-size="10.00">fft[X,Y,Z]_Dm</text>
</g>
<!-- cfft99_ -->
<g id="node9" class="node"><title>cfft99_</title>
<polygon fill="none" stroke="black" points="206.5,-293.5 161.5,-293.5 161.5,-274.5 206.5,-274.5 206.5,-293.5"/>
<text text-anchor="middle" x="184" y="-281.5" font-family="Helvetica,sans-Serif" font-size="10.00">cfft99_</text>
</g>
<!-- fft[X,Y,Z]_Dm&#45;&gt;cfft99_ -->
<g id="edge1" class="edge"><title>fft[X,Y,Z]_Dm&#45;&gt;cfft99_</title>
<path fill="none" stroke="midnightblue" d="M90.277,-284C109.339,-284 132.498,-284 150.903,-284"/>
<polygon fill="midnightblue" stroke="midnightblue" points="151.123,-287.5 161.123,-284 151.123,-280.5 151.123,-287.5"/>
</g>
<!-- fftw_execute -->
<g id="node7" class="node"><title>fftw_execute</title>
<polygon fill="none" stroke="black" points="219.5,-467.5 148.5,-467.5 148.5,-448.5 219.5,-448.5 219.5,-467.5"/>
<text text-anchor="middle" x="184" y="-455.5" font-family="Helvetica,sans-Serif" font-size="10.00">fftw_execute</text>
</g>
<!-- fft[X,Y,Z]_Dm&#45;&gt;fftw_execute -->
<g id="edge2" class="edge"><title>fft[X,Y,Z]_Dm&#45;&gt;fftw_execute</title>
<path fill="none" stroke="midnightblue" d="M87.2535,-293.44C91.4366,-295.926 95.2171,-299.057 98,-303 115.466,-327.745 87.5817,-415.755 107,-439 114.834,-448.378 126.53,-453.513 138.412,-456.229"/>
<polygon fill="midnightblue" stroke="midnightblue" points="137.901,-459.693 148.357,-457.982 139.116,-452.799 137.901,-459.693"/>
</g>
<!-- fftInitAfterD -->
<g id="node3" class="node"><title>fftInitAfterD</title>
<polygon fill="none" stroke="black" points="85,-219.5 21,-219.5 21,-200.5 85,-200.5 85,-219.5"/>
<text text-anchor="middle" x="53" y="-207.5" font-family="Helvetica,sans-Serif" font-size="10.00">fftInitAfterD</text>
</g>
<!-- fftInitAfterD&#45;&gt;fftw_plan_many_dft -->
<g id="edge9" class="edge"><title>fftInitAfterD&#45;&gt;fftw_plan_many_dft</title>
<path fill="none" stroke="midnightblue" d="M85.1098,-218.174C90.1514,-220.836 94.77,-224.355 98,-229 119.977,-260.607 82.5284,-372.283 107,-402 111.755,-407.774 117.975,-411.945 124.811,-414.933"/>
<polygon fill="midnightblue" stroke="midnightblue" points="123.84,-418.302 134.434,-418.316 126.161,-411.698 123.84,-418.302"/>
</g>
<!-- fftw_plan_guru_dft -->
<g id="node6" class="node"><title>fftw_plan_guru_dft</title>
<polygon fill="none" stroke="black" points="231,-393.5 137,-393.5 137,-374.5 231,-374.5 231,-393.5"/>
<text text-anchor="middle" x="184" y="-381.5" font-family="Helvetica,sans-Serif" font-size="10.00">fftw_plan_guru_dft</text>
</g>
<!-- fftInitAfterD&#45;&gt;fftw_plan_guru_dft -->
<g id="edge10" class="edge"><title>fftInitAfterD&#45;&gt;fftw_plan_guru_dft</title>
<path fill="none" stroke="midnightblue" d="M85.0514,-218.215C90.0983,-220.874 94.7338,-224.38 98,-229 115.1,-253.189 88.4125,-338.934 107,-362 112.27,-368.539 119.357,-373.21 127.094,-376.531"/>
<polygon fill="midnightblue" stroke="midnightblue" points="126.179,-379.92 136.774,-379.949 128.51,-373.319 126.179,-379.92"/>
</g>
<!-- ApplePlan -->
<g id="node10" class="node"><title>ApplePlan</title>
<polygon fill="none" stroke="black" points="231.5,-183 136.5,-183 136.5,-153 231.5,-153 231.5,-183"/>
<text text-anchor="middle" x="184" y="-171" font-family="Helvetica,sans-Serif" font-size="10.00">clFFT_CreatePlan</text>
<text text-anchor="middle" x="184" y="-160" font-family="Helvetica,sans-Serif" font-size="10.00">(fft_setup.cpp)</text>
</g>
<!-- fftInitAfterD&#45;&gt;ApplePlan -->
<g id="edge11" class="edge"><title>fftInitAfterD&#45;&gt;ApplePlan</title>
<path fill="none" stroke="midnightblue" d="M80.925,-200.731C89.2699,-197.891 98.5043,-194.784 107,-192 113.361,-189.916 120.031,-187.762 126.668,-185.64"/>
<polygon fill="midnightblue" stroke="midnightblue" points="127.859,-188.934 136.326,-182.565 125.735,-182.264 127.859,-188.934"/>
</g>
<!-- clAmdFftSetup -->
<g id="node12" class="node"><title>clAmdFftSetup</title>
<polygon fill="none" stroke="black" points="224.5,-35.5 143.5,-35.5 143.5,-16.5 224.5,-16.5 224.5,-35.5"/>
<text text-anchor="middle" x="184" y="-23.5" font-family="Helvetica,sans-Serif" font-size="10.00">clAmdFftSetup</text>
</g>
<!-- fftInitAfterD&#45;&gt;clAmdFftSetup -->
<g id="edge12" class="edge"><title>fftInitAfterD&#45;&gt;clAmdFftSetup</title>
<path fill="none" stroke="midnightblue" d="M53.9962,-200.437C54.5316,-172.02 60.1703,-87.378 107,-44 114.386,-37.1583 123.881,-32.7712 133.64,-29.9902"/>
<polygon fill="midnightblue" stroke="midnightblue" points="134.473,-33.3899 143.419,-27.7133 132.886,-26.5723 134.473,-33.3899"/>
</g>
<!-- clAmdFftBakePlan -->
<g id="node13" class="node"><title>clAmdFftBakePlan</title>
<polygon fill="none" stroke="black" points="233,-72.5 135,-72.5 135,-53.5 233,-53.5 233,-72.5"/>
<text text-anchor="middle" x="184" y="-60.5" font-family="Helvetica,sans-Serif" font-size="10.00">clAmdFftBakePlan</text>
</g>
<!-- fftInitAfterD&#45;&gt;clAmdFftBakePlan -->
<g id="edge13" class="edge"><title>fftInitAfterD&#45;&gt;clAmdFftBakePlan</title>
<path fill="none" stroke="midnightblue" d="M54.9781,-200.518C57.9743,-176.564 69.2539,-113.232 107,-81 112.265,-76.5039 118.454,-73.0852 124.988,-70.4931"/>
<polygon fill="midnightblue" stroke="midnightblue" points="126.352,-73.7283 134.741,-67.2575 124.147,-67.0844 126.352,-73.7283"/>
</g>
<!-- fft[X,Y,Z] -->
<g id="node4" class="node"><title>fft[X,Y,Z]</title>
<polygon fill="none" stroke="black" points="79.5,-256.5 26.5,-256.5 26.5,-237.5 79.5,-237.5 79.5,-256.5"/>
<text text-anchor="middle" x="53" y="-244.5" font-family="Helvetica,sans-Serif" font-size="10.00">fft[X,Y,Z]</text>
</g>
<!-- fft[X,Y,Z]&#45;&gt;cfft99_ -->
<g id="edge3" class="edge"><title>fft[X,Y,Z]&#45;&gt;cfft99_</title>
<path fill="none" stroke="midnightblue" d="M79.795,-254.399C100.361,-260.297 129.257,-268.585 151.244,-274.892"/>
<polygon fill="midnightblue" stroke="midnightblue" points="150.533,-278.329 161.11,-277.721 152.463,-271.6 150.533,-278.329"/>
</g>
<!-- fft[X,Y,Z]&#45;&gt;fftw_execute -->
<g id="edge4" class="edge"><title>fft[X,Y,Z]&#45;&gt;fftw_execute</title>
<path fill="none" stroke="midnightblue" d="M79.6561,-252.664C86.7183,-255.493 93.6299,-259.715 98,-266 119.977,-297.607 82.5284,-409.283 107,-439 114.768,-448.433 126.444,-453.585 138.328,-456.299"/>
<polygon fill="midnightblue" stroke="midnightblue" points="137.825,-459.764 148.279,-458.046 139.035,-452.869 137.825,-459.764"/>
</g>
<!-- clAmdFftEnqueueTransform -->
<g id="node14" class="node"><title>clAmdFftEnqueueTransform</title>
<polygon fill="none" stroke="black" points="252.5,-109.5 115.5,-109.5 115.5,-90.5 252.5,-90.5 252.5,-109.5"/>
<text text-anchor="middle" x="184" y="-97.5" font-family="Helvetica,sans-Serif" font-size="10.00">clAmdFftEnqueueTransform</text>
</g>
<!-- fft[X,Y,Z]&#45;&gt;clAmdFftEnqueueTransform -->
<g id="edge5" class="edge"><title>fft[X,Y,Z]&#45;&gt;clAmdFftEnqueueTransform</title>
<path fill="none" stroke="midnightblue" d="M79.9201,-241.009C86.8156,-238.178 93.5693,-234.037 98,-228 121,-196.661 85.3863,-173.31 107,-141 115.25,-128.667 128.482,-119.741 141.609,-113.432"/>
<polygon fill="midnightblue" stroke="midnightblue" points="143.318,-116.505 151.077,-109.29 140.512,-110.092 143.318,-116.505"/>
</g>
<!-- AppleExec -->
<g id="node11" class="node"><title>AppleExec</title>
<polygon fill="none" stroke="black" points="248,-231 120,-231 120,-201 248,-201 248,-231"/>
<text text-anchor="middle" x="184" y="-219" font-family="Helvetica,sans-Serif" font-size="10.00">clFFT_ExecuteInterleaved</text>
<text text-anchor="middle" x="184" y="-208" font-family="Helvetica,sans-Serif" font-size="10.00">(fft_execute.cpp)</text>
</g>
<!-- fft[X,Y,Z]&#45;&gt;AppleExec -->
<g id="edge6" class="edge"><title>fft[X,Y,Z]&#45;&gt;AppleExec</title>
<path fill="none" stroke="midnightblue" d="M79.795,-240.801C88.8939,-238.615 99.6235,-236.036 110.664,-233.383"/>
<polygon fill="midnightblue" stroke="midnightblue" points="111.508,-236.78 120.413,-231.04 109.872,-229.974 111.508,-236.78"/>
</g>
</g>
</svg>
