<?xml version="1.0" encoding="UTF-8" standalone="no"?>
<!DOCTYPE svg PUBLIC "-//W3C//DTD SVG 1.1//EN"
 "http://www.w3.org/Graphics/SVG/1.1/DTD/svg11.dtd">
<!-- Generated by graphviz version 2.30.1 (20130214.1330)
 -->
<!-- Title: iter Pages: 1 -->
<svg width="1380pt" height="352pt"
 viewBox="0.00 0.00 1380.00 351.64" xmlns="http://www.w3.org/2000/svg" xmlns:xlink="http://www.w3.org/1999/xlink">
<g id="graph0" class="graph" transform="scale(1 1) rotate(0) translate(4 347.637)">
<title>iter</title>
<polygon fill="white" stroke="white" points="-4,5 -4,-347.637 1377,-347.637 1377,5 -4,5"/>
<g id="clust3" class="cluster"><title>cluster_matvec</title>
<polygon fill="none" stroke="black" points="1099,-46.6365 1099,-121.637 1181,-121.637 1181,-46.6365 1099,-46.6365"/>
<text text-anchor="middle" x="1140" y="-106.437" font-family="Helvetica,sans-Serif" font-size="14.00">matvec.c</text>
</g>
<g id="clust1" class="cluster"><title>cluster_iter</title>
<polygon fill="none" stroke="black" points="8,-152.637 8,-335.637 1364,-335.637 1364,-152.637 8,-152.637"/>
<text text-anchor="middle" x="686" y="-320.437" font-family="Helvetica,sans-Serif" font-size="14.00">iterative.c</text>
</g>
<g id="clust2" class="cluster"><title>cluster_comm</title>
<polygon fill="none" stroke="black" points="349,-69.6365 349,-144.637 449,-144.637 449,-69.6365 349,-69.6365"/>
<text text-anchor="middle" x="399" y="-129.437" font-family="Helvetica,sans-Serif" font-size="14.00">comm.c</text>
</g>
<!-- IterativeSolver -->
<g id="node1" class="node"><title>IterativeSolver</title>
<polygon fill="gold" stroke="gold" points="123.5,-250.637 16.5,-250.637 16.5,-214.637 123.5,-214.637 123.5,-250.637"/>
<text text-anchor="middle" x="70" y="-228.937" font-family="Helvetica,sans-Serif" font-size="14.00">IterativeSolver</text>
</g>
<!-- ResidualNorm2 -->
<g id="node11" class="node"><title>ResidualNorm2</title>
<polygon fill="none" stroke="black" points="275.5,-196.637 160.5,-196.637 160.5,-160.637 275.5,-160.637 275.5,-196.637"/>
<text text-anchor="middle" x="218" y="-174.937" font-family="Helvetica,sans-Serif" font-size="14.00">ResidualNorm2</text>
</g>
<!-- IterativeSolver&#45;&gt;ResidualNorm2 -->
<g id="edge4" class="edge"><title>IterativeSolver&#45;&gt;ResidualNorm2</title>
<path fill="none" stroke="midnightblue" d="M120.022,-214.505C132.301,-209.964 145.597,-205.046 158.294,-200.35"/>
<polygon fill="midnightblue" stroke="midnightblue" points="159.694,-203.564 167.859,-196.812 157.266,-196.998 159.694,-203.564"/>
</g>
<!-- CalcInitField -->
<g id="node2" class="node"><title>CalcInitField</title>
<polygon fill="none" stroke="black" points="265.5,-250.637 170.5,-250.637 170.5,-214.637 265.5,-214.637 265.5,-250.637"/>
<text text-anchor="middle" x="218" y="-228.937" font-family="Helvetica,sans-Serif" font-size="14.00">CalcInitField</text>
</g>
<!-- IterativeSolver&#45;&gt;CalcInitField -->
<g id="edge5" class="edge"><title>IterativeSolver&#45;&gt;CalcInitField</title>
<path fill="none" stroke="red" stroke-width="2" d="M123.709,-232.637C135.46,-232.637 147.972,-232.637 159.89,-232.637"/>
<polygon fill="red" stroke="red" points="160.177,-236.137 170.177,-232.637 160.177,-229.137 160.177,-236.137"/>
</g>
<!-- iterFunc(PHASE_VARS) -->
<g id="node6" class="node"><title>iterFunc(PHASE_VARS)</title>
<polygon fill="none" stroke="black" points="485.5,-304.637 312.5,-304.637 312.5,-268.637 485.5,-268.637 485.5,-304.637"/>
<text text-anchor="middle" x="399" y="-282.937" font-family="Helvetica,sans-Serif" font-size="14.00">iterFunc(PHASE_VARS)</text>
</g>
<!-- IterativeSolver&#45;&gt;iterFunc(PHASE_VARS) -->
<g id="edge10" class="edge"><title>IterativeSolver&#45;&gt;iterFunc(PHASE_VARS)</title>
<path fill="none" stroke="red" stroke-dasharray="5,2" d="M123.774,-250.367C135.591,-253.854 148.14,-257.186 160,-259.637 206.377,-269.219 258.589,-275.619 302.268,-279.772"/>
<polygon fill="red" stroke="red" points="302.033,-283.265 312.313,-280.702 302.678,-276.294 302.033,-283.265"/>
</g>
<!-- InitFieldFromE -->
<g id="node3" class="node"><title>InitFieldFromE</title>
<polygon fill="none" stroke="black" points="454,-196.637 344,-196.637 344,-160.637 454,-160.637 454,-196.637"/>
<text text-anchor="middle" x="399" y="-174.937" font-family="Helvetica,sans-Serif" font-size="14.00">InitFieldFromE</text>
</g>
<!-- CalcInitField&#45;&gt;InitFieldFromE -->
<g id="edge1" class="edge"><title>CalcInitField&#45;&gt;InitFieldFromE</title>
<path fill="none" stroke="midnightblue" d="M265.563,-218.59C286.407,-212.301 311.323,-204.785 333.891,-197.977"/>
<polygon fill="midnightblue" stroke="midnightblue" points="335.172,-201.246 343.735,-195.007 333.15,-194.544 335.172,-201.246"/>
</g>
<!-- CalcFieldWKB -->
<g id="node4" class="node"><title>CalcFieldWKB</title>
<polygon fill="none" stroke="black" points="454,-250.637 344,-250.637 344,-214.637 454,-214.637 454,-250.637"/>
<text text-anchor="middle" x="399" y="-228.937" font-family="Helvetica,sans-Serif" font-size="14.00">CalcFieldWKB</text>
</g>
<!-- CalcInitField&#45;&gt;CalcFieldWKB -->
<g id="edge2" class="edge"><title>CalcInitField&#45;&gt;CalcFieldWKB</title>
<path fill="none" stroke="midnightblue" d="M265.563,-232.637C286.314,-232.637 311.1,-232.637 333.588,-232.637"/>
<polygon fill="midnightblue" stroke="midnightblue" points="333.735,-236.137 343.735,-232.637 333.735,-229.137 333.735,-236.137"/>
</g>
<!-- CalcInitField&#45;&gt;iterFunc(PHASE_VARS) -->
<g id="edge6" class="edge"><title>CalcInitField&#45;&gt;iterFunc(PHASE_VARS)</title>
<path fill="none" stroke="red" stroke-width="2" d="M265.563,-246.683C284.7,-252.457 307.269,-259.265 328.302,-265.61"/>
<polygon fill="red" stroke="red" points="327.576,-269.047 338.16,-268.584 329.597,-262.345 327.576,-269.047"/>
</g>
<!-- ReadField -->
<g id="node12" class="node"><title>ReadField</title>
<polygon fill="none" stroke="black" points="440.5,-113.637 357.5,-113.637 357.5,-77.6365 440.5,-77.6365 440.5,-113.637"/>
<text text-anchor="middle" x="399" y="-91.9365" font-family="Helvetica,sans-Serif" font-size="14.00">ReadField</text>
</g>
<!-- CalcInitField&#45;&gt;ReadField -->
<g id="edge14" class="edge"><title>CalcInitField&#45;&gt;ReadField</title>
<path fill="none" stroke="midnightblue" d="M263.818,-214.505C268.159,-211.857 272.312,-208.904 276,-205.637 298.429,-185.769 290.697,-169.707 312,-148.637 323.559,-137.205 338.022,-127.103 351.771,-118.866"/>
<polygon fill="midnightblue" stroke="midnightblue" points="353.758,-121.761 360.666,-113.728 350.256,-115.7 353.758,-121.761"/>
</g>
<!-- MatVec -->
<g id="node13" class="node"><title>MatVec</title>
<polygon fill="cyan" stroke="cyan" points="1172.5,-90.6365 1107.5,-90.6365 1107.5,-54.6365 1172.5,-54.6365 1172.5,-90.6365"/>
<text text-anchor="middle" x="1140" y="-68.9365" font-family="Helvetica,sans-Serif" font-size="14.00">MatVec</text>
</g>
<!-- CalcInitField&#45;&gt;MatVec -->
<g id="edge15" class="edge"><title>CalcInitField&#45;&gt;MatVec</title>
<path fill="none" stroke="midnightblue" d="M265.763,-215.014C269.571,-212.293 273.072,-209.183 276,-205.637 316.898,-156.089 262.42,-106.495 312,-65.6365 358.213,-27.5528 521.117,-49.6365 581,-49.6365 581,-49.6365 581,-49.6365 760,-49.6365 882.737,-49.6365 1027.42,-61.8031 1097.2,-68.4385"/>
<polygon fill="midnightblue" stroke="midnightblue" points="1097.06,-71.9403 1107.34,-69.4143 1097.73,-64.9725 1097.06,-71.9403"/>
</g>
<!-- InitFieldFromE&#45;&gt;MatVec -->
<g id="edge16" class="edge"><title>InitFieldFromE&#45;&gt;MatVec</title>
<path fill="none" stroke="midnightblue" d="M454.041,-170.885C594.985,-150.668 971.55,-96.6551 1097.39,-78.6046"/>
<polygon fill="midnightblue" stroke="midnightblue" points="1098,-82.0536 1107.4,-77.1691 1097,-75.1245 1098,-82.0536"/>
</g>
<!-- LoadIterChpoint -->
<g id="node5" class="node"><title>LoadIterChpoint</title>
<polygon fill="none" stroke="black" points="641.5,-304.637 522.5,-304.637 522.5,-268.637 641.5,-268.637 641.5,-304.637"/>
<text text-anchor="middle" x="582" y="-282.937" font-family="Helvetica,sans-Serif" font-size="14.00">LoadIterChpoint</text>
</g>
<!-- iterFunc(PHASE_INIT) -->
<g id="node7" class="node"><title>iterFunc(PHASE_INIT)</title>
<polygon fill="none" stroke="black" points="839.5,-267.637 678.5,-267.637 678.5,-231.637 839.5,-231.637 839.5,-267.637"/>
<text text-anchor="middle" x="759" y="-245.937" font-family="Helvetica,sans-Serif" font-size="14.00">iterFunc(PHASE_INIT)</text>
</g>
<!-- LoadIterChpoint&#45;&gt;iterFunc(PHASE_INIT) -->
<g id="edge12" class="edge"><title>LoadIterChpoint&#45;&gt;iterFunc(PHASE_INIT)</title>
<path fill="none" stroke="red" stroke-dasharray="5,2" d="M641.759,-274.213C650.364,-272.394 659.386,-270.486 668.437,-268.573"/>
<polygon fill="red" stroke="red" points="669.192,-271.991 678.251,-266.498 667.744,-265.142 669.192,-271.991"/>
</g>
<!-- iterFunc(PHASE_VARS)&#45;&gt;iterFunc(PHASE_INIT) -->
<g id="edge7" class="edge"><title>iterFunc(PHASE_VARS)&#45;&gt;iterFunc(PHASE_INIT)</title>
<path fill="none" stroke="red" stroke-width="2" d="M471.558,-268.604C488.03,-265.066 505.545,-261.789 522,-259.637 570.098,-253.345 624.133,-250.732 668.35,-249.742"/>
<polygon fill="red" stroke="red" points="668.568,-253.239 678.497,-249.54 668.429,-246.24 668.568,-253.239"/>
</g>
<!-- iterFunc(PHASE_VARS)&#45;&gt;LoadIterChpoint -->
<g id="edge11" class="edge"><title>iterFunc(PHASE_VARS)&#45;&gt;LoadIterChpoint</title>
<path fill="none" stroke="red" stroke-dasharray="5,2" d="M485.73,-286.637C494.661,-286.637 503.655,-286.637 512.362,-286.637"/>
<polygon fill="red" stroke="red" points="512.43,-290.137 522.43,-286.637 512.43,-283.137 512.43,-290.137"/>
</g>
<!-- iterFunc(PHASE_ITER) -->
<g id="node8" class="node"><title>iterFunc(PHASE_ITER)</title>
<polygon fill="none" stroke="black" points="1043.5,-232.637 876.5,-232.637 876.5,-196.637 1043.5,-196.637 1043.5,-232.637"/>
<text text-anchor="middle" x="960" y="-210.937" font-family="Helvetica,sans-Serif" font-size="14.00">iterFunc(PHASE_ITER)</text>
</g>
<!-- iterFunc(PHASE_INIT)&#45;&gt;iterFunc(PHASE_ITER) -->
<g id="edge8" class="edge"><title>iterFunc(PHASE_INIT)&#45;&gt;iterFunc(PHASE_ITER)</title>
<path fill="none" stroke="red" stroke-width="2" d="M839.508,-235.653C848.318,-234.103 857.345,-232.515 866.299,-230.941"/>
<polygon fill="red" stroke="red" points="867.119,-234.35 876.362,-229.171 865.907,-227.456 867.119,-234.35"/>
</g>
<!-- ProgressReport -->
<g id="node9" class="node"><title>ProgressReport</title>
<polygon fill="none" stroke="black" points="1199.5,-232.637 1080.5,-232.637 1080.5,-196.637 1199.5,-196.637 1199.5,-232.637"/>
<text text-anchor="middle" x="1140" y="-210.937" font-family="Helvetica,sans-Serif" font-size="14.00">ProgressReport</text>
</g>
<!-- iterFunc(PHASE_ITER)&#45;&gt;ProgressReport -->
<g id="edge9" class="edge"><title>iterFunc(PHASE_ITER)&#45;&gt;ProgressReport</title>
<path fill="none" stroke="red" stroke-width="2" d="M1043.75,-214.637C1052.62,-214.637 1061.58,-214.637 1070.27,-214.637"/>
<polygon fill="red" stroke="red" points="1070.32,-218.137 1080.32,-214.637 1070.32,-211.137 1070.32,-218.137"/>
</g>
<!-- iterFunc(PHASE_ITER)&#45;&gt;MatVec -->
<g id="edge18" class="edge"><title>iterFunc(PHASE_ITER)&#45;&gt;MatVec</title>
<path fill="none" stroke="midnightblue" d="M983.906,-196.363C1015.55,-171.121 1072.72,-125.509 1108.11,-97.2755"/>
<polygon fill="midnightblue" stroke="midnightblue" points="1110.55,-99.812 1116.18,-90.8397 1106.18,-94.3399 1110.55,-99.812"/>
</g>
<!-- SaveIterChpoint -->
<g id="node10" class="node"><title>SaveIterChpoint</title>
<polygon fill="none" stroke="black" points="1355.5,-232.637 1236.5,-232.637 1236.5,-196.637 1355.5,-196.637 1355.5,-232.637"/>
<text text-anchor="middle" x="1296" y="-210.937" font-family="Helvetica,sans-Serif" font-size="14.00">SaveIterChpoint</text>
</g>
<!-- ProgressReport&#45;&gt;SaveIterChpoint -->
<g id="edge3" class="edge"><title>ProgressReport&#45;&gt;SaveIterChpoint</title>
<path fill="none" stroke="midnightblue" d="M1199.66,-208.06C1208.27,-207.894 1217.21,-207.847 1226.01,-207.919"/>
<polygon fill="midnightblue" stroke="midnightblue" points="1226.2,-211.422 1236.25,-208.058 1226.3,-204.423 1226.2,-211.422"/>
</g>
<!-- ProgressReport&#45;&gt;SaveIterChpoint -->
<g id="edge13" class="edge"><title>ProgressReport&#45;&gt;SaveIterChpoint</title>
<path fill="none" stroke="red" stroke-dasharray="5,2" d="M1199.66,-221.213C1208.27,-221.379 1217.21,-221.426 1226.01,-221.354"/>
<polygon fill="red" stroke="red" points="1226.3,-224.85 1236.25,-221.215 1226.2,-217.851 1226.3,-224.85"/>
</g>
<!-- ResidualNorm2&#45;&gt;MatVec -->
<g id="edge17" class="edge"><title>ResidualNorm2&#45;&gt;MatVec</title>
<path fill="none" stroke="midnightblue" d="M224.92,-160.308C236.204,-128.683 264.038,-64.4895 312,-35.6365 414.854,26.238 460.97,-11.6365 581,-11.6365 581,-11.6365 581,-11.6365 760,-11.6365 886.672,-11.6365 920.602,-7.023 1044,-35.6365 1062.16,-39.8477 1081.46,-46.857 1097.89,-53.6491"/>
<polygon fill="midnightblue" stroke="midnightblue" points="1096.62,-56.9148 1107.19,-57.6002 1099.36,-50.4712 1096.62,-56.9148"/>
</g>
</g>
</svg>
