<?xml version="1.0" encoding="UTF-8" standalone="no"?>
<!DOCTYPE svg PUBLIC "-//W3C//DTD SVG 1.1//EN"
 "http://www.w3.org/Graphics/SVG/1.1/DTD/svg11.dtd">
<!-- Generated by graphviz version 2.30.1 (20130214.1330)
 -->
<!-- Title: iter Pages: 1 -->
<svg width="983pt" height="339pt"
 viewBox="0.00 0.00 983.00 338.78" xmlns="http://www.w3.org/2000/svg" xmlns:xlink="http://www.w3.org/1999/xlink">
<g id="graph0" class="graph" transform="scale(1 1) rotate(0) translate(4 334.776)">
<title>iter</title>
<polygon fill="white" stroke="white" points="-4,5 -4,-334.776 980,-334.776 980,5 -4,5"/>
<g id="clust3" class="cluster"><title>cluster_matvec</title>
<polygon fill="none" stroke="black" points="773,-41.7757 773,-112.776 843,-112.776 843,-41.7757 773,-41.7757"/>
<text text-anchor="middle" x="808" y="-100.776" font-family="Helvetica,sans-Serif" font-size="10.00">matvec.c</text>
</g>
<g id="clust1" class="cluster"><title>cluster_iter</title>
<polygon fill="none" stroke="black" points="8,-143.776 8,-322.776 967,-322.776 967,-143.776 8,-143.776"/>
<text text-anchor="middle" x="487.5" y="-310.776" font-family="Helvetica,sans-Serif" font-size="10.00">iterative.c</text>
</g>
<g id="clust2" class="cluster"><title>cluster_comm</title>
<polygon fill="none" stroke="black" points="250,-64.7757 250,-135.776 326,-135.776 326,-64.7757 250,-64.7757"/>
<text text-anchor="middle" x="288" y="-123.776" font-family="Helvetica,sans-Serif" font-size="10.00">comm.c</text>
</g>
<!-- IterativeSolver -->
<g id="node1" class="node"><title>IterativeSolver</title>
<polygon fill="gold" stroke="gold" points="92,-241.776 16,-241.776 16,-205.776 92,-205.776 92,-241.776"/>
<text text-anchor="middle" x="54" y="-221.276" font-family="Helvetica,sans-Serif" font-size="10.00">IterativeSolver</text>
</g>
<!-- ResidualNorm2 -->
<g id="node11" class="node"><title>ResidualNorm2</title>
<polygon fill="none" stroke="black" points="200.5,-187.776 117.5,-187.776 117.5,-151.776 200.5,-151.776 200.5,-187.776"/>
<text text-anchor="middle" x="159" y="-167.276" font-family="Helvetica,sans-Serif" font-size="10.00">ResidualNorm2</text>
</g>
<!-- IterativeSolver&#45;&gt;ResidualNorm2 -->
<g id="edge4" class="edge"><title>IterativeSolver&#45;&gt;ResidualNorm2</title>
<path fill="none" stroke="midnightblue" d="M89.584,-205.644C97.5669,-201.459 106.16,-196.954 114.469,-192.598"/>
<polygon fill="midnightblue" stroke="midnightblue" points="116.1,-195.694 123.332,-187.951 112.85,-189.495 116.1,-195.694"/>
</g>
<!-- CalcInitField -->
<g id="node2" class="node"><title>CalcInitField</title>
<polygon fill="none" stroke="black" points="194,-241.776 124,-241.776 124,-205.776 194,-205.776 194,-241.776"/>
<text text-anchor="middle" x="159" y="-221.276" font-family="Helvetica,sans-Serif" font-size="10.00">CalcInitField</text>
</g>
<!-- IterativeSolver&#45;&gt;CalcInitField -->
<g id="edge5" class="edge"><title>IterativeSolver&#45;&gt;CalcInitField</title>
<path fill="none" stroke="red" stroke-width="2" d="M92.1854,-223.776C99.1542,-223.776 106.503,-223.776 113.663,-223.776"/>
<polygon fill="red" stroke="red" points="113.953,-227.276 123.953,-223.776 113.953,-220.276 113.953,-227.276"/>
</g>
<!-- iterFunc(PHASE_VARS) -->
<g id="node6" class="node"><title>iterFunc(PHASE_VARS)</title>
<polygon fill="none" stroke="black" points="350,-295.776 226,-295.776 226,-259.776 350,-259.776 350,-295.776"/>
<text text-anchor="middle" x="288" y="-275.276" font-family="Helvetica,sans-Serif" font-size="10.00">iterFunc(PHASE_VARS)</text>
</g>
<!-- IterativeSolver&#45;&gt;iterFunc(PHASE_VARS) -->
<g id="edge10" class="edge"><title>IterativeSolver&#45;&gt;iterFunc(PHASE_VARS)</title>
<path fill="none" stroke="red" stroke-dasharray="5,2" d="M92.139,-241.759C100.197,-245.146 108.773,-248.373 117,-250.776 148.829,-260.07 185.003,-266.38 215.776,-270.546"/>
<polygon fill="red" stroke="red" points="215.622,-274.056 225.991,-271.878 216.527,-267.114 215.622,-274.056"/>
</g>
<!-- InitFieldFromE -->
<g id="node3" class="node"><title>InitFieldFromE</title>
<polygon fill="none" stroke="black" points="328,-187.776 248,-187.776 248,-151.776 328,-151.776 328,-187.776"/>
<text text-anchor="middle" x="288" y="-167.276" font-family="Helvetica,sans-Serif" font-size="10.00">InitFieldFromE</text>
</g>
<!-- CalcInitField&#45;&gt;InitFieldFromE -->
<g id="edge1" class="edge"><title>CalcInitField&#45;&gt;InitFieldFromE</title>
<path fill="none" stroke="midnightblue" d="M194.034,-209.305C207.655,-203.513 223.601,-196.733 238.402,-190.439"/>
<polygon fill="midnightblue" stroke="midnightblue" points="240.094,-193.523 247.927,-186.389 237.355,-187.081 240.094,-193.523"/>
</g>
<!-- CalcFieldWKB -->
<g id="node4" class="node"><title>CalcFieldWKB</title>
<polygon fill="none" stroke="black" points="328,-241.776 248,-241.776 248,-205.776 328,-205.776 328,-241.776"/>
<text text-anchor="middle" x="288" y="-221.276" font-family="Helvetica,sans-Serif" font-size="10.00">CalcFieldWKB</text>
</g>
<!-- CalcInitField&#45;&gt;CalcFieldWKB -->
<g id="edge2" class="edge"><title>CalcInitField&#45;&gt;CalcFieldWKB</title>
<path fill="none" stroke="midnightblue" d="M194.034,-223.776C207.396,-223.776 222.994,-223.776 237.555,-223.776"/>
<polygon fill="midnightblue" stroke="midnightblue" points="237.927,-227.276 247.927,-223.776 237.927,-220.276 237.927,-227.276"/>
</g>
<!-- CalcInitField&#45;&gt;iterFunc(PHASE_VARS) -->
<g id="edge6" class="edge"><title>CalcInitField&#45;&gt;iterFunc(PHASE_VARS)</title>
<path fill="none" stroke="red" stroke-width="2" d="M194.034,-238.247C206.57,-243.577 221.076,-249.745 234.845,-255.6"/>
<polygon fill="red" stroke="red" points="233.655,-258.897 244.228,-259.589 236.395,-252.455 233.655,-258.897"/>
</g>
<!-- ReadField -->
<g id="node12" class="node"><title>ReadField</title>
<polygon fill="none" stroke="black" points="318,-108.776 258,-108.776 258,-72.7757 318,-72.7757 318,-108.776"/>
<text text-anchor="middle" x="288" y="-88.2757" font-family="Helvetica,sans-Serif" font-size="10.00">ReadField</text>
</g>
<!-- CalcInitField&#45;&gt;ReadField -->
<g id="edge14" class="edge"><title>CalcInitField&#45;&gt;ReadField</title>
<path fill="none" stroke="midnightblue" d="M191.991,-205.46C195.271,-202.806 198.362,-199.902 201,-196.776 218.84,-175.634 209.178,-161.736 226,-139.776 232.957,-130.694 241.939,-122.284 250.859,-115.088"/>
<polygon fill="midnightblue" stroke="midnightblue" points="253.19,-117.711 258.975,-108.835 248.918,-112.166 253.19,-117.711"/>
</g>
<!-- MatVec -->
<g id="node13" class="node"><title>MatVec</title>
<polygon fill="cyan" stroke="cyan" points="835,-85.7757 781,-85.7757 781,-49.7757 835,-49.7757 835,-85.7757"/>
<text text-anchor="middle" x="808" y="-65.2757" font-family="Helvetica,sans-Serif" font-size="10.00">MatVec</text>
</g>
<!-- CalcInitField&#45;&gt;MatVec -->
<g id="edge15" class="edge"><title>CalcInitField&#45;&gt;MatVec</title>
<path fill="none" stroke="midnightblue" d="M193.133,-205.676C196.124,-203.01 198.835,-200.044 201,-196.776 234.943,-145.542 180.471,-102.057 226,-60.7757 288.779,-3.85317 331.257,-44.7757 416,-44.7757 416,-44.7757 416,-44.7757 542,-44.7757 623.915,-44.7757 719.542,-55.8182 770.55,-62.6006"/>
<polygon fill="midnightblue" stroke="midnightblue" points="770.358,-66.1063 780.737,-63.9777 771.296,-59.1694 770.358,-66.1063"/>
</g>
<!-- InitFieldFromE&#45;&gt;MatVec -->
<g id="edge16" class="edge"><title>InitFieldFromE&#45;&gt;MatVec</title>
<path fill="none" stroke="midnightblue" d="M328.359,-162.025C425.759,-142.846 676.938,-93.3862 770.855,-74.8931"/>
<polygon fill="midnightblue" stroke="midnightblue" points="771.602,-78.3133 780.737,-72.9471 770.249,-71.4451 771.602,-78.3133"/>
</g>
<!-- LoadIterChpoint -->
<g id="node5" class="node"><title>LoadIterChpoint</title>
<polygon fill="none" stroke="black" points="459,-295.776 375,-295.776 375,-259.776 459,-259.776 459,-295.776"/>
<text text-anchor="middle" x="417" y="-275.276" font-family="Helvetica,sans-Serif" font-size="10.00">LoadIterChpoint</text>
</g>
<!-- iterFunc(PHASE_INIT) -->
<g id="node7" class="node"><title>iterFunc(PHASE_INIT)</title>
<polygon fill="none" stroke="black" points="597.5,-258.776 484.5,-258.776 484.5,-222.776 597.5,-222.776 597.5,-258.776"/>
<text text-anchor="middle" x="541" y="-238.276" font-family="Helvetica,sans-Serif" font-size="10.00">iterFunc(PHASE_INIT)</text>
</g>
<!-- LoadIterChpoint&#45;&gt;iterFunc(PHASE_INIT) -->
<g id="edge12" class="edge"><title>LoadIterChpoint&#45;&gt;iterFunc(PHASE_INIT)</title>
<path fill="none" stroke="red" stroke-dasharray="5,2" d="M459.304,-265.249C464.19,-263.767 469.265,-262.228 474.384,-260.675"/>
<polygon fill="red" stroke="red" points="475.69,-263.937 484.244,-257.685 473.658,-257.238 475.69,-263.937"/>
</g>
<!-- iterFunc(PHASE_VARS)&#45;&gt;iterFunc(PHASE_INIT) -->
<g id="edge7" class="edge"><title>iterFunc(PHASE_VARS)&#45;&gt;iterFunc(PHASE_INIT)</title>
<path fill="none" stroke="red" stroke-width="2" d="M339.415,-259.701C350.973,-256.189 363.304,-252.933 375,-250.776 407.329,-244.814 443.763,-242.185 474.155,-241.1"/>
<polygon fill="red" stroke="red" points="474.329,-244.597 484.216,-240.789 474.112,-237.6 474.329,-244.597"/>
</g>
<!-- iterFunc(PHASE_VARS)&#45;&gt;LoadIterChpoint -->
<g id="edge11" class="edge"><title>iterFunc(PHASE_VARS)&#45;&gt;LoadIterChpoint</title>
<path fill="none" stroke="red" stroke-dasharray="5,2" d="M350.268,-277.776C355.109,-277.776 359.966,-277.776 364.729,-277.776"/>
<polygon fill="red" stroke="red" points="364.959,-281.276 374.959,-277.776 364.959,-274.276 364.959,-281.276"/>
</g>
<!-- iterFunc(PHASE_ITER) -->
<g id="node8" class="node"><title>iterFunc(PHASE_ITER)</title>
<polygon fill="none" stroke="black" points="741,-223.776 623,-223.776 623,-187.776 741,-187.776 741,-223.776"/>
<text text-anchor="middle" x="682" y="-203.276" font-family="Helvetica,sans-Serif" font-size="10.00">iterFunc(PHASE_ITER)</text>
</g>
<!-- iterFunc(PHASE_INIT)&#45;&gt;iterFunc(PHASE_ITER) -->
<g id="edge8" class="edge"><title>iterFunc(PHASE_INIT)&#45;&gt;iterFunc(PHASE_ITER)</title>
<path fill="none" stroke="red" stroke-width="2" d="M597.736,-226.741C602.799,-225.467 607.963,-224.166 613.115,-222.869"/>
<polygon fill="red" stroke="red" points="614.137,-226.221 622.979,-220.385 612.427,-219.433 614.137,-226.221"/>
</g>
<!-- ProgressReport -->
<g id="node9" class="node"><title>ProgressReport</title>
<polygon fill="none" stroke="black" points="850,-223.776 766,-223.776 766,-187.776 850,-187.776 850,-223.776"/>
<text text-anchor="middle" x="808" y="-203.276" font-family="Helvetica,sans-Serif" font-size="10.00">ProgressReport</text>
</g>
<!-- iterFunc(PHASE_ITER)&#45;&gt;ProgressReport -->
<g id="edge9" class="edge"><title>iterFunc(PHASE_ITER)&#45;&gt;ProgressReport</title>
<path fill="none" stroke="red" stroke-width="2" d="M741.006,-205.776C745.816,-205.776 750.659,-205.776 755.417,-205.776"/>
<polygon fill="red" stroke="red" points="755.653,-209.276 765.653,-205.776 755.653,-202.276 755.653,-209.276"/>
</g>
<!-- iterFunc(PHASE_ITER)&#45;&gt;MatVec -->
<g id="edge18" class="edge"><title>iterFunc(PHASE_ITER)&#45;&gt;MatVec</title>
<path fill="none" stroke="midnightblue" d="M699.211,-187.735C720.84,-163.663 759.268,-120.897 783.918,-93.464"/>
<polygon fill="midnightblue" stroke="midnightblue" points="786.705,-95.5988 790.785,-85.8212 781.498,-90.9202 786.705,-95.5988"/>
</g>
<!-- SaveIterChpoint -->
<g id="node10" class="node"><title>SaveIterChpoint</title>
<polygon fill="none" stroke="black" points="959,-223.776 875,-223.776 875,-187.776 959,-187.776 959,-223.776"/>
<text text-anchor="middle" x="917" y="-203.276" font-family="Helvetica,sans-Serif" font-size="10.00">SaveIterChpoint</text>
</g>
<!-- ProgressReport&#45;&gt;SaveIterChpoint -->
<g id="edge3" class="edge"><title>ProgressReport&#45;&gt;SaveIterChpoint</title>
<path fill="none" stroke="midnightblue" d="M850.063,-199.19C854.892,-199.06 859.864,-199.007 864.81,-199.031"/>
<polygon fill="midnightblue" stroke="midnightblue" points="864.817,-202.532 874.87,-199.189 864.926,-195.533 864.817,-202.532"/>
</g>
<!-- ProgressReport&#45;&gt;SaveIterChpoint -->
<g id="edge13" class="edge"><title>ProgressReport&#45;&gt;SaveIterChpoint</title>
<path fill="none" stroke="red" stroke-dasharray="5,2" d="M850.063,-212.361C854.892,-212.491 859.864,-212.544 864.81,-212.52"/>
<polygon fill="red" stroke="red" points="864.926,-216.019 874.87,-212.363 864.817,-209.02 864.926,-216.019"/>
</g>
<!-- ResidualNorm2&#45;&gt;MatVec -->
<g id="edge17" class="edge"><title>ResidualNorm2&#45;&gt;MatVec</title>
<path fill="none" stroke="midnightblue" d="M162.98,-151.309C168.97,-120.734 185.534,-60.0681 226,-30.7757 294.947,19.1337 330.885,-6.77566 416,-6.77566 416,-6.77566 416,-6.77566 542,-6.77566 631.085,-6.77566 656.311,-3.13435 741,-30.7757 751.504,-34.2041 762.231,-39.3743 771.901,-44.7714"/>
<polygon fill="midnightblue" stroke="midnightblue" points="770.404,-47.9503 780.805,-49.9661 773.931,-41.9039 770.404,-47.9503"/>
</g>
</g>
</svg>
