<?xml version="1.0" encoding="UTF-8" standalone="no"?>
<!DOCTYPE svg PUBLIC "-//W3C//DTD SVG 1.1//EN"
 "http://www.w3.org/Graphics/SVG/1.1/DTD/svg11.dtd">
<!-- Generated by graphviz version 2.30.1 (20130214.1330)
 -->
<!-- Title: iter Pages: 1 -->
<svg width="983pt" height="272pt"
 viewBox="0.00 0.00 983.00 271.75" xmlns="http://www.w3.org/2000/svg" xmlns:xlink="http://www.w3.org/1999/xlink">
<g id="graph0" class="graph" transform="scale(1 1) rotate(0) translate(4 267.748)">
<title>iter</title>
<polygon fill="white" stroke="white" points="-4,5 -4,-267.748 980,-267.748 980,5 -4,5"/>
<g id="clust2" class="cluster"><title>cluster_comm</title>
<polygon fill="none" stroke="black" points="250,-63.7479 250,-118.748 326,-118.748 326,-63.7479 250,-63.7479"/>
<text text-anchor="middle" x="288" y="-106.748" font-family="Helvetica,sans-Serif" font-size="10.00">comm.c</text>
</g>
<g id="clust3" class="cluster"><title>cluster_matvec</title>
<polygon fill="none" stroke="black" points="775,-44.7479 775,-99.7479 841,-99.7479 841,-44.7479 775,-44.7479"/>
<text text-anchor="middle" x="808" y="-87.7479" font-family="Helvetica,sans-Serif" font-size="10.00">matvec.c</text>
</g>
<g id="clust1" class="cluster"><title>cluster_iter</title>
<polygon fill="none" stroke="black" points="8,-126.748 8,-255.748 967,-255.748 967,-126.748 8,-126.748"/>
<text text-anchor="middle" x="487.5" y="-243.748" font-family="Helvetica,sans-Serif" font-size="10.00">iterative.c</text>
</g>
<!-- IterativeSolver -->
<g id="node1" class="node"><title>IterativeSolver</title>
<polygon fill="gold" stroke="gold" points="92,-191.248 16,-191.248 16,-172.248 92,-172.248 92,-191.248"/>
<text text-anchor="middle" x="54" y="-179.248" font-family="Helvetica,sans-Serif" font-size="10.00">IterativeSolver</text>
</g>
<!-- ResidualNorm2 -->
<g id="node11" class="node"><title>ResidualNorm2</title>
<polygon fill="none" stroke="black" points="200.5,-154.248 117.5,-154.248 117.5,-135.248 200.5,-135.248 200.5,-154.248"/>
<text text-anchor="middle" x="159" y="-142.248" font-family="Helvetica,sans-Serif" font-size="10.00">ResidualNorm2</text>
</g>
<!-- IterativeSolver&#45;&gt;ResidualNorm2 -->
<g id="edge4" class="edge"><title>IterativeSolver&#45;&gt;ResidualNorm2</title>
<path fill="none" stroke="midnightblue" d="M80.9912,-172.411C93.5557,-167.898 108.83,-162.411 122.452,-157.517"/>
<polygon fill="midnightblue" stroke="midnightblue" points="123.789,-160.756 132.017,-154.082 121.423,-154.168 123.789,-160.756"/>
</g>
<!-- CalcInitField -->
<g id="node2" class="node"><title>CalcInitField</title>
<polygon fill="none" stroke="black" points="194,-191.248 124,-191.248 124,-172.248 194,-172.248 194,-191.248"/>
<text text-anchor="middle" x="159" y="-179.248" font-family="Helvetica,sans-Serif" font-size="10.00">CalcInitField</text>
</g>
<!-- IterativeSolver&#45;&gt;CalcInitField -->
<g id="edge5" class="edge"><title>IterativeSolver&#45;&gt;CalcInitField</title>
<path fill="none" stroke="red" stroke-width="2" d="M92.1854,-181.748C99.1542,-181.748 106.503,-181.748 113.663,-181.748"/>
<polygon fill="red" stroke="red" points="113.953,-185.248 123.953,-181.748 113.953,-178.248 113.953,-185.248"/>
</g>
<!-- iterFunc(PHASE_VARS) -->
<g id="node6" class="node"><title>iterFunc(PHASE_VARS)</title>
<polygon fill="none" stroke="black" points="350,-228.248 226,-228.248 226,-209.248 350,-209.248 350,-228.248"/>
<text text-anchor="middle" x="288" y="-216.248" font-family="Helvetica,sans-Serif" font-size="10.00">iterFunc(PHASE_VARS)</text>
</g>
<!-- IterativeSolver&#45;&gt;iterFunc(PHASE_VARS) -->
<g id="edge10" class="edge"><title>IterativeSolver&#45;&gt;iterFunc(PHASE_VARS)</title>
<path fill="none" stroke="red" stroke-dasharray="5,2" d="M83.1438,-191.024C93.6685,-194.199 105.788,-197.511 117,-199.748 149.053,-206.143 184.967,-210.551 215.497,-213.499"/>
<polygon fill="red" stroke="red" points="215.349,-217 225.631,-214.443 215.999,-210.03 215.349,-217"/>
</g>
<!-- InitFieldFromE -->
<g id="node3" class="node"><title>InitFieldFromE</title>
<polygon fill="none" stroke="black" points="328,-154.248 248,-154.248 248,-135.248 328,-135.248 328,-154.248"/>
<text text-anchor="middle" x="288" y="-142.248" font-family="Helvetica,sans-Serif" font-size="10.00">InitFieldFromE</text>
</g>
<!-- CalcInitField&#45;&gt;InitFieldFromE -->
<g id="edge1" class="edge"><title>CalcInitField&#45;&gt;InitFieldFromE</title>
<path fill="none" stroke="midnightblue" d="M192.047,-172.411C208.141,-167.722 227.841,-161.983 245.117,-156.95"/>
<polygon fill="midnightblue" stroke="midnightblue" points="246.341,-160.239 254.963,-154.082 244.383,-153.518 246.341,-160.239"/>
</g>
<!-- CalcFieldWKB -->
<g id="node4" class="node"><title>CalcFieldWKB</title>
<polygon fill="none" stroke="black" points="328,-191.248 248,-191.248 248,-172.248 328,-172.248 328,-191.248"/>
<text text-anchor="middle" x="288" y="-179.248" font-family="Helvetica,sans-Serif" font-size="10.00">CalcFieldWKB</text>
</g>
<!-- CalcInitField&#45;&gt;CalcFieldWKB -->
<g id="edge2" class="edge"><title>CalcInitField&#45;&gt;CalcFieldWKB</title>
<path fill="none" stroke="midnightblue" d="M194.034,-181.748C207.396,-181.748 222.994,-181.748 237.555,-181.748"/>
<polygon fill="midnightblue" stroke="midnightblue" points="237.927,-185.248 247.927,-181.748 237.927,-178.248 237.927,-185.248"/>
</g>
<!-- CalcInitField&#45;&gt;iterFunc(PHASE_VARS) -->
<g id="edge6" class="edge"><title>CalcInitField&#45;&gt;iterFunc(PHASE_VARS)</title>
<path fill="none" stroke="red" stroke-width="2" d="M192.047,-191.085C208.141,-195.773 227.841,-201.513 245.117,-206.546"/>
<polygon fill="red" stroke="red" points="244.383,-209.977 254.963,-209.414 246.341,-203.257 244.383,-209.977"/>
</g>
<!-- ReadField -->
<g id="node12" class="node"><title>ReadField</title>
<polygon fill="none" stroke="black" points="318,-91.2479 258,-91.2479 258,-72.2479 318,-72.2479 318,-91.2479"/>
<text text-anchor="middle" x="288" y="-79.2479" font-family="Helvetica,sans-Serif" font-size="10.00">ReadField</text>
</g>
<!-- CalcInitField&#45;&gt;ReadField -->
<g id="edge14" class="edge"><title>CalcInitField&#45;&gt;ReadField</title>
<path fill="none" stroke="midnightblue" d="M186.103,-172.418C191.385,-169.798 196.647,-166.589 201,-162.748 216.719,-148.876 211.424,-137.816 226,-122.748 235.941,-112.472 248.865,-103.337 260.257,-96.3127"/>
<polygon fill="midnightblue" stroke="midnightblue" points="262.156,-99.256 268.979,-91.1504 258.59,-93.2322 262.156,-99.256"/>
</g>
<!-- MatVec -->
<g id="node13" class="node"><title>MatVec</title>
<polygon fill="cyan" stroke="cyan" points="833,-72.2479 783,-72.2479 783,-53.2479 833,-53.2479 833,-72.2479"/>
<text text-anchor="middle" x="808" y="-60.2479" font-family="Helvetica,sans-Serif" font-size="10.00">MatVec</text>
</g>
<!-- CalcInitField&#45;&gt;MatVec -->
<g id="edge15" class="edge"><title>CalcInitField&#45;&gt;MatVec</title>
<path fill="none" stroke="midnightblue" d="M189.217,-172.265C193.658,-169.756 197.814,-166.628 201,-162.748 230.894,-126.341 190.225,-90.3947 226,-59.7479 290.357,-4.61558 331.257,-43.7479 416,-43.7479 416,-43.7479 416,-43.7479 542,-43.7479 625.11,-43.7479 722.507,-53.1604 772.907,-58.7355"/>
<polygon fill="midnightblue" stroke="midnightblue" points="772.598,-62.2227 782.926,-59.8622 773.38,-55.2666 772.598,-62.2227"/>
</g>
<!-- InitFieldFromE&#45;&gt;MatVec -->
<g id="edge16" class="edge"><title>InitFieldFromE&#45;&gt;MatVec</title>
<path fill="none" stroke="midnightblue" d="M328.359,-138.517C426.456,-122.988 680.541,-82.7664 772.846,-68.1544"/>
<polygon fill="midnightblue" stroke="midnightblue" points="773.45,-71.6026 782.78,-66.582 772.355,-64.6887 773.45,-71.6026"/>
</g>
<!-- LoadIterChpoint -->
<g id="node5" class="node"><title>LoadIterChpoint</title>
<polygon fill="none" stroke="black" points="459,-228.248 375,-228.248 375,-209.248 459,-209.248 459,-228.248"/>
<text text-anchor="middle" x="417" y="-216.248" font-family="Helvetica,sans-Serif" font-size="10.00">LoadIterChpoint</text>
</g>
<!-- iterFunc(PHASE_INIT) -->
<g id="node7" class="node"><title>iterFunc(PHASE_INIT)</title>
<polygon fill="none" stroke="black" points="597.5,-199.248 484.5,-199.248 484.5,-180.248 597.5,-180.248 597.5,-199.248"/>
<text text-anchor="middle" x="541" y="-187.248" font-family="Helvetica,sans-Serif" font-size="10.00">iterFunc(PHASE_INIT)</text>
</g>
<!-- LoadIterChpoint&#45;&gt;iterFunc(PHASE_INIT) -->
<g id="edge12" class="edge"><title>LoadIterChpoint&#45;&gt;iterFunc(PHASE_INIT)</title>
<path fill="none" stroke="red" stroke-dasharray="5,2" d="M456.937,-209.492C467.832,-206.903 479.812,-204.055 491.201,-201.348"/>
<polygon fill="red" stroke="red" points="492.095,-204.733 501.014,-199.015 490.476,-197.922 492.095,-204.733"/>
</g>
<!-- iterFunc(PHASE_VARS)&#45;&gt;iterFunc(PHASE_INIT) -->
<g id="edge7" class="edge"><title>iterFunc(PHASE_VARS)&#45;&gt;iterFunc(PHASE_INIT)</title>
<path fill="none" stroke="red" stroke-width="2" d="M325.176,-209.432C340.453,-205.844 358.494,-202.057 375,-199.748 407.557,-195.194 444.015,-192.713 474.364,-191.362"/>
<polygon fill="red" stroke="red" points="474.561,-194.857 484.408,-190.946 474.271,-187.863 474.561,-194.857"/>
</g>
<!-- iterFunc(PHASE_VARS)&#45;&gt;LoadIterChpoint -->
<g id="edge11" class="edge"><title>iterFunc(PHASE_VARS)&#45;&gt;LoadIterChpoint</title>
<path fill="none" stroke="red" stroke-dasharray="5,2" d="M350.268,-218.748C355.109,-218.748 359.966,-218.748 364.729,-218.748"/>
<polygon fill="red" stroke="red" points="364.959,-222.248 374.959,-218.748 364.959,-215.248 364.959,-222.248"/>
</g>
<!-- iterFunc(PHASE_ITER) -->
<g id="node8" class="node"><title>iterFunc(PHASE_ITER)</title>
<polygon fill="none" stroke="black" points="741,-177.248 623,-177.248 623,-158.248 741,-158.248 741,-177.248"/>
<text text-anchor="middle" x="682" y="-165.248" font-family="Helvetica,sans-Serif" font-size="10.00">iterFunc(PHASE_ITER)</text>
</g>
<!-- iterFunc(PHASE_INIT)&#45;&gt;iterFunc(PHASE_ITER) -->
<g id="edge8" class="edge"><title>iterFunc(PHASE_INIT)&#45;&gt;iterFunc(PHASE_ITER)</title>
<path fill="none" stroke="red" stroke-width="2" d="M597.736,-180.926C602.669,-180.146 607.698,-179.35 612.719,-178.555"/>
<polygon fill="red" stroke="red" points="613.65,-181.951 622.979,-176.931 612.555,-175.037 613.65,-181.951"/>
</g>
<!-- ProgressReport -->
<g id="node9" class="node"><title>ProgressReport</title>
<polygon fill="none" stroke="black" points="850,-177.248 766,-177.248 766,-158.248 850,-158.248 850,-177.248"/>
<text text-anchor="middle" x="808" y="-165.248" font-family="Helvetica,sans-Serif" font-size="10.00">ProgressReport</text>
</g>
<!-- iterFunc(PHASE_ITER)&#45;&gt;ProgressReport -->
<g id="edge9" class="edge"><title>iterFunc(PHASE_ITER)&#45;&gt;ProgressReport</title>
<path fill="none" stroke="red" stroke-width="2" d="M741.006,-167.748C745.816,-167.748 750.659,-167.748 755.417,-167.748"/>
<polygon fill="red" stroke="red" points="755.653,-171.248 765.653,-167.748 755.653,-164.248 755.653,-171.248"/>
</g>
<!-- iterFunc(PHASE_ITER)&#45;&gt;MatVec -->
<g id="edge18" class="edge"><title>iterFunc(PHASE_ITER)&#45;&gt;MatVec</title>
<path fill="none" stroke="midnightblue" d="M694.614,-158.256C706.366,-148.624 725.03,-133.25 741,-119.748 757.123,-106.117 775.265,-90.422 788.443,-78.9571"/>
<polygon fill="midnightblue" stroke="midnightblue" points="791.074,-81.3065 796.314,-72.098 786.475,-76.0291 791.074,-81.3065"/>
</g>
<!-- SaveIterChpoint -->
<g id="node10" class="node"><title>SaveIterChpoint</title>
<polygon fill="none" stroke="black" points="959,-177.248 875,-177.248 875,-158.248 959,-158.248 959,-177.248"/>
<text text-anchor="middle" x="917" y="-165.248" font-family="Helvetica,sans-Serif" font-size="10.00">SaveIterChpoint</text>
</g>
<!-- ProgressReport&#45;&gt;SaveIterChpoint -->
<g id="edge3" class="edge"><title>ProgressReport&#45;&gt;SaveIterChpoint</title>
<path fill="none" stroke="midnightblue" d="M850.063,-161.163C854.892,-161.033 859.864,-160.979 864.81,-161.003"/>
<polygon fill="midnightblue" stroke="midnightblue" points="864.817,-164.504 874.87,-161.161 864.926,-157.505 864.817,-164.504"/>
</g>
<!-- ProgressReport&#45;&gt;SaveIterChpoint -->
<g id="edge13" class="edge"><title>ProgressReport&#45;&gt;SaveIterChpoint</title>
<path fill="none" stroke="red" stroke-dasharray="5,2" d="M850.063,-174.333C854.892,-174.463 859.864,-174.516 864.81,-174.492"/>
<polygon fill="red" stroke="red" points="864.926,-177.991 874.87,-174.335 864.817,-170.992 864.926,-177.991"/>
</g>
<!-- ResidualNorm2&#45;&gt;MatVec -->
<g id="edge17" class="edge"><title>ResidualNorm2&#45;&gt;MatVec</title>
<path fill="none" stroke="midnightblue" d="M162.315,-135.333C168.397,-112.788 187.111,-55.6578 226,-29.7479 296.834,17.4453 330.885,-5.74787 416,-5.74787 416,-5.74787 416,-5.74787 542,-5.74787 631.085,-5.74787 655.681,-4.11708 741,-29.7479 755.618,-34.1394 770.926,-41.5916 783.115,-48.304"/>
<polygon fill="midnightblue" stroke="midnightblue" points="781.728,-51.5423 792.149,-53.4561 785.196,-45.4617 781.728,-51.5423"/>
</g>
</g>
</svg>
