<?xml version="1.0" encoding="UTF-8" standalone="no"?>
<!DOCTYPE svg PUBLIC "-//W3C//DTD SVG 1.1//EN"
 "http://www.w3.org/Graphics/SVG/1.1/DTD/svg11.dtd">
<!-- Generated by graphviz version 2.30.1 (20130214.1330)
 -->
<!-- Title: main Pages: 1 -->
<svg width="497pt" height="917pt"
 viewBox="0.00 0.00 497.00 917.00" xmlns="http://www.w3.org/2000/svg" xmlns:xlink="http://www.w3.org/1999/xlink">
<g id="graph0" class="graph" transform="scale(1 1) rotate(0) translate(4 913)">
<title>main</title>
<polygon fill="white" stroke="white" points="-4,5 -4,-913 494,-913 494,5 -4,5"/>
<g id="clust2" class="cluster"><title>cluster_timing</title>
<polygon fill="none" stroke="black" points="135,-435 135,-560 231,-560 231,-435 135,-435"/>
<text text-anchor="middle" x="183" y="-548" font-family="Helvetica,sans-Serif" font-size="10.00">timing.c</text>
</g>
<g id="clust4" class="cluster"><title>cluster_particle</title>
<polygon fill="none" stroke="black" points="138,-8 138,-295 357,-295 357,-8 138,-8"/>
<text text-anchor="middle" x="247.5" y="-283" font-family="Helvetica,sans-Serif" font-size="10.00">make_particle.c</text>
</g>
<g id="clust5" class="cluster"><title>cluster_param</title>
<polygon fill="none" stroke="black" points="8,-677 8,-856 372,-856 372,-677 8,-677"/>
<text text-anchor="middle" x="190" y="-844" font-family="Helvetica,sans-Serif" font-size="10.00">param.c</text>
</g>
<g id="clust9" class="cluster"><title>cluster_chebyshev</title>
<polygon fill="none" stroke="black" points="252,-303 252,-374 366,-374 366,-303 252,-303"/>
<text text-anchor="middle" x="309" y="-362" font-family="Helvetica,sans-Serif" font-size="10.00">chebyshev.c</text>
</g>
<g id="clust1" class="cluster"><title>cluster_main</title>
<polygon fill="none" stroke="black" points="28,-489 28,-560 101,-560 101,-489 28,-489"/>
<text text-anchor="middle" x="64.5" y="-548" font-family="Helvetica,sans-Serif" font-size="10.00">ADDAmain.c</text>
</g>
<g id="clust3" class="cluster"><title>cluster_comm</title>
<polygon fill="none" stroke="black" points="265,-382 265,-669 353,-669 353,-382 265,-382"/>
<text text-anchor="middle" x="309" y="-657" font-family="Helvetica,sans-Serif" font-size="10.00">comm.c</text>
</g>
<g id="clust6" class="cluster"><title>cluster_calc</title>
<polygon fill="none" stroke="black" points="145,-598 145,-669 221,-669 221,-598 145,-598"/>
<text text-anchor="middle" x="183" y="-657" font-family="Helvetica,sans-Serif" font-size="10.00">calculator.c</text>
</g>
<g id="clust7" class="cluster"><title>cluster_beam</title>
<polygon fill="none" stroke="black" points="395,-830 395,-901 467,-901 467,-830 395,-830"/>
<text text-anchor="middle" x="431" y="-889" font-family="Helvetica,sans-Serif" font-size="10.00">GenerateB.c</text>
</g>
<g id="clust8" class="cluster"><title>cluster_cs</title>
<polygon fill="none" stroke="black" points="381,-697 381,-822 481,-822 481,-697 381,-697"/>
<text text-anchor="middle" x="431" y="-810" font-family="Helvetica,sans-Serif" font-size="10.00">crosssec.c</text>
</g>
<g id="clust10" class="cluster"><title>cluster_fft</title>
<polygon fill="none" stroke="black" points="385,-544 385,-669 477,-669 477,-544 385,-544"/>
<text text-anchor="middle" x="431" y="-657" font-family="Helvetica,sans-Serif" font-size="10.00">fft.c</text>
</g>
<!-- main -->
<g id="node1" class="node"><title>main</title>
<polygon fill="gold" stroke="gold" points="91,-533 37,-533 37,-497 91,-497 91,-533"/>
<text text-anchor="middle" x="64" y="-512.5" font-family="Helvetica,sans-Serif" font-size="10.00">main</text>
</g>
<!-- StartTime -->
<g id="node2" class="node"><title>StartTime</title>
<polygon fill="none" stroke="black" points="212.5,-533 153.5,-533 153.5,-497 212.5,-497 212.5,-533"/>
<text text-anchor="middle" x="183" y="-512.5" font-family="Helvetica,sans-Serif" font-size="10.00">StartTime</text>
</g>
<!-- main&#45;&gt;StartTime -->
<g id="edge6" class="edge"><title>main&#45;&gt;StartTime</title>
<path fill="none" stroke="red" stroke-width="2" d="M91.2571,-515C106.545,-515 126.104,-515 143.147,-515"/>
<polygon fill="red" stroke="red" points="143.373,-518.5 153.373,-515 143.373,-511.5 143.373,-518.5"/>
</g>
<!-- InitComm -->
<g id="node4" class="node"><title>InitComm</title>
<polygon fill="none" stroke="black" points="338,-642 280,-642 280,-606 338,-606 338,-642"/>
<text text-anchor="middle" x="309" y="-621.5" font-family="Helvetica,sans-Serif" font-size="10.00">InitComm</text>
</g>
<!-- StartTime&#45;&gt;InitComm -->
<g id="edge7" class="edge"><title>StartTime&#45;&gt;InitComm</title>
<path fill="none" stroke="red" stroke-width="2" d="M203.218,-533.286C212.114,-542.176 222.556,-553.245 231,-564 241.736,-577.673 239.007,-585.45 252,-597 257.546,-601.93 264.152,-606.159 270.849,-609.709"/>
<polygon fill="red" stroke="red" points="269.422,-612.907 279.946,-614.129 272.481,-606.611 269.422,-612.907"/>
</g>
<!-- FinalStatistics -->
<g id="node3" class="node"><title>FinalStatistics</title>
<polygon fill="none" stroke="black" points="222.5,-479 143.5,-479 143.5,-443 222.5,-443 222.5,-479"/>
<text text-anchor="middle" x="183" y="-458.5" font-family="Helvetica,sans-Serif" font-size="10.00">FinalStatistics</text>
</g>
<!-- Stop -->
<g id="node7" class="node"><title>Stop</title>
<polygon fill="none" stroke="black" points="336,-534 282,-534 282,-498 336,-498 336,-534"/>
<text text-anchor="middle" x="309" y="-513.5" font-family="Helvetica,sans-Serif" font-size="10.00">Stop</text>
</g>
<!-- FinalStatistics&#45;&gt;Stop -->
<g id="edge19" class="edge"><title>FinalStatistics&#45;&gt;Stop</title>
<path fill="none" stroke="red" stroke-width="2" d="M222.555,-478.101C238.451,-485.152 256.759,-493.272 272.34,-500.183"/>
<polygon fill="red" stroke="red" points="271.083,-503.454 281.644,-504.31 273.921,-497.056 271.083,-503.454"/>
</g>
<!-- InitVariables -->
<g id="node16" class="node"><title>InitVariables</title>
<polygon fill="none" stroke="black" points="99,-829 29,-829 29,-793 99,-793 99,-829"/>
<text text-anchor="middle" x="64" y="-808.5" font-family="Helvetica,sans-Serif" font-size="10.00">InitVariables</text>
</g>
<!-- InitComm&#45;&gt;InitVariables -->
<g id="edge8" class="edge"><title>InitComm&#45;&gt;InitVariables</title>
<path fill="none" stroke="red" stroke-width="2" d="M279.862,-610.13C265.597,-603.857 247.779,-597.153 231,-594 189.067,-586.12 166.931,-565.701 135,-594 103.171,-622.209 135.482,-748.54 112,-784 110.545,-786.197 108.846,-788.236 106.974,-790.126"/>
<polygon fill="red" stroke="red" points="104.515,-787.619 99.0449,-796.692 108.979,-793.01 104.515,-787.619"/>
</g>
<!-- CheckNprocs -->
<g id="node28" class="node"><title>CheckNprocs</title>
<polygon fill="none" stroke="black" points="468.5,-642 393.5,-642 393.5,-606 468.5,-606 468.5,-642"/>
<text text-anchor="middle" x="431" y="-621.5" font-family="Helvetica,sans-Serif" font-size="10.00">CheckNprocs</text>
</g>
<!-- InitComm&#45;&gt;CheckNprocs -->
<g id="edge26" class="edge"><title>InitComm&#45;&gt;CheckNprocs</title>
<path fill="none" stroke="midnightblue" d="M338.135,-624C351.531,-624 367.912,-624 383.113,-624"/>
<polygon fill="midnightblue" stroke="midnightblue" points="383.396,-627.5 393.396,-624 383.396,-620.5 383.396,-627.5"/>
</g>
<!-- ParSetup -->
<g id="node5" class="node"><title>ParSetup</title>
<polygon fill="none" stroke="black" points="337.5,-588 280.5,-588 280.5,-552 337.5,-552 337.5,-588"/>
<text text-anchor="middle" x="309" y="-567.5" font-family="Helvetica,sans-Serif" font-size="10.00">ParSetup</text>
</g>
<!-- MakeParticle -->
<g id="node12" class="node"><title>MakeParticle</title>
<polygon fill="none" stroke="black" points="220,-214 146,-214 146,-178 220,-178 220,-214"/>
<text text-anchor="middle" x="183" y="-193.5" font-family="Helvetica,sans-Serif" font-size="10.00">MakeParticle</text>
</g>
<!-- ParSetup&#45;&gt;MakeParticle -->
<g id="edge15" class="edge"><title>ParSetup&#45;&gt;MakeParticle</title>
<path fill="none" stroke="red" stroke-width="2" d="M280.32,-563.163C269.709,-559.095 258.58,-552.753 252,-543 212.142,-483.924 268.7,-283.475 231,-223 230.042,-221.463 228.962,-220.004 227.784,-218.621"/>
<polygon fill="red" stroke="red" points="229.837,-215.751 220.132,-211.501 225.069,-220.875 229.837,-215.751"/>
</g>
<!-- fftFit -->
<g id="node27" class="node"><title>fftFit</title>
<polygon fill="none" stroke="black" points="458,-588 404,-588 404,-552 458,-552 458,-588"/>
<text text-anchor="middle" x="431" y="-567.5" font-family="Helvetica,sans-Serif" font-size="10.00">fftFit</text>
</g>
<!-- ParSetup&#45;&gt;fftFit -->
<g id="edge25" class="edge"><title>ParSetup&#45;&gt;fftFit</title>
<path fill="none" stroke="midnightblue" d="M337.53,-570C354.189,-570 375.627,-570 393.666,-570"/>
<polygon fill="midnightblue" stroke="midnightblue" points="393.832,-573.5 403.832,-570 393.832,-566.5 393.832,-573.5"/>
</g>
<!-- SetupLocalD -->
<g id="node6" class="node"><title>SetupLocalD</title>
<polygon fill="none" stroke="black" points="345,-480 273,-480 273,-444 345,-444 345,-480"/>
<text text-anchor="middle" x="309" y="-459.5" font-family="Helvetica,sans-Serif" font-size="10.00">SetupLocalD</text>
</g>
<!-- AllGather -->
<g id="node8" class="node"><title>AllGather</title>
<polygon fill="none" stroke="black" points="337.5,-426 280.5,-426 280.5,-390 337.5,-390 337.5,-426"/>
<text text-anchor="middle" x="309" y="-405.5" font-family="Helvetica,sans-Serif" font-size="10.00">AllGather</text>
</g>
<!-- InitShape -->
<g id="node9" class="node"><title>InitShape</title>
<polygon fill="none" stroke="black" points="211.5,-268 154.5,-268 154.5,-232 211.5,-232 211.5,-268"/>
<text text-anchor="middle" x="183" y="-247.5" font-family="Helvetica,sans-Serif" font-size="10.00">InitShape</text>
</g>
<!-- InitDipFile -->
<g id="node10" class="node"><title>InitDipFile</title>
<polygon fill="none" stroke="black" points="338.5,-214 279.5,-214 279.5,-178 338.5,-178 338.5,-214"/>
<text text-anchor="middle" x="309" y="-193.5" font-family="Helvetica,sans-Serif" font-size="10.00">InitDipFile</text>
</g>
<!-- InitShape&#45;&gt;InitDipFile -->
<g id="edge1" class="edge"><title>InitShape&#45;&gt;InitDipFile</title>
<path fill="none" stroke="midnightblue" d="M211.52,-238.016C228.732,-230.52 251.144,-220.76 270.034,-212.534"/>
<polygon fill="midnightblue" stroke="midnightblue" points="271.494,-215.715 279.265,-208.514 268.699,-209.298 271.494,-215.715"/>
</g>
<!-- InitContour -->
<g id="node11" class="node"><title>InitContour</title>
<polygon fill="none" stroke="black" points="340.5,-268 277.5,-268 277.5,-232 340.5,-232 340.5,-268"/>
<text text-anchor="middle" x="309" y="-247.5" font-family="Helvetica,sans-Serif" font-size="10.00">InitContour</text>
</g>
<!-- InitShape&#45;&gt;InitContour -->
<g id="edge2" class="edge"><title>InitShape&#45;&gt;InitContour</title>
<path fill="none" stroke="midnightblue" d="M211.52,-250C227.819,-250 248.779,-250 266.997,-250"/>
<polygon fill="midnightblue" stroke="midnightblue" points="267.069,-253.5 277.069,-250 267.069,-246.5 267.069,-253.5"/>
</g>
<!-- FinalizeSymmetry -->
<g id="node19" class="node"><title>FinalizeSymmetry</title>
<polygon fill="none" stroke="black" points="111.5,-775 16.5,-775 16.5,-739 111.5,-739 111.5,-775"/>
<text text-anchor="middle" x="64" y="-754.5" font-family="Helvetica,sans-Serif" font-size="10.00">FinalizeSymmetry</text>
</g>
<!-- InitShape&#45;&gt;FinalizeSymmetry -->
<g id="edge12" class="edge"><title>InitShape&#45;&gt;FinalizeSymmetry</title>
<path fill="none" stroke="red" stroke-width="2" d="M176.184,-268.011C166.017,-300.295 145.13,-370.317 135,-431 124.027,-496.731 147.572,-673.647 112,-730 111.67,-730.522 111.327,-731.035 110.97,-731.54"/>
<polygon fill="red" stroke="red" points="108.361,-729.206 104.197,-738.948 113.528,-733.929 108.361,-729.206"/>
</g>
<!-- ChebyshevParams -->
<g id="node26" class="node"><title>ChebyshevParams</title>
<polygon fill="none" stroke="black" points="358,-347 260,-347 260,-311 358,-311 358,-347"/>
<text text-anchor="middle" x="309" y="-326.5" font-family="Helvetica,sans-Serif" font-size="10.00">ChebyshevParams</text>
</g>
<!-- InitShape&#45;&gt;ChebyshevParams -->
<g id="edge23" class="edge"><title>InitShape&#45;&gt;ChebyshevParams</title>
<path fill="none" stroke="midnightblue" d="M207.385,-268.026C220.262,-277.649 236.694,-289.444 252,-299 255.786,-301.364 259.775,-303.73 263.807,-306.039"/>
<polygon fill="midnightblue" stroke="midnightblue" points="262.206,-309.153 272.643,-310.978 265.622,-303.043 262.206,-309.153"/>
</g>
<!-- ReadDipFile -->
<g id="node13" class="node"><title>ReadDipFile</title>
<polygon fill="none" stroke="black" points="343.5,-160 274.5,-160 274.5,-124 343.5,-124 343.5,-160"/>
<text text-anchor="middle" x="309" y="-139.5" font-family="Helvetica,sans-Serif" font-size="10.00">ReadDipFile</text>
</g>
<!-- MakeParticle&#45;&gt;ReadDipFile -->
<g id="edge3" class="edge"><title>MakeParticle&#45;&gt;ReadDipFile</title>
<path fill="none" stroke="midnightblue" d="M220.199,-180.236C234.156,-174.158 250.235,-167.156 264.789,-160.818"/>
<polygon fill="midnightblue" stroke="midnightblue" points="266.324,-163.967 274.095,-156.765 263.529,-157.549 266.324,-163.967"/>
</g>
<!-- PlaceGranules -->
<g id="node14" class="node"><title>PlaceGranules</title>
<polygon fill="none" stroke="black" points="349,-52 269,-52 269,-16 349,-16 349,-52"/>
<text text-anchor="middle" x="309" y="-31.5" font-family="Helvetica,sans-Serif" font-size="10.00">PlaceGranules</text>
</g>
<!-- MakeParticle&#45;&gt;PlaceGranules -->
<g id="edge4" class="edge"><title>MakeParticle&#45;&gt;PlaceGranules</title>
<path fill="none" stroke="midnightblue" d="M189.079,-177.54C197.718,-149.183 217.748,-94.6626 252,-61 254.501,-58.5424 257.268,-56.2737 260.195,-54.1857"/>
<polygon fill="midnightblue" stroke="midnightblue" points="262.185,-57.0686 268.774,-48.7722 258.45,-51.1485 262.185,-57.0686"/>
</g>
<!-- SaveGeometry -->
<g id="node15" class="node"><title>SaveGeometry</title>
<polygon fill="none" stroke="black" points="349,-106 269,-106 269,-70 349,-70 349,-106"/>
<text text-anchor="middle" x="309" y="-85.5" font-family="Helvetica,sans-Serif" font-size="10.00">SaveGeometry</text>
</g>
<!-- MakeParticle&#45;&gt;SaveGeometry -->
<g id="edge5" class="edge"><title>MakeParticle&#45;&gt;SaveGeometry</title>
<path fill="none" stroke="midnightblue" d="M195.731,-177.978C208.043,-160.164 228.807,-133.031 252,-115 254.556,-113.013 257.283,-111.12 260.104,-109.328"/>
<polygon fill="midnightblue" stroke="midnightblue" points="261.912,-112.325 268.777,-104.256 258.378,-106.282 261.912,-112.325"/>
</g>
<!-- PrintInfo -->
<g id="node21" class="node"><title>PrintInfo</title>
<polygon fill="none" stroke="black" points="91,-721 37,-721 37,-685 91,-685 91,-721"/>
<text text-anchor="middle" x="64" y="-700.5" font-family="Helvetica,sans-Serif" font-size="10.00">PrintInfo</text>
</g>
<!-- MakeParticle&#45;&gt;PrintInfo -->
<g id="edge16" class="edge"><title>MakeParticle&#45;&gt;PrintInfo</title>
<path fill="none" stroke="red" stroke-width="2" d="M145.875,-211.505C141.611,-214.725 137.792,-218.531 135,-223 94.7624,-287.415 126.843,-489.515 112,-564 104.063,-603.828 87.7845,-647.956 76.6317,-675.583"/>
<polygon fill="red" stroke="red" points="73.3356,-674.396 72.7796,-684.976 79.8122,-677.052 73.3356,-674.396"/>
</g>
<!-- MakeParticle&#45;&gt;SetupLocalD -->
<g id="edge24" class="edge"><title>MakeParticle&#45;&gt;SetupLocalD</title>
<path fill="none" stroke="midnightblue" d="M220.454,-211.933C224.554,-215.065 228.241,-218.733 231,-223 282.416,-302.507 197.748,-357.4 252,-435 255.208,-439.589 259.416,-443.427 264.085,-446.629"/>
<polygon fill="midnightblue" stroke="midnightblue" points="262.47,-449.738 272.875,-451.733 265.985,-443.685 262.47,-449.738"/>
</g>
<!-- MakeParticle&#45;&gt;AllGather -->
<g id="edge27" class="edge"><title>MakeParticle&#45;&gt;AllGather</title>
<path fill="none" stroke="midnightblue" stroke-dasharray="5,2" d="M220.312,-212.026C224.434,-215.144 228.164,-218.783 231,-223 269.793,-280.688 212.356,-320.893 252,-378 256.776,-384.88 263.646,-390.318 270.948,-394.564"/>
<polygon fill="midnightblue" stroke="midnightblue" points="269.802,-397.909 280.302,-399.324 272.977,-391.67 269.802,-397.909"/>
</g>
<!-- ParseParameters -->
<g id="node17" class="node"><title>ParseParameters</title>
<polygon fill="none" stroke="black" points="229,-815 137,-815 137,-779 229,-779 229,-815"/>
<text text-anchor="middle" x="183" y="-794.5" font-family="Helvetica,sans-Serif" font-size="10.00">ParseParameters</text>
</g>
<!-- InitVariables&#45;&gt;ParseParameters -->
<g id="edge9" class="edge"><title>InitVariables&#45;&gt;ParseParameters</title>
<path fill="none" stroke="red" stroke-width="2" d="M99.1558,-806.913C107.775,-805.882 117.251,-804.748 126.621,-803.627"/>
<polygon fill="red" stroke="red" points="127.187,-807.084 136.701,-802.42 126.356,-800.133 127.187,-807.084"/>
</g>
<!-- VariablesInterconnect -->
<g id="node18" class="node"><title>VariablesInterconnect</title>
<polygon fill="none" stroke="black" points="364,-795 254,-795 254,-759 364,-759 364,-795"/>
<text text-anchor="middle" x="309" y="-774.5" font-family="Helvetica,sans-Serif" font-size="10.00">VariablesInterconnect</text>
</g>
<!-- ParseParameters&#45;&gt;VariablesInterconnect -->
<g id="edge10" class="edge"><title>ParseParameters&#45;&gt;VariablesInterconnect</title>
<path fill="none" stroke="red" stroke-width="2" d="M229.118,-789.723C233.887,-788.954 238.801,-788.161 243.734,-787.366"/>
<polygon fill="red" stroke="red" points="244.531,-790.782 253.846,-785.735 243.416,-783.872 244.531,-790.782"/>
</g>
<!-- VariablesInterconnect&#45;&gt;InitShape -->
<g id="edge11" class="edge"><title>VariablesInterconnect&#45;&gt;InitShape</title>
<path fill="none" stroke="red" stroke-width="2" d="M295.23,-758.844C281.9,-738.843 261.625,-705.224 252,-673 221.103,-569.556 249.298,-537.398 231,-431 221.51,-375.815 203.473,-312.832 192.714,-277.607"/>
<polygon fill="red" stroke="red" points="196.049,-276.544 189.756,-268.021 189.36,-278.609 196.049,-276.544"/>
</g>
<!-- InitBeam -->
<g id="node23" class="node"><title>InitBeam</title>
<polygon fill="none" stroke="black" points="458.5,-874 403.5,-874 403.5,-838 458.5,-838 458.5,-874"/>
<text text-anchor="middle" x="431" y="-853.5" font-family="Helvetica,sans-Serif" font-size="10.00">InitBeam</text>
</g>
<!-- VariablesInterconnect&#45;&gt;InitBeam -->
<g id="edge20" class="edge"><title>VariablesInterconnect&#45;&gt;InitBeam</title>
<path fill="none" stroke="midnightblue" d="M335.405,-795.032C348.841,-804.441 365.684,-816.037 381,-826 385.382,-828.85 390.023,-831.791 394.634,-834.665"/>
<polygon fill="midnightblue" stroke="midnightblue" points="393.04,-837.794 403.387,-840.07 396.717,-831.838 393.04,-837.794"/>
</g>
<!-- ReadAvgParms -->
<g id="node24" class="node"><title>ReadAvgParms</title>
<polygon fill="none" stroke="black" points="472.5,-795 389.5,-795 389.5,-759 472.5,-759 472.5,-795"/>
<text text-anchor="middle" x="431" y="-774.5" font-family="Helvetica,sans-Serif" font-size="10.00">ReadAvgParms</text>
</g>
<!-- VariablesInterconnect&#45;&gt;ReadAvgParms -->
<g id="edge21" class="edge"><title>VariablesInterconnect&#45;&gt;ReadAvgParms</title>
<path fill="none" stroke="midnightblue" d="M364.032,-777C369.056,-777 374.135,-777 379.129,-777"/>
<polygon fill="midnightblue" stroke="midnightblue" points="379.211,-780.5 389.211,-777 379.211,-773.5 379.211,-780.5"/>
</g>
<!-- InitRotation -->
<g id="node25" class="node"><title>InitRotation</title>
<polygon fill="none" stroke="black" points="463.5,-741 398.5,-741 398.5,-705 463.5,-705 463.5,-741"/>
<text text-anchor="middle" x="431" y="-720.5" font-family="Helvetica,sans-Serif" font-size="10.00">InitRotation</text>
</g>
<!-- VariablesInterconnect&#45;&gt;InitRotation -->
<g id="edge22" class="edge"><title>VariablesInterconnect&#45;&gt;InitRotation</title>
<path fill="none" stroke="midnightblue" d="M350.292,-758.869C362.771,-753.253 376.53,-747.061 389.054,-741.426"/>
<polygon fill="midnightblue" stroke="midnightblue" points="390.665,-744.539 398.348,-737.244 387.792,-738.156 390.665,-744.539"/>
</g>
<!-- DirectoryLog -->
<g id="node20" class="node"><title>DirectoryLog</title>
<polygon fill="none" stroke="black" points="218.5,-748 147.5,-748 147.5,-712 218.5,-712 218.5,-748"/>
<text text-anchor="middle" x="183" y="-727.5" font-family="Helvetica,sans-Serif" font-size="10.00">DirectoryLog</text>
</g>
<!-- FinalizeSymmetry&#45;&gt;DirectoryLog -->
<g id="edge13" class="edge"><title>FinalizeSymmetry&#45;&gt;DirectoryLog</title>
<path fill="none" stroke="red" stroke-width="2" d="M111.578,-746.251C120.189,-744.264 129.159,-742.194 137.7,-740.223"/>
<polygon fill="red" stroke="red" points="138.525,-743.625 147.482,-737.966 136.951,-736.804 138.525,-743.625"/>
</g>
<!-- DirectoryLog&#45;&gt;ParSetup -->
<g id="edge14" class="edge"><title>DirectoryLog&#45;&gt;ParSetup</title>
<path fill="none" stroke="red" stroke-width="2" d="M202.282,-711.924C212.041,-701.37 223.543,-687.338 231,-673 247.169,-641.91 229.543,-623.903 252,-597 257.155,-590.824 264.055,-585.956 271.247,-582.157"/>
<polygon fill="red" stroke="red" points="272.812,-585.29 280.404,-577.9 269.86,-578.942 272.812,-585.29"/>
</g>
<!-- Calculator -->
<g id="node22" class="node"><title>Calculator</title>
<polygon fill="cyan" stroke="cyan" points="213,-642 153,-642 153,-606 213,-606 213,-642"/>
<text text-anchor="middle" x="183" y="-621.5" font-family="Helvetica,sans-Serif" font-size="10.00">Calculator</text>
</g>
<!-- PrintInfo&#45;&gt;Calculator -->
<g id="edge17" class="edge"><title>PrintInfo&#45;&gt;Calculator</title>
<path fill="none" stroke="red" stroke-width="2" d="M91.2571,-685.271C107.585,-674.246 128.786,-659.931 146.589,-647.91"/>
<polygon fill="red" stroke="red" points="148.69,-650.715 155.019,-642.218 144.773,-644.913 148.69,-650.715"/>
</g>
<!-- Calculator&#45;&gt;FinalStatistics -->
<g id="edge18" class="edge"><title>Calculator&#45;&gt;FinalStatistics</title>
<path fill="none" stroke="red" stroke-width="2" d="M160.673,-605.743C147.078,-593.11 130.939,-575.017 123.5,-555 114.521,-530.837 112.209,-520.174 123.5,-497 126.276,-491.302 130.416,-486.427 135.244,-482.277"/>
<polygon fill="red" stroke="red" points="137.327,-485.09 143.299,-476.338 133.173,-479.455 137.327,-485.09"/>
</g>
</g>
</svg>
