<?xml version="1.0" encoding="UTF-8" standalone="no"?>
<!DOCTYPE svg PUBLIC "-//W3C//DTD SVG 1.1//EN"
 "http://www.w3.org/Graphics/SVG/1.1/DTD/svg11.dtd">
<!-- Generated by graphviz version 2.30.1 (20130214.1330)
 -->
<!-- Title: main Pages: 1 -->
<svg width="678pt" height="937pt"
 viewBox="0.00 0.00 678.00 937.00" xmlns="http://www.w3.org/2000/svg" xmlns:xlink="http://www.w3.org/1999/xlink">
<g id="graph0" class="graph" transform="scale(1 1) rotate(0) translate(4 933)">
<title>main</title>
<polygon fill="white" stroke="white" points="-4,5 -4,-933 675,-933 675,5 -4,5"/>
<g id="clust2" class="cluster"><title>cluster_timing</title>
<polygon fill="none" stroke="black" points="184,-439 184,-568 304,-568 304,-439 184,-439"/>
<text text-anchor="middle" x="244" y="-552.8" font-family="Helvetica,sans-Serif" font-size="14.00">timing.c</text>
</g>
<g id="clust6" class="cluster"><title>cluster_calc</title>
<polygon fill="none" stroke="black" points="196,-606 196,-681 292,-681 292,-606 196,-606"/>
<text text-anchor="middle" x="244" y="-665.8" font-family="Helvetica,sans-Serif" font-size="14.00">calculator.c</text>
</g>
<g id="clust7" class="cluster"><title>cluster_beam</title>
<polygon fill="none" stroke="black" points="547,-846 547,-921 644,-921 644,-846 547,-846"/>
<text text-anchor="middle" x="595.5" y="-905.8" font-family="Helvetica,sans-Serif" font-size="14.00">GenerateB.c</text>
</g>
<g id="clust4" class="cluster"><title>cluster_particle</title>
<polygon fill="none" stroke="black" points="187,-8 187,-299 486,-299 486,-8 187,-8"/>
<text text-anchor="middle" x="336.5" y="-283.8" font-family="Helvetica,sans-Serif" font-size="14.00">make_particle.c</text>
</g>
<g id="clust5" class="cluster"><title>cluster_param</title>
<polygon fill="none" stroke="black" points="8,-689 8,-872 508,-872 508,-689 8,-689"/>
<text text-anchor="middle" x="258" y="-856.8" font-family="Helvetica,sans-Serif" font-size="14.00">param.c</text>
</g>
<g id="clust9" class="cluster"><title>cluster_chebyshev</title>
<polygon fill="none" stroke="black" points="345,-307 345,-382 499,-382 499,-307 345,-307"/>
<text text-anchor="middle" x="422" y="-366.8" font-family="Helvetica,sans-Serif" font-size="14.00">chebyshev.c</text>
</g>
<g id="clust1" class="cluster"><title>cluster_main</title>
<polygon fill="none" stroke="black" points="31,-493 31,-568 129,-568 129,-493 31,-493"/>
<text text-anchor="middle" x="80" y="-552.8" font-family="Helvetica,sans-Serif" font-size="14.00">ADDAmain.c</text>
</g>
<g id="clust3" class="cluster"><title>cluster_comm</title>
<polygon fill="none" stroke="black" points="364,-390 364,-681 480,-681 480,-390 364,-390"/>
<text text-anchor="middle" x="422" y="-665.8" font-family="Helvetica,sans-Serif" font-size="14.00">comm.c</text>
</g>
<g id="clust8" class="cluster"><title>cluster_cs</title>
<polygon fill="none" stroke="black" points="528,-709 528,-838 662,-838 662,-709 528,-709"/>
<text text-anchor="middle" x="595" y="-822.8" font-family="Helvetica,sans-Serif" font-size="14.00">crosssec.c</text>
</g>
<g id="clust10" class="cluster"><title>cluster_fft</title>
<polygon fill="none" stroke="black" points="535,-552 535,-681 655,-681 655,-552 535,-552"/>
<text text-anchor="middle" x="595" y="-665.8" font-family="Helvetica,sans-Serif" font-size="14.00">fft.c</text>
</g>
<!-- main -->
<g id="node1" class="node"><title>main</title>
<polygon fill="gold" stroke="gold" points="107,-537 53,-537 53,-501 107,-501 107,-537"/>
<text text-anchor="middle" x="80" y="-515.3" font-family="Helvetica,sans-Serif" font-size="14.00">main</text>
</g>
<!-- StartTime -->
<g id="node2" class="node"><title>StartTime</title>
<polygon fill="none" stroke="black" points="283,-537 205,-537 205,-501 283,-501 283,-537"/>
<text text-anchor="middle" x="244" y="-515.3" font-family="Helvetica,sans-Serif" font-size="14.00">StartTime</text>
</g>
<!-- main&#45;&gt;StartTime -->
<g id="edge6" class="edge"><title>main&#45;&gt;StartTime</title>
<path fill="none" stroke="red" stroke-width="2" d="M107.028,-519C130.607,-519 165.953,-519 194.697,-519"/>
<polygon fill="red" stroke="red" points="194.954,-522.5 204.954,-519 194.954,-515.5 194.954,-522.5"/>
</g>
<!-- InitComm -->
<g id="node4" class="node"><title>InitComm</title>
<polygon fill="none" stroke="black" points="461,-650 383,-650 383,-614 461,-614 461,-650"/>
<text text-anchor="middle" x="422" y="-628.3" font-family="Helvetica,sans-Serif" font-size="14.00">InitComm</text>
</g>
<!-- StartTime&#45;&gt;InitComm -->
<g id="edge7" class="edge"><title>StartTime&#45;&gt;InitComm</title>
<path fill="none" stroke="red" stroke-width="2" d="M267.062,-537.17C279.241,-547.298 294.576,-560.21 308,-572 324.308,-586.323 325.379,-593.848 344,-605 353.026,-610.405 363.295,-614.947 373.326,-618.671"/>
<polygon fill="red" stroke="red" points="372.228,-621.994 382.823,-621.992 374.539,-615.387 372.228,-621.994"/>
</g>
<!-- FinalStatistics -->
<g id="node3" class="node"><title>FinalStatistics</title>
<polygon fill="none" stroke="black" points="296,-483 192,-483 192,-447 296,-447 296,-483"/>
<text text-anchor="middle" x="244" y="-461.3" font-family="Helvetica,sans-Serif" font-size="14.00">FinalStatistics</text>
</g>
<!-- Stop -->
<g id="node7" class="node"><title>Stop</title>
<polygon fill="none" stroke="black" points="449,-542 395,-542 395,-506 449,-506 449,-542"/>
<text text-anchor="middle" x="422" y="-520.3" font-family="Helvetica,sans-Serif" font-size="14.00">Stop</text>
</g>
<!-- FinalStatistics&#45;&gt;Stop -->
<g id="edge19" class="edge"><title>FinalStatistics&#45;&gt;Stop</title>
<path fill="none" stroke="red" stroke-width="2" d="M296.38,-482.224C324.864,-491.772 359.578,-503.41 385.127,-511.974"/>
<polygon fill="red" stroke="red" points="384.186,-515.35 394.78,-515.21 386.411,-508.713 384.186,-515.35"/>
</g>
<!-- InitVariables -->
<g id="node16" class="node"><title>InitVariables</title>
<polygon fill="none" stroke="black" points="127.5,-841 32.5,-841 32.5,-805 127.5,-805 127.5,-841"/>
<text text-anchor="middle" x="80" y="-819.3" font-family="Helvetica,sans-Serif" font-size="14.00">InitVariables</text>
</g>
<!-- InitComm&#45;&gt;InitVariables -->
<g id="edge8" class="edge"><title>InitComm&#45;&gt;InitVariables</title>
<path fill="none" stroke="red" stroke-width="2" d="M382.795,-619.208C361.13,-612.628 333.36,-605.309 308,-602 251.589,-594.639 223.743,-565.628 180,-602 112.571,-658.068 198.779,-727.52 144,-796 141.739,-798.827 139.125,-801.363 136.275,-803.638"/>
<polygon fill="red" stroke="red" points="134.068,-800.904 127.712,-809.381 137.967,-806.718 134.068,-800.904"/>
</g>
<!-- CheckNprocs -->
<g id="node28" class="node"><title>CheckNprocs</title>
<polygon fill="none" stroke="black" points="646.5,-650 543.5,-650 543.5,-614 646.5,-614 646.5,-650"/>
<text text-anchor="middle" x="595" y="-628.3" font-family="Helvetica,sans-Serif" font-size="14.00">CheckNprocs</text>
</g>
<!-- InitComm&#45;&gt;CheckNprocs -->
<g id="edge26" class="edge"><title>InitComm&#45;&gt;CheckNprocs</title>
<path fill="none" stroke="midnightblue" d="M461.376,-632C482.571,-632 509.386,-632 533.349,-632"/>
<polygon fill="midnightblue" stroke="midnightblue" points="533.419,-635.5 543.419,-632 533.419,-628.5 533.419,-635.5"/>
</g>
<!-- ParSetup -->
<g id="node5" class="node"><title>ParSetup</title>
<polygon fill="none" stroke="black" points="460,-596 384,-596 384,-560 460,-560 460,-596"/>
<text text-anchor="middle" x="422" y="-574.3" font-family="Helvetica,sans-Serif" font-size="14.00">ParSetup</text>
</g>
<!-- MakeParticle -->
<g id="node12" class="node"><title>MakeParticle</title>
<polygon fill="none" stroke="black" points="293,-214 195,-214 195,-178 293,-178 293,-214"/>
<text text-anchor="middle" x="244" y="-192.3" font-family="Helvetica,sans-Serif" font-size="14.00">MakeParticle</text>
</g>
<!-- ParSetup&#45;&gt;MakeParticle -->
<g id="edge15" class="edge"><title>ParSetup&#45;&gt;MakeParticle</title>
<path fill="none" stroke="red" stroke-width="2" d="M383.892,-573.576C369.274,-569.901 353.694,-563.2 344,-551 252.766,-436.18 395.299,-340.839 308,-223 306.017,-220.323 303.713,-217.908 301.184,-215.731"/>
<polygon fill="red" stroke="red" points="303.181,-212.856 293.012,-209.885 299.109,-218.55 303.181,-212.856"/>
</g>
<!-- fftFit -->
<g id="node27" class="node"><title>fftFit</title>
<polygon fill="none" stroke="black" points="622,-596 568,-596 568,-560 622,-560 622,-596"/>
<text text-anchor="middle" x="595" y="-574.3" font-family="Helvetica,sans-Serif" font-size="14.00">fftFit</text>
</g>
<!-- ParSetup&#45;&gt;fftFit -->
<g id="edge25" class="edge"><title>ParSetup&#45;&gt;fftFit</title>
<path fill="none" stroke="midnightblue" d="M460.104,-578C489.062,-578 529.062,-578 557.789,-578"/>
<polygon fill="midnightblue" stroke="midnightblue" points="557.821,-581.5 567.821,-578 557.821,-574.5 557.821,-581.5"/>
</g>
<!-- SetupLocalD -->
<g id="node6" class="node"><title>SetupLocalD</title>
<polygon fill="none" stroke="black" points="471.5,-488 372.5,-488 372.5,-452 471.5,-452 471.5,-488"/>
<text text-anchor="middle" x="422" y="-466.3" font-family="Helvetica,sans-Serif" font-size="14.00">SetupLocalD</text>
</g>
<!-- AllGather -->
<g id="node8" class="node"><title>AllGather</title>
<polygon fill="none" stroke="black" points="459.5,-434 384.5,-434 384.5,-398 459.5,-398 459.5,-434"/>
<text text-anchor="middle" x="422" y="-412.3" font-family="Helvetica,sans-Serif" font-size="14.00">AllGather</text>
</g>
<!-- InitShape -->
<g id="node9" class="node"><title>InitShape</title>
<polygon fill="none" stroke="black" points="282.5,-268 205.5,-268 205.5,-232 282.5,-232 282.5,-268"/>
<text text-anchor="middle" x="244" y="-246.3" font-family="Helvetica,sans-Serif" font-size="14.00">InitShape</text>
</g>
<!-- InitDipFile -->
<g id="node10" class="node"><title>InitDipFile</title>
<polygon fill="none" stroke="black" points="462,-214 382,-214 382,-178 462,-178 462,-214"/>
<text text-anchor="middle" x="422" y="-192.3" font-family="Helvetica,sans-Serif" font-size="14.00">InitDipFile</text>
</g>
<!-- InitShape&#45;&gt;InitDipFile -->
<g id="edge1" class="edge"><title>InitShape&#45;&gt;InitDipFile</title>
<path fill="none" stroke="midnightblue" d="M282.756,-238.416C308.868,-230.404 343.856,-219.669 372.099,-211.004"/>
<polygon fill="midnightblue" stroke="midnightblue" points="373.248,-214.312 381.782,-208.033 371.195,-207.62 373.248,-214.312"/>
</g>
<!-- InitContour -->
<g id="node11" class="node"><title>InitContour</title>
<polygon fill="none" stroke="black" points="465,-268 379,-268 379,-232 465,-232 465,-268"/>
<text text-anchor="middle" x="422" y="-246.3" font-family="Helvetica,sans-Serif" font-size="14.00">InitContour</text>
</g>
<!-- InitShape&#45;&gt;InitContour -->
<g id="edge2" class="edge"><title>InitShape&#45;&gt;InitContour</title>
<path fill="none" stroke="midnightblue" d="M282.756,-250C307.834,-250 341.098,-250 368.713,-250"/>
<polygon fill="midnightblue" stroke="midnightblue" points="368.99,-253.5 378.99,-250 368.99,-246.5 368.99,-253.5"/>
</g>
<!-- FinalizeSymmetry -->
<g id="node19" class="node"><title>FinalizeSymmetry</title>
<polygon fill="none" stroke="black" points="144,-787 16,-787 16,-751 144,-751 144,-787"/>
<text text-anchor="middle" x="80" y="-765.3" font-family="Helvetica,sans-Serif" font-size="14.00">FinalizeSymmetry</text>
</g>
<!-- InitShape&#45;&gt;FinalizeSymmetry -->
<g id="edge12" class="edge"><title>InitShape&#45;&gt;FinalizeSymmetry</title>
<path fill="none" stroke="red" stroke-width="2" d="M235.433,-268.011C222.037,-300.673 194.224,-372.123 180,-435 164.844,-501.997 185.094,-686.958 144,-742 143.533,-742.626 143.048,-743.237 142.547,-743.835"/>
<polygon fill="red" stroke="red" points="140.03,-741.399 135.218,-750.838 144.866,-746.46 140.03,-741.399"/>
</g>
<!-- ChebyshevParams -->
<g id="node26" class="node"><title>ChebyshevParams</title>
<polygon fill="none" stroke="black" points="490.5,-351 353.5,-351 353.5,-315 490.5,-315 490.5,-351"/>
<text text-anchor="middle" x="422" y="-329.3" font-family="Helvetica,sans-Serif" font-size="14.00">ChebyshevParams</text>
</g>
<!-- InitShape&#45;&gt;ChebyshevParams -->
<g id="edge23" class="edge"><title>InitShape&#45;&gt;ChebyshevParams</title>
<path fill="none" stroke="midnightblue" d="M276.61,-268.175C295.809,-278.898 320.979,-292.4 344,-303 350.041,-305.782 356.42,-308.54 362.815,-311.192"/>
<polygon fill="midnightblue" stroke="midnightblue" points="361.578,-314.467 372.16,-314.991 364.215,-307.982 361.578,-314.467"/>
</g>
<!-- ReadDipFile -->
<g id="node13" class="node"><title>ReadDipFile</title>
<polygon fill="none" stroke="black" points="470,-160 374,-160 374,-124 470,-124 470,-160"/>
<text text-anchor="middle" x="422" y="-138.3" font-family="Helvetica,sans-Serif" font-size="14.00">ReadDipFile</text>
</g>
<!-- MakeParticle&#45;&gt;ReadDipFile -->
<g id="edge3" class="edge"><title>MakeParticle&#45;&gt;ReadDipFile</title>
<path fill="none" stroke="midnightblue" d="M293.093,-181.244C315.09,-174.495 341.307,-166.451 364.262,-159.408"/>
<polygon fill="midnightblue" stroke="midnightblue" points="365.345,-162.737 373.879,-156.458 363.292,-156.045 365.345,-162.737"/>
</g>
<!-- PlaceGranules -->
<g id="node14" class="node"><title>PlaceGranules</title>
<polygon fill="none" stroke="black" points="477,-52 367,-52 367,-16 477,-16 477,-52"/>
<text text-anchor="middle" x="422" y="-30.3" font-family="Helvetica,sans-Serif" font-size="14.00">PlaceGranules</text>
</g>
<!-- MakeParticle&#45;&gt;PlaceGranules -->
<g id="edge4" class="edge"><title>MakeParticle&#45;&gt;PlaceGranules</title>
<path fill="none" stroke="midnightblue" d="M253.652,-177.994C268.335,-149.256 300.797,-93.009 344,-61 348.162,-57.9166 352.705,-55.1632 357.437,-52.7085"/>
<polygon fill="midnightblue" stroke="midnightblue" points="359.155,-55.7685 366.716,-48.3477 356.177,-49.4332 359.155,-55.7685"/>
</g>
<!-- SaveGeometry -->
<g id="node15" class="node"><title>SaveGeometry</title>
<polygon fill="none" stroke="black" points="478,-106 366,-106 366,-70 478,-70 478,-106"/>
<text text-anchor="middle" x="422" y="-84.3" font-family="Helvetica,sans-Serif" font-size="14.00">SaveGeometry</text>
</g>
<!-- MakeParticle&#45;&gt;SaveGeometry -->
<g id="edge5" class="edge"><title>MakeParticle&#45;&gt;SaveGeometry</title>
<path fill="none" stroke="midnightblue" d="M263.253,-177.708C282.09,-159.685 313.016,-132.392 344,-115 347.928,-112.795 352.068,-110.722 356.307,-108.781"/>
<polygon fill="midnightblue" stroke="midnightblue" points="357.895,-111.908 365.7,-104.744 355.131,-105.476 357.895,-111.908"/>
</g>
<!-- PrintInfo -->
<g id="node21" class="node"><title>PrintInfo</title>
<polygon fill="none" stroke="black" points="115,-733 45,-733 45,-697 115,-697 115,-733"/>
<text text-anchor="middle" x="80" y="-711.3" font-family="Helvetica,sans-Serif" font-size="14.00">PrintInfo</text>
</g>
<!-- MakeParticle&#45;&gt;PrintInfo -->
<g id="edge16" class="edge"><title>MakeParticle&#45;&gt;PrintInfo</title>
<path fill="none" stroke="red" stroke-width="2" d="M194.956,-209.861C189.185,-213.321 183.949,-217.633 180,-223 133.793,-285.799 163.96,-496.631 144,-572 132.831,-614.175 110.832,-659.795 96.0185,-687.887"/>
<polygon fill="red" stroke="red" points="92.9284,-686.243 91.296,-696.712 99.1003,-689.546 92.9284,-686.243"/>
</g>
<!-- MakeParticle&#45;&gt;SetupLocalD -->
<g id="edge24" class="edge"><title>MakeParticle&#45;&gt;SetupLocalD</title>
<path fill="none" stroke="midnightblue" d="M293.066,-210.265C298.758,-213.66 303.966,-217.846 308,-223 369.063,-301.024 280.334,-367.085 344,-443 349.12,-449.105 355.708,-453.831 362.871,-457.489"/>
<polygon fill="midnightblue" stroke="midnightblue" points="361.621,-460.763 372.185,-461.575 364.433,-454.353 361.621,-460.763"/>
</g>
<!-- MakeParticle&#45;&gt;AllGather -->
<g id="edge27" class="edge"><title>MakeParticle&#45;&gt;AllGather</title>
<path fill="none" stroke="midnightblue" stroke-dasharray="5,2" d="M293.118,-210.658C298.729,-213.988 303.902,-218.051 308,-223 355.318,-280.142 295.735,-329.656 344,-386 352.021,-395.364 363.334,-401.821 374.825,-406.269"/>
<polygon fill="midnightblue" stroke="midnightblue" points="373.856,-409.636 384.451,-409.552 376.116,-403.011 373.856,-409.636"/>
</g>
<!-- ParseParameters -->
<g id="node17" class="node"><title>ParseParameters</title>
<polygon fill="none" stroke="black" points="308,-827 180,-827 180,-791 308,-791 308,-827"/>
<text text-anchor="middle" x="244" y="-805.3" font-family="Helvetica,sans-Serif" font-size="14.00">ParseParameters</text>
</g>
<!-- InitVariables&#45;&gt;ParseParameters -->
<g id="edge9" class="edge"><title>InitVariables&#45;&gt;ParseParameters</title>
<path fill="none" stroke="red" stroke-width="2" d="M127.857,-818.951C140.941,-817.82 155.48,-816.563 169.699,-815.335"/>
<polygon fill="red" stroke="red" points="170.31,-818.795 179.972,-814.447 169.707,-811.821 170.31,-818.795"/>
</g>
<!-- VariablesInterconnect -->
<g id="node18" class="node"><title>VariablesInterconnect</title>
<polygon fill="none" stroke="black" points="499.5,-807 344.5,-807 344.5,-771 499.5,-771 499.5,-807"/>
<text text-anchor="middle" x="422" y="-785.3" font-family="Helvetica,sans-Serif" font-size="14.00">VariablesInterconnect</text>
</g>
<!-- ParseParameters&#45;&gt;VariablesInterconnect -->
<g id="edge10" class="edge"><title>ParseParameters&#45;&gt;VariablesInterconnect</title>
<path fill="none" stroke="red" stroke-width="2" d="M308.043,-801.836C316.571,-800.867 325.44,-799.859 334.292,-798.853"/>
<polygon fill="red" stroke="red" points="334.718,-802.327 344.259,-797.721 333.928,-795.372 334.718,-802.327"/>
</g>
<!-- VariablesInterconnect&#45;&gt;InitShape -->
<g id="edge11" class="edge"><title>VariablesInterconnect&#45;&gt;InitShape</title>
<path fill="none" stroke="red" stroke-width="2" d="M403.078,-770.846C385,-751.365 357.842,-718.659 344,-685 301.304,-581.179 334.206,-544.156 308,-435 294.303,-377.947 270.363,-313.556 256.269,-277.775"/>
<polygon fill="red" stroke="red" points="259.349,-276.049 252.402,-268.05 252.845,-278.635 259.349,-276.049"/>
</g>
<!-- InitBeam -->
<g id="node23" class="node"><title>InitBeam</title>
<polygon fill="none" stroke="black" points="631.5,-890 558.5,-890 558.5,-854 631.5,-854 631.5,-890"/>
<text text-anchor="middle" x="595" y="-868.3" font-family="Helvetica,sans-Serif" font-size="14.00">InitBeam</text>
</g>
<!-- VariablesInterconnect&#45;&gt;InitBeam -->
<g id="edge20" class="edge"><title>VariablesInterconnect&#45;&gt;InitBeam</title>
<path fill="none" stroke="midnightblue" d="M457.823,-807.026C478.181,-817.451 504.431,-830.701 528,-842 534.71,-845.217 541.842,-848.548 548.842,-851.769"/>
<polygon fill="midnightblue" stroke="midnightblue" points="547.704,-855.098 558.254,-856.073 550.614,-848.731 547.704,-855.098"/>
</g>
<!-- ReadAvgParms -->
<g id="node24" class="node"><title>ReadAvgParms</title>
<polygon fill="none" stroke="black" points="653.5,-807 536.5,-807 536.5,-771 653.5,-771 653.5,-807"/>
<text text-anchor="middle" x="595" y="-785.3" font-family="Helvetica,sans-Serif" font-size="14.00">ReadAvgParms</text>
</g>
<!-- VariablesInterconnect&#45;&gt;ReadAvgParms -->
<g id="edge21" class="edge"><title>VariablesInterconnect&#45;&gt;ReadAvgParms</title>
<path fill="none" stroke="midnightblue" d="M499.996,-789C508.789,-789 517.703,-789 526.361,-789"/>
<polygon fill="midnightblue" stroke="midnightblue" points="526.385,-792.5 536.385,-789 526.385,-785.5 526.385,-792.5"/>
</g>
<!-- InitRotation -->
<g id="node25" class="node"><title>InitRotation</title>
<polygon fill="none" stroke="black" points="639,-753 551,-753 551,-717 639,-717 639,-753"/>
<text text-anchor="middle" x="595" y="-731.3" font-family="Helvetica,sans-Serif" font-size="14.00">InitRotation</text>
</g>
<!-- VariablesInterconnect&#45;&gt;InitRotation -->
<g id="edge22" class="edge"><title>VariablesInterconnect&#45;&gt;InitRotation</title>
<path fill="none" stroke="midnightblue" d="M480.416,-770.869C499.998,-764.685 521.791,-757.803 541.009,-751.734"/>
<polygon fill="midnightblue" stroke="midnightblue" points="542.317,-754.991 550.799,-748.643 540.209,-748.316 542.317,-754.991"/>
</g>
<!-- DirectoryLog -->
<g id="node20" class="node"><title>DirectoryLog</title>
<polygon fill="none" stroke="black" points="293,-760 195,-760 195,-724 293,-724 293,-760"/>
<text text-anchor="middle" x="244" y="-738.3" font-family="Helvetica,sans-Serif" font-size="14.00">DirectoryLog</text>
</g>
<!-- FinalizeSymmetry&#45;&gt;DirectoryLog -->
<g id="edge13" class="edge"><title>FinalizeSymmetry&#45;&gt;DirectoryLog</title>
<path fill="none" stroke="red" stroke-width="2" d="M144.097,-758.484C157.548,-756.242 171.693,-753.884 184.945,-751.676"/>
<polygon fill="red" stroke="red" points="185.589,-755.117 194.878,-750.02 184.438,-748.212 185.589,-755.117"/>
</g>
<!-- DirectoryLog&#45;&gt;ParSetup -->
<g id="edge14" class="edge"><title>DirectoryLog&#45;&gt;ParSetup</title>
<path fill="none" stroke="red" stroke-width="2" d="M269.392,-723.96C282.121,-713.624 297.238,-699.788 308,-685 330.942,-653.475 315.276,-631.365 344,-605 352.39,-597.299 363.104,-591.772 373.854,-587.814"/>
<polygon fill="red" stroke="red" points="375.256,-591.038 383.672,-584.601 373.08,-584.385 375.256,-591.038"/>
</g>
<!-- Calculator -->
<g id="node22" class="node"><title>Calculator</title>
<polygon fill="cyan" stroke="cyan" points="284,-650 204,-650 204,-614 284,-614 284,-650"/>
<text text-anchor="middle" x="244" y="-628.3" font-family="Helvetica,sans-Serif" font-size="14.00">Calculator</text>
</g>
<!-- PrintInfo&#45;&gt;Calculator -->
<g id="edge17" class="edge"><title>PrintInfo&#45;&gt;Calculator</title>
<path fill="none" stroke="red" stroke-width="2" d="M115.356,-697.398C139.699,-684.926 172.569,-668.085 198.856,-654.617"/>
<polygon fill="red" stroke="red" points="200.551,-657.681 207.855,-650.007 197.359,-651.451 200.551,-657.681"/>
</g>
<!-- Calculator&#45;&gt;FinalStatistics -->
<g id="edge18" class="edge"><title>Calculator&#45;&gt;FinalStatistics</title>
<path fill="none" stroke="red" stroke-width="2" d="M210.958,-613.97C192.871,-602.11 172.128,-584.759 162,-563 150.372,-538.018 147.513,-524.44 162,-501 167.096,-492.755 174.573,-486.39 182.969,-481.48"/>
<polygon fill="red" stroke="red" points="184.678,-484.537 191.99,-476.871 181.493,-478.304 184.678,-484.537"/>
</g>
</g>
</svg>
