<?xml version="1.0" encoding="UTF-8" standalone="no"?>
<!DOCTYPE svg PUBLIC "-//W3C//DTD SVG 1.1//EN"
 "http://www.w3.org/Graphics/SVG/1.1/DTD/svg11.dtd">
<!-- Generated by graphviz version 2.30.1 (20130214.1330)
 -->
<!-- Title: main Pages: 1 -->
<svg width="497pt" height="677pt"
 viewBox="0.00 0.00 497.00 677.00" xmlns="http://www.w3.org/2000/svg" xmlns:xlink="http://www.w3.org/1999/xlink">
<g id="graph0" class="graph" transform="scale(1 1) rotate(0) translate(4 673)">
<title>main</title>
<polygon fill="white" stroke="white" points="-4,5 -4,-673 494,-673 494,5 -4,5"/>
<g id="clust2" class="cluster"><title>cluster_timing</title>
<polygon fill="none" stroke="black" points="135,-300 135,-392 231,-392 231,-300 135,-300"/>
<text text-anchor="middle" x="183" y="-380" font-family="Helvetica,sans-Serif" font-size="10.00">timing.c</text>
</g>
<g id="clust3" class="cluster"><title>cluster_comm</title>
<polygon fill="none" stroke="black" points="265,-282 265,-485 353,-485 353,-282 265,-282"/>
<text text-anchor="middle" x="309" y="-473" font-family="Helvetica,sans-Serif" font-size="10.00">comm.c</text>
</g>
<g id="clust4" class="cluster"><title>cluster_particle</title>
<polygon fill="none" stroke="black" points="138,-8 138,-211 357,-211 357,-8 138,-8"/>
<text text-anchor="middle" x="247.5" y="-199" font-family="Helvetica,sans-Serif" font-size="10.00">make_particle.c</text>
</g>
<g id="clust5" class="cluster"><title>cluster_param</title>
<polygon fill="none" stroke="black" points="8,-493 8,-622 372,-622 372,-493 8,-493"/>
<text text-anchor="middle" x="190" y="-610" font-family="Helvetica,sans-Serif" font-size="10.00">param.c</text>
</g>
<g id="clust6" class="cluster"><title>cluster_calc</title>
<polygon fill="none" stroke="black" points="145,-430 145,-485 221,-485 221,-430 145,-430"/>
<text text-anchor="middle" x="183" y="-473" font-family="Helvetica,sans-Serif" font-size="10.00">calculator.c</text>
</g>
<g id="clust7" class="cluster"><title>cluster_beam</title>
<polygon fill="none" stroke="black" points="395,-606 395,-661 467,-661 467,-606 395,-606"/>
<text text-anchor="middle" x="431" y="-649" font-family="Helvetica,sans-Serif" font-size="10.00">GenerateB.c</text>
</g>
<g id="clust8" class="cluster"><title>cluster_cs</title>
<polygon fill="none" stroke="black" points="381,-506 381,-598 481,-598 481,-506 381,-506"/>
<text text-anchor="middle" x="431" y="-586" font-family="Helvetica,sans-Serif" font-size="10.00">crosssec.c</text>
</g>
<g id="clust1" class="cluster"><title>cluster_main</title>
<polygon fill="none" stroke="black" points="28,-337 28,-392 101,-392 101,-337 28,-337"/>
<text text-anchor="middle" x="64.5" y="-380" font-family="Helvetica,sans-Serif" font-size="10.00">ADDAmain.c</text>
</g>
<g id="clust9" class="cluster"><title>cluster_chebyshev</title>
<polygon fill="none" stroke="black" points="252,-219 252,-274 366,-274 366,-219 252,-219"/>
<text text-anchor="middle" x="309" y="-262" font-family="Helvetica,sans-Serif" font-size="10.00">chebyshev.c</text>
</g>
<g id="clust10" class="cluster"><title>cluster_fft</title>
<polygon fill="none" stroke="black" points="385,-393 385,-485 477,-485 477,-393 385,-393"/>
<text text-anchor="middle" x="431" y="-473" font-family="Helvetica,sans-Serif" font-size="10.00">fft.c</text>
</g>
<!-- main -->
<g id="node1" class="node"><title>main</title>
<polygon fill="gold" stroke="gold" points="83,-364.5 45,-364.5 45,-345.5 83,-345.5 83,-364.5"/>
<text text-anchor="middle" x="64" y="-352.5" font-family="Helvetica,sans-Serif" font-size="10.00">main</text>
</g>
<!-- StartTime -->
<g id="node2" class="node"><title>StartTime</title>
<polygon fill="none" stroke="black" points="212.5,-364.5 153.5,-364.5 153.5,-345.5 212.5,-345.5 212.5,-364.5"/>
<text text-anchor="middle" x="183" y="-352.5" font-family="Helvetica,sans-Serif" font-size="10.00">StartTime</text>
</g>
<!-- main&#45;&gt;StartTime -->
<g id="edge6" class="edge"><title>main&#45;&gt;StartTime</title>
<path fill="none" stroke="red" stroke-width="2" d="M83.0248,-355C98.9638,-355 122.766,-355 143.033,-355"/>
<polygon fill="red" stroke="red" points="143.25,-358.5 153.25,-355 143.25,-351.5 143.25,-358.5"/>
</g>
<!-- InitComm -->
<g id="node4" class="node"><title>InitComm</title>
<polygon fill="none" stroke="black" points="338,-457.5 280,-457.5 280,-438.5 338,-438.5 338,-457.5"/>
<text text-anchor="middle" x="309" y="-445.5" font-family="Helvetica,sans-Serif" font-size="10.00">InitComm</text>
</g>
<!-- StartTime&#45;&gt;InitComm -->
<g id="edge7" class="edge"><title>StartTime&#45;&gt;InitComm</title>
<path fill="none" stroke="red" stroke-width="2" d="M196.867,-364.564C206.856,-372.362 220.694,-384.012 231,-396 242.333,-409.183 238.326,-418.265 252,-429 257.426,-433.26 263.861,-436.592 270.401,-439.191"/>
<polygon fill="red" stroke="red" points="269.36,-442.534 279.955,-442.495 271.649,-435.918 269.36,-442.534"/>
</g>
<!-- FinalStatistics -->
<g id="node3" class="node"><title>FinalStatistics</title>
<polygon fill="none" stroke="black" points="222.5,-327.5 143.5,-327.5 143.5,-308.5 222.5,-308.5 222.5,-327.5"/>
<text text-anchor="middle" x="183" y="-315.5" font-family="Helvetica,sans-Serif" font-size="10.00">FinalStatistics</text>
</g>
<!-- Stop -->
<g id="node7" class="node"><title>Stop</title>
<polygon fill="none" stroke="black" points="327.5,-383.5 290.5,-383.5 290.5,-364.5 327.5,-364.5 327.5,-383.5"/>
<text text-anchor="middle" x="309" y="-371.5" font-family="Helvetica,sans-Serif" font-size="10.00">Stop</text>
</g>
<!-- FinalStatistics&#45;&gt;Stop -->
<g id="edge19" class="edge"><title>FinalStatistics&#45;&gt;Stop</title>
<path fill="none" stroke="red" stroke-width="2" d="M213.629,-327.428C219.575,-329.845 225.639,-332.709 231,-336 241.726,-342.585 241.148,-348.623 252,-355 260.775,-360.157 271.153,-364.169 280.575,-367.15"/>
<polygon fill="red" stroke="red" points="279.723,-370.547 290.303,-369.985 281.682,-363.827 279.723,-370.547"/>
</g>
<!-- InitVariables -->
<g id="node16" class="node"><title>InitVariables</title>
<polygon fill="none" stroke="black" points="99,-594.5 29,-594.5 29,-575.5 99,-575.5 99,-594.5"/>
<text text-anchor="middle" x="64" y="-582.5" font-family="Helvetica,sans-Serif" font-size="10.00">InitVariables</text>
</g>
<!-- InitComm&#45;&gt;InitVariables -->
<g id="edge8" class="edge"><title>InitComm&#45;&gt;InitVariables</title>
<path fill="none" stroke="red" stroke-width="2" d="M282.369,-438.737C267.573,-433.883 248.486,-428.449 231,-426 188.746,-420.082 167.524,-398.384 135,-426 86.934,-466.814 151.39,-516.761 112,-566 110.722,-567.598 109.288,-569.062 107.737,-570.404"/>
<polygon fill="red" stroke="red" points="105.541,-567.663 99.1922,-576.145 109.445,-573.474 105.541,-567.663"/>
</g>
<!-- CheckNprocs -->
<g id="node28" class="node"><title>CheckNprocs</title>
<polygon fill="none" stroke="black" points="468.5,-457.5 393.5,-457.5 393.5,-438.5 468.5,-438.5 468.5,-457.5"/>
<text text-anchor="middle" x="431" y="-445.5" font-family="Helvetica,sans-Serif" font-size="10.00">CheckNprocs</text>
</g>
<!-- InitComm&#45;&gt;CheckNprocs -->
<g id="edge26" class="edge"><title>InitComm&#45;&gt;CheckNprocs</title>
<path fill="none" stroke="midnightblue" d="M338.135,-448C351.531,-448 367.912,-448 383.113,-448"/>
<polygon fill="midnightblue" stroke="midnightblue" points="383.396,-451.5 393.396,-448 383.396,-444.5 383.396,-451.5"/>
</g>
<!-- ParSetup -->
<g id="node5" class="node"><title>ParSetup</title>
<polygon fill="none" stroke="black" points="337.5,-420.5 280.5,-420.5 280.5,-401.5 337.5,-401.5 337.5,-420.5"/>
<text text-anchor="middle" x="309" y="-408.5" font-family="Helvetica,sans-Serif" font-size="10.00">ParSetup</text>
</g>
<!-- MakeParticle -->
<g id="node12" class="node"><title>MakeParticle</title>
<polygon fill="none" stroke="black" points="220,-146.5 146,-146.5 146,-127.5 220,-127.5 220,-146.5"/>
<text text-anchor="middle" x="183" y="-134.5" font-family="Helvetica,sans-Serif" font-size="10.00">MakeParticle</text>
</g>
<!-- ParSetup&#45;&gt;MakeParticle -->
<g id="edge15" class="edge"><title>ParSetup&#45;&gt;MakeParticle</title>
<path fill="none" stroke="red" stroke-width="2" d="M280.36,-408.033C269.888,-405.462 258.851,-400.718 252,-392 219.331,-350.427 262.859,-197.196 231,-155 230.2,-153.941 229.33,-152.944 228.401,-152.006"/>
<polygon fill="red" stroke="red" points="230.391,-149.123 220.298,-145.902 226.179,-154.714 230.391,-149.123"/>
</g>
<!-- fftFit -->
<g id="node27" class="node"><title>fftFit</title>
<polygon fill="none" stroke="black" points="448.5,-420.5 413.5,-420.5 413.5,-401.5 448.5,-401.5 448.5,-420.5"/>
<text text-anchor="middle" x="431" y="-408.5" font-family="Helvetica,sans-Serif" font-size="10.00">fftFit</text>
</g>
<!-- ParSetup&#45;&gt;fftFit -->
<g id="edge25" class="edge"><title>ParSetup&#45;&gt;fftFit</title>
<path fill="none" stroke="midnightblue" d="M337.53,-411C357.264,-411 383.704,-411 403.256,-411"/>
<polygon fill="midnightblue" stroke="midnightblue" points="403.323,-414.5 413.323,-411 403.323,-407.5 403.323,-414.5"/>
</g>
<!-- SetupLocalD -->
<g id="node6" class="node"><title>SetupLocalD</title>
<polygon fill="none" stroke="black" points="345,-346.5 273,-346.5 273,-327.5 345,-327.5 345,-346.5"/>
<text text-anchor="middle" x="309" y="-334.5" font-family="Helvetica,sans-Serif" font-size="10.00">SetupLocalD</text>
</g>
<!-- AllGather -->
<g id="node8" class="node"><title>AllGather</title>
<polygon fill="none" stroke="black" points="337.5,-309.5 280.5,-309.5 280.5,-290.5 337.5,-290.5 337.5,-309.5"/>
<text text-anchor="middle" x="309" y="-297.5" font-family="Helvetica,sans-Serif" font-size="10.00">AllGather</text>
</g>
<!-- InitShape -->
<g id="node9" class="node"><title>InitShape</title>
<polygon fill="none" stroke="black" points="211.5,-183.5 154.5,-183.5 154.5,-164.5 211.5,-164.5 211.5,-183.5"/>
<text text-anchor="middle" x="183" y="-171.5" font-family="Helvetica,sans-Serif" font-size="10.00">InitShape</text>
</g>
<!-- InitDipFile -->
<g id="node10" class="node"><title>InitDipFile</title>
<polygon fill="none" stroke="black" points="338.5,-146.5 279.5,-146.5 279.5,-127.5 338.5,-127.5 338.5,-146.5"/>
<text text-anchor="middle" x="309" y="-134.5" font-family="Helvetica,sans-Serif" font-size="10.00">InitDipFile</text>
</g>
<!-- InitShape&#45;&gt;InitDipFile -->
<g id="edge1" class="edge"><title>InitShape&#45;&gt;InitDipFile</title>
<path fill="none" stroke="midnightblue" d="M211.52,-165.789C228.575,-160.699 250.735,-154.087 269.515,-148.483"/>
<polygon fill="midnightblue" stroke="midnightblue" points="270.683,-151.788 279.265,-145.574 268.681,-145.08 270.683,-151.788"/>
</g>
<!-- InitContour -->
<g id="node11" class="node"><title>InitContour</title>
<polygon fill="none" stroke="black" points="340.5,-183.5 277.5,-183.5 277.5,-164.5 340.5,-164.5 340.5,-183.5"/>
<text text-anchor="middle" x="309" y="-171.5" font-family="Helvetica,sans-Serif" font-size="10.00">InitContour</text>
</g>
<!-- InitShape&#45;&gt;InitContour -->
<g id="edge2" class="edge"><title>InitShape&#45;&gt;InitContour</title>
<path fill="none" stroke="midnightblue" d="M211.52,-174C227.819,-174 248.779,-174 266.997,-174"/>
<polygon fill="midnightblue" stroke="midnightblue" points="267.069,-177.5 277.069,-174 267.069,-170.5 267.069,-177.5"/>
</g>
<!-- FinalizeSymmetry -->
<g id="node19" class="node"><title>FinalizeSymmetry</title>
<polygon fill="none" stroke="black" points="111.5,-557.5 16.5,-557.5 16.5,-538.5 111.5,-538.5 111.5,-557.5"/>
<text text-anchor="middle" x="64" y="-545.5" font-family="Helvetica,sans-Serif" font-size="10.00">FinalizeSymmetry</text>
</g>
<!-- InitShape&#45;&gt;FinalizeSymmetry -->
<g id="edge12" class="edge"><title>InitShape&#45;&gt;FinalizeSymmetry</title>
<path fill="none" stroke="red" stroke-width="2" d="M177.307,-183.521C167.593,-203.701 145.327,-252.494 135,-296 122.984,-346.623 143.176,-487.346 112,-529 111.077,-530.233 110.061,-531.386 108.968,-532.465"/>
<polygon fill="red" stroke="red" points="106.739,-529.761 100.829,-538.555 110.933,-535.366 106.739,-529.761"/>
</g>
<!-- ChebyshevParams -->
<g id="node26" class="node"><title>ChebyshevParams</title>
<polygon fill="none" stroke="black" points="358,-246.5 260,-246.5 260,-227.5 358,-227.5 358,-246.5"/>
<text text-anchor="middle" x="309" y="-234.5" font-family="Helvetica,sans-Serif" font-size="10.00">ChebyshevParams</text>
</g>
<!-- InitShape&#45;&gt;ChebyshevParams -->
<g id="edge23" class="edge"><title>InitShape&#45;&gt;ChebyshevParams</title>
<path fill="none" stroke="midnightblue" d="M197.935,-183.355C211.413,-192.171 232.592,-205.422 252,-215 258.356,-218.137 265.278,-221.157 272.018,-223.901"/>
<polygon fill="midnightblue" stroke="midnightblue" points="271.09,-227.297 281.677,-227.706 273.655,-220.784 271.09,-227.297"/>
</g>
<!-- ReadDipFile -->
<g id="node13" class="node"><title>ReadDipFile</title>
<polygon fill="none" stroke="black" points="343.5,-109.5 274.5,-109.5 274.5,-90.5 343.5,-90.5 343.5,-109.5"/>
<text text-anchor="middle" x="309" y="-97.5" font-family="Helvetica,sans-Serif" font-size="10.00">ReadDipFile</text>
</g>
<!-- MakeParticle&#45;&gt;ReadDipFile -->
<g id="edge3" class="edge"><title>MakeParticle&#45;&gt;ReadDipFile</title>
<path fill="none" stroke="midnightblue" d="M215.29,-127.663C231.004,-122.975 250.238,-117.235 267.106,-112.202"/>
<polygon fill="midnightblue" stroke="midnightblue" points="268.138,-115.547 276.72,-109.334 266.136,-108.839 268.138,-115.547"/>
</g>
<!-- PlaceGranules -->
<g id="node14" class="node"><title>PlaceGranules</title>
<polygon fill="none" stroke="black" points="349,-35.5 269,-35.5 269,-16.5 349,-16.5 349,-35.5"/>
<text text-anchor="middle" x="309" y="-23.5" font-family="Helvetica,sans-Serif" font-size="10.00">PlaceGranules</text>
</g>
<!-- MakeParticle&#45;&gt;PlaceGranules -->
<g id="edge4" class="edge"><title>MakeParticle&#45;&gt;PlaceGranules</title>
<path fill="none" stroke="midnightblue" d="M188.356,-127.564C197.474,-108.839 220.375,-66.8275 252,-44 254.368,-42.291 256.905,-40.7392 259.545,-39.3308"/>
<polygon fill="midnightblue" stroke="midnightblue" points="261.188,-42.4278 268.815,-35.0748 258.267,-36.0661 261.188,-42.4278"/>
</g>
<!-- SaveGeometry -->
<g id="node15" class="node"><title>SaveGeometry</title>
<polygon fill="none" stroke="black" points="349,-72.5 269,-72.5 269,-53.5 349,-53.5 349,-72.5"/>
<text text-anchor="middle" x="309" y="-60.5" font-family="Helvetica,sans-Serif" font-size="10.00">SaveGeometry</text>
</g>
<!-- MakeParticle&#45;&gt;SaveGeometry -->
<g id="edge5" class="edge"><title>MakeParticle&#45;&gt;SaveGeometry</title>
<path fill="none" stroke="midnightblue" d="M193.273,-127.371C205.625,-115.043 228.646,-93.757 252,-81 255.431,-79.1259 259.088,-77.4098 262.827,-75.8463"/>
<polygon fill="midnightblue" stroke="midnightblue" points="264.109,-79.1034 272.206,-72.2714 261.616,-72.5623 264.109,-79.1034"/>
</g>
<!-- PrintInfo -->
<g id="node21" class="node"><title>PrintInfo</title>
<polygon fill="none" stroke="black" points="90,-520.5 38,-520.5 38,-501.5 90,-501.5 90,-520.5"/>
<text text-anchor="middle" x="64" y="-508.5" font-family="Helvetica,sans-Serif" font-size="10.00">PrintInfo</text>
</g>
<!-- MakeParticle&#45;&gt;PrintInfo -->
<g id="edge16" class="edge"><title>MakeParticle&#45;&gt;PrintInfo</title>
<path fill="none" stroke="red" stroke-width="2" d="M145.726,-145.92C141.598,-148.272 137.856,-151.244 135,-155 102.437,-197.825 124.87,-343.763 112,-396 103.275,-431.413 85.5691,-470.22 74.5541,-492.485"/>
<polygon fill="red" stroke="red" points="71.3962,-490.974 70.0202,-501.479 77.6469,-494.125 71.3962,-490.974"/>
</g>
<!-- MakeParticle&#45;&gt;SetupLocalD -->
<g id="edge24" class="edge"><title>MakeParticle&#45;&gt;SetupLocalD</title>
<path fill="none" stroke="midnightblue" d="M220.159,-146.009C224.305,-148.347 228.083,-151.292 231,-155 276.163,-212.407 205.736,-261.476 252,-318 255.166,-321.868 259.153,-324.952 263.535,-327.41"/>
<polygon fill="midnightblue" stroke="midnightblue" points="262.389,-330.732 272.946,-331.628 265.252,-324.344 262.389,-330.732"/>
</g>
<!-- MakeParticle&#45;&gt;AllGather -->
<g id="edge27" class="edge"><title>MakeParticle&#45;&gt;AllGather</title>
<path fill="none" stroke="midnightblue" stroke-dasharray="5,2" d="M220.018,-146.122C224.186,-148.442 228.007,-151.352 231,-155 266.176,-197.875 217.009,-234.975 252,-278 256.848,-283.961 263.534,-288.313 270.601,-291.489"/>
<polygon fill="midnightblue" stroke="midnightblue" points="269.746,-294.905 280.338,-295.13 272.197,-288.349 269.746,-294.905"/>
</g>
<!-- ParseParameters -->
<g id="node17" class="node"><title>ParseParameters</title>
<polygon fill="none" stroke="black" points="229,-584.5 137,-584.5 137,-565.5 229,-565.5 229,-584.5"/>
<text text-anchor="middle" x="183" y="-572.5" font-family="Helvetica,sans-Serif" font-size="10.00">ParseParameters</text>
</g>
<!-- InitVariables&#45;&gt;ParseParameters -->
<g id="edge9" class="edge"><title>InitVariables&#45;&gt;ParseParameters</title>
<path fill="none" stroke="red" stroke-width="2" d="M99.1558,-582.081C107.775,-581.344 117.251,-580.534 126.621,-579.733"/>
<polygon fill="red" stroke="red" points="127.035,-583.211 136.701,-578.872 126.439,-576.236 127.035,-583.211"/>
</g>
<!-- VariablesInterconnect -->
<g id="node18" class="node"><title>VariablesInterconnect</title>
<polygon fill="none" stroke="black" points="364,-570.5 254,-570.5 254,-551.5 364,-551.5 364,-570.5"/>
<text text-anchor="middle" x="309" y="-558.5" font-family="Helvetica,sans-Serif" font-size="10.00">VariablesInterconnect</text>
</g>
<!-- ParseParameters&#45;&gt;VariablesInterconnect -->
<g id="edge10" class="edge"><title>ParseParameters&#45;&gt;VariablesInterconnect</title>
<path fill="none" stroke="red" stroke-width="2" d="M229.118,-569.906C233.887,-569.368 238.801,-568.813 243.734,-568.256"/>
<polygon fill="red" stroke="red" points="244.302,-571.714 253.846,-567.114 243.516,-564.758 244.302,-571.714"/>
</g>
<!-- VariablesInterconnect&#45;&gt;InitShape -->
<g id="edge11" class="edge"><title>VariablesInterconnect&#45;&gt;InitShape</title>
<path fill="none" stroke="red" stroke-width="2" d="M297.627,-551.432C284.495,-538.624 262.341,-514.54 252,-489 219.618,-409.023 251.347,-379.851 231,-296 221.815,-258.148 203.825,-216.222 192.961,-192.693"/>
<polygon fill="red" stroke="red" points="196.077,-191.093 188.658,-183.529 189.74,-194.069 196.077,-191.093"/>
</g>
<!-- InitBeam -->
<g id="node23" class="node"><title>InitBeam</title>
<polygon fill="none" stroke="black" points="458.5,-633.5 403.5,-633.5 403.5,-614.5 458.5,-614.5 458.5,-633.5"/>
<text text-anchor="middle" x="431" y="-621.5" font-family="Helvetica,sans-Serif" font-size="10.00">InitBeam</text>
</g>
<!-- VariablesInterconnect&#45;&gt;InitBeam -->
<g id="edge20" class="edge"><title>VariablesInterconnect&#45;&gt;InitBeam</title>
<path fill="none" stroke="midnightblue" d="M324.988,-570.252C339.191,-578.875 361.231,-591.887 381,-602 386.531,-604.829 392.502,-607.676 398.309,-610.34"/>
<polygon fill="midnightblue" stroke="midnightblue" points="397.265,-613.708 407.822,-614.614 400.134,-607.323 397.265,-613.708"/>
</g>
<!-- ReadAvgParms -->
<g id="node24" class="node"><title>ReadAvgParms</title>
<polygon fill="none" stroke="black" points="472.5,-570.5 389.5,-570.5 389.5,-551.5 472.5,-551.5 472.5,-570.5"/>
<text text-anchor="middle" x="431" y="-558.5" font-family="Helvetica,sans-Serif" font-size="10.00">ReadAvgParms</text>
</g>
<!-- VariablesInterconnect&#45;&gt;ReadAvgParms -->
<g id="edge21" class="edge"><title>VariablesInterconnect&#45;&gt;ReadAvgParms</title>
<path fill="none" stroke="midnightblue" d="M364.032,-561C369.056,-561 374.135,-561 379.129,-561"/>
<polygon fill="midnightblue" stroke="midnightblue" points="379.211,-564.5 389.211,-561 379.211,-557.5 379.211,-564.5"/>
</g>
<!-- InitRotation -->
<g id="node25" class="node"><title>InitRotation</title>
<polygon fill="none" stroke="black" points="463.5,-533.5 398.5,-533.5 398.5,-514.5 463.5,-514.5 463.5,-533.5"/>
<text text-anchor="middle" x="431" y="-521.5" font-family="Helvetica,sans-Serif" font-size="10.00">InitRotation</text>
</g>
<!-- VariablesInterconnect&#45;&gt;InitRotation -->
<g id="edge22" class="edge"><title>VariablesInterconnect&#45;&gt;InitRotation</title>
<path fill="none" stroke="midnightblue" d="M340.281,-551.663C355.346,-547.018 373.754,-541.343 389.967,-536.344"/>
<polygon fill="midnightblue" stroke="midnightblue" points="391.204,-539.625 399.729,-533.334 389.141,-532.936 391.204,-539.625"/>
</g>
<!-- DirectoryLog -->
<g id="node20" class="node"><title>DirectoryLog</title>
<polygon fill="none" stroke="black" points="218.5,-538.5 147.5,-538.5 147.5,-519.5 218.5,-519.5 218.5,-538.5"/>
<text text-anchor="middle" x="183" y="-526.5" font-family="Helvetica,sans-Serif" font-size="10.00">DirectoryLog</text>
</g>
<!-- FinalizeSymmetry&#45;&gt;DirectoryLog -->
<g id="edge13" class="edge"><title>FinalizeSymmetry&#45;&gt;DirectoryLog</title>
<path fill="none" stroke="red" stroke-width="2" d="M111.578,-540.436C120.095,-539.053 128.964,-537.613 137.422,-536.239"/>
<polygon fill="red" stroke="red" points="138.172,-539.663 147.482,-534.605 137.05,-532.754 138.172,-539.663"/>
</g>
<!-- DirectoryLog&#45;&gt;ParSetup -->
<g id="edge14" class="edge"><title>DirectoryLog&#45;&gt;ParSetup</title>
<path fill="none" stroke="red" stroke-width="2" d="M198.54,-519.733C208.875,-512.482 222.394,-501.547 231,-489 246.98,-465.701 231.767,-448.72 252,-429 257.11,-424.019 263.603,-420.417 270.342,-417.811"/>
<polygon fill="red" stroke="red" points="271.789,-421.024 280.261,-414.662 269.671,-414.352 271.789,-421.024"/>
</g>
<!-- Calculator -->
<g id="node22" class="node"><title>Calculator</title>
<polygon fill="cyan" stroke="cyan" points="213,-457.5 153,-457.5 153,-438.5 213,-438.5 213,-457.5"/>
<text text-anchor="middle" x="183" y="-445.5" font-family="Helvetica,sans-Serif" font-size="10.00">Calculator</text>
</g>
<!-- PrintInfo&#45;&gt;Calculator -->
<g id="edge17" class="edge"><title>PrintInfo&#45;&gt;Calculator</title>
<path fill="none" stroke="red" stroke-width="2" d="M82.2638,-501.704C101.619,-491.282 133.229,-474.261 155.671,-462.177"/>
<polygon fill="red" stroke="red" points="157.52,-465.157 164.665,-457.334 154.201,-458.993 157.52,-465.157"/>
</g>
<!-- Calculator&#45;&gt;FinalStatistics -->
<g id="edge18" class="edge"><title>Calculator&#45;&gt;FinalStatistics</title>
<path fill="none" stroke="red" stroke-width="2" d="M169.013,-438.735C154.492,-428.187 132.645,-409.473 123.5,-387 116.464,-369.71 115.324,-361.781 123.5,-345 126.015,-339.837 129.863,-335.661 134.417,-332.282"/>
<polygon fill="red" stroke="red" points="136.445,-335.148 143.243,-327.022 132.861,-329.135 136.445,-335.148"/>
</g>
</g>
</svg>
