<?xml version="1.0" encoding="UTF-8" standalone="no"?>
<!DOCTYPE svg PUBLIC "-//W3C//DTD SVG 1.1//EN"
 "http://www.w3.org/Graphics/SVG/1.1/DTD/svg11.dtd">
<!-- Generated by graphviz version 2.30.1 (20130214.1330)
 -->
<!-- Title: matvec Pages: 1 -->
<svg width="888pt" height="384pt"
 viewBox="0.00 0.00 888.00 384.00" xmlns="http://www.w3.org/2000/svg" xmlns:xlink="http://www.w3.org/1999/xlink">
<g id="graph0" class="graph" transform="scale(1 1) rotate(0) translate(4 380)">
<title>matvec</title>
<polygon fill="white" stroke="white" points="-4,5 -4,-380 885,-380 885,5 -4,5"/>
<g id="clust1" class="cluster"><title>cluster_matvec</title>
<polygon fill="none" stroke="black" points="8,-157 8,-232 90,-232 90,-157 8,-157"/>
<text text-anchor="middle" x="49" y="-216.8" font-family="Helvetica,sans-Serif" font-size="14.00">matvec.c</text>
</g>
<g id="clust6" class="cluster"><title>cluster_cisi</title>
<polygon fill="none" stroke="black" points="636,-91 636,-166 706,-166 706,-91 636,-91"/>
<text text-anchor="middle" x="671" y="-150.8" font-family="Helvetica,sans-Serif" font-size="14.00">sinint.c</text>
</g>
<g id="clust7" class="cluster"><title>cluster_igt</title>
<polygon fill="none" stroke="black" points="572,-8 572,-83 770,-83 770,-8 572,-8"/>
<text text-anchor="middle" x="671" y="-67.8" font-family="Helvetica,sans-Serif" font-size="14.00">propaesplibreintadda.f</text>
</g>
<g id="clust5" class="cluster"><title>cluster_sparse</title>
<polygon fill="none" stroke="black" points="285,-83 285,-158 389,-158 389,-83 285,-83"/>
<text text-anchor="middle" x="337" y="-142.8" font-family="Helvetica,sans-Serif" font-size="14.00">sparse_ops.h</text>
</g>
<g id="clust8" class="cluster"><title>cluster_inter</title>
<polygon fill="none" stroke="black" points="428,-83 428,-158 552,-158 552,-83 428,-83"/>
<text text-anchor="middle" x="490" y="-142.8" font-family="Helvetica,sans-Serif" font-size="14.00">interaction.c</text>
</g>
<g id="clust2" class="cluster"><title>cluster_comm</title>
<polygon fill="none" stroke="black" points="110,-83 110,-212 246,-212 246,-83 110,-83"/>
<text text-anchor="middle" x="178" y="-196.8" font-family="Helvetica,sans-Serif" font-size="14.00">comm.c</text>
</g>
<g id="clust3" class="cluster"><title>cluster_fft</title>
<polygon fill="none" stroke="black" points="139,-220 139,-368 872,-368 872,-220 139,-220"/>
<text text-anchor="middle" x="505.5" y="-352.8" font-family="Helvetica,sans-Serif" font-size="14.00">fft.c</text>
</g>
<g id="clust4" class="cluster"><title>cluster_loop</title>
<polygon fill="none" stroke="black" points="266,-228 266,-337 743,-337 743,-228 266,-228"/>
<text text-anchor="middle" x="504.5" y="-321.8" font-family="Helvetica,sans-Serif" font-size="14.00">loop over x</text>
</g>
<!-- MatVec -->
<g id="node1" class="node"><title>MatVec</title>
<polygon fill="gold" stroke="gold" points="81.5,-201 16.5,-201 16.5,-165 81.5,-165 81.5,-201"/>
<text text-anchor="middle" x="49" y="-179.3" font-family="Helvetica,sans-Serif" font-size="14.00">MatVec</text>
</g>
<!-- fftX(&#45;1) -->
<g id="node4" class="node"><title>fftX(&#45;1)</title>
<polygon fill="none" stroke="black" points="208.5,-276 147.5,-276 147.5,-240 208.5,-240 208.5,-276"/>
<text text-anchor="middle" x="178" y="-254.3" font-family="Helvetica,sans-Serif" font-size="14.00">fftX(&#45;1)</text>
</g>
<!-- MatVec&#45;&gt;fftX(&#45;1) -->
<g id="edge3" class="edge"><title>MatVec&#45;&gt;fftX(&#45;1)</title>
<path fill="none" stroke="red" stroke-width="2" d="M80.7432,-201.155C98.1551,-211.438 120.092,-224.393 138.625,-235.337"/>
<polygon fill="red" stroke="red" points="137.024,-238.457 147.414,-240.528 140.584,-232.429 137.024,-238.457"/>
</g>
<!-- AllGather -->
<g id="node3" class="node"><title>AllGather</title>
<polygon fill="none" stroke="black" points="215.5,-127 140.5,-127 140.5,-91 215.5,-91 215.5,-127"/>
<text text-anchor="middle" x="178" y="-105.3" font-family="Helvetica,sans-Serif" font-size="14.00">AllGather</text>
</g>
<!-- MatVec&#45;&gt;AllGather -->
<g id="edge10" class="edge"><title>MatVec&#45;&gt;AllGather</title>
<path fill="none" stroke="red" stroke-dasharray="5,2" d="M70.0734,-164.944C81.2708,-155.49 95.792,-144.207 110,-136 116.495,-132.248 123.613,-128.776 130.708,-125.657"/>
<polygon fill="red" stroke="red" points="132.44,-128.726 140.307,-121.63 129.732,-122.271 132.44,-128.726"/>
</g>
<!-- BlockTranspose -->
<g id="node2" class="node"><title>BlockTranspose</title>
<polygon fill="none" stroke="black" points="238,-181 118,-181 118,-145 238,-145 238,-181"/>
<text text-anchor="middle" x="178" y="-159.3" font-family="Helvetica,sans-Serif" font-size="14.00">BlockTranspose</text>
</g>
<!-- fftYZ -->
<g id="node6" class="node"><title>fftYZ</title>
<polygon fill="none" stroke="black" points="274.5,-236.5 274.5,-305.5 399.5,-305.5 399.5,-236.5 274.5,-236.5"/>
<text text-anchor="middle" x="337" y="-290.3" font-family="Helvetica,sans-Serif" font-size="14.00">fftZ(&#45;1)</text>
<polyline fill="none" stroke="black" points="274.5,-282.5 399.5,-282.5 "/>
<text text-anchor="middle" x="337" y="-267.3" font-family="Helvetica,sans-Serif" font-size="14.00">TransposeYZ(&#45;1)</text>
<polyline fill="none" stroke="black" points="274.5,-259.5 399.5,-259.5 "/>
<text text-anchor="middle" x="337" y="-244.3" font-family="Helvetica,sans-Serif" font-size="14.00">fftY(&#45;1)</text>
</g>
<!-- BlockTranspose&#45;&gt;fftYZ -->
<g id="edge5" class="edge"><title>BlockTranspose&#45;&gt;fftYZ:0</title>
<path fill="none" stroke="red" stroke-width="2" d="M208.939,-181.105C221.855,-190.196 236.212,-202.214 246,-216 264.831,-242.524 242.652,-283.338 262.962,-292.245"/>
<polygon fill="red" stroke="red" points="262.547,-295.726 273,-294 263.752,-288.83 262.547,-295.726"/>
</g>
<!-- fftX(+1) -->
<g id="node5" class="node"><title>fftX(+1)</title>
<polygon fill="none" stroke="black" points="863.5,-289 798.5,-289 798.5,-253 863.5,-253 863.5,-289"/>
<text text-anchor="middle" x="831" y="-267.3" font-family="Helvetica,sans-Serif" font-size="14.00">fftX(+1)</text>
</g>
<!-- BlockTranspose&#45;&gt;fftX(+1) -->
<g id="edge9" class="edge"><title>BlockTranspose&#45;&gt;fftX(+1)</title>
<path fill="none" stroke="red" stroke-width="2" d="M238.224,-164.955C368.202,-169.915 674.47,-185.437 770,-224 782.683,-229.12 794.906,-237.768 804.973,-246.26"/>
<polygon fill="red" stroke="red" points="802.743,-248.961 812.551,-252.967 807.382,-243.719 802.743,-248.961"/>
</g>
<!-- AijProd -->
<g id="node9" class="node"><title>AijProd</title>
<polygon fill="none" stroke="black" points="368.5,-127 305.5,-127 305.5,-91 368.5,-91 368.5,-127"/>
<text text-anchor="middle" x="337" y="-105.3" font-family="Helvetica,sans-Serif" font-size="14.00">AijProd</text>
</g>
<!-- AllGather&#45;&gt;AijProd -->
<g id="edge11" class="edge"><title>AllGather&#45;&gt;AijProd</title>
<path fill="none" stroke="red" stroke-dasharray="5,2" d="M215.81,-109C239.68,-109 270.796,-109 295.387,-109"/>
<polygon fill="red" stroke="red" points="295.487,-112.5 305.487,-109 295.487,-105.5 295.487,-112.5"/>
</g>
<!-- fftX(&#45;1)&#45;&gt;fftYZ -->
<!-- fftX(&#45;1)&#45;&gt;BlockTranspose -->
<g id="edge4" class="edge"><title>fftX(&#45;1)&#45;&gt;BlockTranspose</title>
<path fill="none" stroke="red" stroke-width="2" d="M178,-239.996C178,-223.761 178,-207.527 178,-191.292"/>
<polygon fill="red" stroke="red" points="181.5,-191.184 178,-181.184 174.5,-191.184 181.5,-191.184"/>
</g>
<!-- elem -->
<g id="node8" class="node"><title>elem</title>
<polygon fill="none" stroke="black" points="540.5,-290 439.5,-290 439.5,-252 540.5,-252 540.5,-290"/>
<text text-anchor="middle" x="490" y="-274.8" font-family="Helvetica,sans-Serif" font-size="14.00">element&#45;wise</text>
<text text-anchor="middle" x="490" y="-259.8" font-family="Helvetica,sans-Serif" font-size="14.00">product</text>
</g>
<!-- fftYZ&#45;&gt;elem -->
<g id="edge6" class="edge"><title>fftYZ:1&#45;&gt;elem</title>
<path fill="none" stroke="red" stroke-width="2" d="M400,-248C409.594,-248 419.59,-249.268 429.27,-251.209"/>
<polygon fill="red" stroke="red" points="428.689,-254.666 439.214,-253.451 430.228,-247.837 428.689,-254.666"/>
</g>
<!-- fftYZInv -->
<g id="node7" class="node"><title>fftYZInv</title>
<polygon fill="none" stroke="black" points="607,-236.5 607,-305.5 735,-305.5 735,-236.5 607,-236.5"/>
<text text-anchor="middle" x="671" y="-290.3" font-family="Helvetica,sans-Serif" font-size="14.00">fftY(+1)</text>
<polyline fill="none" stroke="black" points="607,-282.5 735,-282.5 "/>
<text text-anchor="middle" x="671" y="-267.3" font-family="Helvetica,sans-Serif" font-size="14.00">TransposeYZ(+1)</text>
<polyline fill="none" stroke="black" points="607,-259.5 735,-259.5 "/>
<text text-anchor="middle" x="671" y="-244.3" font-family="Helvetica,sans-Serif" font-size="14.00">fftZ(+1)</text>
</g>
<!-- fftYZInv&#45;&gt;fftX(+1) -->
<!-- fftYZInv&#45;&gt;BlockTranspose -->
<g id="edge8" class="edge"><title>fftYZInv:1&#45;&gt;BlockTranspose</title>
<path fill="none" stroke="red" stroke-width="2" d="M606,-248C568.183,-248 583.67,-205.971 572,-170 559.222,-130.611 584.271,-104.949 552,-79 452.941,0.652277 369.698,-5.48887 266,-79 244.098,-94.5265 264.546,-116.588 246,-136 245.098,-136.944 244.16,-137.855 243.188,-138.736"/>
<polygon fill="red" stroke="red" points="240.967,-136.028 235.168,-144.895 245.231,-141.579 240.967,-136.028"/>
</g>
<!-- elem&#45;&gt;fftYZInv -->
<g id="edge7" class="edge"><title>elem&#45;&gt;fftYZInv:0</title>
<path fill="none" stroke="red" stroke-width="2" d="M540.666,-285.37C557.708,-289.311 577.222,-292.772 595.979,-293.735"/>
<polygon fill="red" stroke="red" points="595.911,-297.234 606,-294 596.096,-290.236 595.911,-297.234"/>
</g>
<!-- CalcInterTerm -->
<g id="node12" class="node"><title>CalcInterTerm</title>
<polygon fill="none" stroke="black" points="543.5,-127 436.5,-127 436.5,-91 543.5,-91 543.5,-127"/>
<text text-anchor="middle" x="490" y="-105.3" font-family="Helvetica,sans-Serif" font-size="14.00">CalcInterTerm</text>
</g>
<!-- AijProd&#45;&gt;CalcInterTerm -->
<g id="edge13" class="edge"><title>AijProd&#45;&gt;CalcInterTerm</title>
<path fill="none" stroke="midnightblue" d="M368.557,-109C385.218,-109 406.47,-109 426.471,-109"/>
<polygon fill="midnightblue" stroke="midnightblue" points="426.472,-112.5 436.472,-109 426.472,-105.5 426.472,-112.5"/>
</g>
<!-- cisi -->
<g id="node10" class="node"><title>cisi</title>
<polygon fill="none" stroke="black" points="698,-135 644,-135 644,-99 698,-99 698,-135"/>
<text text-anchor="middle" x="671" y="-113.3" font-family="Helvetica,sans-Serif" font-size="14.00">cisi</text>
</g>
<!-- propaespacelibreintadda_ -->
<g id="node11" class="node"><title>propaespacelibreintadda_</title>
<polygon fill="none" stroke="black" points="762,-52 580,-52 580,-16 762,-16 762,-52"/>
<text text-anchor="middle" x="671" y="-30.3" font-family="Helvetica,sans-Serif" font-size="14.00">propaespacelibreintadda_</text>
</g>
<!-- CalcInterTerm&#45;&gt;cisi -->
<g id="edge12" class="edge"><title>CalcInterTerm&#45;&gt;cisi</title>
<path fill="none" stroke="midnightblue" d="M543.738,-111.357C572.742,-112.653 607.981,-114.228 633.852,-115.384"/>
<polygon fill="midnightblue" stroke="midnightblue" points="633.826,-118.887 643.972,-115.837 634.138,-111.894 633.826,-118.887"/>
</g>
<!-- CalcInterTerm&#45;&gt;propaespacelibreintadda_ -->
<g id="edge14" class="edge"><title>CalcInterTerm&#45;&gt;propaespacelibreintadda_</title>
<path fill="none" stroke="midnightblue" d="M534.331,-90.8446C559.304,-80.3811 590.881,-67.1505 617.286,-56.0869"/>
<polygon fill="midnightblue" stroke="midnightblue" points="618.888,-59.2106 626.758,-52.118 616.183,-52.7544 618.888,-59.2106"/>
</g>
</g>
</svg>
