<?xml version="1.0" encoding="UTF-8" standalone="no"?>
<!DOCTYPE svg PUBLIC "-//W3C//DTD SVG 1.1//EN"
 "http://www.w3.org/Graphics/SVG/1.1/DTD/svg11.dtd">
<!-- Generated by graphviz version 2.30.1 (20130214.1330)
 -->
<!-- Title: matvec Pages: 1 -->
<svg width="653pt" height="356pt"
 viewBox="0.00 0.00 653.00 356.00" xmlns="http://www.w3.org/2000/svg" xmlns:xlink="http://www.w3.org/1999/xlink">
<g id="graph0" class="graph" transform="scale(1 1) rotate(0) translate(4 352)">
<title>matvec</title>
<polygon fill="white" stroke="white" points="-4,5 -4,-352 650,-352 650,5 -4,5"/>
<g id="clust1" class="cluster"><title>cluster_matvec</title>
<polygon fill="none" stroke="black" points="8,-150 8,-221 78,-221 78,-150 8,-150"/>
<text text-anchor="middle" x="43" y="-209" font-family="Helvetica,sans-Serif" font-size="10.00">matvec.c</text>
</g>
<g id="clust5" class="cluster"><title>cluster_sparse</title>
<polygon fill="none" stroke="black" points="213,-79 213,-150 288,-150 288,-79 213,-79"/>
<text text-anchor="middle" x="250.5" y="-138" font-family="Helvetica,sans-Serif" font-size="10.00">sparse_ops.h</text>
</g>
<g id="clust8" class="cluster"><title>cluster_inter</title>
<polygon fill="none" stroke="black" points="311,-79 311,-150 405,-150 405,-79 311,-79"/>
<text text-anchor="middle" x="358" y="-138" font-family="Helvetica,sans-Serif" font-size="10.00">interaction.c</text>
</g>
<g id="clust2" class="cluster"><title>cluster_comm</title>
<polygon fill="none" stroke="black" points="87,-79 87,-204 189,-204 189,-79 87,-79"/>
<text text-anchor="middle" x="138" y="-192" font-family="Helvetica,sans-Serif" font-size="10.00">comm.c</text>
</g>
<g id="clust3" class="cluster"><title>cluster_fft</title>
<polygon fill="none" stroke="black" points="103,-212 103,-340 637,-340 637,-212 103,-212"/>
<text text-anchor="middle" x="370" y="-328" font-family="Helvetica,sans-Serif" font-size="10.00">fft.c</text>
</g>
<g id="clust4" class="cluster"><title>cluster_loop</title>
<polygon fill="none" stroke="black" points="198,-220 198,-313 540,-313 540,-220 198,-220"/>
<text text-anchor="middle" x="369" y="-301" font-family="Helvetica,sans-Serif" font-size="10.00">loop over x</text>
</g>
<g id="clust6" class="cluster"><title>cluster_cisi</title>
<polygon fill="none" stroke="black" points="451,-87 451,-158 521,-158 521,-87 451,-87"/>
<text text-anchor="middle" x="486" y="-146" font-family="Helvetica,sans-Serif" font-size="10.00">sinint.c</text>
</g>
<g id="clust7" class="cluster"><title>cluster_igt</title>
<polygon fill="none" stroke="black" points="414,-8 414,-79 558,-79 558,-8 414,-8"/>
<text text-anchor="middle" x="486" y="-67" font-family="Helvetica,sans-Serif" font-size="10.00">propaesplibreintadda.f</text>
</g>
<!-- MatVec -->
<g id="node1" class="node"><title>MatVec</title>
<polygon fill="gold" stroke="gold" points="70,-194 16,-194 16,-158 70,-158 70,-194"/>
<text text-anchor="middle" x="43" y="-173.5" font-family="Helvetica,sans-Serif" font-size="10.00">MatVec</text>
</g>
<!-- fftX(&#45;1) -->
<g id="node4" class="node"><title>fftX(&#45;1)</title>
<polygon fill="none" stroke="black" points="165,-265 111,-265 111,-229 165,-229 165,-265"/>
<text text-anchor="middle" x="138" y="-244.5" font-family="Helvetica,sans-Serif" font-size="10.00">fftX(&#45;1)</text>
</g>
<!-- MatVec&#45;&gt;fftX(&#45;1) -->
<g id="edge3" class="edge"><title>MatVec&#45;&gt;fftX(&#45;1)</title>
<path fill="none" stroke="red" stroke-width="2" d="M67.9498,-194.284C79.2316,-202.897 92.85,-213.294 105.001,-222.57"/>
<polygon fill="red" stroke="red" points="103.059,-225.491 113.131,-228.778 107.307,-219.928 103.059,-225.491"/>
</g>
<!-- AllGather -->
<g id="node3" class="node"><title>AllGather</title>
<polygon fill="none" stroke="black" points="166.5,-123 109.5,-123 109.5,-87 166.5,-87 166.5,-123"/>
<text text-anchor="middle" x="138" y="-102.5" font-family="Helvetica,sans-Serif" font-size="10.00">AllGather</text>
</g>
<!-- MatVec&#45;&gt;AllGather -->
<g id="edge10" class="edge"><title>MatVec&#45;&gt;AllGather</title>
<path fill="none" stroke="red" stroke-dasharray="5,2" d="M59.6382,-157.607C67.3504,-149.192 77.1068,-139.459 87,-132 91.1762,-128.851 95.7671,-125.849 100.422,-123.067"/>
<polygon fill="red" stroke="red" points="102.38,-125.981 109.359,-118.009 98.9324,-119.888 102.38,-125.981"/>
</g>
<!-- BlockTranspose -->
<g id="node2" class="node"><title>BlockTranspose</title>
<polygon fill="none" stroke="black" points="181,-177 95,-177 95,-141 181,-141 181,-177"/>
<text text-anchor="middle" x="138" y="-156.5" font-family="Helvetica,sans-Serif" font-size="10.00">BlockTranspose</text>
</g>
<!-- fftYZ -->
<g id="node6" class="node"><title>fftYZ</title>
<polygon fill="none" stroke="black" points="206,-228.5 206,-285.5 294,-285.5 294,-228.5 206,-228.5"/>
<text text-anchor="middle" x="250" y="-273.5" font-family="Helvetica,sans-Serif" font-size="10.00">fftZ(&#45;1)</text>
<polyline fill="none" stroke="black" points="206,-266.5 294,-266.5 "/>
<text text-anchor="middle" x="250" y="-254.5" font-family="Helvetica,sans-Serif" font-size="10.00">TransposeYZ(&#45;1)</text>
<polyline fill="none" stroke="black" points="206,-247.5 294,-247.5 "/>
<text text-anchor="middle" x="250" y="-235.5" font-family="Helvetica,sans-Serif" font-size="10.00">fftY(&#45;1)</text>
</g>
<!-- BlockTranspose&#45;&gt;fftYZ -->
<g id="edge5" class="edge"><title>BlockTranspose&#45;&gt;fftYZ:0</title>
<path fill="none" stroke="red" stroke-width="2" d="M162.575,-177.041C172.095,-185.475 182.375,-196.248 189,-208 202.102,-231.243 181.572,-264.757 195.244,-273.723"/>
<polygon fill="red" stroke="red" points="194.466,-277.135 205,-276 196.057,-270.319 194.466,-277.135"/>
</g>
<!-- fftX(+1) -->
<g id="node5" class="node"><title>fftX(+1)</title>
<polygon fill="none" stroke="black" points="629,-275 575,-275 575,-239 629,-239 629,-275"/>
<text text-anchor="middle" x="602" y="-254.5" font-family="Helvetica,sans-Serif" font-size="10.00">fftX(+1)</text>
</g>
<!-- BlockTranspose&#45;&gt;fftX(+1) -->
<g id="edge9" class="edge"><title>BlockTranspose&#45;&gt;fftX(+1)</title>
<path fill="none" stroke="red" stroke-width="2" d="M181.265,-156.425C259.7,-153.392 431.312,-155.052 558,-216 565.712,-219.71 572.942,-225.322 579.192,-231.213"/>
<polygon fill="red" stroke="red" points="577.043,-234.02 586.547,-238.703 582.038,-229.115 577.043,-234.02"/>
</g>
<!-- AijProd -->
<g id="node9" class="node"><title>AijProd</title>
<polygon fill="none" stroke="black" points="277,-123 223,-123 223,-87 277,-87 277,-123"/>
<text text-anchor="middle" x="250" y="-102.5" font-family="Helvetica,sans-Serif" font-size="10.00">AijProd</text>
</g>
<!-- AllGather&#45;&gt;AijProd -->
<g id="edge11" class="edge"><title>AllGather&#45;&gt;AijProd</title>
<path fill="none" stroke="red" stroke-dasharray="5,2" d="M166.758,-105C180.586,-105 197.487,-105 212.364,-105"/>
<polygon fill="red" stroke="red" points="212.766,-108.5 222.766,-105 212.766,-101.5 212.766,-108.5"/>
</g>
<!-- fftX(&#45;1)&#45;&gt;fftYZ -->
<!-- fftX(&#45;1)&#45;&gt;BlockTranspose -->
<g id="edge4" class="edge"><title>fftX(&#45;1)&#45;&gt;BlockTranspose</title>
<path fill="none" stroke="red" stroke-width="2" d="M138,-228.737C138,-214.918 138,-201.1 138,-187.281"/>
<polygon fill="red" stroke="red" points="141.5,-187.219 138,-177.219 134.5,-187.219 141.5,-187.219"/>
</g>
<!-- elem -->
<g id="node8" class="node"><title>elem</title>
<polygon fill="none" stroke="black" points="395,-275 321,-275 321,-239 395,-239 395,-275"/>
<text text-anchor="middle" x="358" y="-260" font-family="Helvetica,sans-Serif" font-size="10.00">element&#45;wise</text>
<text text-anchor="middle" x="358" y="-249" font-family="Helvetica,sans-Serif" font-size="10.00">product</text>
</g>
<!-- fftYZ&#45;&gt;elem -->
<g id="edge6" class="edge"><title>fftYZ:1&#45;&gt;elem</title>
<path fill="none" stroke="red" stroke-width="2" d="M294,-238C299.569,-238 305.302,-238.689 310.934,-239.805"/>
<polygon fill="red" stroke="red" points="310.363,-243.267 320.906,-242.217 312.009,-236.464 310.363,-243.267"/>
</g>
<!-- fftYZInv -->
<g id="node7" class="node"><title>fftYZInv</title>
<polygon fill="none" stroke="black" points="440.5,-228.5 440.5,-285.5 531.5,-285.5 531.5,-228.5 440.5,-228.5"/>
<text text-anchor="middle" x="486" y="-273.5" font-family="Helvetica,sans-Serif" font-size="10.00">fftY(+1)</text>
<polyline fill="none" stroke="black" points="440.5,-266.5 531.5,-266.5 "/>
<text text-anchor="middle" x="486" y="-254.5" font-family="Helvetica,sans-Serif" font-size="10.00">TransposeYZ(+1)</text>
<polyline fill="none" stroke="black" points="440.5,-247.5 531.5,-247.5 "/>
<text text-anchor="middle" x="486" y="-235.5" font-family="Helvetica,sans-Serif" font-size="10.00">fftZ(+1)</text>
</g>
<!-- fftYZInv&#45;&gt;fftX(+1) -->
<!-- fftYZInv&#45;&gt;BlockTranspose -->
<g id="edge8" class="edge"><title>fftYZInv:1&#45;&gt;BlockTranspose</title>
<path fill="none" stroke="red" stroke-width="2" d="M439,-238C403.442,-238 421.428,-196.774 414,-162 409.94,-142.992 419.433,-88.0174 405,-75 336.681,-13.384 267.943,-15.2341 198,-75 178.502,-91.6612 203.821,-111.069 189,-132 188.644,-132.503 188.275,-132.998 187.895,-133.484"/>
<polygon fill="red" stroke="red" points="185.365,-131.065 180.849,-140.65 190.356,-135.973 185.365,-131.065"/>
</g>
<!-- elem&#45;&gt;fftYZInv -->
<g id="edge7" class="edge"><title>elem&#45;&gt;fftYZInv:0</title>
<path fill="none" stroke="red" stroke-width="2" d="M395.212,-269.355C405.707,-272.162 417.452,-274.602 428.971,-275.563"/>
<polygon fill="red" stroke="red" points="428.857,-279.062 439,-276 429.162,-272.068 428.857,-279.062"/>
</g>
<!-- CalcInterTerm -->
<g id="node12" class="node"><title>CalcInterTerm</title>
<polygon fill="none" stroke="black" points="396.5,-123 319.5,-123 319.5,-87 396.5,-87 396.5,-123"/>
<text text-anchor="middle" x="358" y="-102.5" font-family="Helvetica,sans-Serif" font-size="10.00">CalcInterTerm</text>
</g>
<!-- AijProd&#45;&gt;CalcInterTerm -->
<g id="edge13" class="edge"><title>AijProd&#45;&gt;CalcInterTerm</title>
<path fill="none" stroke="midnightblue" d="M277.202,-105C286.966,-105 298.375,-105 309.463,-105"/>
<polygon fill="midnightblue" stroke="midnightblue" points="309.498,-108.5 319.498,-105 309.498,-101.5 309.498,-108.5"/>
</g>
<!-- cisi -->
<g id="node10" class="node"><title>cisi</title>
<polygon fill="none" stroke="black" points="513,-131 459,-131 459,-95 513,-95 513,-131"/>
<text text-anchor="middle" x="486" y="-110.5" font-family="Helvetica,sans-Serif" font-size="10.00">cisi</text>
</g>
<!-- propaespacelibreintadda_ -->
<g id="node11" class="node"><title>propaespacelibreintadda_</title>
<polygon fill="none" stroke="black" points="549.5,-52 422.5,-52 422.5,-16 549.5,-16 549.5,-52"/>
<text text-anchor="middle" x="486" y="-31.5" font-family="Helvetica,sans-Serif" font-size="10.00">propaespacelibreintadda_</text>
</g>
<!-- CalcInterTerm&#45;&gt;cisi -->
<g id="edge12" class="edge"><title>CalcInterTerm&#45;&gt;cisi</title>
<path fill="none" stroke="midnightblue" d="M396.804,-107.4C413.216,-108.442 432.359,-109.658 448.609,-110.689"/>
<polygon fill="midnightblue" stroke="midnightblue" points="448.61,-114.196 458.811,-111.337 449.053,-107.211 448.61,-114.196"/>
</g>
<!-- CalcInterTerm&#45;&gt;propaespacelibreintadda_ -->
<g id="edge14" class="edge"><title>CalcInterTerm&#45;&gt;propaespacelibreintadda_</title>
<path fill="none" stroke="midnightblue" d="M391.121,-86.9C407.264,-77.8035 427.001,-66.682 444.204,-56.9879"/>
<polygon fill="midnightblue" stroke="midnightblue" points="445.944,-60.0254 452.938,-52.067 442.507,-53.927 445.944,-60.0254"/>
</g>
</g>
</svg>
