<?xml version="1.0" encoding="UTF-8" standalone="no"?>
<!DOCTYPE svg PUBLIC "-//W3C//DTD SVG 1.1//EN"
 "http://www.w3.org/Graphics/SVG/1.1/DTD/svg11.dtd">
<!-- Generated by graphviz version 2.30.1 (20130214.1330)
 -->
<!-- Title: matvec Pages: 1 -->
<svg width="643pt" height="311pt"
 viewBox="0.00 0.00 643.00 311.00" xmlns="http://www.w3.org/2000/svg" xmlns:xlink="http://www.w3.org/1999/xlink">
<g id="graph0" class="graph" transform="scale(1 1) rotate(0) translate(4 307)">
<title>matvec</title>
<polygon fill="white" stroke="white" points="-4,5 -4,-307 640,-307 640,5 -4,5"/>
<g id="clust1" class="cluster"><title>cluster_matvec</title>
<polygon fill="none" stroke="black" points="8,-123 8,-178 74,-178 74,-123 8,-123"/>
<text text-anchor="middle" x="41" y="-166" font-family="Helvetica,sans-Serif" font-size="10.00">matvec.c</text>
</g>
<g id="clust3" class="cluster"><title>cluster_fft</title>
<polygon fill="none" stroke="black" points="104,-167 104,-295 627,-295 627,-167 104,-167"/>
<text text-anchor="middle" x="365.5" y="-283" font-family="Helvetica,sans-Serif" font-size="10.00">fft.c</text>
</g>
<g id="clust4" class="cluster"><title>cluster_loop</title>
<polygon fill="none" stroke="black" points="194,-175 194,-268 536,-268 536,-175 194,-175"/>
<text text-anchor="middle" x="365" y="-256" font-family="Helvetica,sans-Serif" font-size="10.00">loop over x</text>
</g>
<g id="clust6" class="cluster"><title>cluster_cisi</title>
<polygon fill="none" stroke="black" points="458,-71 458,-126 506,-126 506,-71 458,-71"/>
<text text-anchor="middle" x="482" y="-114" font-family="Helvetica,sans-Serif" font-size="10.00">sinint.c</text>
</g>
<g id="clust5" class="cluster"><title>cluster_sparse</title>
<polygon fill="none" stroke="black" points="209,-67 209,-122 284,-122 284,-67 209,-67"/>
<text text-anchor="middle" x="246.5" y="-110" font-family="Helvetica,sans-Serif" font-size="10.00">sparse_ops.h</text>
</g>
<g id="clust8" class="cluster"><title>cluster_inter</title>
<polygon fill="none" stroke="black" points="307,-67 307,-122 401,-122 401,-67 307,-67"/>
<text text-anchor="middle" x="354" y="-110" font-family="Helvetica,sans-Serif" font-size="10.00">interaction.c</text>
</g>
<g id="clust7" class="cluster"><title>cluster_igt</title>
<polygon fill="none" stroke="black" points="410,-8 410,-63 554,-63 554,-8 410,-8"/>
<text text-anchor="middle" x="482" y="-51" font-family="Helvetica,sans-Serif" font-size="10.00">propaesplibreintadda.f</text>
</g>
<g id="clust2" class="cluster"><title>cluster_comm</title>
<polygon fill="none" stroke="black" points="83,-67 83,-159 185,-159 185,-67 83,-67"/>
<text text-anchor="middle" x="134" y="-147" font-family="Helvetica,sans-Serif" font-size="10.00">comm.c</text>
</g>
<!-- MatVec -->
<g id="node1" class="node"><title>MatVec</title>
<polygon fill="gold" stroke="gold" points="66,-150.5 16,-150.5 16,-131.5 66,-131.5 66,-150.5"/>
<text text-anchor="middle" x="41" y="-138.5" font-family="Helvetica,sans-Serif" font-size="10.00">MatVec</text>
</g>
<!-- fftX(&#45;1) -->
<g id="node4" class="node"><title>fftX(&#45;1)</title>
<polygon fill="none" stroke="black" points="156,-207.5 112,-207.5 112,-188.5 156,-188.5 156,-207.5"/>
<text text-anchor="middle" x="134" y="-195.5" font-family="Helvetica,sans-Serif" font-size="10.00">fftX(&#45;1)</text>
</g>
<!-- MatVec&#45;&gt;fftX(&#45;1) -->
<g id="edge3" class="edge"><title>MatVec&#45;&gt;fftX(&#45;1)</title>
<path fill="none" stroke="red" stroke-width="2" d="M57.0268,-150.412C71.2531,-159.323 92.8353,-172.842 109.366,-183.196"/>
<polygon fill="red" stroke="red" points="107.618,-186.231 117.951,-188.574 111.334,-180.299 107.618,-186.231"/>
</g>
<!-- AllGather -->
<g id="node3" class="node"><title>AllGather</title>
<polygon fill="none" stroke="black" points="162.5,-94.5 105.5,-94.5 105.5,-75.5 162.5,-75.5 162.5,-94.5"/>
<text text-anchor="middle" x="134" y="-82.5" font-family="Helvetica,sans-Serif" font-size="10.00">AllGather</text>
</g>
<!-- MatVec&#45;&gt;AllGather -->
<g id="edge10" class="edge"><title>MatVec&#45;&gt;AllGather</title>
<path fill="none" stroke="red" stroke-dasharray="5,2" d="M49.9596,-131.737C57.6698,-123.258 70.0651,-110.868 83,-103 86.9645,-100.588 91.3012,-98.4296 95.7109,-96.5174"/>
<polygon fill="red" stroke="red" points="97.3384,-99.6384 105.365,-92.7226 94.7774,-93.1237 97.3384,-99.6384"/>
</g>
<!-- BlockTranspose -->
<g id="node2" class="node"><title>BlockTranspose</title>
<polygon fill="none" stroke="black" points="177,-131.5 91,-131.5 91,-112.5 177,-112.5 177,-131.5"/>
<text text-anchor="middle" x="134" y="-119.5" font-family="Helvetica,sans-Serif" font-size="10.00">BlockTranspose</text>
</g>
<!-- fftYZ -->
<g id="node6" class="node"><title>fftYZ</title>
<polygon fill="none" stroke="black" points="202,-183.5 202,-240.5 290,-240.5 290,-183.5 202,-183.5"/>
<text text-anchor="middle" x="246" y="-228.5" font-family="Helvetica,sans-Serif" font-size="10.00">fftZ(&#45;1)</text>
<polyline fill="none" stroke="black" points="202,-221.5 290,-221.5 "/>
<text text-anchor="middle" x="246" y="-209.5" font-family="Helvetica,sans-Serif" font-size="10.00">TransposeYZ(&#45;1)</text>
<polyline fill="none" stroke="black" points="202,-202.5 290,-202.5 "/>
<text text-anchor="middle" x="246" y="-190.5" font-family="Helvetica,sans-Serif" font-size="10.00">fftY(&#45;1)</text>
</g>
<!-- BlockTranspose&#45;&gt;fftYZ -->
<g id="edge5" class="edge"><title>BlockTranspose&#45;&gt;fftYZ:0</title>
<path fill="none" stroke="red" stroke-width="2" d="M151.373,-131.411C162.511,-138.652 176.685,-149.664 185,-163 198.989,-185.435 178.241,-218.971 190.946,-228.433"/>
<polygon fill="red" stroke="red" points="190.445,-231.917 201,-231 192.177,-225.135 190.445,-231.917"/>
</g>
<!-- fftX(+1) -->
<g id="node5" class="node"><title>fftX(+1)</title>
<polygon fill="none" stroke="black" points="618.5,-221.5 571.5,-221.5 571.5,-202.5 618.5,-202.5 618.5,-221.5"/>
<text text-anchor="middle" x="595" y="-209.5" font-family="Helvetica,sans-Serif" font-size="10.00">fftX(+1)</text>
</g>
<!-- BlockTranspose&#45;&gt;fftX(+1) -->
<g id="edge9" class="edge"><title>BlockTranspose&#45;&gt;fftX(+1)</title>
<path fill="none" stroke="red" stroke-width="2" d="M177.153,-125.322C276.723,-133.397 520.647,-154.596 554,-171 564.976,-176.398 574.639,-186.074 581.716,-194.671"/>
<polygon fill="red" stroke="red" points="579.021,-196.907 587.885,-202.709 584.574,-192.645 579.021,-196.907"/>
</g>
<!-- AijProd -->
<g id="node9" class="node"><title>AijProd</title>
<polygon fill="none" stroke="black" points="270,-94.5 222,-94.5 222,-75.5 270,-75.5 270,-94.5"/>
<text text-anchor="middle" x="246" y="-82.5" font-family="Helvetica,sans-Serif" font-size="10.00">AijProd</text>
</g>
<!-- AllGather&#45;&gt;AijProd -->
<g id="edge11" class="edge"><title>AllGather&#45;&gt;AijProd</title>
<path fill="none" stroke="red" stroke-dasharray="5,2" d="M162.758,-85C177.547,-85 195.853,-85 211.437,-85"/>
<polygon fill="red" stroke="red" points="211.714,-88.5001 221.714,-85 211.714,-81.5001 211.714,-88.5001"/>
</g>
<!-- fftX(&#45;1)&#45;&gt;fftYZ -->
<!-- fftX(&#45;1)&#45;&gt;BlockTranspose -->
<g id="edge4" class="edge"><title>fftX(&#45;1)&#45;&gt;BlockTranspose</title>
<path fill="none" stroke="red" stroke-width="2" d="M134,-188.648C134,-173.022 134,-157.395 134,-141.769"/>
<polygon fill="red" stroke="red" points="137.5,-141.5 134,-131.5 130.5,-141.5 137.5,-141.5"/>
</g>
<!-- elem -->
<g id="node8" class="node"><title>elem</title>
<polygon fill="none" stroke="black" points="391,-227 317,-227 317,-197 391,-197 391,-227"/>
<text text-anchor="middle" x="354" y="-215" font-family="Helvetica,sans-Serif" font-size="10.00">element&#45;wise</text>
<text text-anchor="middle" x="354" y="-204" font-family="Helvetica,sans-Serif" font-size="10.00">product</text>
</g>
<!-- fftYZ&#45;&gt;elem -->
<g id="edge6" class="edge"><title>fftYZ:1&#45;&gt;elem</title>
<path fill="none" stroke="red" stroke-width="2" d="M290,-193C295.569,-193 301.302,-193.689 306.934,-194.805"/>
<polygon fill="red" stroke="red" points="306.363,-198.267 316.906,-197.217 308.009,-191.464 306.363,-198.267"/>
</g>
<!-- fftYZInv -->
<g id="node7" class="node"><title>fftYZInv</title>
<polygon fill="none" stroke="black" points="436.5,-183.5 436.5,-240.5 527.5,-240.5 527.5,-183.5 436.5,-183.5"/>
<text text-anchor="middle" x="482" y="-228.5" font-family="Helvetica,sans-Serif" font-size="10.00">fftY(+1)</text>
<polyline fill="none" stroke="black" points="436.5,-221.5 527.5,-221.5 "/>
<text text-anchor="middle" x="482" y="-209.5" font-family="Helvetica,sans-Serif" font-size="10.00">TransposeYZ(+1)</text>
<polyline fill="none" stroke="black" points="436.5,-202.5 527.5,-202.5 "/>
<text text-anchor="middle" x="482" y="-190.5" font-family="Helvetica,sans-Serif" font-size="10.00">fftZ(+1)</text>
</g>
<!-- fftYZInv&#45;&gt;fftX(+1) -->
<!-- fftYZInv&#45;&gt;BlockTranspose -->
<g id="edge8" class="edge"><title>fftYZInv:1&#45;&gt;BlockTranspose</title>
<path fill="none" stroke="red" stroke-width="2" d="M435,-193C404.876,-193 417.618,-159.145 410,-130 406.201,-115.466 412.308,-72.8902 401,-63 331.751,-2.43117 265.84,-5.52806 194,-63 179.771,-74.3833 196.94,-89.2343 185,-103 183.699,-104.499 182.267,-105.881 180.735,-107.154"/>
<polygon fill="red" stroke="red" points="178.808,-104.232 172.38,-112.655 182.657,-110.079 178.808,-104.232"/>
</g>
<!-- elem&#45;&gt;fftYZInv -->
<g id="edge7" class="edge"><title>elem&#45;&gt;fftYZInv:0</title>
<path fill="none" stroke="red" stroke-width="2" d="M391.212,-224.355C401.707,-227.162 413.452,-229.602 424.971,-230.563"/>
<polygon fill="red" stroke="red" points="424.857,-234.062 435,-231 425.162,-227.068 424.857,-234.062"/>
</g>
<!-- CalcInterTerm -->
<g id="node12" class="node"><title>CalcInterTerm</title>
<polygon fill="none" stroke="black" points="392.5,-94.5 315.5,-94.5 315.5,-75.5 392.5,-75.5 392.5,-94.5"/>
<text text-anchor="middle" x="354" y="-82.5" font-family="Helvetica,sans-Serif" font-size="10.00">CalcInterTerm</text>
</g>
<!-- AijProd&#45;&gt;CalcInterTerm -->
<g id="edge13" class="edge"><title>AijProd&#45;&gt;CalcInterTerm</title>
<path fill="none" stroke="midnightblue" d="M270,-85C280.371,-85 293.026,-85 305.298,-85"/>
<polygon fill="midnightblue" stroke="midnightblue" points="305.458,-88.5001 315.458,-85 305.458,-81.5001 305.458,-88.5001"/>
</g>
<!-- cisi -->
<g id="node10" class="node"><title>cisi</title>
<polygon fill="none" stroke="black" points="498,-98.5 466,-98.5 466,-79.5 498,-79.5 498,-98.5"/>
<text text-anchor="middle" x="482" y="-86.5" font-family="Helvetica,sans-Serif" font-size="10.00">cisi</text>
</g>
<!-- propaespacelibreintadda_ -->
<g id="node11" class="node"><title>propaespacelibreintadda_</title>
<polygon fill="none" stroke="black" points="545.5,-35.5 418.5,-35.5 418.5,-16.5 545.5,-16.5 545.5,-35.5"/>
<text text-anchor="middle" x="482" y="-23.5" font-family="Helvetica,sans-Serif" font-size="10.00">propaespacelibreintadda_</text>
</g>
<!-- CalcInterTerm&#45;&gt;cisi -->
<g id="edge12" class="edge"><title>CalcInterTerm&#45;&gt;cisi</title>
<path fill="none" stroke="midnightblue" d="M392.804,-86.2001C413.19,-86.8473 437.79,-87.6282 455.824,-88.2008"/>
<polygon fill="midnightblue" stroke="midnightblue" points="455.748,-91.7 465.854,-88.5192 455.97,-84.7035 455.748,-91.7"/>
</g>
<!-- CalcInterTerm&#45;&gt;propaespacelibreintadda_ -->
<g id="edge14" class="edge"><title>CalcInterTerm&#45;&gt;propaespacelibreintadda_</title>
<path fill="none" stroke="midnightblue" d="M374.965,-75.6513C395.701,-65.9415 428.353,-50.6524 451.947,-39.6043"/>
<polygon fill="midnightblue" stroke="midnightblue" points="453.556,-42.7154 461.128,-35.305 450.588,-36.376 453.556,-42.7154"/>
</g>
</g>
</svg>
