<?xml version="1.0" encoding="UTF-8" standalone="no"?>
<!DOCTYPE svg PUBLIC "-//W3C//DTD SVG 1.1//EN"
 "http://www.w3.org/Graphics/SVG/1.1/DTD/svg11.dtd">
<!-- Generated by graphviz version 2.30.1 (20130214.1330)
 -->
<!-- Title: calc Pages: 1 -->
<svg width="828pt" height="265pt"
 viewBox="0.00 0.00 828.00 265.00" xmlns="http://www.w3.org/2000/svg" xmlns:xlink="http://www.w3.org/1999/xlink">
<g id="graph0" class="graph" transform="scale(1 1) rotate(0) translate(4 261)">
<title>calc</title>
<polygon fill="white" stroke="white" points="-4,5 -4,-261 825,-261 825,5 -4,5"/>
<g id="clust3" class="cluster"><title>cluster_calcE</title>
<polygon fill="none" stroke="black" points="363,-91 363,-166 812,-166 812,-91 363,-91"/>
<text text-anchor="middle" x="587.5" y="-150.8" font-family="Helvetica,sans-Serif" font-size="14.00">CalculateE.c</text>
</g>
<g id="clust4" class="cluster"><title>cluster_romberg</title>
<polygon fill="none" stroke="black" points="669,-8 669,-83 781,-83 781,-8 669,-8"/>
<text text-anchor="middle" x="725" y="-67.8" font-family="Helvetica,sans-Serif" font-size="14.00">Romberg.c</text>
</g>
<g id="clust1" class="cluster"><title>cluster_calc</title>
<polygon fill="none" stroke="black" points="8,-174 8,-249 482,-249 482,-174 8,-174"/>
<text text-anchor="middle" x="245" y="-233.8" font-family="Helvetica,sans-Serif" font-size="14.00">calculator.c</text>
</g>
<g id="clust2" class="cluster"><title>cluster_cs</title>
<polygon fill="none" stroke="black" points="222,-91 222,-166 326,-166 326,-91 222,-91"/>
<text text-anchor="middle" x="274" y="-150.8" font-family="Helvetica,sans-Serif" font-size="14.00">crosssec.c</text>
</g>
<!-- calculate_one_orientation -->
<g id="node1" class="node"><title>calculate_one_orientation</title>
<polygon fill="gold" stroke="gold" points="194,-218 16,-218 16,-182 194,-182 194,-218"/>
<text text-anchor="middle" x="105" y="-196.3" font-family="Helvetica,sans-Serif" font-size="14.00">calculate_one_orientation</text>
</g>
<!-- InitCC -->
<g id="node2" class="node"><title>InitCC</title>
<polygon fill="none" stroke="black" points="302,-218 246,-218 246,-182 302,-182 302,-218"/>
<text text-anchor="middle" x="274" y="-196.3" font-family="Helvetica,sans-Serif" font-size="14.00">InitCC</text>
</g>
<!-- calculate_one_orientation&#45;&gt;InitCC -->
<g id="edge3" class="edge"><title>calculate_one_orientation&#45;&gt;InitCC</title>
<path fill="none" stroke="red" stroke-width="2" d="M194.39,-200C208.913,-200 223.238,-200 235.6,-200"/>
<polygon fill="red" stroke="red" points="235.913,-203.5 245.913,-200 235.913,-196.5 235.913,-203.5"/>
</g>
<!-- InitRotation -->
<g id="node4" class="node"><title>InitRotation</title>
<polygon fill="none" stroke="black" points="318,-135 230,-135 230,-99 318,-99 318,-135"/>
<text text-anchor="middle" x="274" y="-113.3" font-family="Helvetica,sans-Serif" font-size="14.00">InitRotation</text>
</g>
<!-- calculate_one_orientation&#45;&gt;InitRotation -->
<g id="edge6" class="edge"><title>calculate_one_orientation&#45;&gt;InitRotation</title>
<path fill="none" stroke="red" stroke-dasharray="5,2" d="M142.237,-181.99C167.208,-169.579 200.588,-152.989 227.372,-139.677"/>
<polygon fill="red" stroke="red" points="229.149,-142.703 236.546,-135.118 226.033,-136.434 229.149,-142.703"/>
</g>
<!-- CoupleConstant -->
<g id="node3" class="node"><title>CoupleConstant</title>
<polygon fill="none" stroke="black" points="473.5,-218 354.5,-218 354.5,-182 473.5,-182 473.5,-218"/>
<text text-anchor="middle" x="414" y="-196.3" font-family="Helvetica,sans-Serif" font-size="14.00">CoupleConstant</text>
</g>
<!-- InitCC&#45;&gt;CoupleConstant -->
<g id="edge1" class="edge"><title>InitCC&#45;&gt;CoupleConstant</title>
<path fill="none" stroke="midnightblue" d="M302.264,-200C314.39,-200 329.271,-200 344.143,-200"/>
<polygon fill="midnightblue" stroke="midnightblue" points="344.404,-203.5 354.404,-200 344.404,-196.5 344.404,-203.5"/>
</g>
<!-- CalculateE -->
<g id="node5" class="node"><title>CalculateE</title>
<polygon fill="cyan" stroke="cyan" points="456.5,-135 371.5,-135 371.5,-99 456.5,-99 456.5,-135"/>
<text text-anchor="middle" x="414" y="-113.3" font-family="Helvetica,sans-Serif" font-size="14.00">CalculateE</text>
</g>
<!-- InitCC&#45;&gt;CalculateE -->
<g id="edge4" class="edge"><title>InitCC&#45;&gt;CalculateE</title>
<path fill="none" stroke="red" stroke-width="2" d="M302.043,-184.197C309.794,-179.639 318.244,-174.643 326,-170 342.11,-160.355 359.821,-149.595 375.033,-140.303"/>
<polygon fill="red" stroke="red" points="376.965,-143.225 383.671,-135.022 373.314,-137.253 376.965,-143.225"/>
</g>
<!-- InitRotation&#45;&gt;InitCC -->
<g id="edge7" class="edge"><title>InitRotation&#45;&gt;InitCC</title>
<path fill="none" stroke="red" stroke-dasharray="5,2" d="M274,-135.156C274,-147.293 274,-159.43 274,-171.568"/>
<polygon fill="red" stroke="red" points="270.5,-171.763 274,-181.763 277.5,-171.763 270.5,-171.763"/>
</g>
<!-- MuellerMatrix -->
<g id="node6" class="node"><title>MuellerMatrix</title>
<polygon fill="none" stroke="black" points="609.5,-135 510.5,-135 510.5,-99 609.5,-99 609.5,-135"/>
<text text-anchor="middle" x="560" y="-113.3" font-family="Helvetica,sans-Serif" font-size="14.00">MuellerMatrix</text>
</g>
<!-- CalculateE&#45;&gt;MuellerMatrix -->
<g id="edge5" class="edge"><title>CalculateE&#45;&gt;MuellerMatrix</title>
<path fill="none" stroke="red" stroke-width="2" d="M456.651,-117C470.153,-117 485.397,-117 499.917,-117"/>
<polygon fill="red" stroke="red" points="500.327,-120.5 510.327,-117 500.327,-113.5 500.327,-120.5"/>
</g>
<!-- ComputeMuellerMatrix -->
<g id="node7" class="node"><title>ComputeMuellerMatrix</title>
<polygon fill="none" stroke="black" points="804,-135 646,-135 646,-99 804,-99 804,-135"/>
<text text-anchor="middle" x="725" y="-113.3" font-family="Helvetica,sans-Serif" font-size="14.00">ComputeMuellerMatrix</text>
</g>
<!-- MuellerMatrix&#45;&gt;ComputeMuellerMatrix -->
<g id="edge2" class="edge"><title>MuellerMatrix&#45;&gt;ComputeMuellerMatrix</title>
<path fill="none" stroke="midnightblue" d="M609.905,-117C618.149,-117 626.926,-117 635.81,-117"/>
<polygon fill="midnightblue" stroke="midnightblue" points="635.862,-120.5 645.862,-117 635.862,-113.5 635.862,-120.5"/>
</g>
<!-- Romberg1D -->
<g id="node8" class="node"><title>Romberg1D</title>
<polygon fill="none" stroke="black" points="772.5,-52 677.5,-52 677.5,-16 772.5,-16 772.5,-52"/>
<text text-anchor="middle" x="725" y="-30.3" font-family="Helvetica,sans-Serif" font-size="14.00">Romberg1D</text>
</g>
<!-- MuellerMatrix&#45;&gt;Romberg1D -->
<g id="edge8" class="edge"><title>MuellerMatrix&#45;&gt;Romberg1D</title>
<path fill="none" stroke="red" stroke-dasharray="5,2" d="M596.369,-98.9902C620.742,-86.5793 653.323,-69.9891 679.465,-56.6773"/>
<polygon fill="red" stroke="red" points="681.096,-59.7744 688.419,-52.1177 677.92,-53.5365 681.096,-59.7744"/>
</g>
</g>
</svg>
