<?xml version="1.0" encoding="UTF-8" standalone="no"?>
<!DOCTYPE svg PUBLIC "-//W3C//DTD SVG 1.1//EN"
 "http://www.w3.org/Graphics/SVG/1.1/DTD/svg11.dtd">
<!-- Generated by graphviz version 2.30.1 (20130214.1330)
 -->
<!-- Title: oneori Pages: 1 -->
<svg width="610pt" height="205pt"
 viewBox="0.00 0.00 610.00 205.00" xmlns="http://www.w3.org/2000/svg" xmlns:xlink="http://www.w3.org/1999/xlink">
<g id="graph0" class="graph" transform="scale(1 1) rotate(0) translate(4 201)">
<title>oneori</title>
<polygon fill="white" stroke="white" points="-4,5 -4,-201 607,-201 607,5 -4,5"/>
<g id="clust3" class="cluster"><title>cluster_calcE</title>
<polygon fill="none" stroke="black" points="263,-71 263,-126 594,-126 594,-71 263,-71"/>
<text text-anchor="middle" x="428.5" y="-114" font-family="Helvetica,sans-Serif" font-size="10.00">CalculateE.c</text>
</g>
<g id="clust4" class="cluster"><title>cluster_romberg</title>
<polygon fill="none" stroke="black" points="487,-8 487,-63 571,-63 571,-8 487,-8"/>
<text text-anchor="middle" x="529" y="-51" font-family="Helvetica,sans-Serif" font-size="10.00">Romberg.c</text>
</g>
<g id="clust1" class="cluster"><title>cluster_calc</title>
<polygon fill="none" stroke="black" points="8,-134 8,-189 354,-189 354,-134 8,-134"/>
<text text-anchor="middle" x="181" y="-177" font-family="Helvetica,sans-Serif" font-size="10.00">calculator.c</text>
</g>
<g id="clust2" class="cluster"><title>cluster_cs</title>
<polygon fill="none" stroke="black" points="161,-71 161,-126 243,-126 243,-71 161,-71"/>
<text text-anchor="middle" x="202" y="-114" font-family="Helvetica,sans-Serif" font-size="10.00">crosssec.c</text>
</g>
<!-- calculate_one_orientation -->
<g id="node1" class="node"><title>calculate_one_orientation</title>
<polygon fill="gold" stroke="gold" points="143.5,-161.5 16.5,-161.5 16.5,-142.5 143.5,-142.5 143.5,-161.5"/>
<text text-anchor="middle" x="80" y="-149.5" font-family="Helvetica,sans-Serif" font-size="10.00">calculate_one_orientation</text>
</g>
<!-- InitCC -->
<g id="node2" class="node"><title>InitCC</title>
<polygon fill="none" stroke="black" points="223.5,-161.5 180.5,-161.5 180.5,-142.5 223.5,-142.5 223.5,-161.5"/>
<text text-anchor="middle" x="202" y="-149.5" font-family="Helvetica,sans-Serif" font-size="10.00">InitCC</text>
</g>
<!-- calculate_one_orientation&#45;&gt;InitCC -->
<g id="edge3" class="edge"><title>calculate_one_orientation&#45;&gt;InitCC</title>
<path fill="none" stroke="red" stroke-width="2" d="M143.812,-152C153.038,-152 162.176,-152 170.349,-152"/>
<polygon fill="red" stroke="red" points="170.465,-155.5 180.465,-152 170.465,-148.5 170.465,-155.5"/>
</g>
<!-- InitRotation -->
<g id="node4" class="node"><title>InitRotation</title>
<polygon fill="none" stroke="black" points="234.5,-98.5 169.5,-98.5 169.5,-79.5 234.5,-79.5 234.5,-98.5"/>
<text text-anchor="middle" x="202" y="-86.5" font-family="Helvetica,sans-Serif" font-size="10.00">InitRotation</text>
</g>
<!-- calculate_one_orientation&#45;&gt;InitRotation -->
<g id="edge6" class="edge"><title>calculate_one_orientation&#45;&gt;InitRotation</title>
<path fill="none" stroke="red" stroke-dasharray="5,2" d="M98.7064,-142.704C118.647,-132.235 151.268,-115.109 174.304,-103.016"/>
<polygon fill="red" stroke="red" points="175.994,-106.081 183.221,-98.334 172.74,-99.8835 175.994,-106.081"/>
</g>
<!-- CoupleConstant -->
<g id="node3" class="node"><title>CoupleConstant</title>
<polygon fill="none" stroke="black" points="346,-161.5 260,-161.5 260,-142.5 346,-142.5 346,-161.5"/>
<text text-anchor="middle" x="303" y="-149.5" font-family="Helvetica,sans-Serif" font-size="10.00">CoupleConstant</text>
</g>
<!-- InitCC&#45;&gt;CoupleConstant -->
<g id="edge1" class="edge"><title>InitCC&#45;&gt;CoupleConstant</title>
<path fill="none" stroke="midnightblue" d="M223.513,-152C231.249,-152 240.444,-152 249.768,-152"/>
<polygon fill="midnightblue" stroke="midnightblue" points="249.874,-155.5 259.874,-152 249.874,-148.5 249.874,-155.5"/>
</g>
<!-- CalculateE -->
<g id="node5" class="node"><title>CalculateE</title>
<polygon fill="cyan" stroke="cyan" points="335,-98.5 271,-98.5 271,-79.5 335,-79.5 335,-98.5"/>
<text text-anchor="middle" x="303" y="-86.5" font-family="Helvetica,sans-Serif" font-size="10.00">CalculateE</text>
</g>
<!-- InitCC&#45;&gt;CalculateE -->
<g id="edge4" class="edge"><title>InitCC&#45;&gt;CalculateE</title>
<path fill="none" stroke="red" stroke-width="2" d="M221.15,-142.537C228.08,-138.789 235.995,-134.344 243,-130 255.882,-122.012 269.827,-112.37 280.925,-104.443"/>
<polygon fill="red" stroke="red" points="283.076,-107.207 289.14,-98.5185 278.982,-101.529 283.076,-107.207"/>
</g>
<!-- InitRotation&#45;&gt;InitCC -->
<g id="edge7" class="edge"><title>InitRotation&#45;&gt;InitCC</title>
<path fill="none" stroke="red" stroke-dasharray="5,2" d="M202,-98.3516C202,-109.583 202,-120.814 202,-132.046"/>
<polygon fill="red" stroke="red" points="198.5,-132.36 202,-142.36 205.5,-132.36 198.5,-132.36"/>
</g>
<!-- MuellerMatrix -->
<g id="node6" class="node"><title>MuellerMatrix</title>
<polygon fill="none" stroke="black" points="446.5,-98.5 371.5,-98.5 371.5,-79.5 446.5,-79.5 446.5,-98.5"/>
<text text-anchor="middle" x="409" y="-86.5" font-family="Helvetica,sans-Serif" font-size="10.00">MuellerMatrix</text>
</g>
<!-- CalculateE&#45;&gt;MuellerMatrix -->
<g id="edge5" class="edge"><title>CalculateE&#45;&gt;MuellerMatrix</title>
<path fill="none" stroke="red" stroke-width="2" d="M335.203,-89C343.374,-89 352.365,-89 361.157,-89"/>
<polygon fill="red" stroke="red" points="361.327,-92.5001 371.327,-89 361.327,-85.5001 361.327,-92.5001"/>
</g>
<!-- ComputeMuellerMatrix -->
<g id="node7" class="node"><title>ComputeMuellerMatrix</title>
<polygon fill="none" stroke="black" points="586,-98.5 472,-98.5 472,-79.5 586,-79.5 586,-98.5"/>
<text text-anchor="middle" x="529" y="-86.5" font-family="Helvetica,sans-Serif" font-size="10.00">ComputeMuellerMatrix</text>
</g>
<!-- MuellerMatrix&#45;&gt;ComputeMuellerMatrix -->
<g id="edge2" class="edge"><title>MuellerMatrix&#45;&gt;ComputeMuellerMatrix</title>
<path fill="none" stroke="midnightblue" d="M446.689,-89C451.554,-89 456.656,-89 461.833,-89"/>
<polygon fill="midnightblue" stroke="midnightblue" points="461.838,-92.5001 471.838,-89 461.838,-85.5001 461.838,-92.5001"/>
</g>
<!-- Romberg1D -->
<g id="node8" class="node"><title>Romberg1D</title>
<polygon fill="none" stroke="black" points="563,-35.5 495,-35.5 495,-16.5 563,-16.5 563,-35.5"/>
<text text-anchor="middle" x="529" y="-23.5" font-family="Helvetica,sans-Serif" font-size="10.00">Romberg1D</text>
</g>
<!-- MuellerMatrix&#45;&gt;Romberg1D -->
<g id="edge8" class="edge"><title>MuellerMatrix&#45;&gt;Romberg1D</title>
<path fill="none" stroke="red" stroke-dasharray="5,2" d="M427.411,-79.7041C446.932,-69.2818 478.812,-52.2612 501.446,-40.1771"/>
<polygon fill="red" stroke="red" points="503.344,-43.1313 510.517,-35.334 500.047,-36.9563 503.344,-43.1313"/>
</g>
</g>
</svg>
