<?xml version="1.0" encoding="UTF-8" standalone="no"?>
<!DOCTYPE svg PUBLIC "-//W3C//DTD SVG 1.1//EN"
 "http://www.w3.org/Graphics/SVG/1.1/DTD/svg11.dtd">
<!-- Generated by graphviz version 2.30.1 (20130214.1330)
 -->
<!-- Title: oneori Pages: 1 -->
<svg width="610pt" height="253pt"
 viewBox="0.00 0.00 610.00 253.00" xmlns="http://www.w3.org/2000/svg" xmlns:xlink="http://www.w3.org/1999/xlink">
<g id="graph0" class="graph" transform="scale(1 1) rotate(0) translate(4 249)">
<title>oneori</title>
<polygon fill="white" stroke="white" points="-4,5 -4,-249 607,-249 607,5 -4,5"/>
<g id="clust3" class="cluster"><title>cluster_calcE</title>
<polygon fill="none" stroke="black" points="263,-87 263,-158 594,-158 594,-87 263,-87"/>
<text text-anchor="middle" x="428.5" y="-146" font-family="Helvetica,sans-Serif" font-size="10.00">CalculateE.c</text>
</g>
<g id="clust4" class="cluster"><title>cluster_romberg</title>
<polygon fill="none" stroke="black" points="487,-8 487,-79 571,-79 571,-8 487,-8"/>
<text text-anchor="middle" x="529" y="-67" font-family="Helvetica,sans-Serif" font-size="10.00">Romberg.c</text>
</g>
<g id="clust1" class="cluster"><title>cluster_calc</title>
<polygon fill="none" stroke="black" points="8,-166 8,-237 354,-237 354,-166 8,-166"/>
<text text-anchor="middle" x="181" y="-225" font-family="Helvetica,sans-Serif" font-size="10.00">calculator.c</text>
</g>
<g id="clust2" class="cluster"><title>cluster_cs</title>
<polygon fill="none" stroke="black" points="161,-87 161,-158 243,-158 243,-87 161,-87"/>
<text text-anchor="middle" x="202" y="-146" font-family="Helvetica,sans-Serif" font-size="10.00">crosssec.c</text>
</g>
<!-- calculate_one_orientation -->
<g id="node1" class="node"><title>calculate_one_orientation</title>
<polygon fill="gold" stroke="gold" points="143.5,-210 16.5,-210 16.5,-174 143.5,-174 143.5,-210"/>
<text text-anchor="middle" x="80" y="-189.5" font-family="Helvetica,sans-Serif" font-size="10.00">calculate_one_orientation</text>
</g>
<!-- InitCC -->
<g id="node2" class="node"><title>InitCC</title>
<polygon fill="none" stroke="black" points="229,-210 175,-210 175,-174 229,-174 229,-210"/>
<text text-anchor="middle" x="202" y="-189.5" font-family="Helvetica,sans-Serif" font-size="10.00">InitCC</text>
</g>
<!-- calculate_one_orientation&#45;&gt;InitCC -->
<g id="edge3" class="edge"><title>calculate_one_orientation&#45;&gt;InitCC</title>
<path fill="none" stroke="red" stroke-width="2" d="M143.812,-192C151.031,-192 158.196,-192 164.888,-192"/>
<polygon fill="red" stroke="red" points="164.953,-195.5 174.953,-192 164.953,-188.5 164.953,-195.5"/>
</g>
<!-- InitRotation -->
<g id="node4" class="node"><title>InitRotation</title>
<polygon fill="none" stroke="black" points="234.5,-131 169.5,-131 169.5,-95 234.5,-95 234.5,-131"/>
<text text-anchor="middle" x="202" y="-110.5" font-family="Helvetica,sans-Serif" font-size="10.00">InitRotation</text>
</g>
<!-- calculate_one_orientation&#45;&gt;InitRotation -->
<g id="edge6" class="edge"><title>calculate_one_orientation&#45;&gt;InitRotation</title>
<path fill="none" stroke="red" stroke-dasharray="5,2" d="M108.53,-173.876C125.3,-162.836 146.911,-148.609 165.024,-136.684"/>
<polygon fill="red" stroke="red" points="167.17,-139.462 173.598,-131.04 163.321,-133.615 167.17,-139.462"/>
</g>
<!-- CoupleConstant -->
<g id="node3" class="node"><title>CoupleConstant</title>
<polygon fill="none" stroke="black" points="346,-210 260,-210 260,-174 346,-174 346,-210"/>
<text text-anchor="middle" x="303" y="-189.5" font-family="Helvetica,sans-Serif" font-size="10.00">CoupleConstant</text>
</g>
<!-- InitCC&#45;&gt;CoupleConstant -->
<g id="edge1" class="edge"><title>InitCC&#45;&gt;CoupleConstant</title>
<path fill="none" stroke="midnightblue" d="M229.011,-192C235.324,-192 242.3,-192 249.361,-192"/>
<polygon fill="midnightblue" stroke="midnightblue" points="249.701,-195.5 259.701,-192 249.701,-188.5 249.701,-195.5"/>
</g>
<!-- CalculateE -->
<g id="node5" class="node"><title>CalculateE</title>
<polygon fill="cyan" stroke="cyan" points="335,-131 271,-131 271,-95 335,-95 335,-131"/>
<text text-anchor="middle" x="303" y="-110.5" font-family="Helvetica,sans-Serif" font-size="10.00">CalculateE</text>
</g>
<!-- InitCC&#45;&gt;CalculateE -->
<g id="edge4" class="edge"><title>InitCC&#45;&gt;CalculateE</title>
<path fill="none" stroke="red" stroke-width="2" d="M227.685,-173.786C232.784,-169.94 238.094,-165.873 243,-162 252.78,-154.279 263.295,-145.654 272.699,-137.819"/>
<polygon fill="red" stroke="red" points="275.21,-140.282 280.632,-131.179 270.717,-134.914 275.21,-140.282"/>
</g>
<!-- InitRotation&#45;&gt;InitCC -->
<g id="edge7" class="edge"><title>InitRotation&#45;&gt;InitCC</title>
<path fill="none" stroke="red" stroke-dasharray="5,2" d="M202,-131.207C202,-142.116 202,-153.025 202,-163.934"/>
<polygon fill="red" stroke="red" points="198.5,-163.952 202,-173.952 205.5,-163.952 198.5,-163.952"/>
</g>
<!-- MuellerMatrix -->
<g id="node6" class="node"><title>MuellerMatrix</title>
<polygon fill="none" stroke="black" points="446.5,-131 371.5,-131 371.5,-95 446.5,-95 446.5,-131"/>
<text text-anchor="middle" x="409" y="-110.5" font-family="Helvetica,sans-Serif" font-size="10.00">MuellerMatrix</text>
</g>
<!-- CalculateE&#45;&gt;MuellerMatrix -->
<g id="edge5" class="edge"><title>CalculateE&#45;&gt;MuellerMatrix</title>
<path fill="none" stroke="red" stroke-width="2" d="M335.203,-113C343.374,-113 352.365,-113 361.157,-113"/>
<polygon fill="red" stroke="red" points="361.327,-116.5 371.327,-113 361.327,-109.5 361.327,-116.5"/>
</g>
<!-- ComputeMuellerMatrix -->
<g id="node7" class="node"><title>ComputeMuellerMatrix</title>
<polygon fill="none" stroke="black" points="586,-131 472,-131 472,-95 586,-95 586,-131"/>
<text text-anchor="middle" x="529" y="-110.5" font-family="Helvetica,sans-Serif" font-size="10.00">ComputeMuellerMatrix</text>
</g>
<!-- MuellerMatrix&#45;&gt;ComputeMuellerMatrix -->
<g id="edge2" class="edge"><title>MuellerMatrix&#45;&gt;ComputeMuellerMatrix</title>
<path fill="none" stroke="midnightblue" d="M446.689,-113C451.554,-113 456.656,-113 461.833,-113"/>
<polygon fill="midnightblue" stroke="midnightblue" points="461.838,-116.5 471.838,-113 461.838,-109.5 461.838,-116.5"/>
</g>
<!-- Romberg1D -->
<g id="node8" class="node"><title>Romberg1D</title>
<polygon fill="none" stroke="black" points="563,-52 495,-52 495,-16 563,-16 563,-52"/>
<text text-anchor="middle" x="529" y="-31.5" font-family="Helvetica,sans-Serif" font-size="10.00">Romberg1D</text>
</g>
<!-- MuellerMatrix&#45;&gt;Romberg1D -->
<g id="edge8" class="edge"><title>MuellerMatrix&#45;&gt;Romberg1D</title>
<path fill="none" stroke="red" stroke-dasharray="5,2" d="M437.072,-94.8758C453.561,-83.8361 474.812,-69.6087 492.623,-57.6845"/>
<polygon fill="red" stroke="red" points="494.692,-60.5115 501.054,-52.0399 490.798,-54.6948 494.692,-60.5115"/>
</g>
</g>
</svg>
