<?xml version="1.0" encoding="UTF-8" standalone="no"?>
<!-- Created with Inkscape (http://www.inkscape.org/) -->

<svg
   xmlns:dc="http://purl.org/dc/elements/1.1/"
   xmlns:cc="http://creativecommons.org/ns#"
   xmlns:rdf="http://www.w3.org/1999/02/22-rdf-syntax-ns#"
   xmlns:svg="http://www.w3.org/2000/svg"
   xmlns="http://www.w3.org/2000/svg"
   version="1.1"
   width="400"
   height="305.13361"
   id="svg2"
   xml:space="preserve"><metadata
     id="metadata8"><rdf:RDF><cc:Work
         rdf:about=""><dc:format>image/svg+xml</dc:format><dc:type
           rdf:resource="http://purl.org/dc/dcmitype/StillImage" /><dc:title></dc:title></cc:Work></rdf:RDF></metadata><defs
     id="defs6"><clipPath
       id="clipPath16"><path
         d="m 43.57,16.07 782.16,0 0,557.38 -782.16,0 0,-557.38 z"
         id="path18" /></clipPath><clipPath
       id="clipPath426"><path
         d="m 99.02,571.98 705.4,0 0,-498.37 -705.4,0 0,498.37 z"
         id="path428" /></clipPath><clipPath
       id="clipPath444"><path
         d="m 99.02,571.98 705.4,0 0,-498.37 -705.4,0 0,498.37 z"
         id="path446" /></clipPath></defs><g
     transform="matrix(1.3580303,0,0,-1.3580303,-113.15006,509.00798)"
     id="g3954"><g
       transform="translate(-32.611111,-4.529321)"
       id="g4055"><text
   x="115.93036"
   y="-379.34274"
   transform="scale(1,-1)"
   id="text3545"
   xml:space="preserve"
   style="font-size:10.9804945px;font-style:normal;font-weight:normal;text-align:start;text-anchor:start;fill:#000000;font-family:Calibri"> </text>

<path
   d="m 156.93616,372.51971 0,0 244.60806,0 0,-191.59488 -244.60806,0 0,191.59488 z"
   id="path3551"
   style="fill:#ffffff;fill-opacity:1;fill-rule:nonzero;stroke:none" /><path
   d="m 156.93616,180.92483 0,0 0,191.59488 244.60806,0 0,-191.59488 -244.60806,0 z"
   id="path3553"
   style="fill:none;stroke:#ffffff;stroke-width:0.31705517px;stroke-linecap:butt;stroke-linejoin:round;stroke-opacity:1;stroke-dasharray:none" /><path
   d="m 256.55941,266.58198 0.90586,7.02044 -2.71759,98.91729 48.93218,-42.62353 0,-66.03179 z"
   id="path3555"
   style="fill:#808080;fill-opacity:1;fill-rule:evenodd;stroke:none" /><path
   d="m 156.93616,181.01035 c 0,35.37587 0,70.99193 0,106.3678 l 24.41325,0 24.51893,-21.31176 24.41324,-21.25902 24.4661,-8.49305 24.51893,-8.54581 24.41325,-8.54581 24.46608,-8.49306 24.73352,-8.49305 48.34449,0.16014 0.16013,-21.30632 z"
   id="path3557"
   style="fill:#d4d0c8;fill-opacity:1;fill-rule:evenodd;stroke:none" /><path
   d="m 156.93616,287.37815 0,0 0,85.14156 97.81152,0 24.51893,-42.62353 24.41325,-42.51803 24.46608,-10.65588 24.41325,-10.65588 24.51894,-10.65589 24.46609,-10.60313 0,-42.57078 -48.98503,0 -24.41325,8.49305 -24.46608,8.49306 -24.41325,8.54581 -24.51893,8.54581 -24.4661,8.49305 -24.41324,21.25902 -24.51893,21.31176 -24.41325,0 z"
   id="path3559"
   style="fill:#808080;fill-opacity:1;fill-rule:evenodd;stroke:none" /><path
   d="m 198.52323,219.69747 0,0 c 0.47558,0 0.84548,0.0527 1.16254,0.15825 0.52842,0.15826 0.95116,0.52752 1.26821,1.00229 0.26422,0.42202 0.47559,0.94954 0.58128,1.58255 0.10568,0.36927 0.10568,0.73853 0.10568,1.05504 0,1.26605 -0.21137,2.21559 -0.7398,2.90136 -0.47558,0.68577 -1.26822,1.05504 -2.37791,1.05504 l -2.43076,0 0,-7.75453 2.43076,0 z m -3.80466,8.91507 0,0 4.06887,0 c 1.3739,0 2.4836,-0.47477 3.22339,-1.47706 0.68696,-0.89677 1.05686,-2.00456 1.05686,-3.42887 0,-1.05504 -0.21138,-2.00457 -0.63411,-2.8486 -0.68696,-1.52981 -1.90233,-2.32109 -3.64614,-2.32109 l -4.06887,0 0,10.07562 z"
   id="path3561"
   style="fill:#000000;fill-opacity:1;fill-rule:evenodd;stroke:none" /><path
   d="m 208.72184,219.69747 0,0 c 0.42274,0 0.79263,0.0527 1.10969,0.15825 0.52842,0.15826 0.95117,0.52752 1.32106,1.00229 0.26422,0.42202 0.47559,0.94954 0.58127,1.58255 0.0529,0.36927 0.10568,0.73853 0.10568,1.05504 0,1.26605 -0.2642,2.21559 -0.73979,2.90136 -0.52842,0.68577 -1.32106,1.05504 -2.43076,1.05504 l -2.43075,0 0,-7.75453 2.4836,0 z m -3.85751,8.91507 0,0 4.12172,0 c 1.3739,0 2.43076,-0.47477 3.22339,-1.47706 0.68695,-0.89677 1.00401,-2.00456 1.00401,-3.42887 0,-1.05504 -0.21137,-2.00457 -0.58127,-2.8486 -0.7398,-1.52981 -1.95517,-2.32109 -3.69897,-2.32109 l -4.06888,0 0,10.07562 z"
   id="path3563"
   style="fill:#000000;fill-opacity:1;fill-rule:evenodd;stroke:none" /><path
   d="m 220.18866,222.65157 0,0 -1.53243,4.48391 -1.63812,-4.48391 3.17055,0 z m -2.27222,5.96097 0,0 1.58527,0 3.64614,-10.07562 -1.53243,0 -1.00401,3.00687 -3.96319,0 -1.1097,-3.00687 -1.42674,0 3.80466,10.07562 z m 0.73979,0 0,0 0,0 z"
   id="path3565"
   style="fill:#000000;fill-opacity:1;fill-rule:evenodd;stroke:none" /><path
   d="m 214.37598,313.70135 0,0 4.54447,0 c 0.89832,0 1.63811,-0.26376 2.16653,-0.73853 0.58128,-0.52752 0.84549,-1.21329 0.84549,-2.11008 0,-0.79127 -0.26421,-1.47705 -0.7398,-2.05732 -0.47558,-0.58027 -1.26821,-0.89678 -2.27222,-0.89678 l -3.17055,0 0,-4.27291 -1.37392,0 0,10.07562 z m 6.18258,-2.90136 0,0 c 0,0.79128 -0.26421,1.26605 -0.84548,1.52981 -0.31706,0.15825 -0.68695,0.211 -1.21538,0.211 l -2.7478,0 0,-3.48162 2.7478,0 c 0.58127,0 1.1097,0.1055 1.4796,0.36926 0.36989,0.26376 0.58126,0.73853 0.58126,1.37155 l 0,0 z"
   id="path3567"
   style="fill:#000000;fill-opacity:1;fill-rule:evenodd;stroke:none" /><path
   d="m 224.57459,306.89636 0,0 c 0,-0.58028 0.15853,-1.05504 0.36991,-1.37156 0.47557,-0.68577 1.26821,-1.00228 2.43075,-1.00228 0.47558,0 0.95117,0.0527 1.3739,0.211 0.84548,0.26376 1.21539,0.79128 1.21539,1.52981 0,0.52752 -0.15853,0.94953 -0.47559,1.16054 -0.3699,0.21101 -0.89833,0.42201 -1.63812,0.58027 l -1.3739,0.31651 c -0.89833,0.21101 -1.53243,0.42202 -1.90234,0.68578 -0.6341,0.42201 -0.95116,1.05504 -0.95116,1.84631 0,0.94954 0.31706,1.68806 0.95116,2.26834 0.58127,0.58027 1.47959,0.84403 2.64213,0.84403 1.05685,0 1.95518,-0.26376 2.69497,-0.73853 0.7398,-0.52752 1.10969,-1.3188 1.10969,-2.47934 l -1.26822,0 c -0.10568,0.58027 -0.26421,0.94953 -0.47558,1.26605 -0.42274,0.52751 -1.10969,0.79127 -2.1137,0.79127 -0.79264,0 -1.3739,-0.15825 -1.74381,-0.52751 -0.31705,-0.31652 -0.52842,-0.73853 -0.52842,-1.16055 0,-0.52752 0.21137,-0.84403 0.63411,-1.10779 0.26422,-0.1055 0.89832,-0.31651 1.84949,-0.52751 l 1.3739,-0.31652 c 0.68695,-0.15825 1.21539,-0.36926 1.58528,-0.63302 0.63411,-0.47477 0.95116,-1.16054 0.95116,-2.05732 0,-1.10779 -0.36989,-1.89907 -1.21537,-2.37384 -0.79264,-0.52752 -1.7438,-0.73853 -2.80066,-0.73853 -1.26822,0 -2.21938,0.31651 -2.95918,0.94954 -0.68695,0.63302 -1.05685,1.47705 -1.05685,2.58485 l 1.32106,0 z m 2.74782,7.06875 0,0 0,0 z"
   id="path3569"
   style="fill:#000000;fill-opacity:1;fill-rule:evenodd;stroke:none" /><path
   d="m 240.37451,313.70135 0,0 0,-1.16055 -3.38192,0 0,-8.91507 -1.37391,0 0,8.91507 -3.38192,0 0,1.16055 8.13775,0 z"
   id="path3571"
   style="fill:#000000;fill-opacity:1;fill-rule:evenodd;stroke:none" /><path
   d="m 245.55308,304.83903 0,0 c 0.47558,0 0.84548,0 1.10969,0.1055 0.52842,0.21101 1.00401,0.52752 1.32106,1.05504 0.26422,0.36927 0.47559,0.89679 0.58127,1.5298 0.0528,0.42202 0.10568,0.73853 0.10568,1.05504 0,1.26605 -0.2642,2.21558 -0.73979,2.90136 -0.47558,0.73852 -1.32106,1.05503 -2.37791,1.05503 l -2.43076,0 0,-7.70177 2.43076,0 z m -3.80466,8.86232 0,0 4.06887,0 c 1.3739,0 2.4836,-0.47477 3.2234,-1.47706 0.68695,-0.84403 1.00401,-2.00457 1.00401,-3.37612 0,-1.05504 -0.15853,-2.05732 -0.58128,-2.90135 -0.68695,-1.52981 -1.95517,-2.32109 -3.64613,-2.32109 l -4.06887,0 0,10.07562 z"
   id="path3573"
   style="fill:#000000;fill-opacity:1;fill-rule:evenodd;stroke:none" /><path
   d="m 239.00061,158.82178 0,0 c 0,-0.31651 0.10568,-0.58027 0.21137,-0.73853 0.2642,-0.31651 0.68695,-0.47476 1.32106,-0.47476 0.3699,0 0.68695,0.1055 0.95116,0.26375 0.31706,0.15826 0.42274,0.36927 0.42274,0.73853 0,0.21101 -0.10568,0.42202 -0.31705,0.52752 -0.15853,0.10551 -0.42275,0.21101 -0.84548,0.31651 l -0.79264,0.21101 c -0.47559,0.10551 -0.89832,0.26376 -1.10969,0.36927 -0.42274,0.26376 -0.63411,0.63302 -0.63411,1.10779 0,0.58026 0.21137,1.00228 0.58126,1.37154 0.42275,0.36927 0.95117,0.52752 1.63812,0.52752 0.89832,0 1.53243,-0.26376 1.90233,-0.79128 0.26422,-0.31651 0.3699,-0.68577 0.3699,-1.05503 l -0.95116,0 c 0,0.21101 -0.10569,0.42202 -0.21137,0.58026 -0.21138,0.26376 -0.63411,0.42202 -1.21539,0.42202 -0.36989,0 -0.6341,-0.1055 -0.84548,-0.21101 -0.15852,-0.15825 -0.2642,-0.36925 -0.2642,-0.58026 0,-0.26376 0.10568,-0.47477 0.36989,-0.63303 0.15853,-0.0527 0.3699,-0.15825 0.63411,-0.211 l 0.68696,-0.15826 c 0.68695,-0.15826 1.16253,-0.36926 1.42674,-0.52752 0.3699,-0.21101 0.58127,-0.63302 0.58127,-1.16054 0,-0.52752 -0.21137,-1.00229 -0.63411,-1.37155 -0.3699,-0.36926 -1.00401,-0.58027 -1.79665,-0.58027 -0.84548,0 -1.47958,0.21101 -1.84949,0.63302 -0.36989,0.36926 -0.58126,0.84403 -0.58126,1.4243 l 0.95117,0 z m 1.42674,4.22015 0,0 0,0 z"
   id="path3575"
   style="fill:#000000;fill-opacity:1;fill-rule:evenodd;stroke:none" /><path
   d="m 244.02065,162.83092 0,0 1.00401,0 0,-5.85545 -1.00401,0 0,5.85545 z m 0,2.21559 0,0 1.00401,0 0,-1.10779 -1.00401,0 0,1.10779 z"
   id="path3577"
   style="fill:#000000;fill-opacity:1;fill-rule:evenodd;stroke:none" /><path
   d="m 246.0815,157.76674 0,0 3.48761,4.22015 -3.2234,0 0,0.89679 4.59731,0 0,-0.79128 -3.48761,-4.22016 3.59329,0 0,-0.89677 -4.9672,0 0,0.79127 z m 2.58928,5.27519 0,0 0,0 z"
   id="path3579"
   style="fill:#000000;fill-opacity:1;fill-rule:evenodd;stroke:none" /><path
   d="m 254.64199,162.98918 0,0 c 0.42275,0 0.79264,-0.0527 1.21538,-0.26376 0.36989,-0.21101 0.68695,-0.47477 0.89833,-0.79128 0.15852,-0.26375 0.31705,-0.63302 0.36989,-1.00228 0.0528,-0.26376 0.10568,-0.73853 0.10568,-1.3188 l -4.33308,0 c 0.0528,-0.58027 0.15853,-1.05504 0.42274,-1.4243 0.26421,-0.36927 0.68695,-0.52752 1.21537,-0.52752 0.52844,0 0.95117,0.15825 1.26823,0.47476 0.15853,0.21101 0.26421,0.47477 0.36989,0.68578 l 0.95117,0 c 0,-0.21101 -0.10569,-0.42202 -0.26421,-0.68578 -0.10568,-0.26376 -0.26421,-0.47476 -0.47559,-0.68576 -0.26421,-0.26376 -0.6341,-0.47477 -1.10969,-0.58028 -0.21136,-0.0527 -0.47558,-0.0527 -0.79264,-0.0527 -0.73979,0 -1.3739,0.26376 -1.84948,0.79128 -0.52843,0.52752 -0.79264,1.26604 -0.79264,2.21558 0,0.94954 0.26421,1.68806 0.79264,2.32108 0.47558,0.58027 1.16253,0.84403 2.00801,0.84403 l 0,0 z m 1.58527,-2.58484 0,0 c -0.0528,0.42202 -0.15852,0.79128 -0.31704,1.05504 -0.26422,0.47476 -0.68696,0.68577 -1.32107,0.68577 -0.47558,0 -0.84548,-0.15826 -1.16253,-0.47476 -0.31706,-0.31651 -0.47559,-0.73853 -0.47559,-1.26605 l 3.27623,0 z m -1.69096,2.63759 0,0 0,0 z"
   id="path3581"
   style="fill:#000000;fill-opacity:1;fill-rule:evenodd;stroke:none" /><path
   d="m 264.04796,157.66124 0,0 c 0.47558,0 0.84548,0.211 1.16254,0.58027 0.31705,0.36926 0.47558,0.94953 0.47558,1.74081 0,0.47477 -0.10569,0.84404 -0.21137,1.2133 -0.26421,0.63302 -0.7398,0.94953 -1.42675,0.94953 -0.68695,0 -1.16254,-0.31651 -1.3739,-1.00228 -0.15853,-0.36927 -0.21137,-0.84403 -0.21137,-1.42431 0,-0.42201 0.0528,-0.84403 0.21137,-1.16054 0.26421,-0.58027 0.68695,-0.89678 1.3739,-0.89678 l 0,0 z m -2.53644,5.16968 0,0 0.95117,0 0,-0.73852 c 0.21137,0.26376 0.42273,0.47476 0.63411,0.58027 0.3699,0.26376 0.73979,0.36926 1.21538,0.36926 0.63411,0 1.21537,-0.26376 1.69096,-0.79128 0.42273,-0.52752 0.68695,-1.21329 0.68695,-2.16282 0,-1.3188 -0.31706,-2.21559 -1.00401,-2.7431 -0.42274,-0.36926 -0.95117,-0.52752 -1.47959,-0.52752 -0.47559,0 -0.84548,0.10551 -1.10969,0.26376 -0.21138,0.10551 -0.3699,0.31651 -0.58127,0.58027 l 0,-3.00686 -1.00401,0 0,8.17654 z"
   id="path3583"
   style="fill:#000000;fill-opacity:1;fill-rule:evenodd;stroke:none" /><path
   d="m 268.59242,158.55802 0,0 c 0,-0.26376 0.10568,-0.52752 0.31705,-0.68578 0.21138,-0.15825 0.47559,-0.211 0.7398,-0.211 0.3699,0 0.68695,0.0527 1.00401,0.211 0.58126,0.26376 0.84548,0.73853 0.84548,1.3188 l 0,0.79128 c -0.10569,-0.0527 -0.26422,-0.1055 -0.47558,-0.15825 -0.21137,-0.0527 -0.3699,-0.10551 -0.52843,-0.15826 l -0.63411,-0.0527 c -0.3699,-0.0527 -0.63411,-0.1055 -0.79264,-0.21101 -0.31706,-0.211 -0.47558,-0.47476 -0.47558,-0.84403 l 0,0 z m 2.43076,2.00458 0,0 c 0.21136,0.0527 0.36989,0.1055 0.42273,0.26376 0.0529,0.1055 0.0529,0.211 0.0529,0.42201 0,0.31651 -0.10569,0.58027 -0.31705,0.68577 -0.26422,0.15826 -0.58128,0.26376 -1.05685,0.26376 -0.52843,0 -0.89833,-0.15826 -1.1097,-0.42202 -0.10569,-0.15824 -0.15853,-0.36925 -0.21137,-0.68576 l -0.95116,0 c 0.0529,0.73852 0.26421,1.21328 0.73979,1.5298 0.42274,0.26376 0.95117,0.42201 1.58528,0.42201 0.68695,0 1.21537,-0.15825 1.69096,-0.42201 0.42273,-0.26376 0.63411,-0.68578 0.63411,-1.21329 l 0,-3.37613 c 0,-0.1055 0,-0.21101 0.0529,-0.26376 0.0528,-0.0527 0.10569,-0.1055 0.26422,-0.1055 0.0528,0 0.10568,0 0.15852,0 0.0528,0 0.10568,0.0527 0.15853,0.0527 l 0,-0.73852 c -0.15853,-0.0527 -0.26421,-0.0527 -0.3699,-0.1055 -0.0529,0 -0.15853,0 -0.31706,0 -0.31705,0 -0.58126,0.1055 -0.73979,0.36926 -0.0528,0.10551 -0.10569,0.31652 -0.15853,0.52752 -0.21137,-0.26376 -0.47558,-0.47476 -0.89832,-0.68577 -0.3699,-0.15826 -0.79264,-0.26376 -1.21538,-0.26376 -0.52843,0 -1.00401,0.15825 -1.32106,0.47477 -0.3699,0.31651 -0.52843,0.73852 -0.52843,1.26604 0,0.52752 0.15853,0.94953 0.47558,1.26604 0.3699,0.26376 0.79264,0.47477 1.37391,0.52752 l 1.58528,0.21101 z m -0.84548,2.47933 0,0 0,0 z"
   id="path3585"
   style="fill:#000000;fill-opacity:1;fill-rule:evenodd;stroke:none" /><path
   d="m 274.14089,162.88368 0,0 0.95116,0 0,-1.00229 c 0.0529,0.15825 0.26421,0.42201 0.58127,0.68577 0.26421,0.31652 0.6341,0.42202 1.00401,0.42202 0.0529,0 0.0529,0 0.10568,0 0.0529,0 0.10569,0 0.21137,0 l 0,-1.05504 c -0.0529,0 -0.10568,0 -0.15852,0.0527 -0.0529,0 -0.10569,0 -0.15853,0 -0.47559,0 -0.89833,-0.15826 -1.16254,-0.47476 -0.26421,-0.36926 -0.36989,-0.73853 -0.36989,-1.10779 l 0,-3.42887 -1.00401,0 0,5.9082 z"
   id="path3587"
   style="fill:#000000;fill-opacity:1;fill-rule:evenodd;stroke:none" /><path
   d="m 278.6325,158.55802 0,0 c 0,-0.26376 0.10568,-0.52752 0.31705,-0.68578 0.21138,-0.15825 0.42275,-0.211 0.7398,-0.211 0.31706,0 0.68695,0.0527 1.00401,0.211 0.52842,0.26376 0.84548,0.73853 0.84548,1.3188 l 0,0.79128 c -0.15853,-0.0527 -0.31706,-0.1055 -0.47558,-0.15825 -0.21137,-0.0527 -0.3699,-0.10551 -0.58128,-0.15826 l -0.58126,-0.0527 c -0.3699,-0.0527 -0.63411,-0.1055 -0.79264,-0.21101 -0.31706,-0.211 -0.47558,-0.47476 -0.47558,-0.84403 l 0,0 z m 2.37792,2.00458 0,0 c 0.2642,0.0527 0.36989,0.1055 0.47557,0.26376 0.0529,0.1055 0.0529,0.211 0.0529,0.42201 0,0.31651 -0.10569,0.58027 -0.36989,0.68577 -0.21138,0.15826 -0.58128,0.26376 -1.00401,0.26376 -0.52843,0 -0.89833,-0.15826 -1.1097,-0.42202 -0.10569,-0.15824 -0.21137,-0.36925 -0.21137,-0.68576 l -0.95116,0 c 0,0.73852 0.26421,1.21328 0.68695,1.5298 0.47558,0.26376 1.00401,0.42201 1.58528,0.42201 0.68695,0 1.26821,-0.15825 1.69096,-0.42201 0.42273,-0.26376 0.6341,-0.68578 0.6341,-1.21329 l 0,-3.37613 c 0,-0.1055 0.0529,-0.21101 0.10569,-0.26376 0,-0.0527 0.10569,-0.1055 0.26422,-0.1055 0,0 0.0528,0 0.10568,0 0.0529,0 0.15852,0.0527 0.21137,0.0527 l 0,-0.73852 c -0.15853,-0.0527 -0.26421,-0.0527 -0.3699,-0.1055 -0.0528,0 -0.21137,0 -0.31706,0 -0.36989,0 -0.58126,0.1055 -0.73979,0.36926 -0.10569,0.10551 -0.15853,0.31652 -0.15853,0.52752 -0.21137,-0.26376 -0.52842,-0.47476 -0.89832,-0.68577 -0.3699,-0.15826 -0.79264,-0.26376 -1.21538,-0.26376 -0.58127,0 -1.00401,0.15825 -1.37391,0.47477 -0.31705,0.31651 -0.52842,0.73852 -0.52842,1.26604 0,0.52752 0.21137,0.94953 0.52842,1.26604 0.31706,0.26376 0.79264,0.47477 1.32107,0.52752 l 1.58528,0.21101 z m -0.79264,2.47933 0,0 0,0 z"
   id="path3589"
   style="fill:#000000;fill-opacity:1;fill-rule:evenodd;stroke:none" /><path
   d="m 284.12812,162.88368 0,0 1.00401,0 0,-0.84404 c 0.21137,0.31652 0.42274,0.52752 0.63411,0.63303 0.31706,0.21101 0.68695,0.31651 1.1097,0.31651 0.47557,0 0.84548,-0.1055 1.10968,-0.31651 0.15853,-0.15826 0.31706,-0.31651 0.42275,-0.58027 0.26421,0.31651 0.52842,0.52752 0.79264,0.68577 0.31705,0.15826 0.6341,0.21101 1.00401,0.21101 0.79263,0 1.32105,-0.26376 1.63811,-0.84403 0.15853,-0.31651 0.21137,-0.73852 0.21137,-1.21329 l 0,-3.95639 -1.004,0 0,4.11465 c 0,0.36926 -0.10569,0.63301 -0.31706,0.79127 -0.21138,0.15825 -0.42274,0.21101 -0.7398,0.21101 -0.3699,0 -0.68695,-0.10551 -1.00401,-0.36927 -0.26421,-0.26375 -0.36989,-0.68577 -0.36989,-1.31879 l 0,-3.42887 -1.05685,0 0,3.85089 c 0,0.42201 0,0.68577 -0.10569,0.89677 -0.15853,0.26376 -0.42274,0.42202 -0.84548,0.42202 -0.3699,0 -0.73979,-0.15826 -1.00401,-0.47476 -0.31705,-0.26376 -0.47558,-0.79128 -0.47558,-1.52981 l 0,-3.16511 -1.00401,0 0,5.90821 z"
   id="path3591"
   style="fill:#000000;fill-opacity:1;fill-rule:evenodd;stroke:none" /><path
   d="m 295.96485,162.98918 0,0 c 0.42273,0 0.84548,-0.0527 1.21537,-0.26376 0.42275,-0.21101 0.68696,-0.47477 0.89833,-0.79128 0.21137,-0.26375 0.31705,-0.63302 0.42274,-1.00228 0.0528,-0.26376 0.0528,-0.73853 0.0528,-1.3188 l -4.28024,0 c 0,-0.58027 0.15853,-1.05504 0.42273,-1.4243 0.26422,-0.36927 0.63412,-0.52752 1.21539,-0.52752 0.52842,0 0.89832,0.15825 1.21537,0.47476 0.21137,0.21101 0.31706,0.47477 0.3699,0.68578 l 1.00401,0 c -0.0529,-0.21101 -0.10569,-0.42202 -0.26421,-0.68578 -0.15853,-0.26376 -0.31706,-0.47476 -0.47558,-0.68576 -0.31706,-0.26376 -0.68696,-0.47477 -1.1097,-0.58028 -0.26422,-0.0527 -0.52842,-0.0527 -0.84548,-0.0527 -0.73979,0 -1.32106,0.26376 -1.84949,0.79128 -0.52842,0.52752 -0.73979,1.26604 -0.73979,2.21558 0,0.94954 0.21137,1.68806 0.73979,2.32108 0.52843,0.58027 1.21538,0.84403 2.00802,0.84403 l 0,0 z m 1.58527,-2.58484 0,0 c -0.0528,0.42202 -0.10568,0.79128 -0.26421,1.05504 -0.26421,0.47476 -0.7398,0.68577 -1.3739,0.68577 -0.42275,0 -0.84548,-0.15826 -1.16254,-0.47476 -0.26421,-0.31651 -0.42274,-0.73853 -0.47558,-1.26605 l 3.27623,0 z m -1.69096,2.63759 0,0 0,0 z"
   id="path3593"
   style="fill:#000000;fill-opacity:1;fill-rule:evenodd;stroke:none" /><path
   d="m 299.98088,164.51899 0,0 1.00401,0 0,-1.63531 0.95117,0 0,-0.79128 -0.95117,0 0,-3.85089 c 0,-0.21101 0.0528,-0.36927 0.21137,-0.42202 0.10568,-0.0527 0.21136,-0.0527 0.36989,-0.0527 0.0529,0 0.10569,0 0.15853,0 0.0529,0 0.15853,0 0.21138,0 l 0,-0.79127 c -0.10569,0 -0.21138,-0.0527 -0.36991,-0.0527 -0.10568,0 -0.26421,0 -0.36989,0 -0.47559,0 -0.79264,0.1055 -0.95116,0.31651 -0.15853,0.26376 -0.26422,0.58027 -0.26422,0.94953 l 0,3.90364 -0.79264,0 0,0.79128 0.79264,0 0,1.63531 z"
   id="path3595"
   style="fill:#000000;fill-opacity:1;fill-rule:evenodd;stroke:none" /><path
   d="m 305.37082,162.98918 0,0 c 0.42274,0 0.84548,-0.0527 1.21537,-0.26376 0.42275,-0.21101 0.68696,-0.47477 0.89833,-0.79128 0.21137,-0.26375 0.31706,-0.63302 0.42274,-1.00228 0.0529,-0.26376 0.0529,-0.73853 0.0529,-1.3188 l -4.28025,0 c 0,-0.58027 0.15853,-1.05504 0.42274,-1.4243 0.26421,-0.36927 0.63411,-0.52752 1.21538,-0.52752 0.52842,0 0.89832,0.15825 1.21537,0.47476 0.21137,0.21101 0.31706,0.47477 0.3699,0.68578 l 1.00401,0 c -0.0529,-0.21101 -0.10568,-0.42202 -0.26421,-0.68578 -0.15853,-0.26376 -0.31706,-0.47476 -0.47558,-0.68576 -0.31706,-0.26376 -0.68696,-0.47477 -1.1097,-0.58028 -0.26421,-0.0527 -0.52842,-0.0527 -0.84548,-0.0527 -0.73979,0 -1.32106,0.26376 -1.84949,0.79128 -0.52842,0.52752 -0.73979,1.26604 -0.73979,2.21558 0,0.94954 0.21137,1.68806 0.73979,2.32108 0.52843,0.58027 1.21538,0.84403 2.00802,0.84403 l 0,0 z m 1.58528,-2.58484 0,0 c -0.0529,0.42202 -0.15853,0.79128 -0.26422,1.05504 -0.26422,0.47476 -0.73979,0.68577 -1.3739,0.68577 -0.47559,0 -0.84548,-0.15826 -1.16254,-0.47476 -0.26422,-0.31651 -0.47558,-0.73853 -0.47558,-1.26605 l 3.27624,0 z m -1.69096,2.63759 0,0 0,0 z"
   id="path3597"
   style="fill:#000000;fill-opacity:1;fill-rule:evenodd;stroke:none" /><path
   d="m 309.22832,162.88368 0,0 0.95117,0 0,-1.00229 c 0.0529,0.15825 0.26421,0.42201 0.52842,0.68577 0.31706,0.31652 0.68695,0.42202 1.05685,0.42202 0,0 0.0529,0 0.10569,0 0.0529,0 0.10569,0 0.21137,0 l 0,-1.05504 c -0.0529,0 -0.10568,0 -0.15853,0.0527 -0.0529,0 -0.10568,0 -0.15853,0 -0.47558,0 -0.89832,-0.15826 -1.16254,-0.47476 -0.2642,-0.36926 -0.36989,-0.73853 -0.36989,-1.10779 l 0,-3.42887 -1.00401,0 0,5.9082 z"
   id="path3599"
   style="fill:#000000;fill-opacity:1;fill-rule:evenodd;stroke:none" /><path
   d="m 315.51658,162.88368 0,0 1.26822,0 1.37391,-2.05732 1.37391,2.05732 1.21537,-0.0527 -2.00801,-2.79585 2.06085,-3.05961 -1.26821,0 -1.42676,2.21558 -1.42674,-2.21558 -1.26822,0 2.06085,3.05961 -1.95517,2.8486 z"
   id="path3601"
   style="fill:#000000;fill-opacity:1;fill-rule:evenodd;stroke:none" /><path
   d="m 127.60856,233.41296 0,0 0,0.94954 1.05685,0 c -0.21137,0.0527 -0.47558,0.26375 -0.7398,0.58026 -0.26421,0.26376 -0.42274,0.63303 -0.42274,1.00229 0,0.0527 0,0.0527 0,0.10551 0,0.0527 0,0.1055 0,0.211 l 1.05685,0 c 0,-0.0527 0,-0.1055 0,-0.15825 0,-0.0527 0,-0.10551 0,-0.15826 0,-0.47477 0.15853,-0.84403 0.47559,-1.10779 0.31705,-0.31651 0.68695,-0.42202 1.10969,-0.42202 l 3.38192,0 0,-1.00228 -5.91836,0 z"
   id="path3603"
   style="fill:#000000;fill-opacity:1;fill-rule:evenodd;stroke:none" /><path
   d="m 127.50287,239.58493 0,0 c 0,0.42202 0.10569,0.84403 0.31706,1.2133 0.15853,0.42201 0.42274,0.68577 0.73979,0.89678 0.31706,0.21101 0.63411,0.31651 1.05685,0.42202 0.26422,0.0527 0.68696,0.0527 1.26823,0.0527 l 0,-4.27291 c 0.58126,0 1.05685,0.15826 1.42674,0.42202 0.3699,0.26375 0.58127,0.63302 0.58127,1.21329 0,0.52752 -0.21137,0.89678 -0.52842,1.21329 -0.21137,0.15826 -0.42274,0.31652 -0.68696,0.36927 l 0,1.00229 c 0.21137,-0.0527 0.47559,-0.10551 0.7398,-0.26376 0.26421,-0.15826 0.47558,-0.31652 0.63411,-0.47477 0.26421,-0.31651 0.47558,-0.68578 0.58127,-1.16055 0.0528,-0.211 0.10568,-0.47476 0.10568,-0.79128 0,-0.73852 -0.26421,-1.31879 -0.79264,-1.84631 -0.52842,-0.52752 -1.32106,-0.79128 -2.27223,-0.79128 -0.95116,0 -1.69096,0.26376 -2.27222,0.79128 -0.58127,0.52752 -0.89833,1.16054 -0.89833,2.00457 l 0,0 z m 2.58929,1.58256 0,0 c -0.42274,-0.0527 -0.7398,-0.15825 -1.00401,-0.26376 -0.47558,-0.26376 -0.7398,-0.73853 -0.7398,-1.37155 0,-0.47477 0.15853,-0.84403 0.52843,-1.16054 0.31705,-0.31651 0.73979,-0.47476 1.21538,-0.47476 l 0,3.27061 z m -2.58929,-1.68806 0,0 0,0 z"
   id="path3605"
   style="fill:#000000;fill-opacity:1;fill-rule:evenodd;stroke:none" /><path
   d="m 126.71024,243.64683 0,0 c -0.3699,0 -0.68696,0.1055 -0.89833,0.21101 -0.31705,0.211 -0.47558,0.68577 -0.47558,1.3188 0,0.1055 0,0.15825 0,0.211 0,0.0527 0,0.15826 0,0.21101 l 0.89832,0 c 0,-0.1055 0,-0.15825 0,-0.21101 0,-0.0527 0,-0.1055 0,-0.1055 0,-0.31651 0.10569,-0.52752 0.21137,-0.58027 0.15853,-0.0527 0.58127,-0.0527 1.21538,-0.0527 l 0,0.94953 0.79264,0 0,-0.94953 5.07288,0 0,-1.00229 -5.07288,0 0,-0.79128 -0.79264,0 0,0.79128 -0.95116,0 z"
   id="path3607"
   style="fill:#000000;fill-opacity:1;fill-rule:evenodd;stroke:none" /><path
   d="m 127.60856,246.54818 0,0 0,0.94954 1.05685,0 c -0.21137,0.0527 -0.47558,0.26376 -0.7398,0.58027 -0.26421,0.26376 -0.42274,0.63302 -0.42274,1.00229 0,0.0527 0,0.0527 0,0.1055 0,0.0527 0,0.1055 0,0.21101 l 1.05685,0 c 0,-0.0527 0,-0.10551 0,-0.15826 0,-0.0527 0,-0.1055 0,-0.15825 0,-0.47477 0.15853,-0.84404 0.47559,-1.16055 0.31705,-0.26376 0.68695,-0.36926 1.10969,-0.36926 l 3.38192,0 0,-1.00229 -5.91836,0 z"
   id="path3609"
   style="fill:#000000;fill-opacity:1;fill-rule:evenodd;stroke:none" /><path
   d="m 131.94165,251.03209 0,0 c 0.31705,0 0.52842,0.10551 0.68695,0.31651 0.15853,0.21101 0.26421,0.47477 0.26421,0.73853 0,0.36927 -0.10568,0.68578 -0.26421,1.00229 -0.26421,0.58027 -0.68695,0.84403 -1.32106,0.84403 l -0.79264,0 c 0.10568,-0.15825 0.15852,-0.31651 0.21137,-0.47477 0.0528,-0.211 0.0528,-0.36926 0.10568,-0.58027 l 0.0528,-0.58027 c 0.0528,-0.36926 0.15853,-0.63302 0.26422,-0.79128 0.15852,-0.31651 0.42274,-0.47477 0.79263,-0.47477 l 0,0 z m -2.00802,2.37384 0,0 c 0,0.26376 -0.10569,0.42202 -0.26421,0.47477 -0.10569,0.0527 -0.21137,0.0527 -0.3699,0.0527 -0.3699,0 -0.58127,-0.1055 -0.7398,-0.36926 -0.15852,-0.21101 -0.21137,-0.58028 -0.21137,-1.00229 0,-0.52752 0.10569,-0.89679 0.3699,-1.10779 0.15853,-0.10551 0.42274,-0.21101 0.68695,-0.21101 l 0,-0.94953 c -0.68695,0.0527 -1.21537,0.26375 -1.47959,0.73852 -0.31705,0.42202 -0.42274,0.94954 -0.42274,1.52981 0,0.68577 0.10569,1.26605 0.3699,1.68806 0.26421,0.42201 0.68695,0.63302 1.26822,0.63302 l 3.38192,0 c 0.10569,0 0.15853,0.0527 0.21137,0.1055 0.10569,0 0.10569,0.10551 0.10569,0.26376 0,0.0527 0,0.0527 0,0.10551 0,0.1055 0,0.15825 0,0.211 l 0.68695,0 c 0.0528,-0.15825 0.10569,-0.26376 0.10569,-0.36926 0,-0.0527 0,-0.15826 0,-0.31651 0,-0.36926 -0.10569,-0.58027 -0.3699,-0.73852 -0.10569,-0.10551 -0.26421,-0.15826 -0.52843,-0.15826 0.26422,-0.21101 0.47559,-0.52752 0.68696,-0.89678 0.21137,-0.36927 0.31705,-0.79128 0.31705,-1.2133 0,-0.58027 -0.21137,-1.00229 -0.52842,-1.37154 -0.31706,-0.31651 -0.7398,-0.52752 -1.21538,-0.52752 -0.58127,0 -1.00401,0.21101 -1.26822,0.52752 -0.31706,0.36925 -0.52843,0.79127 -0.58127,1.37154 l -0.21137,1.52981 z m -2.43076,-0.79128 0,0 0,0 z"
   id="path3611"
   style="fill:#000000;fill-opacity:1;fill-rule:evenodd;stroke:none" /><path
   d="m 127.45003,258.78662 0,0 c 0,0.68578 0.15853,1.2133 0.47558,1.63531 0.31706,0.42202 0.89833,0.63303 1.69096,0.73853 l 0,-0.94954 c -0.36989,-0.0527 -0.68695,-0.211 -0.89832,-0.42201 -0.26421,-0.21101 -0.3699,-0.52752 -0.3699,-1.00229 0,-0.63302 0.31706,-1.05503 0.89833,-1.31879 0.42274,-0.21101 0.89832,-0.26376 1.47959,-0.26376 0.63411,0 1.10969,0.1055 1.53243,0.36926 0.3699,0.21101 0.58127,0.63303 0.58127,1.16054 0,0.42201 -0.10569,0.73853 -0.3699,0.94953 -0.26421,0.26376 -0.58127,0.42202 -1.05685,0.52752 l 0,0.94954 c 0.79264,-0.1055 1.37391,-0.36926 1.7438,-0.84403 0.3699,-0.42202 0.52843,-1.00229 0.52843,-1.63531 0,-0.79128 -0.26421,-1.4243 -0.84548,-1.84632 -0.58127,-0.47476 -1.26822,-0.68577 -2.1137,-0.68577 -1.00401,0 -1.84949,0.21101 -2.37792,0.73853 -0.58126,0.47476 -0.89832,1.16054 -0.89832,1.89906 l 0,0 z m 0.0528,-0.15826 0,0 0,0 z"
   id="path3613"
   style="fill:#000000;fill-opacity:1;fill-rule:evenodd;stroke:none" /><path
   d="m 125.97044,262.37376 0,0 0,1.00228 1.63812,0 0,0.89678 0.84548,0 0,-0.89678 3.80466,0 c 0.21137,0 0.3699,0.0527 0.42274,0.211 0.0528,0.0527 0.0528,0.15826 0.0528,0.36927 0,0.0527 0,0.1055 0,0.15825 0,0.0527 0,0.10551 0,0.15826 l 0.79264,0 c 0,-0.1055 0.0528,-0.21101 0.0528,-0.31651 0,-0.15826 0.0528,-0.26376 0.0528,-0.42202 0,-0.47477 -0.15853,-0.79128 -0.3699,-0.94953 -0.26421,-0.15825 -0.52842,-0.211 -0.95116,-0.211 l -3.85751,0 0,-0.79128 -0.84548,0 0,0.79128 -1.63812,0 z"
   id="path3615"
   style="fill:#000000;fill-opacity:1;fill-rule:evenodd;stroke:none" /><path
   d="m 127.6614,265.27511 0,0 0,1.00229 5.86552,0 0,-1.00229 -5.86552,0 z m -2.21939,0 0,0 0,1.00229 1.1097,0 0,-1.00229 -1.1097,0 z"
   id="path3617"
   style="fill:#000000;fill-opacity:1;fill-rule:evenodd;stroke:none" /><path
   d="m 127.60856,268.28196 0,0 4.80867,1.58256 -4.80867,1.63531 0,1.05504 5.91836,-2.21558 0,-1.05504 -5.91836,-2.16283 0,1.16054 z"
   id="path3619"
   style="fill:#000000;fill-opacity:1;fill-rule:evenodd;stroke:none" /><path
   d="m 127.50287,275.87824 0,0 c 0,0.42201 0.10569,0.79128 0.31706,1.21329 0.15853,0.36927 0.42274,0.68578 0.73979,0.89679 0.31706,0.15825 0.63411,0.31651 1.05685,0.36926 0.26422,0.0527 0.68696,0.1055 1.26823,0.1055 l 0,-4.32565 c 0.58126,0 1.05685,0.15825 1.42674,0.42201 0.3699,0.26376 0.58127,0.68577 0.58127,1.21329 0,0.52752 -0.21137,0.94954 -0.52842,1.26605 -0.21137,0.15826 -0.42274,0.26376 -0.68696,0.36926 l 0,0.94954 c 0.21137,0 0.47559,-0.1055 0.7398,-0.26376 0.26421,-0.1055 0.47558,-0.26376 0.63411,-0.47477 0.26421,-0.31651 0.47558,-0.68577 0.58127,-1.10779 0.0528,-0.21101 0.10568,-0.52752 0.10568,-0.79128 0,-0.73853 -0.26421,-1.37154 -0.79264,-1.89906 -0.52842,-0.47477 -1.32106,-0.73853 -2.27223,-0.73853 -0.95116,0 -1.69096,0.26376 -2.27222,0.79128 -0.58127,0.47477 -0.89833,1.16053 -0.89833,2.00457 l 0,0 z m 2.58929,1.58256 0,0 c -0.42274,-0.0527 -0.7398,-0.15826 -1.00401,-0.31652 -0.47558,-0.26376 -0.7398,-0.68577 -0.7398,-1.3188 0,-0.47476 0.15853,-0.84403 0.52843,-1.16053 0.31705,-0.31651 0.73979,-0.47477 1.21538,-0.47477 l 0,3.27062 z m -2.58929,-1.68807 0,0 0,0 z"
   id="path3621"
   style="fill:#000000;fill-opacity:1;fill-rule:evenodd;stroke:none" /><path
   d="m 127.6614,282.78874 0,0 0,1.00228 5.86552,0 0,-1.00228 -5.86552,0 z m -2.21939,0 0,0 0,1.00228 1.1097,0 0,-1.00228 -1.1097,0 z"
   id="path3623"
   style="fill:#000000;fill-opacity:1;fill-rule:evenodd;stroke:none" /><path
   d="m 127.60856,285.32083 0,0 0,0.89678 0.84548,0 c -0.31706,0.31651 -0.58127,0.58027 -0.7398,0.89678 -0.15852,0.31651 -0.21137,0.68577 -0.21137,1.05504 0,0.84403 0.26422,1.37155 0.84548,1.68806 0.3699,0.15826 0.79264,0.21101 1.37391,0.21101 l 3.80466,0 0,-1.00229 -3.69898,0 c -0.36989,0 -0.68695,-0.0527 -0.89832,-0.15825 -0.3699,-0.15826 -0.52842,-0.47477 -0.52842,-0.94954 0,-0.21101 0,-0.42202 0.0528,-0.58027 0.10568,-0.26376 0.26421,-0.47477 0.47558,-0.68577 0.21137,-0.15826 0.42274,-0.26376 0.63411,-0.31651 0.21137,-0.0527 0.47558,-0.10551 0.84548,-0.10551 l 3.11771,0 0,-0.94953 -5.91836,0 z m -0.10569,2.32108 0,0 0,0 z"
   id="path3625"
   style="fill:#000000;fill-opacity:1;fill-rule:evenodd;stroke:none" /><path
   d="m 130.62058,292.17857 0,0 c 0.63411,0 1.16254,0.15826 1.58528,0.42202 0.42274,0.26376 0.63411,0.68577 0.63411,1.26605 0,0.47476 -0.15853,0.84403 -0.58127,1.10778 -0.3699,0.31651 -0.95116,0.47477 -1.69096,0.47477 -0.7398,0 -1.26822,-0.15826 -1.63812,-0.47477 -0.3699,-0.3165 -0.52842,-0.68577 -0.52842,-1.10778 0,-0.52752 0.15852,-0.89679 0.58126,-1.2133 0.3699,-0.31651 0.89833,-0.47477 1.63812,-0.47477 l 0,0 z m -3.11771,1.47706 0,0 c 0,0.47477 0.10569,0.84403 0.31706,1.16054 0.10568,0.15825 0.31705,0.36926 0.58127,0.58027 l -2.95919,0 0,0.94953 8.08491,0 0,-0.89678 -0.84548,0 c 0.3699,-0.21101 0.63411,-0.47477 0.79264,-0.79127 0.15853,-0.31652 0.26421,-0.68578 0.26421,-1.1078 0,-0.63302 -0.26421,-1.21329 -0.84548,-1.68806 -0.52842,-0.47477 -1.26822,-0.73853 -2.21939,-0.73853 -0.84548,0 -1.58527,0.21101 -2.21938,0.68578 -0.63411,0.42201 -0.95117,1.05504 -0.95117,1.84632 l 0,0 z"
   id="path3627"
   style="fill:#000000;fill-opacity:1;fill-rule:evenodd;stroke:none" /><path
   d="m 127.50287,300.24961 0,0 c 0,0.42202 0.10569,0.84403 0.31706,1.2133 0.15853,0.42201 0.42274,0.68577 0.73979,0.89678 0.31706,0.21101 0.63411,0.31651 1.05685,0.42202 0.26422,0.0527 0.68696,0.0527 1.26823,0.0527 l 0,-4.27291 c 0.58126,0 1.05685,0.15826 1.42674,0.42201 0.3699,0.26376 0.58127,0.63303 0.58127,1.2133 0,0.52752 -0.21137,0.89678 -0.52842,1.21329 -0.21137,0.21101 -0.42274,0.31652 -0.68696,0.36927 l 0,1.00229 c 0.21137,-0.0527 0.47559,-0.10551 0.7398,-0.26376 0.26421,-0.15826 0.47558,-0.31652 0.63411,-0.47477 0.26421,-0.31651 0.47558,-0.68578 0.58127,-1.10779 0.0528,-0.26376 0.10568,-0.52752 0.10568,-0.84404 0,-0.73852 -0.26421,-1.31879 -0.79264,-1.84631 -0.52842,-0.52752 -1.32106,-0.73853 -2.27223,-0.73853 -0.95116,0 -1.69096,0.21101 -2.27222,0.73853 -0.58127,0.52752 -0.89833,1.21329 -0.89833,2.00457 l 0,0 z m 2.58929,1.58256 0,0 c -0.42274,-0.0527 -0.7398,-0.15825 -1.00401,-0.26376 -0.47558,-0.26376 -0.7398,-0.73853 -0.7398,-1.37155 0,-0.47477 0.15853,-0.84403 0.52843,-1.16054 0.31705,-0.26376 0.73979,-0.47476 1.21538,-0.47476 l 0,3.27061 z m -2.58929,-1.68806 0,0 0,0 z"
   id="path3629"
   style="fill:#000000;fill-opacity:1;fill-rule:evenodd;stroke:none" /><path
   d="m 127.60856,303.52023 0,0 0,1.26605 2.1137,1.37155 -2.1137,1.37154 0.0528,1.16055 2.8535,-1.95182 3.01202,2.05732 0,-1.26605 -2.21939,-1.47705 2.21939,-1.37155 0,-1.26605 -3.01202,2.05733 -2.90634,-1.95182 z"
   id="path3631"
   style="fill:#000000;fill-opacity:1;fill-rule:evenodd;stroke:none" /><path
   d="m 127.60856,312.80456 0,0 0,1.00229 0.84548,0 c -0.26421,0.21101 -0.47558,0.42202 -0.63411,0.63302 -0.21137,0.31651 -0.31706,0.68578 -0.31706,1.10779 0,0.47477 0.10569,0.84403 0.3699,1.10779 0.10569,0.15826 0.31706,0.31651 0.58127,0.47477 -0.31706,0.21101 -0.58127,0.47477 -0.7398,0.73853 -0.15852,0.31651 -0.21137,0.63302 -0.21137,1.00228 0,0.79128 0.26422,1.3188 0.84548,1.63531 0.31706,0.15826 0.7398,0.21101 1.26822,0.21101 l 3.91035,0 0,-1.00229 -4.12172,0 c -0.36989,0 -0.63411,-0.1055 -0.79263,-0.31651 -0.15853,-0.15825 -0.21137,-0.42201 -0.21137,-0.68577 0,-0.42202 0.10568,-0.73853 0.36989,-1.00229 0.26422,-0.31651 0.7398,-0.42201 1.32107,-0.42201 l 3.43476,0 0,-1.00229 -3.8575,0 c -0.3699,0 -0.68696,-0.0528 -0.84548,-0.15826 -0.31706,-0.15825 -0.42274,-0.42201 -0.42274,-0.84403 0,-0.36926 0.15852,-0.68577 0.42274,-1.00228 0.26421,-0.31651 0.79263,-0.47477 1.58527,-0.47477 l 3.11771,0 0,-1.00229 -5.91836,0 z"
   id="path3633"
   style="fill:#000000;fill-opacity:1;fill-rule:evenodd;stroke:none" /><path
   d="m 156.93616,180.92483 0,0 0,0.68577 m 0,2.79585 0,0 0,0.73853 m 0,2.79585 0,0 0,0.68577 m 0,2.8486 0,0 0,0.68578 m 0,2.79585 0,0 0,0.73853 m 0,2.79584 0,0 0,0.68578 m 0,2.84861 0,0 0,0.68577 m 0,2.79585 0,0 0,0.73852 m 0,2.79586 0,0 0,0.68577 m 0,2.8486 0,0 0,0.68578 m 0,2.79585 0,0 0,0.73853 m 0,2.79584 0,0 0,0.68578 m 0,2.8486 0,0 0,0.68578 m 0,2.79584 0,0 0,0.73853 m 0,2.79586 0,0 0,0.68577 m 0,2.8486 0,0 0,0.68578 m 0,2.79585 0,0 0,0.73853 m 0,2.79584 0,0 0,0.68578 m 0,2.8486 0,0 0,0.68578 m 0,2.79584 0,0 0,0.73853 m 0,2.79585 0,0 0,0.68578 m 0,2.8486 0,0 0,0.68577 m 0,2.79586 0,0 0,0.73852 m 0,2.79585 0,0 0,0.68578 m 0,2.8486 0,0 0,0.68578 m 0,2.79584 0,0 0,0.73853 m 0,2.79585 0,0 0,0.68578 m 0,2.8486 0,0 0,0.68577 m 0,2.79585 0,0 0,0.73853 m 0,2.79585 0,0 0,0.68577 m 0,2.84861 0,0 0,0.68577 m 0,2.79585 0,0 0,0.73853 m 0,2.79585 0,0 0,0.68578 m 0,2.8486 0,0 0,0.68577 m 0,2.79585 0,0 0,0.73853 m 0,2.79585 0,0 0,0.68577 m 0,2.8486 0,0 0,0.68578 m 0,2.79585 0,0 0,0.73853 m 0,2.79585 0,0 0,0.68577 m 0,2.8486 0,0 0,0.68578 m 0,2.79585 0,0 0,0.73853 m 0,2.79585 0,0 0,0.68577 m 0,2.8486 0,0 0,0.68578 m 0,2.79585 0,0 0,0.73852 m 0,2.79586 0,0 0,0.68577 m 0,2.8486 0,0 0,0.68578 m 0,2.79585 0,0 0,0.73852 m 0,2.79585 0,0 0,0.68578 m 0,2.8486 0,0 0,0.68578 m 0,2.79585 0,0 0,0.73852 m 0,2.79585 0,0 0,0.68578 m 0,2.8486 0,0 0,0.68577 m 0,2.79586 0,0 0,0.73852 m 0,2.79585 0,0 0,0.68578 m 0,2.8486 0,0 0,0.68577 m 48.93218,-190.59259 0,0 0,0.68577 m 0,2.79585 0,0 0,0.73853 m 0,2.79585 0,0 0,0.68577 m 0,2.8486 0,0 0,0.68578 m 0,2.79585 0,0 0,0.73853 m 0,2.79584 0,0 0,0.68578 m 0,2.84861 0,0 0,0.68577 m 0,2.79585 0,0 0,0.73852 m 0,2.79586 0,0 0,0.68577 m 0,2.8486 0,0 0,0.68578 m 0,2.79585 0,0 0,0.73853 m 0,2.79584 0,0 0,0.68578 m 0,2.8486 0,0 0,0.68578 m 0,2.79584 0,0 0,0.73853 m 0,2.79586 0,0 0,0.68577 m 0,2.8486 0,0 0,0.68578 m 0,2.79585 0,0 0,0.73853 m 0,2.79584 0,0 0,0.68578 m 0,2.8486 0,0 0,0.68578 m 0,2.79584 0,0 0,0.73853 m 0,2.79585 0,0 0,0.68578 m 0,2.8486 0,0 0,0.68577 m 0,2.79586 0,0 0,0.73852 m 0,2.79585 0,0 0,0.68578 m 0,2.8486 0,0 0,0.68578 m 0,2.79584 0,0 0,0.73853 m 0,2.79585 0,0 0,0.68578 m 0,2.8486 0,0 0,0.68577 m 0,2.79585 0,0 0,0.73853 m 0,2.79585 0,0 0,0.68577 m 0,2.84861 0,0 0,0.68577 m 0,2.79585 0,0 0,0.73853 m 0,2.79585 0,0 0,0.68578 m 0,2.8486 0,0 0,0.68577 m 0,2.79585 0,0 0,0.73853 m 0,2.79585 0,0 0,0.68577 m 0,2.8486 0,0 0,0.68578 m 0,2.79585 0,0 0,0.73853 m 0,2.79585 0,0 0,0.68577 m 0,2.8486 0,0 0,0.68578 m 0,2.79585 0,0 0,0.73853 m 0,2.79585 0,0 0,0.68577 m 0,2.8486 0,0 0,0.68578 m 0,2.79585 0,0 0,0.73852 m 0,2.79586 0,0 0,0.68577 m 0,2.8486 0,0 0,0.68578 m 0,2.79585 0,0 0,0.73852 m 0,2.79585 0,0 0,0.68578 m 0,2.8486 0,0 0,0.68578 m 0,2.79585 0,0 0,0.73852 m 0,2.79585 0,0 0,0.68578 m 0,2.8486 0,0 0,0.68577 m 0,2.79586 0,0 0,0.73852 m 0,2.79585 0,0 0,0.68578 m 0,2.8486 0,0 0,0.68577 m 48.87934,-190.59259 0,0 0,0.68577 m 0,2.79585 0,0 0,0.73853 m 0,2.79585 0,0 0,0.68577 m 0,2.8486 0,0 0,0.68578 m 0,2.79585 0,0 0,0.73853 m 0,2.79584 0,0 0,0.68578 m 0,2.84861 0,0 0,0.68577 m 0,2.79585 0,0 0,0.73852 m 0,2.79586 0,0 0,0.68577 m 0,2.8486 0,0 0,0.68578 m 0,2.79585 0,0 0,0.73853 m 0,2.79584 0,0 0,0.68578 m 0,2.8486 0,0 0,0.68578 m 0,2.79584 0,0 0,0.73853 m 0,2.79586 0,0 0,0.68577 m 0,2.8486 0,0 0,0.68578 m 0,2.79585 0,0 0,0.73853 m 0,2.79584 0,0 0,0.68578 m 0,2.8486 0,0 0,0.68578 m 0,2.79584 0,0 0,0.73853 m 0,2.79585 0,0 0,0.68578 m 0,2.8486 0,0 0,0.68577 m 0,2.79586 0,0 0,0.73852 m 0,2.79585 0,0 0,0.68578 m 0,2.8486 0,0 0,0.68578 m 0,2.79584 0,0 0,0.73853 m 0,2.79585 0,0 0,0.68578 m 0,2.8486 0,0 0,0.68577 m 0,2.79585 0,0 0,0.73853 m 0,2.79585 0,0 0,0.68577 m 0,2.84861 0,0 0,0.68577 m 0,2.79585 0,0 0,0.73853 m 0,2.79585 0,0 0,0.68578 m 0,2.8486 0,0 0,0.68577 m 0,2.79585 0,0 0,0.73853 m 0,2.79585 0,0 0,0.68577 m 0,2.8486 0,0 0,0.68578 m 0,2.79585 0,0 0,0.73853 m 0,2.79585 0,0 0,0.68577 m 0,2.8486 0,0 0,0.68578 m 0,2.79585 0,0 0,0.73853 m 0,2.79585 0,0 0,0.68577 m 0,2.8486 0,0 0,0.68578 m 0,2.79585 0,0 0,0.73852 m 0,2.79586 0,0 0,0.68577 m 0,2.8486 0,0 0,0.68578 m 0,2.79585 0,0 0,0.73852 m 0,2.79585 0,0 0,0.68578 m 0,2.8486 0,0 0,0.68578 m 0,2.79585 0,0 0,0.73852 m 0,2.79585 0,0 0,0.68578 m 0,2.8486 0,0 0,0.68577 m 0,2.79586 0,0 0,0.73852 m 0,2.79585 0,0 0,0.68578 m 0,2.8486 0,0 0,0.68577 m 48.93218,-190.59259 0,0 0,0.68577 m 0,2.79585 0,0 0,0.73853 m 0,2.79585 0,0 0,0.68577 m 0,2.8486 0,0 0,0.68578 m 0,2.79585 0,0 0,0.73853 m 0,2.79584 0,0 0,0.68578 m 0,2.84861 0,0 0,0.68577 m 0,2.79585 0,0 0,0.73852 m 0,2.79586 0,0 0,0.68577 m 0,2.8486 0,0 0,0.68578 m 0,2.79585 0,0 0,0.73853 m 0,2.79584 0,0 0,0.68578 m 0,2.8486 0,0 0,0.68578 m 0,2.79584 0,0 0,0.73853 m 0,2.79586 0,0 0,0.68577 m 0,2.8486 0,0 0,0.68578 m 0,2.79585 0,0 0,0.73853 m 0,2.79584 0,0 0,0.68578 m 0,2.8486 0,0 0,0.68578 m 0,2.79584 0,0 0,0.73853 m 0,2.79585 0,0 0,0.68578 m 0,2.8486 0,0 0,0.68577 m 0,2.79586 0,0 0,0.73852 m 0,2.79585 0,0 0,0.68578 m 0,2.8486 0,0 0,0.68578 m 0,2.79584 0,0 0,0.73853 m 0,2.79585 0,0 0,0.68578 m 0,2.8486 0,0 0,0.68577 m 0,2.79585 0,0 0,0.73853 m 0,2.79585 0,0 0,0.68577 m 0,2.84861 0,0 0,0.68577 m 0,2.79585 0,0 0,0.73853 m 0,2.79585 0,0 0,0.68578 m 0,2.8486 0,0 0,0.68577 m 0,2.79585 0,0 0,0.73853 m 0,2.79585 0,0 0,0.68577 m 0,2.8486 0,0 0,0.68578 m 0,2.79585 0,0 0,0.73853 m 0,2.79585 0,0 0,0.68577 m 0,2.8486 0,0 0,0.68578 m 0,2.79585 0,0 0,0.73853 m 0,2.79585 0,0 0,0.68577 m 0,2.8486 0,0 0,0.68578 m 0,2.79585 0,0 0,0.73852 m 0,2.79586 0,0 0,0.68577 m 0,2.8486 0,0 0,0.68578 m 0,2.79585 0,0 0,0.73852 m 0,2.79585 0,0 0,0.68578 m 0,2.8486 0,0 0,0.68578 m 0,2.79585 0,0 0,0.73852 m 0,2.79585 0,0 0,0.68578 m 0,2.8486 0,0 0,0.68577 m 0,2.79586 0,0 0,0.73852 m 0,2.79585 0,0 0,0.68578 m 0,2.8486 0,0 0,0.68577 m 48.87933,-190.59259 0,0 0,0.68577 m 0,2.79585 0,0 0,0.73853 m 0,2.79585 0,0 0,0.68577 m 0,2.8486 0,0 0,0.68578 m 0,2.79585 0,0 0,0.73853 m 0,2.79584 0,0 0,0.68578 m 0,2.84861 0,0 0,0.68577 m 0,2.79585 0,0 0,0.73852 m 0,2.79586 0,0 0,0.68577 m 0,2.8486 0,0 0,0.68578 m 0,2.79585 0,0 0,0.73853 m 0,2.79584 0,0 0,0.68578 m 0,2.8486 0,0 0,0.68578 m 0,2.79584 0,0 0,0.73853 m 0,2.79586 0,0 0,0.68577 m 0,2.8486 0,0 0,0.68578 m 0,2.79585 0,0 0,0.73853 m 0,2.79584 0,0 0,0.68578 m 0,2.8486 0,0 0,0.68578 m 0,2.79584 0,0 0,0.73853 m 0,2.79585 0,0 0,0.68578 m 0,2.8486 0,0 0,0.68577 m 0,2.79586 0,0 0,0.73852 m 0,2.79585 0,0 0,0.68578 m 0,2.8486 0,0 0,0.68578 m 0,2.79584 0,0 0,0.73853 m 0,2.79585 0,0 0,0.68578 m 0,2.8486 0,0 0,0.68577 m 0,2.79585 0,0 0,0.73853 m 0,2.79585 0,0 0,0.68577 m 0,2.84861 0,0 0,0.68577 m 0,2.79585 0,0 0,0.73853 m 0,2.79585 0,0 0,0.68578 m 0,2.8486 0,0 0,0.68577 m 0,2.79585 0,0 0,0.73853 m 0,2.79585 0,0 0,0.68577 m 0,2.8486 0,0 0,0.68578 m 0,2.79585 0,0 0,0.73853 m 0,2.79585 0,0 0,0.68577 m 0,2.8486 0,0 0,0.68578 m 0,2.79585 0,0 0,0.73853 m 0,2.79585 0,0 0,0.68577 m 0,2.8486 0,0 0,0.68578 m 0,2.79585 0,0 0,0.73852 m 0,2.79586 0,0 0,0.68577 m 0,2.8486 0,0 0,0.68578 m 0,2.79585 0,0 0,0.73852 m 0,2.79585 0,0 0,0.68578 m 0,2.8486 0,0 0,0.68578 m 0,2.79585 0,0 0,0.73852 m 0,2.79585 0,0 0,0.68578 m 0,2.8486 0,0 0,0.68577 m 0,2.79586 0,0 0,0.73852 m 0,2.79585 0,0 0,0.68578 m 0,2.8486 0,0 0,0.68577 m 48.98503,-190.59259 0,0 0,0.68577 m 0,2.79585 0,0 0,0.73853 m 0,2.79585 0,0 0,0.68577 m 0,2.8486 0,0 0,0.68578 m 0,2.79585 0,0 0,0.73853 m 0,2.79584 0,0 0,0.68578 m 0,2.84861 0,0 0,0.68577 m 0,2.79585 0,0 0,0.73852 m 0,2.79586 0,0 0,0.68577 m 0,2.8486 0,0 0,0.68578 m 0,2.79585 0,0 0,0.73853 m 0,2.79584 0,0 0,0.68578 m 0,2.8486 0,0 0,0.68578 m 0,2.79584 0,0 0,0.73853 m 0,2.79586 0,0 0,0.68577 m 0,2.8486 0,0 0,0.68578 m 0,2.79585 0,0 0,0.73853 m 0,2.79584 0,0 0,0.68578 m 0,2.8486 0,0 0,0.68578 m 0,2.79584 0,0 0,0.73853 m 0,2.79585 0,0 0,0.68578 m 0,2.8486 0,0 0,0.68577 m 0,2.79586 0,0 0,0.73852 m 0,2.79585 0,0 0,0.68578 m 0,2.8486 0,0 0,0.68578 m 0,2.79584 0,0 0,0.73853 m 0,2.79585 0,0 0,0.68578 m 0,2.8486 0,0 0,0.68577 m 0,2.79585 0,0 0,0.73853 m 0,2.79585 0,0 0,0.68577 m 0,2.84861 0,0 0,0.68577 m 0,2.79585 0,0 0,0.73853 m 0,2.79585 0,0 0,0.68578 m 0,2.8486 0,0 0,0.68577 m 0,2.79585 0,0 0,0.73853 m 0,2.79585 0,0 0,0.68577 m 0,2.8486 0,0 0,0.68578 m 0,2.79585 0,0 0,0.73853 m 0,2.79585 0,0 0,0.68577 m 0,2.8486 0,0 0,0.68578 m 0,2.79585 0,0 0,0.73853 m 0,2.79585 0,0 0,0.68577 m 0,2.8486 0,0 0,0.68578 m 0,2.79585 0,0 0,0.73852 m 0,2.79586 0,0 0,0.68577 m 0,2.8486 0,0 0,0.68578 m 0,2.79585 0,0 0,0.73852 m 0,2.79585 0,0 0,0.68578 m 0,2.8486 0,0 0,0.68578 m 0,2.79585 0,0 0,0.73852 m 0,2.79585 0,0 0,0.68578 m 0,2.8486 0,0 0,0.68577 m 0,2.79586 0,0 0,0.73852 m 0,2.79585 0,0 0,0.68578 m 0,2.8486 0,0 0,0.68577 m -244.60806,-190.59259 0,0 0.68695,0 m 2.8535,0 0,0 0.68695,0 m 2.80066,0 0,0 0.73979,0 m 2.80066,0 0,0 0.68695,0 m 2.8535,0 0,0 0.68695,0 m 2.80065,0 0,0 0.7398,0 m 2.80065,0 0,0 0.68695,0 m 2.8535,0 0,0 0.68695,0 m 2.80066,0 0,0 0.73979,0 m 2.80066,0 0,0 0.68695,0 m 2.8535,0 0,0 0.68695,0 m 2.80065,0 0,0 0.7398,0 m 2.80065,0 0,0 0.68696,0 m 2.85349,0 0,0 0.68695,0 m 2.80066,0 0,0 0.73979,0 m 2.80066,0 0,0 0.68695,0 m 2.8535,0 0,0 0.68695,0 m 2.80065,0 0,0 0.7398,0 m 2.80065,0 0,0 0.68695,0 m 2.8535,0 0,0 0.68695,0 m 2.80066,0 0,0 0.73979,0 m 2.80066,0 0,0 0.68695,0 m 2.85349,0 0,0 0.68696,0 m 2.80065,0 0,0 0.7398,0 m 2.80065,0 0,0 0.68695,0 m 2.85351,0 0,0 0.68695,0 m 2.80065,0 0,0 0.7398,0 m 2.80065,0 0,0 0.68695,0 m 2.8535,0 0,0 0.68695,0 m 2.80066,0 0,0 0.73979,0 m 2.80066,0 0,0 0.68695,0 m 2.85349,0 0,0 0.68696,0 m 2.80065,0 0,0 0.73979,0 m 2.80066,0 0,0 0.68695,0 m 2.8535,0 0,0 0.68695,0 m 2.80066,0 0,0 0.73979,0 m 2.80065,0 0,0 0.68696,0 m 2.85349,0 0,0 0.68695,0 m 2.80066,0 0,0 0.73979,0 m 2.80066,0 0,0 0.68695,0 m 2.8535,0 0,0 0.68695,0 m 2.80065,0 0,0 0.7398,0 m 2.80065,0 0,0 0.68695,0 m 2.8535,0 0,0 0.68696,0 m 2.80065,0 0,0 0.7398,0 m 2.80065,0 0,0 0.68696,0 m 2.85349,0 0,0 0.68695,0 m 2.80065,0 0,0 0.7398,0 m 2.80066,0 0,0 0.68695,0 m 2.8535,0 0,0 0.68695,0 m 2.80065,0 0,0 0.7398,0 m 2.80065,0 0,0 0.68695,0 m 2.8535,0 0,0 0.68695,0 m 2.80066,0 0,0 0.73979,0 m 2.80066,0 0,0 0.68695,0 m 2.85349,0 0,0 0.68696,0 m 2.80065,0 0,0 0.73979,0 m 2.80066,0 0,0 0.68695,0 m 2.8535,0 0,0 0.68695,0 m 2.80066,0 0,0 0.7398,0 m 2.80064,0 0,0 0.68696,0 m 2.85349,0 0,0 0.68696,0 m 2.80065,0 0,0 0.7398,0 m 2.80065,0 0,0 0.68696,0 m 2.85349,0 0,0 0.68696,0 m 2.80064,0 0,0 0.7398,0 m 2.80066,0 0,0 0.68695,0 m 2.8535,0 0,0 0.68695,0 m 2.80066,0 0,0 0.73979,0 m 2.80065,0 0,0 0.68696,0 m -243.76258,21.31176 0,0 0.68695,0 m 2.8535,0 0,0 0.68695,0 m 2.80066,0 0,0 0.73979,0 m 2.80066,0 0,0 0.68695,0 m 2.8535,0 0,0 0.68695,0 m 2.80065,0 0,0 0.7398,0 m 2.80065,0 0,0 0.68695,0 m 2.8535,0 0,0 0.68695,0 m 2.80066,0 0,0 0.73979,0 m 2.80066,0 0,0 0.68695,0 m 2.8535,0 0,0 0.68695,0 m 2.80065,0 0,0 0.7398,0 m 2.80065,0 0,0 0.68696,0 m 2.85349,0 0,0 0.68695,0 m 2.80066,0 0,0 0.73979,0 m 2.80066,0 0,0 0.68695,0 m 2.8535,0 0,0 0.68695,0 m 2.80065,0 0,0 0.7398,0 m 2.80065,0 0,0 0.68695,0 m 2.8535,0 0,0 0.68695,0 m 2.80066,0 0,0 0.73979,0 m 2.80066,0 0,0 0.68695,0 m 2.85349,0 0,0 0.68696,0 m 2.80065,0 0,0 0.7398,0 m 2.80065,0 0,0 0.68695,0 m 2.85351,0 0,0 0.68695,0 m 2.80065,0 0,0 0.7398,0 m 2.80065,0 0,0 0.68695,0 m 2.8535,0 0,0 0.68695,0 m 2.80066,0 0,0 0.73979,0 m 2.80066,0 0,0 0.68695,0 m 2.85349,0 0,0 0.68696,0 m 2.80065,0 0,0 0.73979,0 m 2.80066,0 0,0 0.68695,0 m 2.8535,0 0,0 0.68695,0 m 2.80066,0 0,0 0.73979,0 m 2.80065,0 0,0 0.68696,0 m 2.85349,0 0,0 0.68695,0 m 2.80066,0 0,0 0.73979,0 m 2.80066,0 0,0 0.68695,0 m 2.8535,0 0,0 0.68695,0 m 2.80065,0 0,0 0.7398,0 m 2.80065,0 0,0 0.68695,0 m 2.8535,0 0,0 0.68696,0 m 2.80065,0 0,0 0.7398,0 m 2.80065,0 0,0 0.68696,0 m 2.85349,0 0,0 0.68695,0 m 2.80065,0 0,0 0.7398,0 m 2.80066,0 0,0 0.68695,0 m 2.8535,0 0,0 0.68695,0 m 2.80065,0 0,0 0.7398,0 m 2.80065,0 0,0 0.68695,0 m 2.8535,0 0,0 0.68695,0 m 2.80066,0 0,0 0.73979,0 m 2.80066,0 0,0 0.68695,0 m 2.85349,0 0,0 0.68696,0 m 2.80065,0 0,0 0.73979,0 m 2.80066,0 0,0 0.68695,0 m 2.8535,0 0,0 0.68695,0 m 2.80066,0 0,0 0.7398,0 m 2.80064,0 0,0 0.68696,0 m 2.85349,0 0,0 0.68696,0 m 2.80065,0 0,0 0.7398,0 m 2.80065,0 0,0 0.68696,0 m 2.85349,0 0,0 0.68696,0 m 2.80064,0 0,0 0.7398,0 m 2.80066,0 0,0 0.68695,0 m 2.8535,0 0,0 0.68695,0 m 2.80066,0 0,0 0.73979,0 m 2.80065,0 0,0 0.68696,0 m -243.76258,21.31177 0,0 0.68695,0 m 2.8535,0 0,0 0.68695,0 m 2.80066,0 0,0 0.73979,0 m 2.80066,0 0,0 0.68695,0 m 2.8535,0 0,0 0.68695,0 m 2.80065,0 0,0 0.7398,0 m 2.80065,0 0,0 0.68695,0 m 2.8535,0 0,0 0.68695,0 m 2.80066,0 0,0 0.73979,0 m 2.80066,0 0,0 0.68695,0 m 2.8535,0 0,0 0.68695,0 m 2.80065,0 0,0 0.7398,0 m 2.80065,0 0,0 0.68696,0 m 2.85349,0 0,0 0.68695,0 m 2.80066,0 0,0 0.73979,0 m 2.80066,0 0,0 0.68695,0 m 2.8535,0 0,0 0.68695,0 m 2.80065,0 0,0 0.7398,0 m 2.80065,0 0,0 0.68695,0 m 2.8535,0 0,0 0.68695,0 m 2.80066,0 0,0 0.73979,0 m 2.80066,0 0,0 0.68695,0 m 2.85349,0 0,0 0.68696,0 m 2.80065,0 0,0 0.7398,0 m 2.80065,0 0,0 0.68695,0 m 2.85351,0 0,0 0.68695,0 m 2.80065,0 0,0 0.7398,0 m 2.80065,0 0,0 0.68695,0 m 2.8535,0 0,0 0.68695,0 m 2.80066,0 0,0 0.73979,0 m 2.80066,0 0,0 0.68695,0 m 2.85349,0 0,0 0.68696,0 m 2.80065,0 0,0 0.73979,0 m 2.80066,0 0,0 0.68695,0 m 2.8535,0 0,0 0.68695,0 m 2.80066,0 0,0 0.73979,0 m 2.80065,0 0,0 0.68696,0 m 2.85349,0 0,0 0.68695,0 m 2.80066,0 0,0 0.73979,0 m 2.80066,0 0,0 0.68695,0 m 2.8535,0 0,0 0.68695,0 m 2.80065,0 0,0 0.7398,0 m 2.80065,0 0,0 0.68695,0 m 2.8535,0 0,0 0.68696,0 m 2.80065,0 0,0 0.7398,0 m 2.80065,0 0,0 0.68696,0 m 2.85349,0 0,0 0.68695,0 m 2.80065,0 0,0 0.7398,0 m 2.80066,0 0,0 0.68695,0 m 2.8535,0 0,0 0.68695,0 m 2.80065,0 0,0 0.7398,0 m 2.80065,0 0,0 0.68695,0 m 2.8535,0 0,0 0.68695,0 m 2.80066,0 0,0 0.73979,0 m 2.80066,0 0,0 0.68695,0 m 2.85349,0 0,0 0.68696,0 m 2.80065,0 0,0 0.73979,0 m 2.80066,0 0,0 0.68695,0 m 2.8535,0 0,0 0.68695,0 m 2.80066,0 0,0 0.7398,0 m 2.80064,0 0,0 0.68696,0 m 2.85349,0 0,0 0.68696,0 m 2.80065,0 0,0 0.7398,0 m 2.80065,0 0,0 0.68696,0 m 2.85349,0 0,0 0.68696,0 m 2.80064,0 0,0 0.7398,0 m 2.80066,0 0,0 0.68695,0 m 2.8535,0 0,0 0.68695,0 m 2.80066,0 0,0 0.73979,0 m 2.80065,0 0,0 0.68696,0 m -243.76258,21.25901 0,0 0.68695,0 m 2.8535,0 0,0 0.68695,0 m 2.80066,0 0,0 0.73979,0 m 2.80066,0 0,0 0.68695,0 m 2.8535,0 0,0 0.68695,0 m 2.80065,0 0,0 0.7398,0 m 2.80065,0 0,0 0.68695,0 m 2.8535,0 0,0 0.68695,0 m 2.80066,0 0,0 0.73979,0 m 2.80066,0 0,0 0.68695,0 m 2.8535,0 0,0 0.68695,0 m 2.80065,0 0,0 0.7398,0 m 2.80065,0 0,0 0.68696,0 m 2.85349,0 0,0 0.68695,0 m 2.80066,0 0,0 0.73979,0 m 2.80066,0 0,0 0.68695,0 m 2.8535,0 0,0 0.68695,0 m 2.80065,0 0,0 0.7398,0 m 2.80065,0 0,0 0.68695,0 m 2.8535,0 0,0 0.68695,0 m 2.80066,0 0,0 0.73979,0 m 2.80066,0 0,0 0.68695,0 m 2.85349,0 0,0 0.68696,0 m 2.80065,0 0,0 0.7398,0 m 2.80065,0 0,0 0.68695,0 m 2.85351,0 0,0 0.68695,0 m 2.80065,0 0,0 0.7398,0 m 2.80065,0 0,0 0.68695,0 m 2.8535,0 0,0 0.68695,0 m 2.80066,0 0,0 0.73979,0 m 2.80066,0 0,0 0.68695,0 m 2.85349,0 0,0 0.68696,0 m 2.80065,0 0,0 0.73979,0 m 2.80066,0 0,0 0.68695,0 m 2.8535,0 0,0 0.68695,0 m 2.80066,0 0,0 0.73979,0 m 2.80065,0 0,0 0.68696,0 m 2.85349,0 0,0 0.68695,0 m 2.80066,0 0,0 0.73979,0 m 2.80066,0 0,0 0.68695,0 m 2.8535,0 0,0 0.68695,0 m 2.80065,0 0,0 0.7398,0 m 2.80065,0 0,0 0.68695,0 m 2.8535,0 0,0 0.68696,0 m 2.80065,0 0,0 0.7398,0 m 2.80065,0 0,0 0.68696,0 m 2.85349,0 0,0 0.68695,0 m 2.80065,0 0,0 0.7398,0 m 2.80066,0 0,0 0.68695,0 m 2.8535,0 0,0 0.68695,0 m 2.80065,0 0,0 0.7398,0 m 2.80065,0 0,0 0.68695,0 m 2.8535,0 0,0 0.68695,0 m 2.80066,0 0,0 0.73979,0 m 2.80066,0 0,0 0.68695,0 m 2.85349,0 0,0 0.68696,0 m 2.80065,0 0,0 0.73979,0 m 2.80066,0 0,0 0.68695,0 m 2.8535,0 0,0 0.68695,0 m 2.80066,0 0,0 0.7398,0 m 2.80064,0 0,0 0.68696,0 m 2.85349,0 0,0 0.68696,0 m 2.80065,0 0,0 0.7398,0 m 2.80065,0 0,0 0.68696,0 m 2.85349,0 0,0 0.68696,0 m 2.80064,0 0,0 0.7398,0 m 2.80066,0 0,0 0.68695,0 m 2.8535,0 0,0 0.68695,0 m 2.80066,0 0,0 0.73979,0 m 2.80065,0 0,0 0.68696,0 m -243.76258,21.25902 0,0 0.68695,0 m 2.8535,0 0,0 0.68695,0 m 2.80066,0 0,0 0.73979,0 m 2.80066,0 0,0 0.68695,0 m 2.8535,0 0,0 0.68695,0 m 2.80065,0 0,0 0.7398,0 m 2.80065,0 0,0 0.68695,0 m 2.8535,0 0,0 0.68695,0 m 2.80066,0 0,0 0.73979,0 m 2.80066,0 0,0 0.68695,0 m 2.8535,0 0,0 0.68695,0 m 2.80065,0 0,0 0.7398,0 m 2.80065,0 0,0 0.68696,0 m 2.85349,0 0,0 0.68695,0 m 2.80066,0 0,0 0.73979,0 m 2.80066,0 0,0 0.68695,0 m 2.8535,0 0,0 0.68695,0 m 2.80065,0 0,0 0.7398,0 m 2.80065,0 0,0 0.68695,0 m 2.8535,0 0,0 0.68695,0 m 2.80066,0 0,0 0.73979,0 m 2.80066,0 0,0 0.68695,0 m 2.85349,0 0,0 0.68696,0 m 2.80065,0 0,0 0.7398,0 m 2.80065,0 0,0 0.68695,0 m 2.85351,0 0,0 0.68695,0 m 2.80065,0 0,0 0.7398,0 m 2.80065,0 0,0 0.68695,0 m 2.8535,0 0,0 0.68695,0 m 2.80066,0 0,0 0.73979,0 m 2.80066,0 0,0 0.68695,0 m 2.85349,0 0,0 0.68696,0 m 2.80065,0 0,0 0.73979,0 m 2.80066,0 0,0 0.68695,0 m 2.8535,0 0,0 0.68695,0 m 2.80066,0 0,0 0.73979,0 m 2.80065,0 0,0 0.68696,0 m 2.85349,0 0,0 0.68695,0 m 2.80066,0 0,0 0.73979,0 m 2.80066,0 0,0 0.68695,0 m 2.8535,0 0,0 0.68695,0 m 2.80065,0 0,0 0.7398,0 m 2.80065,0 0,0 0.68695,0 m 2.8535,0 0,0 0.68696,0 m 2.80065,0 0,0 0.7398,0 m 2.80065,0 0,0 0.68696,0 m 2.85349,0 0,0 0.68695,0 m 2.80065,0 0,0 0.7398,0 m 2.80066,0 0,0 0.68695,0 m 2.8535,0 0,0 0.68695,0 m 2.80065,0 0,0 0.7398,0 m 2.80065,0 0,0 0.68695,0 m 2.8535,0 0,0 0.68695,0 m 2.80066,0 0,0 0.73979,0 m 2.80066,0 0,0 0.68695,0 m 2.85349,0 0,0 0.68696,0 m 2.80065,0 0,0 0.73979,0 m 2.80066,0 0,0 0.68695,0 m 2.8535,0 0,0 0.68695,0 m 2.80066,0 0,0 0.7398,0 m 2.80064,0 0,0 0.68696,0 m 2.85349,0 0,0 0.68696,0 m 2.80065,0 0,0 0.7398,0 m 2.80065,0 0,0 0.68696,0 m 2.85349,0 0,0 0.68696,0 m 2.80064,0 0,0 0.7398,0 m 2.80066,0 0,0 0.68695,0 m 2.8535,0 0,0 0.68695,0 m 2.80066,0 0,0 0.73979,0 m 2.80065,0 0,0 0.68696,0 m -243.76258,21.31176 0,0 0.68695,0 m 2.8535,0 0,0 0.68695,0 m 2.80066,0 0,0 0.73979,0 m 2.80066,0 0,0 0.68695,0 m 2.8535,0 0,0 0.68695,0 m 2.80065,0 0,0 0.7398,0 m 2.80065,0 0,0 0.68695,0 m 2.8535,0 0,0 0.68695,0 m 2.80066,0 0,0 0.73979,0 m 2.80066,0 0,0 0.68695,0 m 2.8535,0 0,0 0.68695,0 m 2.80065,0 0,0 0.7398,0 m 2.80065,0 0,0 0.68696,0 m 2.85349,0 0,0 0.68695,0 m 2.80066,0 0,0 0.73979,0 m 2.80066,0 0,0 0.68695,0 m 2.8535,0 0,0 0.68695,0 m 2.80065,0 0,0 0.7398,0 m 2.80065,0 0,0 0.68695,0 m 2.8535,0 0,0 0.68695,0 m 2.80066,0 0,0 0.73979,0 m 2.80066,0 0,0 0.68695,0 m 2.85349,0 0,0 0.68696,0 m 2.80065,0 0,0 0.7398,0 m 2.80065,0 0,0 0.68695,0 m 2.85351,0 0,0 0.68695,0 m 2.80065,0 0,0 0.7398,0 m 2.80065,0 0,0 0.68695,0 m 2.8535,0 0,0 0.68695,0 m 2.80066,0 0,0 0.73979,0 m 2.80066,0 0,0 0.68695,0 m 2.85349,0 0,0 0.68696,0 m 2.80065,0 0,0 0.73979,0 m 2.80066,0 0,0 0.68695,0 m 2.8535,0 0,0 0.68695,0 m 2.80066,0 0,0 0.73979,0 m 2.80065,0 0,0 0.68696,0 m 2.85349,0 0,0 0.68695,0 m 2.80066,0 0,0 0.73979,0 m 2.80066,0 0,0 0.68695,0 m 2.8535,0 0,0 0.68695,0 m 2.80065,0 0,0 0.7398,0 m 2.80065,0 0,0 0.68695,0 m 2.8535,0 0,0 0.68696,0 m 2.80065,0 0,0 0.7398,0 m 2.80065,0 0,0 0.68696,0 m 2.85349,0 0,0 0.68695,0 m 2.80065,0 0,0 0.7398,0 m 2.80066,0 0,0 0.68695,0 m 2.8535,0 0,0 0.68695,0 m 2.80065,0 0,0 0.7398,0 m 2.80065,0 0,0 0.68695,0 m 2.8535,0 0,0 0.68695,0 m 2.80066,0 0,0 0.73979,0 m 2.80066,0 0,0 0.68695,0 m 2.85349,0 0,0 0.68696,0 m 2.80065,0 0,0 0.73979,0 m 2.80066,0 0,0 0.68695,0 m 2.8535,0 0,0 0.68695,0 m 2.80066,0 0,0 0.7398,0 m 2.80064,0 0,0 0.68696,0 m 2.85349,0 0,0 0.68696,0 m 2.80065,0 0,0 0.7398,0 m 2.80065,0 0,0 0.68696,0 m 2.85349,0 0,0 0.68696,0 m 2.80064,0 0,0 0.7398,0 m 2.80066,0 0,0 0.68695,0 m 2.8535,0 0,0 0.68695,0 m 2.80066,0 0,0 0.73979,0 m 2.80065,0 0,0 0.68696,0 m -243.76258,21.25901 0,0 0.68695,0 m 2.8535,0 0,0 0.68695,0 m 2.80066,0 0,0 0.73979,0 m 2.80066,0 0,0 0.68695,0 m 2.8535,0 0,0 0.68695,0 m 2.80065,0 0,0 0.7398,0 m 2.80065,0 0,0 0.68695,0 m 2.8535,0 0,0 0.68695,0 m 2.80066,0 0,0 0.73979,0 m 2.80066,0 0,0 0.68695,0 m 2.8535,0 0,0 0.68695,0 m 2.80065,0 0,0 0.7398,0 m 2.80065,0 0,0 0.68696,0 m 2.85349,0 0,0 0.68695,0 m 2.80066,0 0,0 0.73979,0 m 2.80066,0 0,0 0.68695,0 m 2.8535,0 0,0 0.68695,0 m 2.80065,0 0,0 0.7398,0 m 2.80065,0 0,0 0.68695,0 m 2.8535,0 0,0 0.68695,0 m 2.80066,0 0,0 0.73979,0 m 2.80066,0 0,0 0.68695,0 m 2.85349,0 0,0 0.68696,0 m 2.80065,0 0,0 0.7398,0 m 2.80065,0 0,0 0.68695,0 m 2.85351,0 0,0 0.68695,0 m 2.80065,0 0,0 0.7398,0 m 2.80065,0 0,0 0.68695,0 m 2.8535,0 0,0 0.68695,0 m 2.80066,0 0,0 0.73979,0 m 2.80066,0 0,0 0.68695,0 m 2.85349,0 0,0 0.68696,0 m 2.80065,0 0,0 0.73979,0 m 2.80066,0 0,0 0.68695,0 m 2.8535,0 0,0 0.68695,0 m 2.80066,0 0,0 0.73979,0 m 2.80065,0 0,0 0.68696,0 m 2.85349,0 0,0 0.68695,0 m 2.80066,0 0,0 0.73979,0 m 2.80066,0 0,0 0.68695,0 m 2.8535,0 0,0 0.68695,0 m 2.80065,0 0,0 0.7398,0 m 2.80065,0 0,0 0.68695,0 m 2.8535,0 0,0 0.68696,0 m 2.80065,0 0,0 0.7398,0 m 2.80065,0 0,0 0.68696,0 m 2.85349,0 0,0 0.68695,0 m 2.80065,0 0,0 0.7398,0 m 2.80066,0 0,0 0.68695,0 m 2.8535,0 0,0 0.68695,0 m 2.80065,0 0,0 0.7398,0 m 2.80065,0 0,0 0.68695,0 m 2.8535,0 0,0 0.68695,0 m 2.80066,0 0,0 0.73979,0 m 2.80066,0 0,0 0.68695,0 m 2.85349,0 0,0 0.68696,0 m 2.80065,0 0,0 0.73979,0 m 2.80066,0 0,0 0.68695,0 m 2.8535,0 0,0 0.68695,0 m 2.80066,0 0,0 0.7398,0 m 2.80064,0 0,0 0.68696,0 m 2.85349,0 0,0 0.68696,0 m 2.80065,0 0,0 0.7398,0 m 2.80065,0 0,0 0.68696,0 m 2.85349,0 0,0 0.68696,0 m 2.80064,0 0,0 0.7398,0 m 2.80066,0 0,0 0.68695,0 m 2.8535,0 0,0 0.68695,0 m 2.80066,0 0,0 0.73979,0 m 2.80065,0 0,0 0.68696,0 m -243.76258,21.25902 0,0 0.68695,0 m 2.8535,0 0,0 0.68695,0 m 2.80066,0 0,0 0.73979,0 m 2.80066,0 0,0 0.68695,0 m 2.8535,0 0,0 0.68695,0 m 2.80065,0 0,0 0.7398,0 m 2.80065,0 0,0 0.68695,0 m 2.8535,0 0,0 0.68695,0 m 2.80066,0 0,0 0.73979,0 m 2.80066,0 0,0 0.68695,0 m 2.8535,0 0,0 0.68695,0 m 2.80065,0 0,0 0.7398,0 m 2.80065,0 0,0 0.68696,0 m 2.85349,0 0,0 0.68695,0 m 2.80066,0 0,0 0.73979,0 m 2.80066,0 0,0 0.68695,0 m 2.8535,0 0,0 0.68695,0 m 2.80065,0 0,0 0.7398,0 m 2.80065,0 0,0 0.68695,0 m 2.8535,0 0,0 0.68695,0 m 2.80066,0 0,0 0.73979,0 m 2.80066,0 0,0 0.68695,0 m 2.85349,0 0,0 0.68696,0 m 2.80065,0 0,0 0.7398,0 m 2.80065,0 0,0 0.68695,0 m 2.85351,0 0,0 0.68695,0 m 2.80065,0 0,0 0.7398,0 m 2.80065,0 0,0 0.68695,0 m 2.8535,0 0,0 0.68695,0 m 2.80066,0 0,0 0.73979,0 m 2.80066,0 0,0 0.68695,0 m 2.85349,0 0,0 0.68696,0 m 2.80065,0 0,0 0.73979,0 m 2.80066,0 0,0 0.68695,0 m 2.8535,0 0,0 0.68695,0 m 2.80066,0 0,0 0.73979,0 m 2.80065,0 0,0 0.68696,0 m 2.85349,0 0,0 0.68695,0 m 2.80066,0 0,0 0.73979,0 m 2.80066,0 0,0 0.68695,0 m 2.8535,0 0,0 0.68695,0 m 2.80065,0 0,0 0.7398,0 m 2.80065,0 0,0 0.68695,0 m 2.8535,0 0,0 0.68696,0 m 2.80065,0 0,0 0.7398,0 m 2.80065,0 0,0 0.68696,0 m 2.85349,0 0,0 0.68695,0 m 2.80065,0 0,0 0.7398,0 m 2.80066,0 0,0 0.68695,0 m 2.8535,0 0,0 0.68695,0 m 2.80065,0 0,0 0.7398,0 m 2.80065,0 0,0 0.68695,0 m 2.8535,0 0,0 0.68695,0 m 2.80066,0 0,0 0.73979,0 m 2.80066,0 0,0 0.68695,0 m 2.85349,0 0,0 0.68696,0 m 2.80065,0 0,0 0.73979,0 m 2.80066,0 0,0 0.68695,0 m 2.8535,0 0,0 0.68695,0 m 2.80066,0 0,0 0.7398,0 m 2.80064,0 0,0 0.68696,0 m 2.85349,0 0,0 0.68696,0 m 2.80065,0 0,0 0.7398,0 m 2.80065,0 0,0 0.68696,0 m 2.85349,0 0,0 0.68696,0 m 2.80064,0 0,0 0.7398,0 m 2.80066,0 0,0 0.68695,0 m 2.8535,0 0,0 0.68695,0 m 2.80066,0 0,0 0.73979,0 m 2.80065,0 0,0 0.68696,0 m -243.76258,21.31176 0,0 0.68695,0 m 2.8535,0 0,0 0.68695,0 m 2.80066,0 0,0 0.73979,0 m 2.80066,0 0,0 0.68695,0 m 2.8535,0 0,0 0.68695,0 m 2.80065,0 0,0 0.7398,0 m 2.80065,0 0,0 0.68695,0 m 2.8535,0 0,0 0.68695,0 m 2.80066,0 0,0 0.73979,0 m 2.80066,0 0,0 0.68695,0 m 2.8535,0 0,0 0.68695,0 m 2.80065,0 0,0 0.7398,0 m 2.80065,0 0,0 0.68696,0 m 2.85349,0 0,0 0.68695,0 m 2.80066,0 0,0 0.73979,0 m 2.80066,0 0,0 0.68695,0 m 2.8535,0 0,0 0.68695,0 m 2.80065,0 0,0 0.7398,0 m 2.80065,0 0,0 0.68695,0 m 2.8535,0 0,0 0.68695,0 m 2.80066,0 0,0 0.73979,0 m 2.80066,0 0,0 0.68695,0 m 2.85349,0 0,0 0.68696,0 m 2.80065,0 0,0 0.7398,0 m 2.80065,0 0,0 0.68695,0 m 2.85351,0 0,0 0.68695,0 m 2.80065,0 0,0 0.7398,0 m 2.80065,0 0,0 0.68695,0 m 2.8535,0 0,0 0.68695,0 m 2.80066,0 0,0 0.73979,0 m 2.80066,0 0,0 0.68695,0 m 2.85349,0 0,0 0.68696,0 m 2.80065,0 0,0 0.73979,0 m 2.80066,0 0,0 0.68695,0 m 2.8535,0 0,0 0.68695,0 m 2.80066,0 0,0 0.73979,0 m 2.80065,0 0,0 0.68696,0 m 2.85349,0 0,0 0.68695,0 m 2.80066,0 0,0 0.73979,0 m 2.80066,0 0,0 0.68695,0 m 2.8535,0 0,0 0.68695,0 m 2.80065,0 0,0 0.7398,0 m 2.80065,0 0,0 0.68695,0 m 2.8535,0 0,0 0.68696,0 m 2.80065,0 0,0 0.7398,0 m 2.80065,0 0,0 0.68696,0 m 2.85349,0 0,0 0.68695,0 m 2.80065,0 0,0 0.7398,0 m 2.80066,0 0,0 0.68695,0 m 2.8535,0 0,0 0.68695,0 m 2.80065,0 0,0 0.7398,0 m 2.80065,0 0,0 0.68695,0 m 2.8535,0 0,0 0.68695,0 m 2.80066,0 0,0 0.73979,0 m 2.80066,0 0,0 0.68695,0 m 2.85349,0 0,0 0.68696,0 m 2.80065,0 0,0 0.73979,0 m 2.80066,0 0,0 0.68695,0 m 2.8535,0 0,0 0.68695,0 m 2.80066,0 0,0 0.7398,0 m 2.80064,0 0,0 0.68696,0 m 2.85349,0 0,0 0.68696,0 m 2.80065,0 0,0 0.7398,0 m 2.80065,0 0,0 0.68696,0 m 2.85349,0 0,0 0.68696,0 m 2.80064,0 0,0 0.7398,0 m 2.80066,0 0,0 0.68695,0 m 2.8535,0 0,0 0.68695,0 m 2.80066,0 0,0 0.73979,0 m 2.80065,0 0,0 0.68696,0"
   id="path3635"
   style="fill:none;stroke:#000000;stroke-width:0.21137011px;stroke-linecap:butt;stroke-linejoin:round;stroke-opacity:1;stroke-dasharray:none" /><path
   d="m 156.93616,180.92483 0,0 244.60806,0 m -244.60806,191.59488 0,0 244.60806,0 m -244.60806,-191.59488 0,0 0,191.59488 m 244.60806,-191.59488 0,0 0,191.59488 m -244.60806,-191.59488 0,0 244.60806,0 m -244.60806,0 0,0 0,191.59488 m 0,-191.59488 0,0 0,2.42658 m 0,189.1683 0,0 0,-2.47934"
   id="path3637"
   style="fill:none;stroke:#000000;stroke-width:0.31705517px;stroke-linecap:butt;stroke-linejoin:round;stroke-opacity:1;stroke-dasharray:none" /><path
   d="m 156.88332,176.33541 0,0 c 1.00401,0 1.7438,-0.42201 2.21938,-1.26605 0.31706,-0.63302 0.52843,-1.5298 0.52843,-2.63759 0,-1.05504 -0.15853,-1.95182 -0.47558,-2.6376 -0.47559,-1.00228 -1.21538,-1.5298 -2.27223,-1.5298 -0.95117,0 -1.63812,0.42202 -2.1137,1.26605 -0.3699,0.63302 -0.58127,1.58255 -0.58127,2.7431 0,0.89678 0.10568,1.6353 0.31705,2.26832 0.47559,1.2133 1.21538,1.79357 2.37792,1.79357 l 0,0 z m 0,-7.17425 0,0 c 0.47558,0 0.89832,0.26376 1.21538,0.68576 0.31705,0.47477 0.47558,1.3188 0.47558,2.5321 0,0.89678 -0.15853,1.6353 -0.3699,2.21558 -0.21137,0.58027 -0.63411,0.84403 -1.26822,0.84403 -0.58127,0 -1.00401,-0.26376 -1.26822,-0.79128 -0.26421,-0.58027 -0.42274,-1.37155 -0.42274,-2.42659 0,-0.79128 0.10568,-1.4243 0.26421,-1.95182 0.26421,-0.73852 0.7398,-1.10778 1.37391,-1.10778 l 0,0 z"
   id="path3639"
   style="fill:#000000;fill-opacity:1;fill-rule:evenodd;stroke:none" /><path
   d="m 205.86834,180.92483 0,0 0,2.42658 m 0,189.1683 0,0 0,-2.47934"
   id="path3641"
   style="fill:none;stroke:#000000;stroke-width:0.31705517px;stroke-linecap:butt;stroke-linejoin:round;stroke-opacity:1;stroke-dasharray:none" /><path
   d="m 200.00282,168.47538 0,0 c 0,0.68578 0.15852,1.26605 0.42274,1.79356 0.21137,0.47477 0.68695,0.94954 1.42674,1.37155 l 1.05686,0.58027 c 0.42274,0.26376 0.79264,0.52752 0.95116,0.73853 0.31706,0.26376 0.47558,0.63303 0.47558,1.00228 0,0.47477 -0.15852,0.84403 -0.42273,1.10779 -0.26422,0.26376 -0.63411,0.42202 -1.1097,0.42202 -0.68695,0 -1.10969,-0.26376 -1.3739,-0.79128 -0.15853,-0.26376 -0.21137,-0.63302 -0.26422,-1.16054 l -1.00401,0 c 0,0.68577 0.15853,1.26604 0.36991,1.68806 0.47557,0.79128 1.21537,1.16054 2.27222,1.16054 0.89833,0 1.58528,-0.26376 2.00802,-0.73852 0.42274,-0.47477 0.63411,-1.05504 0.63411,-1.63532 0,-0.63301 -0.26422,-1.16053 -0.68695,-1.58255 -0.26422,-0.26376 -0.7398,-0.58027 -1.37391,-0.94953 l -0.7398,-0.42202 c -0.36989,-0.21101 -0.68695,-0.42202 -0.84548,-0.58027 -0.36989,-0.31651 -0.63411,-0.68578 -0.68695,-1.05503 l 4.28025,0 0,-0.94954 -5.38994,0 z"
   id="path3643"
   style="fill:#000000;fill-opacity:1;fill-rule:evenodd;stroke:none" /><path
   d="m 208.93321,176.33541 0,0 c 1.00401,0 1.7438,-0.42201 2.21938,-1.26605 0.3699,-0.63302 0.52843,-1.5298 0.52843,-2.63759 0,-1.05504 -0.15853,-1.95182 -0.47559,-2.6376 -0.47557,-1.00228 -1.21537,-1.5298 -2.27222,-1.5298 -0.95117,0 -1.63812,0.42202 -2.11371,1.26605 -0.36989,0.63302 -0.58126,1.58255 -0.58126,2.7431 0,0.89678 0.10568,1.6353 0.3699,2.26832 0.42273,1.2133 1.21537,1.79357 2.32507,1.79357 l 0,0 z m 0,-7.17425 0,0 c 0.52842,0 0.89832,0.26376 1.21537,0.68576 0.31706,0.47477 0.47559,1.3188 0.47559,2.5321 0,0.89678 -0.10569,1.6353 -0.31706,2.21558 -0.26421,0.58027 -0.68695,0.84403 -1.32106,0.84403 -0.58127,0 -1.00401,-0.26376 -1.26822,-0.79128 -0.26421,-0.58027 -0.42274,-1.37155 -0.42274,-2.42659 0,-0.79128 0.10569,-1.4243 0.26421,-1.95182 0.26421,-0.73852 0.7398,-1.10778 1.37391,-1.10778 l 0,0 z"
   id="path3645"
   style="fill:#000000;fill-opacity:1;fill-rule:evenodd;stroke:none" /><path
   d="m 254.74768,180.92483 0,0 0,2.42658 m 0,189.1683 0,0 0,-2.47934"
   id="path3647"
   style="fill:none;stroke:#000000;stroke-width:0.31705517px;stroke-linecap:butt;stroke-linejoin:round;stroke-opacity:1;stroke-dasharray:none" /><path
   d="m 252.26408,171.27123 0,0 0,3.58713 -2.53644,-3.58713 2.53644,0 z m 0,-2.79585 0,0 0,1.95182 -3.43477,0 0,0.94953 3.5933,5.01143 0.84548,0 0,-5.11693 1.16253,0 0,-0.84403 -1.16253,0 0,-1.95182 -1.00401,0 z"
   id="path3649"
   style="fill:#000000;fill-opacity:1;fill-rule:evenodd;stroke:none" /><path
   d="m 257.86538,176.33541 0,0 c 1.00401,0 1.74381,-0.42201 2.2194,-1.26605 0.31704,-0.63302 0.52842,-1.5298 0.52842,-2.63759 0,-1.05504 -0.15853,-1.95182 -0.52842,-2.6376 -0.42275,-1.00228 -1.21539,-1.5298 -2.2194,-1.5298 -0.95116,0 -1.69096,0.42202 -2.11369,1.26605 -0.42275,0.63302 -0.58127,1.58255 -0.58127,2.7431 0,0.89678 0.10568,1.6353 0.31705,2.26832 0.47559,1.2133 1.21538,1.79357 2.37791,1.79357 l 0,0 z m 0,-7.17425 0,0 c 0.47559,0 0.89833,0.26376 1.21539,0.68576 0.26421,0.47477 0.42273,1.3188 0.42273,2.5321 0,0.89678 -0.10568,1.6353 -0.31705,2.21558 -0.21137,0.58027 -0.63411,0.84403 -1.26822,0.84403 -0.58127,0 -1.00401,-0.26376 -1.26822,-0.79128 -0.26422,-0.58027 -0.42275,-1.37155 -0.42275,-2.42659 0,-0.79128 0.10569,-1.4243 0.26422,-1.95182 0.26422,-0.73852 0.68695,-1.10778 1.3739,-1.10778 l 0,0 z"
   id="path3651"
   style="fill:#000000;fill-opacity:1;fill-rule:evenodd;stroke:none" /><path
   d="m 303.67986,180.92483 0,0 0,2.42658 m 0,189.1683 0,0 0,-2.47934"
   id="path3653"
   style="fill:none;stroke:#000000;stroke-width:0.31705517px;stroke-linecap:butt;stroke-linejoin:round;stroke-opacity:1;stroke-dasharray:none" /><path
   d="m 300.72067,176.38816 0,0 c 0.89833,0 1.53244,-0.211 1.84949,-0.68577 0.3699,-0.47477 0.52843,-0.94954 0.52843,-1.42431 l -1.00401,0 c -0.0529,0.31652 -0.10568,0.58028 -0.26421,0.73853 -0.21137,0.31651 -0.58127,0.47477 -1.05685,0.47477 -0.58127,0 -1.00401,-0.21101 -1.32106,-0.73853 -0.31706,-0.52752 -0.52843,-1.26604 -0.58128,-2.21557 0.26422,0.36926 0.52843,0.58027 0.89833,0.73852 0.31706,0.15826 0.63411,0.26376 1.05685,0.26376 0.63411,0 1.21538,-0.211 1.69096,-0.63302 0.52842,-0.42202 0.7398,-1.05504 0.7398,-1.89907 0,-0.73853 -0.21138,-1.31879 -0.68696,-1.89907 -0.47558,-0.52752 -1.10969,-0.84403 -2.00802,-0.84403 -0.73979,0 -1.3739,0.31651 -1.90232,0.84403 -0.52843,0.58028 -0.79264,1.5298 -0.79264,2.8486 0,0.94954 0.10568,1.79357 0.3699,2.47934 0.42274,1.26605 1.26822,1.95182 2.48359,1.95182 l 0,0 z m -0.0528,-7.227 0,0 c 0.52843,0 0.89832,0.15825 1.16254,0.52752 0.26421,0.36925 0.36989,0.73852 0.36989,1.21328 0,0.42202 -0.10568,0.79128 -0.31705,1.16055 -0.21137,0.36926 -0.63411,0.58027 -1.26822,0.58027 -0.42274,0 -0.79264,-0.15826 -1.10969,-0.42202 -0.31706,-0.31651 -0.47559,-0.73852 -0.47559,-1.3188 0,-0.47476 0.15853,-0.89678 0.42275,-1.21328 0.31705,-0.36927 0.68695,-0.52752 1.21537,-0.52752 l 0,0 z"
   id="path3655"
   style="fill:#000000;fill-opacity:1;fill-rule:evenodd;stroke:none" /><path
   d="m 306.74472,176.33541 0,0 c 1.05686,0 1.74381,-0.42201 2.21939,-1.26605 0.3699,-0.63302 0.52843,-1.5298 0.52843,-2.63759 0,-1.05504 -0.15853,-1.95182 -0.47559,-2.6376 -0.47558,-1.00228 -1.21537,-1.5298 -2.27223,-1.5298 -0.95116,0 -1.63811,0.42202 -2.1137,1.26605 -0.36989,0.63302 -0.58127,1.58255 -0.58127,2.7431 0,0.89678 0.10569,1.6353 0.3699,2.26832 0.42274,1.2133 1.21538,1.79357 2.32507,1.79357 l 0,0 z m 0,-7.17425 0,0 c 0.52843,0 0.95117,0.26376 1.21538,0.68576 0.31706,0.47477 0.47558,1.3188 0.47558,2.5321 0,0.89678 -0.10568,1.6353 -0.31705,2.21558 -0.26421,0.58027 -0.68696,0.84403 -1.32106,0.84403 -0.58127,0 -1.00401,-0.26376 -1.26823,-0.79128 -0.2642,-0.58027 -0.36989,-1.37155 -0.36989,-2.42659 0,-0.79128 0.0528,-1.4243 0.21137,-1.95182 0.26421,-0.73852 0.7398,-1.10778 1.3739,-1.10778 l 0,0 z"
   id="path3657"
   style="fill:#000000;fill-opacity:1;fill-rule:evenodd;stroke:none" /><path
   d="m 352.55919,180.92483 0,0 0,2.42658 m 0,189.1683 0,0 0,-2.47934"
   id="path3659"
   style="fill:none;stroke:#000000;stroke-width:0.31705517px;stroke-linecap:butt;stroke-linejoin:round;stroke-opacity:1;stroke-dasharray:none" /><path
   d="m 349.44149,173.0648 0,0 c 0.42273,0 0.73979,0.1055 1.00401,0.36926 0.2642,0.21101 0.36989,0.52751 0.36989,0.84402 0,0.31652 -0.10569,0.58028 -0.36989,0.79128 -0.21138,0.26376 -0.58128,0.36927 -1.05686,0.36927 -0.47558,0 -0.84548,-0.10551 -1.05685,-0.36927 -0.21137,-0.211 -0.31705,-0.52752 -0.31705,-0.84403 0,-0.36926 0.15852,-0.63301 0.42274,-0.84402 0.26421,-0.21101 0.58126,-0.31651 1.00401,-0.31651 l 0,0 z m 0.0529,-3.90364 0,0 c 0.42273,0 0.84548,0.1055 1.10969,0.36926 0.31705,0.26375 0.47558,0.63302 0.47558,1.10778 0,0.52752 -0.15853,0.89679 -0.47558,1.16055 -0.31705,0.26376 -0.68696,0.36926 -1.21538,0.36926 -0.47558,0 -0.84548,-0.1055 -1.16254,-0.36926 -0.2642,-0.26376 -0.42273,-0.63303 -0.42273,-1.10779 0,-0.42202 0.15853,-0.79128 0.42273,-1.05504 0.26422,-0.31651 0.68696,-0.47476 1.26823,-0.47476 l 0,0 z m -1.42675,3.53437 0,0 c -0.26421,0.10551 -0.47559,0.21101 -0.63411,0.36927 -0.31705,0.31651 -0.42274,0.68577 -0.42274,1.16053 0,0.58027 0.21137,1.10779 0.63411,1.52981 0.42274,0.42202 1.00401,0.63302 1.79665,0.63302 0.73979,0 1.32105,-0.211 1.79664,-0.63302 0.42274,-0.36926 0.63411,-0.84403 0.63411,-1.37155 0,-0.47477 -0.15853,-0.89678 -0.3699,-1.21329 -0.15852,-0.15826 -0.36989,-0.31651 -0.68695,-0.47477 0.3699,-0.15825 0.58127,-0.31651 0.79263,-0.52752 0.36991,-0.36926 0.52844,-0.84403 0.52844,-1.4243 0,-0.68578 -0.26422,-1.26604 -0.68696,-1.74081 -0.47558,-0.47477 -1.16253,-0.73853 -2.00801,-0.73853 -0.7398,0 -1.37391,0.21101 -1.90234,0.63303 -0.58126,0.42201 -0.84548,1.00228 -0.84548,1.79356 0,0.47476 0.15853,0.84403 0.3699,1.21329 0.21137,0.31651 0.58127,0.58027 1.00401,0.79128 l 0,0 z"
   id="path3661"
   style="fill:#000000;fill-opacity:1;fill-rule:evenodd;stroke:none" /><path
   d="m 355.6769,176.33541 0,0 c 1.00401,0 1.7438,-0.42201 2.21939,-1.26605 0.31705,-0.63302 0.52842,-1.5298 0.52842,-2.63759 0,-1.05504 -0.15853,-1.95182 -0.47558,-2.6376 -0.47558,-1.00228 -1.21538,-1.5298 -2.27223,-1.5298 -0.95116,0 -1.63812,0.42202 -2.1137,1.26605 -0.3699,0.63302 -0.58126,1.58255 -0.58126,2.7431 0,0.89678 0.10568,1.6353 0.31705,2.26832 0.47558,1.2133 1.21538,1.79357 2.37791,1.79357 l 0,0 z m 0,-7.17425 0,0 c 0.47559,0 0.89832,0.26376 1.21538,0.68576 0.31706,0.47477 0.42274,1.3188 0.42274,2.5321 0,0.89678 -0.10568,1.6353 -0.31705,2.21558 -0.21138,0.58027 -0.63411,0.84403 -1.26823,0.84403 -0.58126,0 -1.004,-0.26376 -1.26821,-0.79128 -0.26422,-0.58027 -0.42275,-1.37155 -0.42275,-2.42659 0,-0.79128 0.10569,-1.4243 0.26422,-1.95182 0.26421,-0.73852 0.73979,-1.10778 1.3739,-1.10778 l 0,0 z"
   id="path3663"
   style="fill:#000000;fill-opacity:1;fill-rule:evenodd;stroke:none" /><path
   d="m 401.54422,180.92483 0,0 0,2.42658 m 0,189.1683 0,0 0,-2.47934"
   id="path3665"
   style="fill:none;stroke:#000000;stroke-width:0.31705517px;stroke-linecap:butt;stroke-linejoin:round;stroke-opacity:1;stroke-dasharray:none" /><path
   d="m 393.24794,174.06708 0,0 0,0.73852 c 0.68695,0.0527 1.21538,0.21101 1.47959,0.36927 0.26421,0.15825 0.47558,0.52752 0.63411,1.16054 l 0.79264,0 0,-7.86003 -1.05686,0 0,5.5917 -1.84948,0 z"
   id="path3667"
   style="fill:#000000;fill-opacity:1;fill-rule:evenodd;stroke:none" /><path
   d="m 401.49138,176.33541 0,0 c 1.004,0 1.7438,-0.42201 2.16654,-1.26605 0.3699,-0.63302 0.52842,-1.5298 0.52842,-2.63759 0,-1.05504 -0.15852,-1.95182 -0.47558,-2.6376 -0.42274,-1.00228 -1.21538,-1.5298 -2.27223,-1.5298 -0.89832,0 -1.63812,0.42202 -2.1137,1.26605 -0.3699,0.63302 -0.52843,1.58255 -0.52843,2.7431 0,0.89678 0.10569,1.6353 0.31706,2.26832 0.42274,1.2133 1.21538,1.79357 2.37792,1.79357 l 0,0 z m -0.0529,-7.17425 0,0 c 0.52842,0 0.95116,0.26376 1.21538,0.68576 0.31705,0.47477 0.47558,1.3188 0.47558,2.5321 0,0.89678 -0.10568,1.6353 -0.31706,2.21558 -0.21137,0.58027 -0.6341,0.84403 -1.26822,0.84403 -0.58127,0 -1.004,-0.26376 -1.32106,-0.79128 -0.26422,-0.58027 -0.3699,-1.37155 -0.3699,-2.42659 0,-0.79128 0.0529,-1.4243 0.26421,-1.95182 0.26422,-0.73852 0.68695,-1.10778 1.32107,-1.10778 l 0,0 z"
   id="path3669"
   style="fill:#000000;fill-opacity:1;fill-rule:evenodd;stroke:none" /><path
   d="m 407.72679,176.33541 0,0 c 1.00401,0 1.7438,-0.42201 2.21939,-1.26605 0.36989,-0.63302 0.52842,-1.5298 0.52842,-2.63759 0,-1.05504 -0.15853,-1.95182 -0.47558,-2.6376 -0.47558,-1.00228 -1.21538,-1.5298 -2.27223,-1.5298 -0.95117,0 -1.63812,0.42202 -2.1137,1.26605 -0.3699,0.63302 -0.58127,1.58255 -0.58127,2.7431 0,0.89678 0.10568,1.6353 0.3699,2.26832 0.42274,1.2133 1.21538,1.79357 2.32507,1.79357 l 0,0 z m 0,-7.17425 0,0 c 0.52843,0 0.89832,0.26376 1.21538,0.68576 0.31705,0.47477 0.47558,1.3188 0.47558,2.5321 0,0.89678 -0.10569,1.6353 -0.36989,2.21558 -0.21137,0.58027 -0.63412,0.84403 -1.26823,0.84403 -0.58126,0 -1.00401,-0.26376 -1.26821,-0.79128 -0.26422,-0.58027 -0.42275,-1.37155 -0.42275,-2.42659 0,-0.79128 0.10569,-1.4243 0.26422,-1.95182 0.26421,-0.73852 0.73979,-1.10778 1.3739,-1.10778 l 0,0 z"
   id="path3671"
   style="fill:#000000;fill-opacity:1;fill-rule:evenodd;stroke:none" /><path
   d="m 156.93616,180.92483 0,0 2.43076,0 m 242.1773,0 0,0 -2.4836,0"
   id="path3673"
   style="fill:none;stroke:#000000;stroke-width:0.31705517px;stroke-linecap:butt;stroke-linejoin:round;stroke-opacity:1;stroke-dasharray:none" /><path
   d="m 140.34361,182.29637 0,0 0,0.79128 c 0.73979,0.0527 1.21538,0.15826 1.47959,0.31651 0.31705,0.15826 0.52842,0.58028 0.63411,1.16055 l 0.79264,0 0,-7.80728 -1.05685,0 0,5.53894 -1.84949,0 z"
   id="path3675"
   style="fill:#000000;fill-opacity:1;fill-rule:evenodd;stroke:none" /><path
   d="m 146.52618,177.97072 0,0 1.1097,0 0,-1.21329 -1.1097,0 0,1.21329 z"
   id="path3677"
   style="fill:#000000;fill-opacity:1;fill-rule:evenodd;stroke:none" /><path
   d="m 149.74958,182.29637 0,0 0,0.79128 c 0.73979,0.0527 1.21538,0.15826 1.47959,0.31651 0.31705,0.15826 0.52842,0.58028 0.63411,1.16055 l 0.79264,0 0,-7.80728 -1.05685,0 0,5.53894 -1.84949,0 z"
   id="path3679"
   style="fill:#000000;fill-opacity:1;fill-rule:evenodd;stroke:none" /><path
   d="m 156.93616,202.23659 0,0 2.43076,0 m 242.1773,0 0,0 -2.4836,0"
   id="path3681"
   style="fill:none;stroke:#000000;stroke-width:0.31705517px;stroke-linecap:butt;stroke-linejoin:round;stroke-opacity:1;stroke-dasharray:none" /><path
   d="m 140.34361,203.66089 0,0 0,0.73853 c 0.73979,0.1055 1.21538,0.21101 1.47959,0.36926 0.31705,0.15826 0.52842,0.52752 0.63411,1.16055 l 0.79264,0 0,-7.86004 -1.05685,0 0,5.5917 -1.84949,0 z"
   id="path3683"
   style="fill:#000000;fill-opacity:1;fill-rule:evenodd;stroke:none" /><path
   d="m 146.52618,199.28248 0,0 1.1097,0 0,-1.21329 -1.1097,0 0,1.21329 z"
   id="path3685"
   style="fill:#000000;fill-opacity:1;fill-rule:evenodd;stroke:none" /><path
   d="m 149.00978,198.06919 0,0 c 0.0528,0.68577 0.21137,1.26605 0.42274,1.79357 0.26421,0.47476 0.7398,0.94953 1.42675,1.37155 l 1.05685,0.58027 c 0.47558,0.3165 0.79264,0.52751 1.00401,0.73852 0.31705,0.26376 0.47558,0.63302 0.47558,1.00229 0,0.47477 -0.15853,0.84403 -0.42274,1.10779 -0.26421,0.26376 -0.63411,0.42202 -1.10969,0.42202 -0.68696,0 -1.16254,-0.26376 -1.42675,-0.79128 -0.10569,-0.26376 -0.21137,-0.63303 -0.21137,-1.16055 l -1.00401,0 c 0,0.68578 0.15853,1.26605 0.3699,1.68807 0.42274,0.79128 1.21538,1.16054 2.27223,1.16054 0.89832,0 1.58527,-0.26376 1.95517,-0.73853 0.42274,-0.47477 0.63411,-1.00229 0.63411,-1.63531 0,-0.63302 -0.21137,-1.16054 -0.63411,-1.58255 -0.26421,-0.26376 -0.73979,-0.58027 -1.3739,-0.94954 l -0.79264,-0.42201 c -0.31706,-0.21101 -0.63411,-0.36927 -0.84548,-0.58028 -0.3699,-0.31651 -0.58127,-0.68577 -0.68696,-1.05504 l 4.33309,0 0,-0.94953 -5.44278,0 z"
   id="path3687"
   style="fill:#000000;fill-opacity:1;fill-rule:evenodd;stroke:none" /><path
   d="m 156.93616,223.54836 0,0 2.43076,0 m 242.1773,0 0,0 -2.4836,0"
   id="path3689"
   style="fill:none;stroke:#000000;stroke-width:0.31705517px;stroke-linecap:butt;stroke-linejoin:round;stroke-opacity:1;stroke-dasharray:none" /><path
   d="m 140.34361,224.91991 0,0 0,0.79128 c 0.73979,0.0527 1.21538,0.15825 1.47959,0.31651 0.31705,0.15826 0.52842,0.58026 0.63411,1.16054 l 0.79264,0 0,-7.80728 -1.05685,0 0,5.53895 -1.84949,0 z"
   id="path3691"
   style="fill:#000000;fill-opacity:1;fill-rule:evenodd;stroke:none" /><path
   d="m 146.52618,220.5415 0,0 1.1097,0 0,-1.16054 -1.1097,0 0,1.16054 z"
   id="path3693"
   style="fill:#000000;fill-opacity:1;fill-rule:evenodd;stroke:none" /><path
   d="m 151.59907,219.16995 0,0 c -0.95117,0 -1.58528,0.21101 -2.00802,0.73853 -0.42274,0.52752 -0.63411,1.16054 -0.63411,1.84632 l 1.00401,0 c 0.0528,-0.47477 0.15852,-0.84404 0.31705,-1.1078 0.26422,-0.36926 0.68696,-0.58027 1.37391,-0.58027 0.52842,0 0.95116,0.10551 1.26822,0.42202 0.31705,0.26376 0.47558,0.63302 0.47558,1.05504 0,0.52752 -0.15853,0.89677 -0.52842,1.16053 -0.31706,0.21101 -0.79264,0.31652 -1.37391,0.31652 -0.0528,0 -0.10568,0 -0.21137,0 -0.0528,0 -0.10569,0 -0.21137,-0.0527 l 0,0.89678 c 0.10568,0 0.21137,0 0.26421,0 0.10569,0 0.15853,-0.0527 0.26422,-0.0527 0.36989,0 0.63411,0.1055 0.89832,0.21101 0.42274,0.21101 0.63411,0.58027 0.63411,1.10779 0,0.36926 -0.15853,0.68578 -0.42274,0.89678 -0.26421,0.21101 -0.63411,0.31651 -1.00401,0.31651 -0.63411,0 -1.10969,-0.211 -1.37391,-0.68577 -0.10568,-0.21101 -0.21137,-0.58027 -0.21137,-1.00229 l -1.004,0 c 0,0.58027 0.15852,1.05504 0.36989,1.47706 0.42274,0.73852 1.1097,1.10778 2.11371,1.10778 0.84548,0 1.42674,-0.21101 1.90233,-0.52752 0.42274,-0.36926 0.63411,-0.89677 0.63411,-1.58255 0,-0.47477 -0.10569,-0.84403 -0.3699,-1.16054 -0.15853,-0.15826 -0.3699,-0.31652 -0.63411,-0.42202 0.42274,-0.1055 0.73979,-0.36926 0.95116,-0.68578 0.26422,-0.31651 0.3699,-0.68576 0.3699,-1.16053 0,-0.73853 -0.26421,-1.37155 -0.73979,-1.84632 -0.52843,-0.47477 -1.21538,-0.68578 -2.1137,-0.68578 l 0,0 z"
   id="path3695"
   style="fill:#000000;fill-opacity:1;fill-rule:evenodd;stroke:none" /><path
   d="m 156.93616,244.80737 0,0 2.43076,0 m 242.1773,0 0,0 -2.4836,0"
   id="path3697"
   style="fill:none;stroke:#000000;stroke-width:0.31705517px;stroke-linecap:butt;stroke-linejoin:round;stroke-opacity:1;stroke-dasharray:none" /><path
   d="m 140.34361,246.23168 0,0 0,0.73852 c 0.73979,0.0527 1.21538,0.15825 1.47959,0.31651 0.31705,0.21101 0.52842,0.58027 0.63411,1.16054 l 0.79264,0 0,-7.80728 -1.05685,0 0,5.59171 -1.84949,0 z"
   id="path3699"
   style="fill:#000000;fill-opacity:1;fill-rule:evenodd;stroke:none" /><path
   d="m 146.52618,241.85327 0,0 1.1097,0 0,-1.2133 -1.1097,0 0,1.2133 z"
   id="path3701"
   style="fill:#000000;fill-opacity:1;fill-rule:evenodd;stroke:none" /><path
   d="m 152.3917,243.43582 0,0 0,3.53438 -2.53644,-3.53438 2.53644,0 z m 0,-2.79585 0,0 0,1.89907 -3.43476,0 0,1.00228 3.59329,4.95868 0.84548,0 0,-5.06418 1.16254,0 0,-0.89678 -1.16254,0 0,-1.89907 -1.00401,0 z"
   id="path3703"
   style="fill:#000000;fill-opacity:1;fill-rule:evenodd;stroke:none" /><path
   d="m 156.93616,266.06639 0,0 2.43076,0 m 242.1773,0 0,0 -2.4836,0"
   id="path3705"
   style="fill:none;stroke:#000000;stroke-width:0.31705517px;stroke-linecap:butt;stroke-linejoin:round;stroke-opacity:1;stroke-dasharray:none" /><path
   d="m 140.34361,267.49068 0,0 0,0.73853 c 0.73979,0.10551 1.21538,0.21101 1.47959,0.36927 0.31705,0.15825 0.52842,0.52752 0.63411,1.16054 l 0.79264,0 0,-7.86003 -1.05685,0 0,5.59169 -1.84949,0 z"
   id="path3707"
   style="fill:#000000;fill-opacity:1;fill-rule:evenodd;stroke:none" /><path
   d="m 146.52618,263.11228 0,0 1.1097,0 0,-1.21329 -1.1097,0 0,1.21329 z"
   id="path3709"
   style="fill:#000000;fill-opacity:1;fill-rule:evenodd;stroke:none" /><path
   d="m 150.06663,263.90356 0,0 c 0.0528,-0.52752 0.31706,-0.94954 0.79264,-1.16055 0.21137,-0.1055 0.47558,-0.15825 0.79264,-0.15825 0.58127,0 1.05685,0.211 1.32106,0.58027 0.26421,0.36926 0.42274,0.79128 0.42274,1.21329 0,0.58028 -0.15853,1.00229 -0.52842,1.26605 -0.31706,0.31651 -0.7398,0.47477 -1.16254,0.47477 -0.3699,0 -0.63411,-0.0527 -0.89832,-0.21101 -0.26421,-0.1055 -0.47559,-0.31651 -0.63411,-0.52752 l -0.84548,0.0527 0.58126,4.22015 4.12172,0 0,-0.94953 -3.38192,0 -0.31706,-2.21558 c 0.15853,0.15826 0.3699,0.26375 0.52843,0.31651 0.26421,0.15825 0.63411,0.211 1.00401,0.211 0.73979,0 1.32106,-0.26376 1.84949,-0.73852 0.47558,-0.42201 0.73979,-1.00228 0.73979,-1.74081 0,-0.73853 -0.21137,-1.37155 -0.68695,-1.95182 -0.47558,-0.58027 -1.21538,-0.84403 -2.21939,-0.84403 -0.63411,0 -1.21538,0.15826 -1.69096,0.52752 -0.47558,0.36926 -0.73979,0.89678 -0.79264,1.6353 l 1.00401,0 z"
   id="path3711"
   style="fill:#000000;fill-opacity:1;fill-rule:evenodd;stroke:none" /><path
   d="m 156.93616,287.37815 0,0 2.43076,0 m 242.1773,0 0,0 -2.4836,0"
   id="path3713"
   style="fill:none;stroke:#000000;stroke-width:0.31705517px;stroke-linecap:butt;stroke-linejoin:round;stroke-opacity:1;stroke-dasharray:none" /><path
   d="m 140.34361,288.7497 0,0 0,0.79128 c 0.73979,0.0527 1.21538,0.15826 1.47959,0.31651 0.31705,0.15826 0.52842,0.58027 0.63411,1.16054 l 0.79264,0 0,-7.80728 -1.05685,0 0,5.53895 -1.84949,0 z"
   id="path3715"
   style="fill:#000000;fill-opacity:1;fill-rule:evenodd;stroke:none" /><path
   d="m 146.52618,284.37129 0,0 1.1097,0 0,-1.16054 -1.1097,0 0,1.16054 z"
   id="path3717"
   style="fill:#000000;fill-opacity:1;fill-rule:evenodd;stroke:none" /><path
   d="m 151.96896,291.07078 0,0 c 0.89833,0 1.47959,-0.211 1.84949,-0.68577 0.31706,-0.42201 0.52843,-0.89678 0.52843,-1.37155 l -1.00401,0 c -0.0528,0.31651 -0.15853,0.52752 -0.26421,0.68578 -0.26422,0.36926 -0.63411,0.52752 -1.1097,0.52752 -0.52842,0 -1.004,-0.26376 -1.32106,-0.79128 -0.31706,-0.47477 -0.47558,-1.2133 -0.52843,-2.16284 0.21137,0.31652 0.52843,0.58028 0.84549,0.73853 0.31705,0.15826 0.68695,0.21101 1.05685,0.21101 0.68695,0 1.26822,-0.21101 1.7438,-0.63302 0.47558,-0.42202 0.73979,-1.05504 0.73979,-1.89907 0,-0.68577 -0.26421,-1.3188 -0.68695,-1.84632 -0.47558,-0.58027 -1.16253,-0.84403 -2.00801,-0.84403 -0.7398,0 -1.37391,0.26376 -1.90234,0.84403 -0.52842,0.52752 -0.79263,1.47706 -0.79263,2.79586 0,1.00228 0.10568,1.79356 0.31705,2.47933 0.47558,1.3188 1.32106,1.95182 2.53644,1.95182 l 0,0 z m -0.0528,-7.17426 0,0 c 0.47559,0 0.89833,0.15826 1.16254,0.47477 0.26421,0.36927 0.3699,0.79128 0.3699,1.26605 0,0.42202 -0.10569,0.79128 -0.3699,1.16054 -0.21137,0.36926 -0.63411,0.52752 -1.21538,0.52752 -0.42274,0 -0.79264,-0.15826 -1.16254,-0.42202 -0.31705,-0.26375 -0.47558,-0.68577 -0.47558,-1.26604 0,-0.52752 0.15853,-0.89678 0.47558,-1.26605 0.26422,-0.31651 0.68696,-0.47477 1.21538,-0.47477 l 0,0 z"
   id="path3719"
   style="fill:#000000;fill-opacity:1;fill-rule:evenodd;stroke:none" /><path
   d="m 156.93616,308.63716 0,0 2.43076,0 m 242.1773,0 0,0 -2.4836,0"
   id="path3721"
   style="fill:none;stroke:#000000;stroke-width:0.31705517px;stroke-linecap:butt;stroke-linejoin:round;stroke-opacity:1;stroke-dasharray:none" /><path
   d="m 140.34361,310.06147 0,0 0,0.73852 c 0.73979,0.0528 1.21538,0.15826 1.47959,0.31651 0.31705,0.21101 0.52842,0.58027 0.63411,1.16055 l 0.79264,0 0,-7.80729 -1.05685,0 0,5.59171 -1.84949,0 z"
   id="path3723"
   style="fill:#000000;fill-opacity:1;fill-rule:evenodd;stroke:none" /><path
   d="m 146.52618,305.68306 0,0 1.1097,0 0,-1.2133 -1.1097,0 0,1.2133 z"
   id="path3725"
   style="fill:#000000;fill-opacity:1;fill-rule:evenodd;stroke:none" /><path
   d="m 154.55825,312.17154 0,0 0,-0.84403 c -0.26422,-0.21101 -0.58127,-0.68577 -1.00401,-1.26604 -0.42274,-0.63303 -0.79264,-1.26605 -1.10969,-1.95183 -0.31706,-0.68577 -0.58127,-1.31879 -0.7398,-1.89906 -0.10568,-0.36926 -0.21137,-0.94954 -0.42274,-1.74082 l -1.05685,0 c 0.21137,1.47706 0.79264,3.00686 1.63812,4.48392 0.47558,0.84403 1.00401,1.6353 1.58527,2.26833 l -4.38593,0 0,0.94953 5.49563,0 z"
   id="path3727"
   style="fill:#000000;fill-opacity:1;fill-rule:evenodd;stroke:none" /><path
   d="m 156.93616,329.89618 0,0 2.43076,0 m 242.1773,0 0,0 -2.4836,0"
   id="path3729"
   style="fill:none;stroke:#000000;stroke-width:0.31705517px;stroke-linecap:butt;stroke-linejoin:round;stroke-opacity:1;stroke-dasharray:none" /><path
   d="m 140.34361,331.32048 0,0 0,0.73853 c 0.73979,0.1055 1.21538,0.211 1.47959,0.36926 0.31705,0.15826 0.52842,0.52752 0.63411,1.16054 l 0.79264,0 0,-7.86003 -1.05685,0 0,5.5917 -1.84949,0 z"
   id="path3731"
   style="fill:#000000;fill-opacity:1;fill-rule:evenodd;stroke:none" /><path
   d="m 146.52618,326.94207 0,0 1.1097,0 0,-1.21329 -1.1097,0 0,1.21329 z"
   id="path3733"
   style="fill:#000000;fill-opacity:1;fill-rule:evenodd;stroke:none" /><path
   d="m 151.75759,330.31819 0,0 c 0.42274,0 0.7398,0.10551 1.00401,0.36927 0.26421,0.211 0.3699,0.52752 0.3699,0.84403 0,0.31651 -0.10569,0.58027 -0.3699,0.84403 -0.21137,0.21101 -0.58127,0.36926 -1.05685,0.36926 -0.47558,0 -0.84548,-0.15825 -1.05685,-0.36926 -0.21137,-0.26376 -0.31706,-0.52752 -0.31706,-0.89678 0,-0.36927 0.15853,-0.63303 0.42274,-0.84403 0.26422,-0.21101 0.63412,-0.31652 1.00401,-0.31652 l 0,0 z m 0.0528,-3.90364 0,0 c 0.42274,0 0.84548,0.15826 1.1097,0.36927 0.31705,0.26376 0.47558,0.63302 0.47558,1.10779 0,0.52752 -0.15853,0.89678 -0.47558,1.16054 -0.31706,0.26376 -0.68696,0.42201 -1.21538,0.42201 -0.47558,0 -0.84548,-0.15825 -1.16254,-0.42201 -0.26421,-0.26376 -0.42274,-0.63302 -0.42274,-1.10779 0,-0.42202 0.15853,-0.79128 0.42274,-1.05504 0.26421,-0.31651 0.68696,-0.47477 1.26822,-0.47477 l 0,0 z m -1.42675,3.53438 0,0 c -0.26421,0.1055 -0.47558,0.26376 -0.63411,0.42202 -0.31705,0.26376 -0.42274,0.63302 -0.42274,1.10779 0,0.58027 0.21137,1.10779 0.63411,1.5298 0.42274,0.42202 1.00401,0.63302 1.79665,0.63302 0.7398,0 1.32106,-0.211 1.79665,-0.63302 0.42274,-0.36926 0.63411,-0.84403 0.63411,-1.37155 0,-0.47477 -0.15853,-0.89678 -0.3699,-1.16054 -0.15853,-0.21101 -0.3699,-0.36926 -0.68695,-0.52752 0.36989,-0.15825 0.58126,-0.31651 0.79263,-0.52752 0.3699,-0.36926 0.52843,-0.84403 0.52843,-1.4243 0,-0.68577 -0.26421,-1.26605 -0.68695,-1.74081 -0.47559,-0.47477 -1.16254,-0.73853 -2.00802,-0.73853 -0.73979,0 -1.37391,0.21101 -1.90233,0.63302 -0.52843,0.42202 -0.79264,1.00229 -0.79264,1.79357 0,0.47477 0.10569,0.89678 0.31706,1.21329 0.21137,0.31651 0.58126,0.58027 1.004,0.79128 l 0,0 z"
   id="path3735"
   style="fill:#000000;fill-opacity:1;fill-rule:evenodd;stroke:none" /><path
   d="m 156.93616,351.20794 0,0 2.43076,0 m 242.1773,0 0,0 -2.4836,0"
   id="path3737"
   style="fill:none;stroke:#000000;stroke-width:0.31705517px;stroke-linecap:butt;stroke-linejoin:round;stroke-opacity:1;stroke-dasharray:none" /><path
   d="m 140.34361,352.57949 0,0 0,0.79128 c 0.73979,0.0528 1.21538,0.15826 1.47959,0.31651 0.31705,0.15826 0.52842,0.58027 0.63411,1.16055 l 0.79264,0 0,-7.80729 -1.05685,0 0,5.53895 -1.84949,0 z"
   id="path3739"
   style="fill:#000000;fill-opacity:1;fill-rule:evenodd;stroke:none" /><path
   d="m 146.52618,348.20109 0,0 1.1097,0 0,-1.16055 -1.1097,0 0,1.16055 z"
   id="path3741"
   style="fill:#000000;fill-opacity:1;fill-rule:evenodd;stroke:none" /><path
   d="m 150.17232,348.93961 0,0 c 0,-0.58027 0.21137,-0.94953 0.63411,-1.16054 0.21137,-0.1055 0.42274,-0.15825 0.68695,-0.15825 0.47558,0 0.84548,0.211 1.21538,0.58027 0.31705,0.42201 0.52842,1.21329 0.68695,2.42658 -0.21137,-0.36926 -0.47558,-0.58027 -0.79264,-0.73852 -0.31705,-0.15826 -0.68695,-0.21101 -1.05685,-0.21101 -0.79264,0 -1.3739,0.21101 -1.79664,0.68577 -0.47559,0.47477 -0.68696,1.10779 -0.68696,1.84632 0,0.68577 0.21137,1.3188 0.68696,1.84632 0.42274,0.58027 1.05685,0.84403 1.90233,0.84403 1.16253,0 1.95517,-0.52752 2.37791,-1.52981 0.26421,-0.58027 0.3699,-1.3188 0.3699,-2.16283 0,-0.94953 -0.15853,-1.79356 -0.42274,-2.53209 -0.47558,-1.26604 -1.32106,-1.84631 -2.43076,-1.84631 -0.79264,0 -1.3739,0.15825 -1.79664,0.58027 -0.3699,0.42201 -0.58127,0.89678 -0.58127,1.5298 l 1.00401,0 z m 1.47959,1.58256 0,0 c 0.42274,0 0.79264,0.15826 1.10969,0.42201 0.31706,0.26376 0.47558,0.68578 0.47558,1.3188 0,0.58027 -0.15852,1.00229 -0.42274,1.3188 -0.31705,0.26376 -0.68695,0.42202 -1.10969,0.42202 -0.52843,0 -0.89832,-0.15826 -1.16253,-0.47477 -0.31706,-0.36927 -0.42275,-0.79128 -0.42275,-1.3188 0,-0.52752 0.10569,-0.89678 0.3699,-1.21329 0.21137,-0.31651 0.63411,-0.47477 1.16254,-0.47477 l 0,0 z"
   id="path3743"
   style="fill:#000000;fill-opacity:1;fill-rule:evenodd;stroke:none" /><path
   d="m 156.93616,180.92483 0,0 244.60806,0 m -244.60806,191.59488 0,0 244.60806,0 m -244.60806,-191.59488 0,0 0,191.59488 m 244.60806,-191.59488 0,0 0,191.59488"
   id="path3745"
   style="fill:none;stroke:#000000;stroke-width:0.31705517px;stroke-linecap:butt;stroke-linejoin:round;stroke-opacity:1;stroke-dasharray:none" /></g></g></svg>